<svg width="55" height="47" viewBox="0 0 55 47" fill="none" xmlns="http://www.w3.org/2000/svg">
<path opacity="0.5" d="M17.304 45.704C15.896 45.704 14.9147 45.4267 14.36 44.872C13.8053 44.2747 13.528 43.2507 13.528 41.8V4.68C13.528 3.272 13.8053 2.29066 14.36 1.736C14.9147 1.18133 15.9173 0.903999 17.368 0.903999C18.776 0.903999 19.7573 1.20267 20.312 1.8C20.8667 2.35466 21.144 3.35733 21.144 4.808V41.864C21.144 43.272 20.8667 44.2747 20.312 44.872C19.7573 45.4267 18.7547 45.704 17.304 45.704ZM7.448 17.608C6.46667 18.504 5.592 18.952 4.824 18.952C4.056 18.9093 3.20267 18.376 2.264 17.352C1.368 16.3707 0.941333 15.4533 0.984 14.6C1.06933 13.7467 1.66667 12.8293 2.776 11.848L13.72 2.184C14.7013 1.33067 15.576 0.946665 16.344 1.032C17.1547 1.07466 18.008 1.58666 18.904 2.568C19.8427 3.54933 20.2693 4.46666 20.184 5.32C20.0987 6.17333 19.48 7.09067 18.328 8.072L7.448 17.608ZM39.6205 46.088C37.9992 46.088 36.5272 45.9387 35.2045 45.64C33.9245 45.3413 32.7725 44.9573 31.7485 44.488C30.7672 44.0187 29.9352 43.5707 29.2525 43.144C28.5698 42.6747 28.0152 42.2693 27.5885 41.928C27.0765 41.5013 26.6285 41.096 26.2445 40.712C25.9032 40.2853 25.7325 39.7947 25.7325 39.24C25.7325 38.8133 25.8392 38.3867 26.0525 37.96C26.3085 37.4907 26.7138 36.9573 27.2685 36.36C27.7378 35.7627 28.1858 35.336 28.6125 35.08C29.0818 34.824 29.5298 34.696 29.9565 34.696C30.3405 34.696 30.7458 34.8027 31.1725 35.016C31.6418 35.2293 32.2178 35.6133 32.9005 36.168C33.2418 36.4667 33.6472 36.7867 34.1165 37.128C34.6285 37.4267 35.2898 37.704 36.1005 37.96C36.9112 38.1733 37.9565 38.28 39.2365 38.28C40.6872 38.28 41.9458 38.0027 43.0125 37.448C44.0792 36.8933 44.8898 36.104 45.4445 35.08C46.0418 34.056 46.3405 32.8187 46.3405 31.368C46.3405 30.0027 46.0418 28.808 45.4445 27.784C44.8472 26.7173 44.0152 25.8853 42.9485 25.288C41.9245 24.6907 40.7512 24.392 39.4285 24.392C38.7885 24.392 38.1698 24.4773 37.5725 24.648C36.9752 24.8187 36.4418 25.032 35.9725 25.288C35.5458 25.544 35.1832 25.8213 34.8845 26.12C34.5432 26.4187 34.2018 26.6747 33.8605 26.888C33.5618 27.1013 33.1565 27.2293 32.6445 27.272C32.1752 27.3573 31.6845 27.3573 31.1725 27.272C30.7032 27.144 30.1058 26.9307 29.3805 26.632C28.4418 26.1627 27.7592 25.736 27.3325 25.352C26.9058 24.968 26.6925 24.4773 26.6925 23.88L29.3165 4.744C29.4018 4.232 29.5298 3.67733 29.7005 3.08C29.9138 2.44 30.2765 1.90667 30.7885 1.48C31.3432 1.01066 32.1538 0.79733 33.2205 0.839996H49.2205C49.9032 0.839996 50.5218 0.92533 51.0765 1.096C51.6312 1.224 52.0792 1.56533 52.4205 2.12C52.7618 2.67467 52.9325 3.57067 52.9325 4.808C52.9325 5.96 52.7618 6.792 52.4205 7.304C52.1218 7.816 51.6952 8.136 51.1405 8.264C50.6285 8.392 50.0312 8.456 49.3485 8.456H36.6765L35.2685 18.056C35.6952 17.7573 36.1432 17.5227 36.6125 17.352C37.0818 17.1387 37.5512 16.9893 38.0205 16.904C38.5325 16.776 39.0232 16.712 39.4925 16.712H39.9405C41.8178 16.712 43.6098 17.096 45.3165 17.864C47.0232 18.5893 48.5378 19.6133 49.8605 20.936C51.1832 22.2587 52.2285 23.7733 52.9965 25.48C53.7645 27.1867 54.1485 29 54.1485 30.92C54.1485 33.8213 53.5085 36.424 52.2285 38.728C50.9485 40.9893 49.2205 42.7813 47.0445 44.104C44.8685 45.4267 42.3938 46.088 39.6205 46.088Z" fill="#C1E1EE"/>
</svg>
