<svg width="1140" height="44" viewBox="0 0 1140 44" fill="none" xmlns="http://www.w3.org/2000/svg">
<path d="M32.9239 19.6108C32.3673 20.17 31.9411 20.845 31.6756 21.5874C31.4101 22.33 31.3119 23.1218 31.3878 23.9066L31.3614 23.8802C31.4395 24.8041 31.3147 25.7337 30.9958 26.6044C30.677 27.475 30.1718 28.2657 29.5155 28.9213C28.8591 29.5768 28.0674 30.0815 27.1955 30.3997C26.3237 30.7181 25.3928 30.8428 24.4679 30.7648L24.4943 30.7912C23.3879 30.6884 22.2766 30.9287 21.3119 31.4798C20.3474 32.0308 19.5764 32.8655 19.1042 33.8701C18.6321 34.8748 18.4815 36.0003 18.6733 37.0936C18.8653 38.1867 19.39 39.1941 20.1761 39.9785C20.9623 40.7629 21.9715 41.2861 23.0661 41.4766C24.161 41.6672 25.2878 41.5159 26.2933 41.0435C27.2988 40.5709 28.1339 39.8003 28.6847 38.8364C29.2356 37.8725 29.4754 36.7626 29.3714 35.6576L29.3993 35.684C29.3212 34.7603 29.4459 33.8305 29.7647 32.9598C30.0836 32.0892 30.5889 31.2985 31.2452 30.6429C31.9016 29.9874 32.6934 29.4828 33.5651 29.1645C34.437 28.8461 35.3678 28.7214 36.2928 28.7994L36.2649 28.773C37.1687 28.8541 38.0785 28.7062 38.9098 28.3427C39.741 27.9793 40.4671 27.4121 41.0204 26.6939C41.5738 25.9757 41.9368 25.1294 42.0755 24.2339C42.2142 23.3382 42.1244 22.4221 41.8142 21.5702C41.504 20.7185 40.9836 19.9588 40.3011 19.3614C39.6187 18.7641 38.7963 18.3484 37.9102 18.1531C37.024 17.9577 36.1028 17.9888 35.2319 18.2435C34.3611 18.4985 33.5688 18.9687 32.9283 19.6108H32.9239Z" fill="#919191"/>
<path d="M22.0902 27.3328L22.0623 27.3064C22.8485 27.3855 23.6424 27.2891 24.3868 27.0242C25.1311 26.7594 25.8072 26.3327 26.3661 25.7749C26.9249 25.2172 27.3529 24.5422 27.6185 23.799C27.8844 23.0559 27.9814 22.2631 27.9029 21.4779L27.9308 21.5043C27.8526 20.5804 27.9775 19.6509 28.2961 18.7801C28.615 17.9095 29.1203 17.1188 29.7766 16.4632C30.4331 15.8078 31.2248 15.3031 32.0965 14.9848C32.9684 14.6663 33.8992 14.5418 34.8242 14.6198L34.7963 14.5934C35.9029 14.6972 37.0145 14.4575 37.9796 13.9071C38.9449 13.3567 39.7165 12.5224 40.1894 11.5179C40.6622 10.5134 40.8134 9.38773 40.6222 8.29432C40.4309 7.2009 39.9067 6.19304 39.1207 5.40817C38.3349 4.62331 37.3256 4.09965 36.2308 3.90866C35.136 3.71766 34.0089 3.86859 33.0031 4.34089C31.9972 4.81317 31.1619 5.58383 30.6108 6.54774C30.0596 7.51163 29.8196 8.62185 29.9236 9.72696L29.8972 9.69909C29.9754 10.6229 29.8509 11.5527 29.5322 12.4235C29.2136 13.2943 28.7082 14.0851 28.0519 14.7408C27.3955 15.3962 26.6036 15.9009 25.7317 16.2192C24.8597 16.5374 23.9288 16.6618 23.0037 16.5836L23.0301 16.6115C22.244 16.5324 21.45 16.6288 20.7057 16.8937C19.9614 17.1584 19.2853 17.5852 18.7263 18.143C18.1674 18.7008 17.7396 19.3757 17.4738 20.1189C17.2081 20.862 17.1111 21.6548 17.1896 22.44L17.1632 22.4136C17.241 23.3373 17.1161 24.2669 16.7972 25.1375C16.4783 26.008 15.9731 26.7987 15.3168 27.4541C14.6604 28.1096 13.8688 28.6141 12.9971 28.9327C12.1254 29.2511 11.1946 29.3759 10.2697 29.2982L10.2962 29.3246C9.18961 29.2207 8.07795 29.4604 7.11279 30.0108C6.14764 30.5612 5.37598 31.3955 4.90309 32.4C4.43018 33.4045 4.27903 34.5302 4.47029 35.6236C4.66154 36.717 5.18588 37.7249 5.97175 38.5097C6.75764 39.2947 7.76682 39.8183 8.86165 40.0092C9.95649 40.2002 11.0837 40.0493 12.0894 39.577C13.0952 39.1047 13.9306 38.3341 14.4817 37.3702C15.0329 36.4062 15.2728 35.2961 15.1689 34.191L15.1968 34.2174C15.1186 33.2935 15.2435 32.3639 15.5623 31.4932C15.881 30.6226 16.3863 29.8319 17.0426 29.1763C17.6991 28.5208 18.4908 28.0161 19.3625 27.6979C20.2344 27.3795 21.1652 27.2548 22.0902 27.3328Z" fill="#919191"/>
<path d="M12.2479 24.3892C12.8045 23.8301 13.2307 23.1552 13.4959 22.4126C13.7612 21.67 13.8591 20.878 13.7826 20.0934L13.8104 20.1198C13.7323 19.1958 13.8571 18.2657 14.1761 17.3948C14.4951 16.5239 15.0006 15.7331 15.6573 15.0775C16.3141 14.4219 17.1061 13.9174 17.9783 13.5992C18.8504 13.281 19.7817 13.1568 20.7069 13.2352L20.679 13.2088C21.7851 13.3123 22.8964 13.0725 23.8611 12.5222C24.8258 11.9719 25.5969 11.1377 26.0696 10.1336C26.5422 9.1294 26.6932 8.0041 26.502 6.91109C26.3108 5.81809 25.7865 4.81061 25.001 4.02603C24.2154 3.24145 23.2065 2.71797 22.1121 2.52698C21.0178 2.33597 19.8909 2.48678 18.8855 2.95878C17.88 3.43078 17.0448 4.20103 16.4938 5.16448C15.9427 6.12794 15.7026 7.23771 15.8062 8.34243L15.7798 8.31603C15.8579 9.23981 15.7331 10.1695 15.4143 11.0402C15.0955 11.9108 14.5903 12.7015 13.9339 13.3571C13.2775 14.0126 12.4858 14.5172 11.614 14.8355C10.7422 15.1539 9.81132 15.2786 8.88634 15.2006L8.91277 15.227C8.00897 15.146 7.09932 15.2943 6.26814 15.6579C5.43695 16.0215 4.71111 16.5888 4.15789 17.3071C3.60466 18.0254 3.24195 18.8716 3.10335 19.7672C2.96476 20.6629 3.05477 21.5789 3.36503 22.4305C3.6753 23.2822 4.19581 24.0418 4.87829 24.639C5.56078 25.2364 6.38318 25.6519 7.26929 25.8472C8.15538 26.0425 9.07652 26.0112 9.94733 25.7565C10.8181 25.5015 11.6104 25.0313 12.2508 24.3892H12.2479Z" fill="#919191"/>
<path d="M57.7398 9.76068H62.1015V30.9584H57.7398V9.76068Z" fill="#919191"/>
<path d="M64.5716 23.6999C64.5656 22.1766 65.0123 20.6856 65.8553 19.4161C66.6983 18.1465 67.8995 17.1553 69.307 16.5682C70.7145 15.981 72.2647 15.8242 73.7615 16.1177C75.2583 16.4111 76.6342 17.1415 77.7149 18.2166C78.7956 19.2915 79.5325 20.6627 79.8324 22.1564C80.1323 23.65 79.9815 25.199 79.3992 26.607C78.8169 28.0148 77.8293 29.2187 76.5615 30.0655C75.2935 30.9125 73.8026 31.3647 72.2772 31.3647C71.2648 31.3763 70.2601 31.1861 69.322 30.8053C68.3839 30.4246 67.5312 29.8609 66.8138 29.1474C66.0963 28.4337 65.5285 27.5844 65.1436 26.6491C64.7586 25.7138 64.5641 24.7112 64.5716 23.6999ZM75.6211 23.6999C75.6029 23.0433 75.3913 22.4066 75.0129 21.8693C74.6343 21.3323 74.1056 20.9184 73.4929 20.6797C72.8801 20.441 72.2105 20.3879 71.5677 20.5272C70.9249 20.6665 70.3375 20.9918 69.8789 21.4628C69.4204 21.9336 69.1108 22.5291 68.9894 23.1747C68.8678 23.8202 68.9393 24.4872 69.1953 25.0924C69.4512 25.6975 69.8801 26.2138 70.4281 26.5768C70.9764 26.9398 71.6196 27.1334 72.2772 27.1334C72.7276 27.1454 73.1757 27.064 73.5932 26.8944C74.0106 26.7249 74.3883 26.4709 74.7024 26.1483C75.0165 25.8257 75.2605 25.4416 75.4185 25.0202C75.5767 24.5988 75.6457 24.1493 75.6211 23.6999Z" fill="#919191"/>
<path d="M97.3663 16.4399V30.2266C97.3663 35.1047 93.5568 37.1668 89.6901 37.1668C88.3287 37.2686 86.9654 36.9939 85.7499 36.3731C84.5345 35.7521 83.5137 34.8089 82.7995 33.6468L86.5209 31.4982C86.8211 32.1039 87.2994 32.6036 87.8917 32.9305C88.4841 33.2573 89.1623 33.3957 89.8355 33.3271C90.2657 33.3866 90.704 33.3488 91.1177 33.2164C91.5312 33.0839 91.9098 32.8603 92.2253 32.5621C92.5407 32.2638 92.7849 31.8986 92.94 31.4932C93.095 31.0879 93.1566 30.6531 93.1207 30.2207V28.8934C92.6099 29.5174 91.9599 30.0133 91.2225 30.3411C90.4852 30.6689 89.6813 30.8195 88.875 30.781C86.9568 30.7205 85.1373 29.9171 83.8018 28.5405C82.4663 27.164 81.7195 25.3225 81.7195 23.4058C81.7195 21.4892 82.4663 19.6476 83.8018 18.2712C85.1373 16.8946 86.9568 16.0911 88.875 16.0307C89.6813 15.9921 90.4852 16.1427 91.2225 16.4705C91.9599 16.7983 92.6099 17.2942 93.1207 17.9183V16.437L97.3663 16.4399ZM93.1221 23.408C93.1515 22.7061 92.9697 22.0113 92.6003 21.4134C92.231 20.8153 91.6908 20.3414 91.0495 20.0526C90.4082 19.7637 89.6951 19.6732 89.0018 19.7925C88.3084 19.9119 87.6668 20.2358 87.1593 20.7226C86.6519 21.2092 86.3019 21.8363 86.1543 22.5233C86.0069 23.2103 86.0686 23.9258 86.3317 24.5774C86.5948 25.229 87.0471 25.7873 87.6304 26.18C88.2137 26.5728 88.9014 26.7822 89.6049 26.7814C90.0632 26.8133 90.523 26.7491 90.9549 26.5927C91.3869 26.4364 91.7812 26.1913 92.1125 25.8736C92.4438 25.5558 92.7049 25.1723 92.8788 24.7475C93.0527 24.3229 93.1356 23.8667 93.1221 23.408Z" fill="#919191"/>
<path d="M99.8364 23.6999C99.8304 22.1766 100.277 20.6856 101.12 19.4161C101.963 18.1465 103.164 17.1553 104.572 16.5682C105.979 15.981 107.53 15.8242 109.026 16.1177C110.523 16.4111 111.899 17.1415 112.98 18.2166C114.06 19.2915 114.797 20.6627 115.097 22.1564C115.397 23.65 115.246 25.199 114.664 26.607C114.082 28.0148 113.094 29.2187 111.826 30.0655C110.558 30.9125 109.067 31.3647 107.542 31.3647C106.53 31.3763 105.525 31.1861 104.587 30.8053C103.649 30.4246 102.796 29.8609 102.079 29.1474C101.361 28.4337 100.793 27.5844 100.408 26.6491C100.023 25.7138 99.8289 24.7112 99.8364 23.6999ZM110.886 23.6999C110.868 23.0433 110.656 22.4066 110.278 21.8693C109.899 21.3323 109.37 20.9184 108.758 20.6797C108.145 20.441 107.475 20.3879 106.833 20.5272C106.19 20.6665 105.602 20.9918 105.144 21.4628C104.685 21.9336 104.376 22.5291 104.254 23.1747C104.132 23.8202 104.204 24.4872 104.46 25.0924C104.716 25.6975 105.145 26.2138 105.693 26.5768C106.241 26.9398 106.884 27.1334 107.542 27.1334C107.992 27.1454 108.44 27.064 108.858 26.8944C109.275 26.7249 109.653 26.4709 109.967 26.1483C110.281 25.8257 110.525 25.4416 110.683 25.0202C110.841 24.5988 110.91 24.1493 110.886 23.6999Z" fill="#919191"/>
<path d="M117.282 12.5488C117.282 12.0319 117.435 11.5265 117.723 11.0968C118.01 10.6669 118.419 10.3319 118.897 10.1341C119.375 9.93631 119.902 9.88455 120.409 9.9854C120.917 10.0863 121.383 10.3352 121.749 10.7007C122.115 11.0662 122.364 11.5319 122.465 12.0389C122.566 12.5459 122.514 13.0714 122.316 13.549C122.118 14.0265 121.783 14.4347 121.352 14.7219C120.922 15.0091 120.416 15.1624 119.899 15.1624C119.207 15.1555 118.545 14.878 118.056 14.3893C117.566 13.9006 117.288 13.2398 117.282 12.5488ZM117.722 16.4399H122.085V30.9598H117.716L117.722 16.4399Z" fill="#919191"/>
<path d="M140.918 23.6999C140.969 24.6595 140.829 25.6196 140.506 26.525C140.184 27.4303 139.685 28.2631 139.039 28.9755C138.394 29.6877 137.613 30.2655 136.743 30.6756C135.873 31.0856 134.93 31.3198 133.969 31.3647C133.161 31.4087 132.353 31.2726 131.604 30.9662C130.855 30.6596 130.183 30.1906 129.638 29.5929V36.7664H125.276V16.4399H129.638V17.8039C130.183 17.2066 130.855 16.7379 131.604 16.4318C132.353 16.1256 133.161 15.9896 133.969 16.0336C134.93 16.0783 135.873 16.3124 136.744 16.7225C137.614 17.1326 138.395 17.7104 139.041 18.4229C139.686 19.1355 140.185 19.9685 140.507 20.8742C140.829 21.7797 140.969 22.7401 140.918 23.6999ZM136.557 23.6999C136.54 23.0204 136.322 22.3609 135.932 21.8041C135.541 21.2473 134.995 20.8179 134.362 20.5697C133.728 20.3214 133.035 20.2652 132.37 20.4084C131.704 20.5514 131.096 20.8872 130.621 21.3739C130.145 21.8607 129.825 22.4764 129.698 23.1444C129.572 23.8124 129.645 24.5026 129.91 25.129C130.174 25.7554 130.618 26.2899 131.185 26.6658C131.752 27.0415 132.417 27.242 133.098 27.2419C133.565 27.2627 134.032 27.1845 134.467 27.0126C134.902 26.8409 135.295 26.5791 135.622 26.2447C135.948 25.9101 136.2 25.5106 136.362 25.0721C136.523 24.6335 136.589 24.1658 136.557 23.6999Z" fill="#919191"/>
<path d="M154.378 26.6024C154.378 29.942 151.471 31.3646 148.332 31.3646C147.063 31.4793 145.789 31.2115 144.675 30.5954C143.56 29.9794 142.656 29.0436 142.08 27.9092L145.859 25.7605C146.011 26.2848 146.34 26.7411 146.789 27.0528C147.238 27.3646 147.781 27.5132 148.326 27.4736C149.371 27.4736 149.896 27.1538 149.896 26.5745C149.896 24.9758 142.742 25.8192 142.742 20.7958C142.742 17.6293 145.418 16.0336 148.442 16.0336C149.578 15.9976 150.703 16.2669 151.7 16.8133C152.698 17.3597 153.53 18.1632 154.11 19.14L150.389 21.1434C150.226 20.7631 149.954 20.4391 149.608 20.212C149.261 19.9848 148.856 19.8645 148.442 19.866C147.685 19.866 147.22 20.1593 147.22 20.6785C147.226 22.3344 154.378 21.23 154.378 26.6024Z" fill="#919191"/>
<path d="M170.31 16.4399V30.9599H165.949V29.5944C165.445 30.1969 164.806 30.6717 164.084 30.9797C163.361 31.2877 162.577 31.4201 161.793 31.3661C158.855 31.3661 156.359 29.2761 156.359 25.3528V16.4399H160.72V24.7148C160.684 25.0607 160.723 25.4103 160.836 25.7393C160.948 26.0684 161.132 26.3691 161.373 26.6203C161.613 26.8715 161.906 27.0673 162.23 27.1942C162.553 27.3211 162.901 27.3759 163.249 27.3548C164.849 27.3548 165.953 26.4264 165.953 24.3643V16.4443L170.31 16.4399Z" fill="#919191"/>
<path d="M195.32 22.044V30.9584H190.958V22.4209C190.958 20.9689 190.261 20.0405 188.866 20.0405C187.412 20.0405 186.597 21.0569 186.597 22.77V30.9584H182.237V22.4209C182.237 20.9689 181.539 20.0405 180.142 20.0405C178.688 20.0405 177.875 21.0569 177.875 22.77V30.9584H173.513V16.4384H177.875V17.7731C178.327 17.181 178.92 16.7113 179.6 16.4073C180.282 16.1031 181.028 15.9742 181.771 16.0321C182.517 15.9956 183.26 16.153 183.928 16.4887C184.595 16.8243 185.163 17.3271 185.579 17.9476C186.062 17.2983 186.702 16.782 187.44 16.4471C188.177 16.1121 188.988 15.9694 189.795 16.0321C193.133 16.0336 195.32 18.414 195.32 22.044Z" fill="#919191"/>
<path d="M199.009 16.3504C200.796 16.3504 202.246 14.9031 202.246 13.1178C202.246 11.3326 200.796 9.88531 199.009 9.88531C197.222 9.88531 195.772 11.3326 195.772 13.1178C195.772 14.9031 197.222 16.3504 199.009 16.3504Z" fill="#919191"/>
<path d="M266.524 19.6108C265.967 20.17 265.541 20.845 265.276 21.5874C265.01 22.33 264.912 23.1218 264.988 23.9066L264.961 23.8802C265.039 24.8041 264.915 25.7337 264.596 26.6044C264.277 27.475 263.772 28.2657 263.116 28.9213C262.459 29.5768 261.667 30.0815 260.795 30.3997C259.924 30.7181 258.993 30.8428 258.068 30.7648L258.094 30.7912C256.988 30.6884 255.877 30.9287 254.912 31.4798C253.947 32.0308 253.176 32.8655 252.704 33.8701C252.232 34.8748 252.082 36.0003 252.273 37.0936C252.465 38.1867 252.99 39.1941 253.776 39.9785C254.562 40.7629 255.571 41.2861 256.666 41.4766C257.761 41.6672 258.888 41.5159 259.893 41.0435C260.899 40.5709 261.734 39.8003 262.285 38.8364C262.836 37.8725 263.075 36.7626 262.971 35.6576L262.999 35.684C262.921 34.7603 263.046 33.8305 263.365 32.9598C263.684 32.0892 264.189 31.2985 264.845 30.6429C265.502 29.9874 266.293 29.4828 267.165 29.1645C268.037 28.8461 268.968 28.7214 269.893 28.7994L269.865 28.773C270.769 28.8541 271.678 28.7062 272.51 28.3427C273.341 27.9793 274.067 27.4121 274.62 26.6939C275.174 25.9757 275.537 25.1294 275.675 24.2339C275.814 23.3382 275.724 22.4221 275.414 21.5702C275.104 20.7185 274.584 19.9588 273.901 19.3614C273.219 18.7641 272.396 18.3484 271.51 18.1531C270.624 17.9577 269.703 17.9888 268.832 18.2435C267.961 18.4985 267.169 18.9687 266.528 19.6108H266.524Z" fill="#919191"/>
<path d="M255.69 27.3328L255.662 27.3064C256.448 27.3855 257.242 27.2891 257.987 27.0242C258.731 26.7594 259.407 26.3327 259.966 25.7749C260.525 25.2172 260.953 24.5422 261.219 23.799C261.484 23.0559 261.581 22.2631 261.503 21.4779L261.531 21.5043C261.453 20.5804 261.577 19.6509 261.896 18.7801C262.215 17.9095 262.72 17.1188 263.377 16.4632C264.033 15.8078 264.825 15.3031 265.697 14.9848C266.568 14.6663 267.499 14.5418 268.424 14.6198L268.396 14.5934C269.503 14.6972 270.614 14.4575 271.58 13.9071C272.545 13.3567 273.316 12.5224 273.789 11.5179C274.262 10.5134 274.413 9.38773 274.222 8.29432C274.031 7.2009 273.507 6.19304 272.721 5.40817C271.935 4.62331 270.926 4.09965 269.831 3.90866C268.736 3.71766 267.609 3.86859 266.603 4.34089C265.597 4.81317 264.762 5.58383 264.211 6.54774C263.66 7.51163 263.42 8.62185 263.524 9.72696L263.497 9.69909C263.575 10.6229 263.451 11.5527 263.132 12.4235C262.814 13.2943 262.308 14.0851 261.652 14.7408C260.995 15.3962 260.204 15.9009 259.332 16.2192C258.46 16.5374 257.529 16.6618 256.604 16.5836L256.63 16.6115C255.844 16.5324 255.05 16.6288 254.306 16.8937C253.561 17.1584 252.885 17.5852 252.326 18.143C251.767 18.7008 251.34 19.3757 251.074 20.1189C250.808 20.862 250.711 21.6548 250.79 22.44L250.763 22.4136C250.841 23.3373 250.716 24.2669 250.397 25.1375C250.078 26.008 249.573 26.7987 248.917 27.4541C248.26 28.1096 247.469 28.6141 246.597 28.9327C245.725 29.2511 244.795 29.3759 243.87 29.2982L243.896 29.3246C242.79 29.2207 241.678 29.4604 240.713 30.0108C239.748 30.5612 238.976 31.3955 238.503 32.4C238.03 33.4045 237.879 34.5302 238.07 35.6236C238.262 36.717 238.786 37.7249 239.572 38.5097C240.358 39.2947 241.367 39.8183 242.462 40.0092C243.556 40.2002 244.684 40.0493 245.689 39.577C246.695 39.1047 247.531 38.3341 248.082 37.3702C248.633 36.4062 248.873 35.2961 248.769 34.191L248.797 34.2174C248.719 33.2935 248.843 32.3639 249.162 31.4932C249.481 30.6226 249.986 29.8319 250.643 29.1763C251.299 28.5208 252.091 28.0161 252.963 27.6979C253.834 27.3795 254.765 27.2548 255.69 27.3328Z" fill="#919191"/>
<path d="M245.848 24.3892C246.405 23.8301 246.831 23.1552 247.096 22.4126C247.361 21.67 247.459 20.878 247.383 20.0934L247.41 20.1198C247.332 19.1958 247.457 18.2657 247.776 17.3948C248.095 16.5239 248.601 15.7331 249.257 15.0775C249.914 14.4219 250.706 13.9174 251.578 13.5992C252.45 13.281 253.382 13.1568 254.307 13.2352L254.279 13.2088C255.385 13.3123 256.496 13.0725 257.461 12.5222C258.426 11.9719 259.197 11.1377 259.67 10.1336C260.142 9.1294 260.293 8.0041 260.102 6.91109C259.911 5.81809 259.387 4.81061 258.601 4.02603C257.815 3.24145 256.807 2.71797 255.712 2.52698C254.618 2.33597 253.491 2.48678 252.486 2.95878C251.48 3.43078 250.645 4.20103 250.094 5.16448C249.543 6.12794 249.303 7.23771 249.406 8.34243L249.38 8.31603C249.458 9.23981 249.333 10.1695 249.014 11.0402C248.695 11.9108 248.19 12.7015 247.534 13.3571C246.878 14.0126 246.086 14.5172 245.214 14.8355C244.342 15.1539 243.411 15.2786 242.486 15.2006L242.513 15.227C241.609 15.146 240.699 15.2943 239.868 15.6579C239.037 16.0215 238.311 16.5888 237.758 17.3071C237.205 18.0254 236.842 18.8716 236.703 19.7672C236.565 20.6629 236.655 21.5789 236.965 22.4305C237.275 23.2822 237.796 24.0418 238.478 24.639C239.161 25.2364 239.983 25.6519 240.869 25.8472C241.755 26.0425 242.677 26.0112 243.547 25.7565C244.418 25.5015 245.21 25.0313 245.851 24.3892H245.848Z" fill="#919191"/>
<path d="M291.34 9.76068H295.701V30.9584H291.34V9.76068Z" fill="#919191"/>
<path d="M298.172 23.6999C298.166 22.1766 298.612 20.6856 299.455 19.4161C300.298 18.1465 301.5 17.1553 302.907 16.5682C304.315 15.981 305.865 15.8242 307.362 16.1177C308.858 16.4111 310.234 17.1415 311.315 18.2166C312.396 19.2915 313.133 20.6627 313.432 22.1564C313.732 23.65 313.581 25.199 312.999 26.607C312.417 28.0148 311.429 29.2187 310.161 30.0655C308.894 30.9125 307.403 31.3647 305.877 31.3647C304.865 31.3763 303.86 31.1861 302.922 30.8053C301.984 30.4246 301.131 29.8609 300.414 29.1474C299.696 28.4337 299.129 27.5844 298.744 26.6491C298.359 25.7138 298.164 24.7112 298.172 23.6999ZM309.221 23.6999C309.203 23.0433 308.991 22.4066 308.613 21.8693C308.234 21.3323 307.706 20.9184 307.093 20.6797C306.48 20.441 305.811 20.3879 305.168 20.5272C304.525 20.6665 303.938 20.9918 303.479 21.4628C303.02 21.9336 302.711 22.5291 302.589 23.1747C302.468 23.8202 302.539 24.4872 302.795 25.0924C303.051 25.6975 303.48 26.2138 304.028 26.5768C304.576 26.9398 305.22 27.1334 305.877 27.1334C306.328 27.1454 306.776 27.064 307.193 26.8944C307.611 26.7249 307.988 26.4709 308.302 26.1483C308.617 25.8257 308.86 25.4416 309.018 25.0202C309.177 24.5988 309.246 24.1493 309.221 23.6999Z" fill="#919191"/>
<path d="M330.966 16.4399V30.2266C330.966 35.1047 327.157 37.1668 323.29 37.1668C321.929 37.2686 320.565 36.9939 319.35 36.3731C318.135 35.7521 317.114 34.8089 316.4 33.6468L320.121 31.4982C320.421 32.1039 320.899 32.6036 321.492 32.9305C322.084 33.2573 322.762 33.3957 323.435 33.3271C323.866 33.3866 324.304 33.3488 324.718 33.2164C325.131 33.0839 325.51 32.8603 325.825 32.5621C326.141 32.2638 326.385 31.8986 326.54 31.4932C326.695 31.0879 326.757 30.6531 326.721 30.2207V28.8934C326.21 29.5174 325.56 30.0133 324.823 30.3411C324.085 30.6689 323.281 30.8195 322.475 30.781C320.557 30.7205 318.737 29.9171 317.402 28.5405C316.066 27.164 315.32 25.3225 315.32 23.4058C315.32 21.4892 316.066 19.6476 317.402 18.2712C318.737 16.8946 320.557 16.0911 322.475 16.0307C323.281 15.9921 324.085 16.1427 324.823 16.4705C325.56 16.7983 326.21 17.2942 326.721 17.9183V16.437L330.966 16.4399ZM326.722 23.408C326.751 22.7061 326.57 22.0113 326.2 21.4134C325.831 20.8153 325.291 20.3414 324.65 20.0526C324.008 19.7637 323.295 19.6732 322.602 19.7925C321.908 19.9119 321.267 20.2358 320.759 20.7226C320.252 21.2092 319.902 21.8363 319.754 22.5233C319.607 23.2103 319.669 23.9258 319.932 24.5774C320.195 25.229 320.647 25.7873 321.23 26.18C321.814 26.5728 322.501 26.7822 323.205 26.7814C323.663 26.8133 324.123 26.7491 324.555 26.5927C324.987 26.4364 325.381 26.1913 325.712 25.8736C326.044 25.5558 326.305 25.1723 326.479 24.7475C326.653 24.3229 326.736 23.8667 326.722 23.408Z" fill="#919191"/>
<path d="M333.436 23.6999C333.43 22.1766 333.877 20.6856 334.72 19.4161C335.563 18.1465 336.764 17.1553 338.172 16.5682C339.579 15.981 341.13 15.8242 342.626 16.1177C344.123 16.4111 345.499 17.1415 346.58 18.2166C347.66 19.2915 348.397 20.6627 348.697 22.1564C348.997 23.65 348.846 25.199 348.264 26.607C347.682 28.0148 346.694 29.2187 345.426 30.0655C344.158 30.9125 342.667 31.3647 341.142 31.3647C340.13 31.3763 339.125 31.1861 338.187 30.8053C337.249 30.4246 336.396 29.8609 335.679 29.1474C334.961 28.4337 334.393 27.5844 334.008 26.6491C333.623 25.7138 333.429 24.7112 333.436 23.6999ZM344.486 23.6999C344.468 23.0433 344.256 22.4066 343.878 21.8693C343.499 21.3323 342.97 20.9184 342.358 20.6797C341.745 20.441 341.075 20.3879 340.433 20.5272C339.79 20.6665 339.202 20.9918 338.744 21.4628C338.285 21.9336 337.976 22.5291 337.854 23.1747C337.732 23.8202 337.804 24.4872 338.06 25.0924C338.316 25.6975 338.745 26.2138 339.293 26.5768C339.841 26.9398 340.484 27.1334 341.142 27.1334C341.592 27.1454 342.04 27.064 342.458 26.8944C342.875 26.7249 343.253 26.4709 343.567 26.1483C343.881 25.8257 344.125 25.4416 344.283 25.0202C344.441 24.5988 344.51 24.1493 344.486 23.6999Z" fill="#919191"/>
<path d="M350.882 12.5488C350.882 12.0319 351.035 11.5265 351.323 11.0968C351.61 10.6669 352.019 10.3319 352.497 10.1341C352.975 9.93631 353.502 9.88455 354.009 9.9854C354.517 10.0863 354.983 10.3352 355.349 10.7007C355.715 11.0662 355.964 11.5319 356.065 12.0389C356.166 12.5459 356.114 13.0714 355.916 13.549C355.718 14.0265 355.383 14.4347 354.952 14.7219C354.522 15.0091 354.016 15.1624 353.499 15.1624C352.807 15.1555 352.145 14.878 351.656 14.3893C351.166 13.9006 350.888 13.2398 350.882 12.5488ZM351.322 16.4399H355.685V30.9598H351.316L351.322 16.4399Z" fill="#919191"/>
<path d="M374.518 23.6999C374.569 24.6595 374.429 25.6196 374.106 26.525C373.784 27.4303 373.285 28.2631 372.64 28.9755C371.994 29.6877 371.213 30.2655 370.343 30.6756C369.473 31.0856 368.53 31.3198 367.569 31.3647C366.761 31.4087 365.953 31.2726 365.204 30.9662C364.455 30.6596 363.783 30.1906 363.238 29.5929V36.7664H358.876V16.4399H363.238V17.8039C363.783 17.2066 364.455 16.7379 365.204 16.4318C365.953 16.1256 366.761 15.9896 367.569 16.0336C368.53 16.0783 369.473 16.3124 370.344 16.7225C371.214 17.1326 371.995 17.7104 372.641 18.4229C373.286 19.1355 373.785 19.9685 374.107 20.8742C374.429 21.7797 374.569 22.7401 374.518 23.6999ZM370.157 23.6999C370.14 23.0204 369.922 22.3609 369.532 21.8041C369.141 21.2473 368.595 20.8179 367.962 20.5697C367.328 20.3214 366.635 20.2652 365.97 20.4084C365.304 20.5514 364.696 20.8872 364.221 21.3739C363.745 21.8607 363.425 22.4764 363.298 23.1444C363.172 23.8124 363.245 24.5026 363.51 25.129C363.774 25.7554 364.218 26.2899 364.785 26.6658C365.352 27.0415 366.017 27.242 366.698 27.2419C367.165 27.2627 367.632 27.1845 368.067 27.0126C368.502 26.8409 368.895 26.5791 369.222 26.2447C369.548 25.9101 369.8 25.5106 369.962 25.0721C370.123 24.6335 370.189 24.1658 370.157 23.6999Z" fill="#919191"/>
<path d="M387.978 26.6024C387.978 29.942 385.071 31.3646 381.932 31.3646C380.663 31.4793 379.389 31.2115 378.275 30.5954C377.16 29.9794 376.256 29.0436 375.68 27.9092L379.459 25.7605C379.611 26.2848 379.94 26.7411 380.389 27.0528C380.838 27.3646 381.381 27.5132 381.926 27.4736C382.971 27.4736 383.496 27.1538 383.496 26.5745C383.496 24.9758 376.342 25.8192 376.342 20.7958C376.342 17.6293 379.018 16.0336 382.042 16.0336C383.178 15.9976 384.303 16.2669 385.3 16.8133C386.298 17.3597 387.13 18.1632 387.71 19.14L383.989 21.1434C383.826 20.7631 383.554 20.4391 383.208 20.212C382.861 19.9848 382.456 19.8645 382.042 19.866C381.285 19.866 380.82 20.1593 380.82 20.6785C380.826 22.3344 387.978 21.23 387.978 26.6024Z" fill="#919191"/>
<path d="M403.91 16.4399V30.9599H399.549V29.5944C399.045 30.1969 398.406 30.6717 397.684 30.9797C396.961 31.2877 396.177 31.4201 395.393 31.3661C392.455 31.3661 389.959 29.2761 389.959 25.3528V16.4399H394.32V24.7148C394.284 25.0607 394.323 25.4103 394.436 25.7393C394.548 26.0684 394.732 26.3691 394.973 26.6203C395.213 26.8715 395.506 27.0673 395.83 27.1942C396.153 27.3211 396.501 27.3759 396.849 27.3548C398.449 27.3548 399.553 26.4264 399.553 24.3643V16.4443L403.91 16.4399Z" fill="#919191"/>
<path d="M428.92 22.044V30.9584H424.558V22.4209C424.558 20.9689 423.861 20.0405 422.466 20.0405C421.012 20.0405 420.197 21.0569 420.197 22.77V30.9584H415.837V22.4209C415.837 20.9689 415.139 20.0405 413.742 20.0405C412.288 20.0405 411.475 21.0569 411.475 22.77V30.9584H407.113V16.4384H411.475V17.7731C411.927 17.181 412.52 16.7113 413.2 16.4073C413.882 16.1031 414.628 15.9742 415.371 16.0321C416.117 15.9956 416.86 16.153 417.528 16.4887C418.195 16.8243 418.763 17.3271 419.179 17.9476C419.662 17.2983 420.302 16.782 421.04 16.4471C421.777 16.1121 422.588 15.9694 423.395 16.0321C426.733 16.0336 428.92 18.414 428.92 22.044Z" fill="#919191"/>
<path d="M432.609 16.3504C434.396 16.3504 435.846 14.9031 435.846 13.1178C435.846 11.3326 434.396 9.88531 432.609 9.88531C430.822 9.88531 429.372 11.3326 429.372 13.1178C429.372 14.9031 430.822 16.3504 432.609 16.3504Z" fill="#919191"/>
<path d="M500.124 19.6108C499.567 20.17 499.141 20.845 498.876 21.5874C498.61 22.33 498.512 23.1218 498.588 23.9066L498.561 23.8802C498.639 24.8041 498.515 25.7337 498.196 26.6044C497.877 27.475 497.372 28.2657 496.716 28.9213C496.059 29.5768 495.267 30.0815 494.395 30.3997C493.524 30.7181 492.593 30.8428 491.668 30.7648L491.694 30.7912C490.588 30.6884 489.477 30.9287 488.512 31.4798C487.547 32.0308 486.776 32.8655 486.304 33.8701C485.832 34.8748 485.682 36.0003 485.873 37.0936C486.065 38.1867 486.59 39.1941 487.376 39.9785C488.162 40.7629 489.171 41.2861 490.266 41.4766C491.361 41.6672 492.488 41.5159 493.493 41.0435C494.499 40.5709 495.334 39.8003 495.885 38.8364C496.436 37.8725 496.675 36.7626 496.571 35.6576L496.599 35.684C496.521 34.7603 496.646 33.8305 496.965 32.9598C497.284 32.0892 497.789 31.2985 498.445 30.6429C499.102 29.9874 499.893 29.4828 500.765 29.1645C501.637 28.8461 502.568 28.7214 503.493 28.7994L503.465 28.773C504.369 28.8541 505.278 28.7062 506.11 28.3427C506.941 27.9793 507.667 27.4121 508.22 26.6939C508.774 25.9757 509.137 25.1294 509.275 24.2339C509.414 23.3382 509.324 22.4221 509.014 21.5702C508.704 20.7185 508.184 19.9588 507.501 19.3614C506.819 18.7641 505.996 18.3484 505.11 18.1531C504.224 17.9577 503.303 17.9888 502.432 18.2435C501.561 18.4985 500.769 18.9687 500.128 19.6108H500.124Z" fill="#919191"/>
<path d="M489.29 27.3328L489.262 27.3064C490.048 27.3855 490.842 27.2891 491.587 27.0242C492.331 26.7594 493.007 26.3327 493.566 25.7749C494.125 25.2172 494.553 24.5422 494.819 23.799C495.084 23.0559 495.181 22.2631 495.103 21.4779L495.131 21.5043C495.053 20.5804 495.177 19.6509 495.496 18.7801C495.815 17.9095 496.32 17.1188 496.977 16.4632C497.633 15.8078 498.425 15.3031 499.297 14.9848C500.168 14.6663 501.099 14.5418 502.024 14.6198L501.996 14.5934C503.103 14.6972 504.214 14.4575 505.18 13.9071C506.145 13.3567 506.916 12.5224 507.389 11.5179C507.862 10.5134 508.013 9.38773 507.822 8.29432C507.631 7.2009 507.107 6.19304 506.321 5.40817C505.535 4.62331 504.526 4.09965 503.431 3.90866C502.336 3.71766 501.209 3.86859 500.203 4.34089C499.197 4.81317 498.362 5.58383 497.811 6.54774C497.26 7.51163 497.02 8.62185 497.124 9.72696L497.097 9.69909C497.175 10.6229 497.051 11.5527 496.732 12.4235C496.414 13.2943 495.908 14.0851 495.252 14.7408C494.595 15.3962 493.804 15.9009 492.932 16.2192C492.06 16.5374 491.129 16.6618 490.204 16.5836L490.23 16.6115C489.444 16.5324 488.65 16.6288 487.906 16.8937C487.161 17.1584 486.485 17.5852 485.926 18.143C485.367 18.7008 484.94 19.3757 484.674 20.1189C484.408 20.862 484.311 21.6548 484.39 22.44L484.363 22.4136C484.441 23.3373 484.316 24.2669 483.997 25.1375C483.678 26.008 483.173 26.7987 482.517 27.4541C481.86 28.1096 481.069 28.6141 480.197 28.9327C479.325 29.2511 478.395 29.3759 477.47 29.2982L477.496 29.3246C476.39 29.2207 475.278 29.4604 474.313 30.0108C473.348 30.5612 472.576 31.3955 472.103 32.4C471.63 33.4045 471.479 34.5302 471.67 35.6236C471.862 36.717 472.386 37.7249 473.172 38.5097C473.958 39.2947 474.967 39.8183 476.062 40.0092C477.156 40.2002 478.284 40.0493 479.289 39.577C480.295 39.1047 481.131 38.3341 481.682 37.3702C482.233 36.4062 482.473 35.2961 482.369 34.191L482.397 34.2174C482.319 33.2935 482.443 32.3639 482.762 31.4932C483.081 30.6226 483.586 29.8319 484.243 29.1763C484.899 28.5208 485.691 28.0161 486.563 27.6979C487.434 27.3795 488.365 27.2548 489.29 27.3328Z" fill="#919191"/>
<path d="M479.448 24.3892C480.005 23.8301 480.431 23.1552 480.696 22.4126C480.961 21.67 481.059 20.878 480.983 20.0934L481.01 20.1198C480.932 19.1958 481.057 18.2657 481.376 17.3948C481.695 16.5239 482.201 15.7331 482.857 15.0775C483.514 14.4219 484.306 13.9174 485.178 13.5992C486.05 13.281 486.982 13.1568 487.907 13.2352L487.879 13.2088C488.985 13.3123 490.096 13.0725 491.061 12.5222C492.026 11.9719 492.797 11.1377 493.27 10.1336C493.742 9.1294 493.893 8.0041 493.702 6.91109C493.511 5.81809 492.987 4.81061 492.201 4.02603C491.415 3.24145 490.407 2.71797 489.312 2.52698C488.218 2.33597 487.091 2.48678 486.086 2.95878C485.08 3.43078 484.245 4.20103 483.694 5.16448C483.143 6.12794 482.903 7.23771 483.006 8.34243L482.98 8.31603C483.058 9.23981 482.933 10.1695 482.614 11.0402C482.295 11.9108 481.79 12.7015 481.134 13.3571C480.478 14.0126 479.686 14.5172 478.814 14.8355C477.942 15.1539 477.011 15.2786 476.086 15.2006L476.113 15.227C475.209 15.146 474.299 15.2943 473.468 15.6579C472.637 16.0215 471.911 16.5888 471.358 17.3071C470.805 18.0254 470.442 18.8716 470.303 19.7672C470.165 20.6629 470.255 21.5789 470.565 22.4305C470.875 23.2822 471.396 24.0418 472.078 24.639C472.761 25.2364 473.583 25.6519 474.469 25.8472C475.355 26.0425 476.277 26.0112 477.147 25.7565C478.018 25.5015 478.81 25.0313 479.451 24.3892H479.448Z" fill="#919191"/>
<path d="M524.94 9.76068H529.301V30.9584H524.94V9.76068Z" fill="#919191"/>
<path d="M531.772 23.6999C531.766 22.1766 532.212 20.6856 533.055 19.4161C533.898 18.1465 535.1 17.1553 536.507 16.5682C537.915 15.981 539.465 15.8242 540.962 16.1177C542.458 16.4111 543.834 17.1415 544.915 18.2166C545.996 19.2915 546.733 20.6627 547.032 22.1564C547.332 23.65 547.181 25.199 546.599 26.607C546.017 28.0148 545.029 29.2187 543.761 30.0655C542.494 30.9125 541.003 31.3647 539.477 31.3647C538.465 31.3763 537.46 31.1861 536.522 30.8053C535.584 30.4246 534.731 29.8609 534.014 29.1474C533.296 28.4337 532.729 27.5844 532.344 26.6491C531.959 25.7138 531.764 24.7112 531.772 23.6999ZM542.821 23.6999C542.803 23.0433 542.591 22.4066 542.213 21.8693C541.834 21.3323 541.306 20.9184 540.693 20.6797C540.08 20.441 539.411 20.3879 538.768 20.5272C538.125 20.6665 537.538 20.9918 537.079 21.4628C536.62 21.9336 536.311 22.5291 536.189 23.1747C536.068 23.8202 536.139 24.4872 536.395 25.0924C536.651 25.6975 537.08 26.2138 537.628 26.5768C538.176 26.9398 538.82 27.1334 539.477 27.1334C539.928 27.1454 540.376 27.064 540.793 26.8944C541.211 26.7249 541.588 26.4709 541.902 26.1483C542.217 25.8257 542.46 25.4416 542.618 25.0202C542.777 24.5988 542.846 24.1493 542.821 23.6999Z" fill="#919191"/>
<path d="M564.566 16.4399V30.2266C564.566 35.1047 560.757 37.1668 556.89 37.1668C555.529 37.2686 554.165 36.9939 552.95 36.3731C551.735 35.7521 550.714 34.8089 550 33.6468L553.721 31.4982C554.021 32.1039 554.499 32.6036 555.092 32.9305C555.684 33.2573 556.362 33.3957 557.035 33.3271C557.466 33.3866 557.904 33.3488 558.318 33.2164C558.731 33.0839 559.11 32.8603 559.425 32.5621C559.741 32.2638 559.985 31.8986 560.14 31.4932C560.295 31.0879 560.357 30.6531 560.321 30.2207V28.8934C559.81 29.5174 559.16 30.0133 558.423 30.3411C557.685 30.6689 556.881 30.8195 556.075 30.781C554.157 30.7205 552.337 29.9171 551.002 28.5405C549.666 27.164 548.92 25.3225 548.92 23.4058C548.92 21.4892 549.666 19.6476 551.002 18.2712C552.337 16.8946 554.157 16.0911 556.075 16.0307C556.881 15.9921 557.685 16.1427 558.423 16.4705C559.16 16.7983 559.81 17.2942 560.321 17.9183V16.437L564.566 16.4399ZM560.322 23.408C560.352 22.7061 560.17 22.0113 559.8 21.4134C559.431 20.8153 558.891 20.3414 558.25 20.0526C557.608 19.7637 556.895 19.6732 556.202 19.7925C555.508 19.9119 554.867 20.2358 554.359 20.7226C553.852 21.2092 553.502 21.8363 553.354 22.5233C553.207 23.2103 553.269 23.9258 553.532 24.5774C553.795 25.229 554.247 25.7873 554.83 26.18C555.414 26.5728 556.101 26.7822 556.805 26.7814C557.263 26.8133 557.723 26.7491 558.155 26.5927C558.587 26.4364 558.981 26.1913 559.312 25.8736C559.644 25.5558 559.905 25.1723 560.079 24.7475C560.253 24.3229 560.336 23.8667 560.322 23.408Z" fill="#919191"/>
<path d="M567.036 23.6999C567.03 22.1766 567.477 20.6856 568.32 19.4161C569.163 18.1465 570.364 17.1553 571.772 16.5682C573.179 15.981 574.73 15.8242 576.226 16.1177C577.723 16.4111 579.099 17.1415 580.18 18.2166C581.26 19.2915 581.997 20.6627 582.297 22.1564C582.597 23.65 582.446 25.199 581.864 26.607C581.282 28.0148 580.294 29.2187 579.026 30.0655C577.758 30.9125 576.267 31.3647 574.742 31.3647C573.73 31.3763 572.725 31.1861 571.787 30.8053C570.849 30.4246 569.996 29.8609 569.279 29.1474C568.561 28.4337 567.993 27.5844 567.608 26.6491C567.223 25.7138 567.029 24.7112 567.036 23.6999ZM578.086 23.6999C578.068 23.0433 577.856 22.4066 577.478 21.8693C577.099 21.3323 576.57 20.9184 575.958 20.6797C575.345 20.441 574.675 20.3879 574.033 20.5272C573.39 20.6665 572.802 20.9918 572.344 21.4628C571.885 21.9336 571.576 22.5291 571.454 23.1747C571.332 23.8202 571.404 24.4872 571.66 25.0924C571.916 25.6975 572.345 26.2138 572.893 26.5768C573.441 26.9398 574.084 27.1334 574.742 27.1334C575.192 27.1454 575.64 27.064 576.058 26.8944C576.475 26.7249 576.853 26.4709 577.167 26.1483C577.481 25.8257 577.725 25.4416 577.883 25.0202C578.041 24.5988 578.11 24.1493 578.086 23.6999Z" fill="#919191"/>
<path d="M584.482 12.5488C584.482 12.0319 584.635 11.5265 584.923 11.0968C585.21 10.6669 585.619 10.3319 586.097 10.1341C586.575 9.93631 587.102 9.88455 587.609 9.9854C588.117 10.0863 588.583 10.3352 588.949 10.7007C589.315 11.0662 589.564 11.5319 589.665 12.0389C589.766 12.5459 589.714 13.0714 589.516 13.549C589.318 14.0265 588.983 14.4347 588.552 14.7219C588.122 15.0091 587.616 15.1624 587.099 15.1624C586.407 15.1555 585.745 14.878 585.256 14.3893C584.767 13.9006 584.489 13.2398 584.482 12.5488ZM584.922 16.4399H589.285V30.9598H584.916L584.922 16.4399Z" fill="#919191"/>
<path d="M608.118 23.6999C608.169 24.6595 608.029 25.6196 607.706 26.525C607.384 27.4303 606.885 28.2631 606.24 28.9755C605.594 29.6877 604.813 30.2655 603.943 30.6756C603.073 31.0856 602.13 31.3198 601.169 31.3647C600.361 31.4087 599.553 31.2726 598.804 30.9662C598.055 30.6596 597.383 30.1906 596.838 29.5929V36.7664H592.477V16.4399H596.838V17.8039C597.383 17.2066 598.055 16.7379 598.804 16.4318C599.553 16.1256 600.361 15.9896 601.169 16.0336C602.13 16.0783 603.073 16.3124 603.944 16.7225C604.814 17.1326 605.595 17.7104 606.241 18.4229C606.886 19.1355 607.385 19.9685 607.707 20.8742C608.029 21.7797 608.169 22.7401 608.118 23.6999ZM603.757 23.6999C603.74 23.0204 603.522 22.3609 603.132 21.8041C602.741 21.2473 602.195 20.8179 601.562 20.5697C600.928 20.3214 600.235 20.2652 599.57 20.4084C598.904 20.5514 598.296 20.8872 597.821 21.3739C597.345 21.8607 597.025 22.4764 596.898 23.1444C596.772 23.8124 596.845 24.5026 597.11 25.129C597.374 25.7554 597.818 26.2899 598.385 26.6658C598.952 27.0415 599.617 27.242 600.298 27.2419C600.765 27.2627 601.232 27.1845 601.667 27.0126C602.102 26.8409 602.495 26.5791 602.822 26.2447C603.148 25.9101 603.4 25.5106 603.562 25.0721C603.723 24.6335 603.789 24.1658 603.757 23.6999Z" fill="#919191"/>
<path d="M621.578 26.6024C621.578 29.942 618.671 31.3646 615.532 31.3646C614.263 31.4793 612.989 31.2115 611.875 30.5954C610.76 29.9794 609.856 29.0436 609.28 27.9092L613.059 25.7605C613.211 26.2848 613.54 26.7411 613.989 27.0528C614.438 27.3646 614.981 27.5132 615.526 27.4736C616.571 27.4736 617.096 27.1538 617.096 26.5745C617.096 24.9758 609.942 25.8192 609.942 20.7958C609.942 17.6293 612.618 16.0336 615.642 16.0336C616.778 15.9976 617.903 16.2669 618.9 16.8133C619.898 17.3597 620.73 18.1632 621.31 19.14L617.589 21.1434C617.426 20.7631 617.154 20.4391 616.808 20.212C616.461 19.9848 616.056 19.8645 615.642 19.866C614.885 19.866 614.42 20.1593 614.42 20.6785C614.426 22.3344 621.578 21.23 621.578 26.6024Z" fill="#919191"/>
<path d="M637.51 16.4399V30.9599H633.149V29.5944C632.645 30.1969 632.006 30.6717 631.284 30.9797C630.561 31.2877 629.777 31.4201 628.993 31.3661C626.055 31.3661 623.559 29.2761 623.559 25.3528V16.4399H627.92V24.7148C627.884 25.0607 627.923 25.4103 628.036 25.7393C628.148 26.0684 628.332 26.3691 628.573 26.6203C628.813 26.8715 629.106 27.0673 629.43 27.1942C629.753 27.3211 630.101 27.3759 630.449 27.3548C632.049 27.3548 633.153 26.4264 633.153 24.3643V16.4443L637.51 16.4399Z" fill="#919191"/>
<path d="M662.52 22.044V30.9584H658.158V22.4209C658.158 20.9689 657.461 20.0405 656.066 20.0405C654.612 20.0405 653.797 21.0569 653.797 22.77V30.9584H649.437V22.4209C649.437 20.9689 648.739 20.0405 647.342 20.0405C645.888 20.0405 645.075 21.0569 645.075 22.77V30.9584H640.713V16.4384H645.075V17.7731C645.527 17.181 646.12 16.7113 646.8 16.4073C647.482 16.1031 648.228 15.9742 648.971 16.0321C649.717 15.9956 650.46 16.153 651.128 16.4887C651.795 16.8243 652.363 17.3271 652.779 17.9476C653.262 17.2983 653.902 16.782 654.64 16.4471C655.377 16.1121 656.188 15.9694 656.995 16.0321C660.333 16.0336 662.52 18.414 662.52 22.044Z" fill="#919191"/>
<path d="M666.209 16.3504C667.996 16.3504 669.446 14.9031 669.446 13.1178C669.446 11.3326 667.996 9.88531 666.209 9.88531C664.422 9.88531 662.972 11.3326 662.972 13.1178C662.972 14.9031 664.422 16.3504 666.209 16.3504Z" fill="#919191"/>
<path d="M733.724 19.6108C733.167 20.17 732.741 20.845 732.476 21.5874C732.21 22.33 732.112 23.1218 732.188 23.9066L732.161 23.8802C732.24 24.8041 732.115 25.7337 731.796 26.6044C731.477 27.475 730.972 28.2657 730.316 28.9213C729.659 29.5768 728.867 30.0815 727.995 30.3997C727.124 30.7181 726.193 30.8428 725.268 30.7648L725.294 30.7912C724.188 30.6884 723.077 30.9287 722.112 31.4798C721.147 32.0308 720.376 32.8655 719.904 33.8701C719.432 34.8748 719.282 36.0003 719.473 37.0936C719.665 38.1867 720.19 39.1941 720.976 39.9785C721.762 40.7629 722.771 41.2861 723.866 41.4766C724.961 41.6672 726.088 41.5159 727.093 41.0435C728.099 40.5709 728.934 39.8003 729.485 38.8364C730.036 37.8725 730.275 36.7626 730.171 35.6576L730.199 35.684C730.121 34.7603 730.246 33.8305 730.565 32.9598C730.884 32.0892 731.389 31.2985 732.045 30.6429C732.702 29.9874 733.493 29.4828 734.365 29.1645C735.237 28.8461 736.168 28.7214 737.093 28.7994L737.065 28.773C737.969 28.8541 738.878 28.7062 739.71 28.3427C740.541 27.9793 741.267 27.4121 741.82 26.6939C742.374 25.9757 742.737 25.1294 742.876 24.2339C743.014 23.3382 742.924 22.4221 742.614 21.5702C742.304 20.7185 741.784 19.9588 741.101 19.3614C740.419 18.7641 739.596 18.3484 738.71 18.1531C737.824 17.9577 736.903 17.9888 736.032 18.2435C735.161 18.4985 734.369 18.9687 733.728 19.6108H733.724Z" fill="#919191"/>
<path d="M722.89 27.3328L722.862 27.3064C723.649 27.3855 724.442 27.2891 725.187 27.0242C725.931 26.7594 726.607 26.3327 727.166 25.7749C727.725 25.2172 728.153 24.5422 728.419 23.799C728.684 23.0559 728.781 22.2631 728.703 21.4779L728.731 21.5043C728.653 20.5804 728.778 19.6509 729.096 18.7801C729.415 17.9095 729.92 17.1188 730.577 16.4632C731.233 15.8078 732.025 15.3031 732.897 14.9848C733.768 14.6663 734.699 14.5418 735.624 14.6198L735.596 14.5934C736.703 14.6972 737.815 14.4575 738.78 13.9071C739.745 13.3567 740.517 12.5224 740.989 11.5179C741.462 10.5134 741.613 9.38773 741.422 8.29432C741.231 7.2009 740.707 6.19304 739.921 5.40817C739.135 4.62331 738.126 4.09965 737.031 3.90866C735.936 3.71766 734.809 3.86859 733.803 4.34089C732.797 4.81317 731.962 5.58383 731.411 6.54774C730.86 7.51163 730.62 8.62185 730.724 9.72696L730.697 9.69909C730.775 10.6229 730.651 11.5527 730.332 12.4235C730.014 13.2943 729.508 14.0851 728.852 14.7408C728.196 15.3962 727.404 15.9009 726.532 16.2192C725.66 16.5374 724.729 16.6618 723.804 16.5836L723.83 16.6115C723.044 16.5324 722.25 16.6288 721.506 16.8937C720.761 17.1584 720.085 17.5852 719.526 18.143C718.967 18.7008 718.54 19.3757 718.274 20.1189C718.008 20.862 717.911 21.6548 717.99 22.44L717.963 22.4136C718.041 23.3373 717.916 24.2669 717.597 25.1375C717.278 26.008 716.773 26.7987 716.117 27.4541C715.46 28.1096 714.669 28.6141 713.797 28.9327C712.925 29.2511 711.995 29.3759 711.07 29.2982L711.096 29.3246C709.99 29.2207 708.878 29.4604 707.913 30.0108C706.948 30.5612 706.176 31.3955 705.703 32.4C705.23 33.4045 705.079 34.5302 705.27 35.6236C705.462 36.717 705.986 37.7249 706.772 38.5097C707.558 39.2947 708.567 39.8183 709.662 40.0092C710.757 40.2002 711.884 40.0493 712.889 39.577C713.895 39.1047 714.731 38.3341 715.282 37.3702C715.833 36.4062 716.073 35.2961 715.969 34.191L715.997 34.2174C715.919 33.2935 716.044 32.3639 716.362 31.4932C716.681 30.6226 717.186 29.8319 717.843 29.1763C718.499 28.5208 719.291 28.0161 720.163 27.6979C721.034 27.3795 721.965 27.2548 722.89 27.3328Z" fill="#919191"/>
<path d="M713.048 24.3892C713.605 23.8301 714.031 23.1552 714.296 22.4126C714.561 21.67 714.659 20.878 714.583 20.0934L714.61 20.1198C714.532 19.1958 714.657 18.2657 714.976 17.3948C715.295 16.5239 715.801 15.7331 716.457 15.0775C717.114 14.4219 717.906 13.9174 718.778 13.5992C719.65 13.281 720.582 13.1568 721.507 13.2352L721.479 13.2088C722.585 13.3123 723.696 13.0725 724.661 12.5222C725.626 11.9719 726.397 11.1377 726.87 10.1336C727.342 9.1294 727.493 8.0041 727.302 6.91109C727.111 5.81809 726.587 4.81061 725.801 4.02603C725.015 3.24145 724.007 2.71797 722.912 2.52698C721.818 2.33597 720.691 2.48678 719.686 2.95878C718.68 3.43078 717.845 4.20103 717.294 5.16448C716.743 6.12794 716.503 7.23771 716.606 8.34243L716.58 8.31603C716.658 9.23981 716.533 10.1695 716.214 11.0402C715.895 11.9108 715.39 12.7015 714.734 13.3571C714.078 14.0126 713.286 14.5172 712.414 14.8355C711.542 15.1539 710.611 15.2786 709.686 15.2006L709.713 15.227C708.809 15.146 707.899 15.2943 707.068 15.6579C706.237 16.0215 705.511 16.5888 704.958 17.3071C704.405 18.0254 704.042 18.8716 703.903 19.7672C703.765 20.6629 703.855 21.5789 704.165 22.4305C704.475 23.2822 704.996 24.0418 705.678 24.639C706.361 25.2364 707.183 25.6519 708.069 25.8472C708.955 26.0425 709.877 26.0112 710.747 25.7565C711.618 25.5015 712.41 25.0313 713.051 24.3892H713.048Z" fill="#919191"/>
<path d="M758.54 9.76068H762.902V30.9584H758.54V9.76068Z" fill="#919191"/>
<path d="M765.372 23.6999C765.366 22.1766 765.812 20.6856 766.655 19.4161C767.498 18.1465 768.7 17.1553 770.107 16.5682C771.515 15.981 773.065 15.8242 774.562 16.1177C776.058 16.4111 777.434 17.1415 778.515 18.2166C779.596 19.2915 780.333 20.6627 780.632 22.1564C780.932 23.65 780.782 25.199 780.199 26.607C779.617 28.0148 778.629 29.2187 777.362 30.0655C776.094 30.9125 774.603 31.3647 773.077 31.3647C772.065 31.3763 771.06 31.1861 770.122 30.8053C769.184 30.4246 768.331 29.8609 767.614 29.1474C766.896 28.4337 766.329 27.5844 765.944 26.6491C765.559 25.7138 765.364 24.7112 765.372 23.6999ZM776.421 23.6999C776.403 23.0433 776.191 22.4066 775.813 21.8693C775.434 21.3323 774.906 20.9184 774.293 20.6797C773.68 20.441 773.011 20.3879 772.368 20.5272C771.725 20.6665 771.138 20.9918 770.679 21.4628C770.22 21.9336 769.911 22.5291 769.789 23.1747C769.668 23.8202 769.739 24.4872 769.995 25.0924C770.251 25.6975 770.68 26.2138 771.228 26.5768C771.776 26.9398 772.42 27.1334 773.077 27.1334C773.528 27.1454 773.976 27.064 774.393 26.8944C774.811 26.7249 775.188 26.4709 775.502 26.1483C775.817 25.8257 776.061 25.4416 776.219 25.0202C776.377 24.5988 776.446 24.1493 776.421 23.6999Z" fill="#919191"/>
<path d="M798.166 16.4399V30.2266C798.166 35.1047 794.357 37.1668 790.49 37.1668C789.129 37.2686 787.765 36.9939 786.55 36.3731C785.335 35.7521 784.314 34.8089 783.6 33.6468L787.321 31.4982C787.621 32.1039 788.099 32.6036 788.692 32.9305C789.284 33.2573 789.962 33.3957 790.636 33.3271C791.066 33.3866 791.504 33.3488 791.918 33.2164C792.331 33.0839 792.71 32.8603 793.025 32.5621C793.341 32.2638 793.585 31.8986 793.74 31.4932C793.895 31.0879 793.957 30.6531 793.921 30.2207V28.8934C793.41 29.5174 792.76 30.0133 792.023 30.3411C791.285 30.6689 790.481 30.8195 789.675 30.781C787.757 30.7205 785.937 29.9171 784.602 28.5405C783.266 27.164 782.52 25.3225 782.52 23.4058C782.52 21.4892 783.266 19.6476 784.602 18.2712C785.937 16.8946 787.757 16.0911 789.675 16.0307C790.481 15.9921 791.285 16.1427 792.023 16.4705C792.76 16.7983 793.41 17.2942 793.921 17.9183V16.437L798.166 16.4399ZM793.922 23.408C793.952 22.7061 793.77 22.0113 793.4 21.4134C793.031 20.8153 792.491 20.3414 791.85 20.0526C791.208 19.7637 790.495 19.6732 789.802 19.7925C789.108 19.9119 788.467 20.2358 787.959 20.7226C787.452 21.2092 787.102 21.8363 786.954 22.5233C786.807 23.2103 786.869 23.9258 787.132 24.5774C787.395 25.229 787.847 25.7873 788.43 26.18C789.014 26.5728 789.701 26.7822 790.405 26.7814C790.863 26.8133 791.323 26.7491 791.755 26.5927C792.187 26.4364 792.581 26.1913 792.913 25.8736C793.244 25.5558 793.505 25.1723 793.679 24.7475C793.853 24.3229 793.936 23.8667 793.922 23.408Z" fill="#919191"/>
<path d="M800.636 23.6999C800.63 22.1766 801.077 20.6856 801.92 19.4161C802.763 18.1465 803.964 17.1553 805.372 16.5682C806.779 15.981 808.33 15.8242 809.826 16.1177C811.323 16.4111 812.699 17.1415 813.78 18.2166C814.86 19.2915 815.597 20.6627 815.897 22.1564C816.197 23.65 816.046 25.199 815.464 26.607C814.882 28.0148 813.894 29.2187 812.626 30.0655C811.358 30.9125 809.867 31.3647 808.342 31.3647C807.33 31.3763 806.325 31.1861 805.387 30.8053C804.449 30.4246 803.596 29.8609 802.879 29.1474C802.161 28.4337 801.593 27.5844 801.208 26.6491C800.823 25.7138 800.629 24.7112 800.636 23.6999ZM811.686 23.6999C811.668 23.0433 811.456 22.4066 811.078 21.8693C810.699 21.3323 810.17 20.9184 809.558 20.6797C808.945 20.441 808.275 20.3879 807.633 20.5272C806.99 20.6665 806.402 20.9918 805.944 21.4628C805.485 21.9336 805.176 22.5291 805.054 23.1747C804.932 23.8202 805.004 24.4872 805.26 25.0924C805.516 25.6975 805.945 26.2138 806.493 26.5768C807.041 26.9398 807.684 27.1334 808.342 27.1334C808.792 27.1454 809.241 27.064 809.658 26.8944C810.075 26.7249 810.453 26.4709 810.767 26.1483C811.081 25.8257 811.325 25.4416 811.483 25.0202C811.641 24.5988 811.711 24.1493 811.686 23.6999Z" fill="#919191"/>
<path d="M818.082 12.5488C818.082 12.0319 818.235 11.5265 818.523 11.0968C818.81 10.6669 819.219 10.3319 819.697 10.1341C820.175 9.93631 820.702 9.88455 821.209 9.9854C821.717 10.0863 822.183 10.3352 822.549 10.7007C822.915 11.0662 823.164 11.5319 823.265 12.0389C823.366 12.5459 823.314 13.0714 823.116 13.549C822.918 14.0265 822.583 14.4347 822.153 14.7219C821.722 15.0091 821.216 15.1624 820.699 15.1624C820.007 15.1555 819.345 14.878 818.856 14.3893C818.367 13.9006 818.089 13.2398 818.082 12.5488ZM818.522 16.4399H822.885V30.9598H818.516L818.522 16.4399Z" fill="#919191"/>
<path d="M841.718 23.6999C841.769 24.6595 841.629 25.6196 841.306 26.525C840.984 27.4303 840.485 28.2631 839.84 28.9755C839.194 29.6877 838.413 30.2655 837.543 30.6756C836.673 31.0856 835.73 31.3198 834.769 31.3647C833.961 31.4087 833.153 31.2726 832.404 30.9662C831.655 30.6596 830.983 30.1906 830.438 29.5929V36.7664H826.077V16.4399H830.438V17.8039C830.983 17.2066 831.655 16.7379 832.404 16.4318C833.153 16.1256 833.961 15.9896 834.769 16.0336C835.73 16.0783 836.673 16.3124 837.544 16.7225C838.414 17.1326 839.195 17.7104 839.841 18.4229C840.486 19.1355 840.985 19.9685 841.307 20.8742C841.629 21.7797 841.769 22.7401 841.718 23.6999ZM837.357 23.6999C837.34 23.0204 837.122 22.3609 836.732 21.8041C836.341 21.2473 835.795 20.8179 835.162 20.5697C834.528 20.3214 833.835 20.2652 833.17 20.4084C832.504 20.5514 831.896 20.8872 831.421 21.3739C830.945 21.8607 830.625 22.4764 830.498 23.1444C830.372 23.8124 830.445 24.5026 830.71 25.129C830.974 25.7554 831.418 26.2899 831.985 26.6658C832.552 27.0415 833.217 27.242 833.898 27.2419C834.365 27.2627 834.832 27.1845 835.267 27.0126C835.702 26.8409 836.095 26.5791 836.422 26.2447C836.749 25.9101 837.001 25.5106 837.162 25.0721C837.323 24.6335 837.389 24.1658 837.357 23.6999Z" fill="#919191"/>
<path d="M855.178 26.6024C855.178 29.942 852.271 31.3646 849.132 31.3646C847.863 31.4793 846.589 31.2115 845.475 30.5954C844.36 29.9794 843.456 29.0436 842.88 27.9092L846.659 25.7605C846.811 26.2848 847.14 26.7411 847.589 27.0528C848.038 27.3646 848.581 27.5132 849.126 27.4736C850.171 27.4736 850.696 27.1538 850.696 26.5745C850.696 24.9758 843.542 25.8192 843.542 20.7958C843.542 17.6293 846.218 16.0336 849.242 16.0336C850.378 15.9976 851.503 16.2669 852.501 16.8133C853.498 17.3597 854.33 18.1632 854.91 19.14L851.189 21.1434C851.026 20.7631 850.754 20.4391 850.408 20.212C850.061 19.9848 849.656 19.8645 849.242 19.866C848.485 19.866 848.02 20.1593 848.02 20.6785C848.026 22.3344 855.178 21.23 855.178 26.6024Z" fill="#919191"/>
<path d="M871.11 16.4399V30.9599H866.749V29.5944C866.245 30.1969 865.606 30.6717 864.884 30.9797C864.161 31.2877 863.377 31.4201 862.593 31.3661C859.655 31.3661 857.159 29.2761 857.159 25.3528V16.4399H861.521V24.7148C861.484 25.0607 861.523 25.4103 861.637 25.7393C861.748 26.0684 861.932 26.3691 862.173 26.6203C862.413 26.8715 862.706 27.0673 863.03 27.1942C863.353 27.3211 863.701 27.3759 864.049 27.3548C865.649 27.3548 866.753 26.4264 866.753 24.3643V16.4443L871.11 16.4399Z" fill="#919191"/>
<path d="M896.12 22.044V30.9584H891.758V22.4209C891.758 20.9689 891.061 20.0405 889.666 20.0405C888.212 20.0405 887.397 21.0569 887.397 22.77V30.9584H883.037V22.4209C883.037 20.9689 882.339 20.0405 880.942 20.0405C879.488 20.0405 878.675 21.0569 878.675 22.77V30.9584H874.313V16.4384H878.675V17.7731C879.127 17.181 879.721 16.7113 880.4 16.4073C881.082 16.1031 881.828 15.9742 882.571 16.0321C883.317 15.9956 884.06 16.153 884.728 16.4887C885.395 16.8243 885.963 17.3271 886.379 17.9476C886.862 17.2983 887.502 16.782 888.24 16.4471C888.977 16.1121 889.788 15.9694 890.595 16.0321C893.933 16.0336 896.12 18.414 896.12 22.044Z" fill="#919191"/>
<path d="M899.809 16.3504C901.596 16.3504 903.046 14.9031 903.046 13.1178C903.046 11.3326 901.596 9.88531 899.809 9.88531C898.022 9.88531 896.572 11.3326 896.572 13.1178C896.572 14.9031 898.022 16.3504 899.809 16.3504Z" fill="#919191"/>
<path d="M967.324 19.6108C966.767 20.17 966.341 20.845 966.076 21.5874C965.81 22.33 965.712 23.1218 965.788 23.9066L965.761 23.8802C965.84 24.8041 965.715 25.7337 965.396 26.6044C965.077 27.475 964.572 28.2657 963.916 28.9213C963.259 29.5768 962.467 30.0815 961.595 30.3997C960.724 30.7181 959.793 30.8428 958.868 30.7648L958.894 30.7912C957.788 30.6884 956.677 30.9287 955.712 31.4798C954.747 32.0308 953.976 32.8655 953.504 33.8701C953.032 34.8748 952.882 36.0003 953.073 37.0936C953.265 38.1867 953.79 39.1941 954.576 39.9785C955.362 40.7629 956.371 41.2861 957.466 41.4766C958.561 41.6672 959.688 41.5159 960.693 41.0435C961.699 40.5709 962.534 39.8003 963.085 38.8364C963.636 37.8725 963.875 36.7626 963.771 35.6576L963.799 35.684C963.721 34.7603 963.846 33.8305 964.165 32.9598C964.484 32.0892 964.989 31.2985 965.645 30.6429C966.302 29.9874 967.093 29.4828 967.965 29.1645C968.837 28.8461 969.768 28.7214 970.693 28.7994L970.665 28.773C971.569 28.8541 972.478 28.7062 973.31 28.3427C974.141 27.9793 974.867 27.4121 975.42 26.6939C975.974 25.9757 976.337 25.1294 976.475 24.2339C976.614 23.3382 976.524 22.4221 976.214 21.5702C975.904 20.7185 975.384 19.9588 974.701 19.3614C974.019 18.7641 973.196 18.3484 972.31 18.1531C971.424 17.9577 970.503 17.9888 969.632 18.2435C968.761 18.4985 967.969 18.9687 967.328 19.6108H967.324Z" fill="#919191"/>
<path d="M956.49 27.3328L956.462 27.3064C957.248 27.3855 958.042 27.2891 958.787 27.0242C959.531 26.7594 960.207 26.3327 960.766 25.7749C961.325 25.2172 961.753 24.5422 962.019 23.799C962.284 23.0559 962.381 22.2631 962.303 21.4779L962.331 21.5043C962.253 20.5804 962.377 19.6509 962.696 18.7801C963.015 17.9095 963.52 17.1188 964.177 16.4632C964.833 15.8078 965.625 15.3031 966.497 14.9848C967.368 14.6663 968.299 14.5418 969.224 14.6198L969.196 14.5934C970.303 14.6972 971.414 14.4575 972.38 13.9071C973.345 13.3567 974.117 12.5224 974.589 11.5179C975.062 10.5134 975.213 9.38773 975.022 8.29432C974.831 7.2009 974.307 6.19304 973.521 5.40817C972.735 4.62331 971.726 4.09965 970.631 3.90866C969.536 3.71766 968.409 3.86859 967.403 4.34089C966.397 4.81317 965.562 5.58383 965.011 6.54774C964.46 7.51163 964.22 8.62185 964.324 9.72696L964.297 9.69909C964.375 10.6229 964.251 11.5527 963.932 12.4235C963.614 13.2943 963.108 14.0851 962.452 14.7408C961.795 15.3962 961.004 15.9009 960.132 16.2192C959.26 16.5374 958.329 16.6618 957.404 16.5836L957.43 16.6115C956.644 16.5324 955.85 16.6288 955.106 16.8937C954.361 17.1584 953.685 17.5852 953.126 18.143C952.567 18.7008 952.14 19.3757 951.874 20.1189C951.608 20.862 951.511 21.6548 951.59 22.44L951.563 22.4136C951.641 23.3373 951.516 24.2669 951.197 25.1375C950.878 26.008 950.373 26.7987 949.717 27.4541C949.06 28.1096 948.269 28.6141 947.397 28.9327C946.525 29.2511 945.595 29.3759 944.67 29.2982L944.696 29.3246C943.59 29.2207 942.478 29.4604 941.513 30.0108C940.548 30.5612 939.776 31.3955 939.303 32.4C938.83 33.4045 938.679 34.5302 938.87 35.6236C939.062 36.717 939.586 37.7249 940.372 38.5097C941.158 39.2947 942.167 39.8183 943.262 40.0092C944.357 40.2002 945.484 40.0493 946.489 39.577C947.495 39.1047 948.331 38.3341 948.882 37.3702C949.433 36.4062 949.673 35.2961 949.569 34.191L949.597 34.2174C949.519 33.2935 949.643 32.3639 949.962 31.4932C950.281 30.6226 950.786 29.8319 951.443 29.1763C952.099 28.5208 952.891 28.0161 953.763 27.6979C954.634 27.3795 955.565 27.2548 956.49 27.3328Z" fill="#919191"/>
<path d="M946.648 24.3892C947.205 23.8301 947.631 23.1552 947.896 22.4126C948.161 21.67 948.259 20.878 948.183 20.0934L948.21 20.1198C948.132 19.1958 948.257 18.2657 948.576 17.3948C948.895 16.5239 949.401 15.7331 950.057 15.0775C950.714 14.4219 951.506 13.9174 952.378 13.5992C953.25 13.281 954.182 13.1568 955.107 13.2352L955.079 13.2088C956.185 13.3123 957.296 13.0725 958.261 12.5222C959.226 11.9719 959.997 11.1377 960.47 10.1336C960.942 9.1294 961.093 8.0041 960.902 6.91109C960.711 5.81809 960.187 4.81061 959.401 4.02603C958.615 3.24145 957.607 2.71797 956.512 2.52698C955.418 2.33597 954.291 2.48678 953.286 2.95878C952.28 3.43078 951.445 4.20103 950.894 5.16448C950.343 6.12794 950.103 7.23771 950.206 8.34243L950.18 8.31603C950.258 9.23981 950.133 10.1695 949.814 11.0402C949.495 11.9108 948.99 12.7015 948.334 13.3571C947.678 14.0126 946.886 14.5172 946.014 14.8355C945.142 15.1539 944.211 15.2786 943.286 15.2006L943.313 15.227C942.409 15.146 941.499 15.2943 940.668 15.6579C939.837 16.0215 939.111 16.5888 938.558 17.3071C938.005 18.0254 937.642 18.8716 937.503 19.7672C937.365 20.6629 937.455 21.5789 937.765 22.4305C938.075 23.2822 938.596 24.0418 939.278 24.639C939.961 25.2364 940.783 25.6519 941.669 25.8472C942.555 26.0425 943.477 26.0112 944.347 25.7565C945.218 25.5015 946.01 25.0313 946.651 24.3892H946.648Z" fill="#919191"/>
<path d="M992.14 9.76068H996.502V30.9584H992.14V9.76068Z" fill="#919191"/>
<path d="M998.972 23.6999C998.966 22.1766 999.412 20.6856 1000.26 19.4161C1001.1 18.1465 1002.3 17.1553 1003.71 16.5682C1005.11 15.981 1006.66 15.8242 1008.16 16.1177C1009.66 16.4111 1011.03 17.1415 1012.11 18.2166C1013.2 19.2915 1013.93 20.6627 1014.23 22.1564C1014.53 23.65 1014.38 25.199 1013.8 26.607C1013.22 28.0148 1012.23 29.2187 1010.96 30.0655C1009.69 30.9125 1008.2 31.3647 1006.68 31.3647C1005.66 31.3763 1004.66 31.1861 1003.72 30.8053C1002.78 30.4246 1001.93 29.8609 1001.21 29.1474C1000.5 28.4337 999.929 27.5844 999.544 26.6491C999.159 25.7138 998.964 24.7112 998.972 23.6999ZM1010.02 23.6999C1010 23.0433 1009.79 22.4066 1009.41 21.8693C1009.03 21.3323 1008.51 20.9184 1007.89 20.6797C1007.28 20.441 1006.61 20.3879 1005.97 20.5272C1005.32 20.6665 1004.74 20.9918 1004.28 21.4628C1003.82 21.9336 1003.51 22.5291 1003.39 23.1747C1003.27 23.8202 1003.34 24.4872 1003.6 25.0924C1003.85 25.6975 1004.28 26.2138 1004.83 26.5768C1005.38 26.9398 1006.02 27.1334 1006.68 27.1334C1007.13 27.1454 1007.58 27.064 1007.99 26.8944C1008.41 26.7249 1008.79 26.4709 1009.1 26.1483C1009.42 25.8257 1009.66 25.4416 1009.82 25.0202C1009.98 24.5988 1010.05 24.1493 1010.02 23.6999Z" fill="#919191"/>
<path d="M1031.77 16.4399V30.2266C1031.77 35.1047 1027.96 37.1668 1024.09 37.1668C1022.73 37.2686 1021.37 36.9939 1020.15 36.3731C1018.93 35.7521 1017.91 34.8089 1017.2 33.6468L1020.92 31.4982C1021.22 32.1039 1021.7 32.6036 1022.29 32.9305C1022.88 33.2573 1023.56 33.3957 1024.24 33.3271C1024.67 33.3866 1025.1 33.3488 1025.52 33.2164C1025.93 33.0839 1026.31 32.8603 1026.63 32.5621C1026.94 32.2638 1027.18 31.8986 1027.34 31.4932C1027.49 31.0879 1027.56 30.6531 1027.52 30.2207V28.8934C1027.01 29.5174 1026.36 30.0133 1025.62 30.3411C1024.89 30.6689 1024.08 30.8195 1023.28 30.781C1021.36 30.7205 1019.54 29.9171 1018.2 28.5405C1016.87 27.164 1016.12 25.3225 1016.12 23.4058C1016.12 21.4892 1016.87 19.6476 1018.2 18.2712C1019.54 16.8946 1021.36 16.0911 1023.28 16.0307C1024.08 15.9921 1024.89 16.1427 1025.62 16.4705C1026.36 16.7983 1027.01 17.2942 1027.52 17.9183V16.437L1031.77 16.4399ZM1027.52 23.408C1027.55 22.7061 1027.37 22.0113 1027 21.4134C1026.63 20.8153 1026.09 20.3414 1025.45 20.0526C1024.81 19.7637 1024.1 19.6732 1023.4 19.7925C1022.71 19.9119 1022.07 20.2358 1021.56 20.7226C1021.05 21.2092 1020.7 21.8363 1020.55 22.5233C1020.41 23.2103 1020.47 23.9258 1020.73 24.5774C1020.99 25.229 1021.45 25.7873 1022.03 26.18C1022.61 26.5728 1023.3 26.7822 1024 26.7814C1024.46 26.8133 1024.92 26.7491 1025.35 26.5927C1025.79 26.4364 1026.18 26.1913 1026.51 25.8736C1026.84 25.5558 1027.1 25.1723 1027.28 24.7475C1027.45 24.3229 1027.54 23.8667 1027.52 23.408Z" fill="#919191"/>
<path d="M1034.24 23.6999C1034.23 22.1766 1034.68 20.6856 1035.52 19.4161C1036.36 18.1465 1037.56 17.1553 1038.97 16.5682C1040.38 15.981 1041.93 15.8242 1043.43 16.1177C1044.92 16.4111 1046.3 17.1415 1047.38 18.2166C1048.46 19.2915 1049.2 20.6627 1049.5 22.1564C1049.8 23.65 1049.65 25.199 1049.06 26.607C1048.48 28.0148 1047.49 29.2187 1046.23 30.0655C1044.96 30.9125 1043.47 31.3647 1041.94 31.3647C1040.93 31.3763 1039.92 31.1861 1038.99 30.8053C1038.05 30.4246 1037.2 29.8609 1036.48 29.1474C1035.76 28.4337 1035.19 27.5844 1034.81 26.6491C1034.42 25.7138 1034.23 24.7112 1034.24 23.6999ZM1045.29 23.6999C1045.27 23.0433 1045.06 22.4066 1044.68 21.8693C1044.3 21.3323 1043.77 20.9184 1043.16 20.6797C1042.54 20.441 1041.88 20.3879 1041.23 20.5272C1040.59 20.6665 1040 20.9918 1039.54 21.4628C1039.09 21.9336 1038.78 22.5291 1038.65 23.1747C1038.53 23.8202 1038.6 24.4872 1038.86 25.0924C1039.12 25.6975 1039.54 26.2138 1040.09 26.5768C1040.64 26.9398 1041.28 27.1334 1041.94 27.1334C1042.39 27.1454 1042.84 27.064 1043.26 26.8944C1043.68 26.7249 1044.05 26.4709 1044.37 26.1483C1044.68 25.8257 1044.93 25.4416 1045.08 25.0202C1045.24 24.5988 1045.31 24.1493 1045.29 23.6999Z" fill="#919191"/>
<path d="M1051.68 12.5488C1051.68 12.0319 1051.84 11.5265 1052.12 11.0968C1052.41 10.6669 1052.82 10.3319 1053.3 10.1341C1053.78 9.93631 1054.3 9.88455 1054.81 9.9854C1055.32 10.0863 1055.78 10.3352 1056.15 10.7007C1056.52 11.0662 1056.76 11.5319 1056.87 12.0389C1056.97 12.5459 1056.91 13.0714 1056.72 13.549C1056.52 14.0265 1056.18 14.4347 1055.75 14.7219C1055.32 15.0091 1054.82 15.1624 1054.3 15.1624C1053.61 15.1555 1052.95 14.878 1052.46 14.3893C1051.97 13.9006 1051.69 13.2398 1051.68 12.5488ZM1052.12 16.4399H1056.49V30.9598H1052.12L1052.12 16.4399Z" fill="#919191"/>
<path d="M1075.32 23.6999C1075.37 24.6595 1075.23 25.6196 1074.91 26.525C1074.58 27.4303 1074.09 28.2631 1073.44 28.9755C1072.79 29.6877 1072.01 30.2655 1071.14 30.6756C1070.27 31.0856 1069.33 31.3198 1068.37 31.3647C1067.56 31.4087 1066.75 31.2726 1066 30.9662C1065.25 30.6596 1064.58 30.1906 1064.04 29.5929V36.7664H1059.68V16.4399H1064.04V17.8039C1064.58 17.2066 1065.26 16.7379 1066 16.4318C1066.75 16.1256 1067.56 15.9896 1068.37 16.0336C1069.33 16.0783 1070.27 16.3124 1071.14 16.7225C1072.01 17.1326 1072.79 17.7104 1073.44 18.4229C1074.09 19.1355 1074.58 19.9685 1074.91 20.8742C1075.23 21.7797 1075.37 22.7401 1075.32 23.6999ZM1070.96 23.6999C1070.94 23.0204 1070.72 22.3609 1070.33 21.8041C1069.94 21.2473 1069.4 20.8179 1068.76 20.5697C1068.13 20.3214 1067.43 20.2652 1066.77 20.4084C1066.1 20.5514 1065.5 20.8872 1065.02 21.3739C1064.55 21.8607 1064.22 22.4764 1064.1 23.1444C1063.97 23.8124 1064.05 24.5026 1064.31 25.129C1064.57 25.7554 1065.02 26.2899 1065.58 26.6658C1066.15 27.0415 1066.82 27.242 1067.5 27.2419C1067.97 27.2627 1068.43 27.1845 1068.87 27.0126C1069.3 26.8409 1069.7 26.5791 1070.02 26.2447C1070.35 25.9101 1070.6 25.5106 1070.76 25.0721C1070.92 24.6335 1070.99 24.1658 1070.96 23.6999Z" fill="#919191"/>
<path d="M1088.78 26.6024C1088.78 29.942 1085.87 31.3646 1082.73 31.3646C1081.46 31.4793 1080.19 31.2115 1079.07 30.5954C1077.96 29.9794 1077.06 29.0436 1076.48 27.9092L1080.26 25.7605C1080.41 26.2848 1080.74 26.7411 1081.19 27.0528C1081.64 27.3646 1082.18 27.5132 1082.73 27.4736C1083.77 27.4736 1084.3 27.1538 1084.3 26.5745C1084.3 24.9758 1077.14 25.8192 1077.14 20.7958C1077.14 17.6293 1079.82 16.0336 1082.84 16.0336C1083.98 15.9976 1085.1 16.2669 1086.1 16.8133C1087.1 17.3597 1087.93 18.1632 1088.51 19.14L1084.79 21.1434C1084.63 20.7631 1084.35 20.4391 1084.01 20.212C1083.66 19.9848 1083.26 19.8645 1082.84 19.866C1082.09 19.866 1081.62 20.1593 1081.62 20.6785C1081.63 22.3344 1088.78 21.23 1088.78 26.6024Z" fill="#919191"/>
<path d="M1104.71 16.4399V30.9599H1100.35V29.5944C1099.84 30.1969 1099.21 30.6717 1098.48 30.9797C1097.76 31.2877 1096.98 31.4201 1096.19 31.3661C1093.26 31.3661 1090.76 29.2761 1090.76 25.3528V16.4399H1095.12V24.7148C1095.08 25.0607 1095.12 25.4103 1095.24 25.7393C1095.35 26.0684 1095.53 26.3691 1095.77 26.6203C1096.01 26.8715 1096.31 27.0673 1096.63 27.1942C1096.95 27.3211 1097.3 27.3759 1097.65 27.3548C1099.25 27.3548 1100.35 26.4264 1100.35 24.3643V16.4443L1104.71 16.4399Z" fill="#919191"/>
<path d="M1129.72 22.044V30.9584H1125.36V22.4209C1125.36 20.9689 1124.66 20.0405 1123.27 20.0405C1121.81 20.0405 1121 21.0569 1121 22.77V30.9584H1116.64V22.4209C1116.64 20.9689 1115.94 20.0405 1114.54 20.0405C1113.09 20.0405 1112.27 21.0569 1112.27 22.77V30.9584H1107.91V16.4384H1112.27V17.7731C1112.73 17.181 1113.32 16.7113 1114 16.4073C1114.68 16.1031 1115.43 15.9742 1116.17 16.0321C1116.92 15.9956 1117.66 16.153 1118.33 16.4887C1119 16.8243 1119.56 17.3271 1119.98 17.9476C1120.46 17.2983 1121.1 16.782 1121.84 16.4471C1122.58 16.1121 1123.39 15.9694 1124.2 16.0321C1127.53 16.0336 1129.72 18.414 1129.72 22.044Z" fill="#919191"/>
<path d="M1133.41 16.3504C1135.2 16.3504 1136.65 14.9031 1136.65 13.1178C1136.65 11.3326 1135.2 9.88531 1133.41 9.88531C1131.62 9.88531 1130.17 11.3326 1130.17 13.1178C1130.17 14.9031 1131.62 16.3504 1133.41 16.3504Z" fill="#919191"/>
</svg>
