<svg width="100" height="99" viewBox="0 0 100 99" fill="none" xmlns="http://www.w3.org/2000/svg">
<g id="Frame" clip-path="url(#clip0_8_32)">
<g id="Group">
<path id="Vector" d="M54.0142 48.7847V29.4403C54.0142 27.0567 52.075 25.1239 49.6822 25.1239C47.2899 25.1239 45.3502 27.0561 45.3502 29.4403V50.9145C45.3502 51.8401 45.7189 52.7279 46.3762 53.3822L64.3887 71.33C66.0801 73.0153 68.8231 73.0153 70.5145 71.33C72.2059 69.6447 72.2059 66.9115 70.5145 65.2262L54.0142 48.7847Z" fill="#13C265"/>
<path id="Vector_2" d="M66.5361 88.6623C65.8533 87.0761 64.0613 86.2751 62.4205 86.8292C60.1521 87.5947 57.8198 88.1482 55.4421 88.4849C53.7263 88.7283 52.4897 90.2502 52.5996 91.9732L52.8294 95.5762C52.9521 97.4991 54.6883 98.9079 56.6042 98.6477C59.8049 98.2131 62.9428 97.4683 65.9888 96.42C67.8169 95.7906 68.7277 93.7506 67.9652 91.9795L66.5361 88.6623Z" fill="#13C265"/>
<path id="Vector_3" d="M90.5005 71.2529L87.2963 69.5676C85.7637 68.7614 83.8641 69.2616 82.9382 70.7214C81.6557 72.7423 80.1911 74.6391 78.5561 76.3957C77.3772 77.662 77.3801 79.6208 78.5561 80.89L81.0141 83.5426C82.3257 84.9578 84.5644 84.9613 85.887 83.5565C88.0949 81.2117 90.0602 78.6663 91.7656 75.9431C92.7887 74.3076 92.21 72.1523 90.5005 71.2529Z" fill="#13C265"/>
<path id="Vector_4" d="M98.8534 43.8419C98.6172 41.9358 96.8002 40.6347 94.9093 41.0074L91.355 41.7081C89.6519 42.0436 88.4968 43.6281 88.6981 45.3458C88.876 46.863 88.9656 48.3959 88.9656 49.9294C88.9656 50.7825 88.9377 51.6379 88.8824 52.4898C88.7702 54.218 90.0056 55.7427 91.7255 55.9896L95.3118 56.5043C97.2277 56.779 98.9662 55.3718 99.1029 53.4478C99.1861 52.2771 99.2279 51.1012 99.2279 49.9288C99.2285 47.8929 99.1029 45.8564 98.8534 43.8419Z" fill="#13C265"/>
<path id="Vector_5" d="M36.4576 86.5209C35.4141 86.1407 34.3864 85.7159 33.3825 85.2499C19.6577 78.8744 10.7896 65.0101 10.7896 49.9288C10.7896 28.4534 28.3246 10.9815 49.8776 10.9815C58.7085 10.9815 67.1486 13.9301 73.9647 19.2515L69.9742 21.9956C69.5211 22.3068 69.5763 22.9901 70.0736 23.2254L89.5967 32.458C90.094 32.6933 90.6599 32.3038 90.6157 31.7573L88.879 10.2947C88.8347 9.7482 88.2136 9.45437 87.7605 9.76558L82.7259 13.2277C73.7402 5.23243 62.1064 0.755493 49.8782 0.755493C43.2179 0.755493 36.7548 2.05656 30.6669 4.6216C27.7412 5.85428 24.9203 7.3802 22.282 9.15649C19.6699 10.9148 17.2137 12.9339 14.982 15.1582C12.7502 17.3819 10.7238 19.8293 8.95859 22.432C7.17589 25.0608 5.64503 27.8721 4.40731 30.7866C1.83301 36.8521 0.527245 43.2925 0.527245 49.9288C0.527245 59.4715 3.27488 68.7279 8.47351 76.6965C13.5343 84.4542 20.6482 90.6165 29.0458 94.5179C30.4098 95.1514 31.8092 95.7245 33.2307 96.2322C34.925 96.8372 36.7798 95.8868 37.2707 94.1609L38.377 90.2728C38.8208 88.7144 37.9844 87.0766 36.4576 86.5209Z" fill="#13C265"/>
</g>
</g>
<defs>
<clipPath id="clip0_8_32">
<rect width="98.7013" height="97.9241" fill="white" transform="translate(0.527245 0.755493)"/>
</clipPath>
</defs>
</svg>
