<svg width="87" height="98" viewBox="0 0 87 98" fill="none" xmlns="http://www.w3.org/2000/svg">
<g id="Frame" clip-path="url(#clip0_8_78)">
<path id="Vector" d="M70.9718 78.7289H57.6785C57.1285 78.7289 56.591 78.9506 56.2022 79.3384C55.8135 79.7263 55.5877 80.2625 55.5877 80.813V93.537H5.0427V4.26328H70.9718V39.1878L75.1497 34.4495V2.17925C75.1497 1.63053 74.9257 1.09433 74.5387 0.704695C74.15 0.316844 73.6107 0.0952148 73.0607 0.0952148H2.95376C2.40196 0.0952148 1.86628 0.316844 1.47573 0.704695C1.08696 1.09433 0.864807 1.63053 0.864807 2.17925V95.621C0.864807 96.1697 1.08696 96.7059 1.47573 97.0956C1.86449 97.4834 2.40196 97.705 2.95376 97.705H60.2906C60.8406 97.705 61.3744 97.487 61.7614 97.0991L68.202 90.7148L68.211 90.7058L74.5405 84.3662C74.9293 83.9765 75.1497 83.4439 75.1497 82.8952V45.8509L70.9718 50.5892V78.7289ZM59.7674 93.612V82.897H70.8947L59.7674 93.612Z" fill="#00DD68"/>
<path id="Vector_2" d="M63.1355 25.302H20.0577V31.4897H63.1355V25.302Z" fill="#00DD68"/>
<path id="Vector_3" d="M63.1355 35.5613H12.7105V41.749H63.1355V35.5613Z" fill="#00DD68"/>
<path id="Vector_4" d="M12.7105 45.8206V52.0101H59.6635L63.1355 48.0726V45.8206H12.7105Z" fill="#00DD68"/>
<path id="Vector_5" d="M12.7105 56.0817V62.2694H37.9642L36.4611 60.6358L34.6122 58.625C34.3041 58.2872 34.2504 57.7886 34.485 57.3954C34.675 57.0754 35.0171 56.886 35.379 56.886L35.6281 56.9164L45.2164 59.2721C45.4153 59.3221 45.5945 59.4276 45.7324 59.5795L48.2083 62.2694H50.6144L55.9693 56.1996V56.0817H12.7105Z" fill="#00DD68"/>
<path id="Vector_6" d="M85.9187 32.0706L81.8142 28.4656C81.6243 28.2976 81.3807 28.2064 81.1281 28.2064L81.0618 28.2082C80.7859 28.2243 80.5279 28.3512 80.347 28.5585L75.1497 34.4514L70.9718 39.1896L63.1355 48.0744L59.6653 52.0101L55.9693 56.1996L50.6144 62.2694L49.4373 63.6045L48.2083 62.2694L45.7324 59.5795C45.5944 59.4293 45.4153 59.3221 45.2164 59.2721L35.6281 56.9164L35.379 56.886C35.0171 56.886 34.6749 57.0754 34.485 57.3954C34.2504 57.7886 34.3023 58.289 34.6122 58.625L36.4611 60.6358L37.9642 62.2694L46.716 71.7834C47.429 72.5591 48.443 73.0041 49.4982 73.0041C50.6054 72.9934 51.623 72.5287 52.3307 71.7262L70.9718 50.5874L75.1515 45.851L86.0154 33.5345C86.3934 33.1037 86.3522 32.4478 85.9187 32.0706Z" fill="#00DD68"/>
</g>
<defs>
<clipPath id="clip0_8_78">
<rect width="85.4086" height="97.6098" fill="white" transform="translate(0.864807 0.0952148)"/>
</clipPath>
</defs>
</svg>
