<svg width="693" height="328" viewBox="0 0 693 328" fill="none" xmlns="http://www.w3.org/2000/svg">
<path d="M228.794 2.10716C401.755 2.10716 502.1 187.219 504.314 227.623C509.848 328.827 385.327 311.344 339.638 311.344H37.2692C-4.0901 311.344 8.56049 44.2943 8.56049 44.2943C13.0726 9.2792 41.2082 2.10716 64.5972 2.10716H228.794Z" fill="#D0F3E0"/>
<path d="M234.474 293.203V303.124H224.991L225.527 294.663L234.474 293.203Z" fill="#82664B"/>
<path d="M164.234 98.4496C164.234 98.4496 167.495 70.162 190.702 70.3101C213.908 70.4583 214.471 206.365 214.471 206.365C214.471 206.365 221.859 177.561 239.006 179.186C256.148 180.816 250.417 286.135 245.785 291.782C241.148 297.428 223.923 294.937 219.119 295.974C214.31 297.006 215.326 302.131 201.8 304.211C188.274 306.291 175.853 306.795 167.443 298.526C159.028 290.256 162.233 120.306 164.234 98.4496Z" fill="#515032"/>
<path d="M172.648 0H0V311.35H172.648V0Z" fill="#FFE2BD"/>
<path d="M123.421 72.1978H31.0846V293.203H123.421V72.1978Z" fill="#2E2E47"/>
<path d="M130.528 293.878C130.174 293.878 129.887 293.576 129.887 293.203V65.3934H123.427C123.072 65.3934 122.786 65.0916 122.786 64.7185C122.786 64.3453 123.072 64.0435 123.427 64.0435H131.169V293.203C131.169 293.576 130.883 293.878 130.528 293.878ZM23.983 293.878C23.6287 293.878 23.3421 293.576 23.3421 293.203V64.0435H85.0059C85.3602 64.0435 85.6468 64.3453 85.6468 64.7185C85.6468 65.0916 85.3602 65.3934 85.0059 65.3934H24.6238V293.203C24.6238 293.576 24.3373 293.878 23.983 293.878Z" fill="#2E2E47"/>
<path d="M123.421 72.1978L45.6161 81.6142V284.72L123.421 293.203V72.1978Z" fill="#774237"/>
<path d="M102.757 168.782L63.8521 167.256V92.4134L102.757 87.0577V168.782Z" fill="#84CECA"/>
<path d="M85.0059 88.9783H81.614V170.636H85.0059V88.9783Z" fill="#774237"/>
<path d="M104.373 126.134H60.95V129.706H104.373V126.134Z" fill="#774237"/>
<path d="M52.2331 185.557C54.3741 185.557 56.1096 182.093 56.1096 177.819C56.1096 173.546 54.3741 170.082 52.2331 170.082C50.0922 170.082 48.3567 173.546 48.3567 177.819C48.3567 182.093 50.0922 185.557 52.2331 185.557Z" fill="#FFEA8F"/>
<path d="M75.6378 118.912C75.4711 118.912 75.3095 118.813 75.2314 118.643L67.2701 100.732C67.1659 100.496 67.2596 100.216 67.4837 100.107C67.7077 99.997 67.9735 100.096 68.0777 100.332L76.039 118.243C76.1432 118.479 76.0494 118.758 75.8254 118.868C75.768 118.896 75.7055 118.912 75.6378 118.912Z" fill="white"/>
<path d="M76.7163 111.833C76.5496 111.833 76.388 111.735 76.3099 111.564L72.3813 102.735C72.2771 102.499 72.3709 102.219 72.595 102.11C72.819 102 73.0847 102.099 73.1889 102.335L77.1175 111.164C77.2217 111.4 77.1279 111.68 76.9039 111.789C76.8466 111.817 76.7788 111.833 76.7163 111.833Z" fill="white"/>
<path d="M96.8383 155.776C96.6716 155.776 96.5101 155.678 96.4319 155.508L88.4706 137.597C88.3664 137.361 88.4602 137.081 88.6842 136.971C88.9083 136.861 89.174 136.96 89.2782 137.196L97.2395 155.107C97.3437 155.343 97.2499 155.623 97.0259 155.733C96.9686 155.766 96.9008 155.776 96.8383 155.776Z" fill="white"/>
<path d="M97.917 148.698C97.7503 148.698 97.5888 148.599 97.5106 148.429L93.582 139.6C93.4778 139.364 93.5716 139.084 93.7957 138.974C94.0197 138.864 94.2854 138.963 94.3896 139.199L98.3182 148.028C98.4224 148.264 98.3286 148.544 98.1046 148.654C98.042 148.687 97.9795 148.698 97.917 148.698Z" fill="white"/>
<path d="M92.8005 155.601C92.6338 155.601 92.4722 155.502 92.3941 155.332L88.4655 146.503C88.3613 146.267 88.4551 145.987 88.6791 145.877C88.9032 145.767 89.1689 145.866 89.2731 146.102L93.2017 154.931C93.3059 155.167 93.2121 155.447 92.9881 155.557C92.9307 155.59 92.8682 155.601 92.8005 155.601Z" fill="white"/>
<path d="M190.702 302.274C162.691 302.312 0 311.35 0 311.35V323.587C0 323.587 123.963 323.066 251.881 322.231C259.837 316.634 273.071 308.266 288.551 302.186C243.336 302.202 190.702 302.274 190.702 302.274Z" fill="#515032"/>
<path d="M541.183 306.291C530.767 303.338 360.12 302.493 352.111 302.279C348.792 302.191 320.527 302.175 288.551 302.186C273.077 308.266 259.842 316.634 251.881 322.231C381.253 321.386 514.667 320.223 527.964 318.95C554.401 316.415 551.598 309.243 541.183 306.291Z" fill="#EAE6E4"/>
<path d="M448.439 314.319C527.78 314.319 592.097 312.528 592.097 310.318C592.097 308.109 527.78 306.318 448.439 306.318C369.099 306.318 304.781 308.109 304.781 310.318C304.781 312.528 369.099 314.319 448.439 314.319Z" fill="#2E2E47"/>
<path d="M315.473 248.684C311.7 248.684 308.647 262.649 308.647 279.869C308.647 297.088 311.706 311.054 315.473 311.054H326.998V248.684H315.473Z" fill="#2E2E47"/>
<path d="M326.993 311.054C330.762 311.054 333.818 297.092 333.818 279.869C333.818 262.646 330.762 248.684 326.993 248.684C323.223 248.684 320.167 262.646 320.167 279.869C320.167 297.092 323.223 311.054 326.993 311.054Z" fill="#2E2E47"/>
<path d="M329.197 279.869C329.197 291.288 328.212 300.545 326.993 300.545C325.779 300.545 324.789 291.288 324.789 279.869C324.789 268.449 325.773 259.192 326.993 259.192C328.212 259.192 329.197 268.449 329.197 279.869Z" fill="white"/>
<path d="M575.253 218.322C569.886 203.934 559.637 192.63 559.637 192.63L533.607 83.447C531.898 76.2804 526.703 70.6119 519.966 68.5542L474.22 54.6052C467.613 52.5913 460.876 51.1426 454.066 50.2646C454.707 51.1207 455.181 52.4706 455.369 54.0949C468.546 170.861 460.194 246.417 456.395 271.605C456.01 274.151 455.28 276.324 454.332 277.932H472.302L571.397 275.1C576.289 274.957 580.166 270.705 580.093 265.547C579.905 252.283 579.025 228.441 575.253 218.322Z" fill="#13C265"/>
<path d="M455.364 54.0894C455.182 52.4651 454.702 51.1152 454.061 50.2592C448.882 49.5897 443.662 49.255 438.43 49.255H377.793H293.47C290.745 49.255 288.384 51.2359 287.764 54.029C262.172 169.292 278.396 243.871 285.769 268.735C287.389 274.2 292.193 277.926 297.633 277.926H308.752H454.332C455.281 276.318 456.015 274.151 456.396 271.599C460.189 246.412 468.541 170.861 455.364 54.0894Z" fill="#00DD68"/>
<path d="M529.23 120.218V192.57H542.193C547.701 192.57 551.749 187.137 550.446 181.501L537.738 126.655C537.212 124.378 535.618 122.539 533.513 121.771L529.23 120.218Z" fill="#2E2E47"/>
<path d="M571.397 275.095C576.289 274.952 580.166 270.699 580.093 265.541C579.963 256.492 579.515 242.51 578.04 231.333C575.503 229.544 571.866 228.605 566.661 229.434C547.727 232.447 546.184 257.957 546.184 257.957H496.645C496.645 257.957 496.202 238.944 485.636 230.361C478.393 224.484 467.671 224.704 460.668 231.086C459.365 249.754 457.636 263.368 456.395 271.599C456.01 274.145 455.28 276.318 454.332 277.926H472.302L571.397 275.095Z" fill="#2E2E47"/>
<path d="M557.116 248.684C553.349 248.684 550.29 262.649 550.29 279.869C550.29 297.088 553.349 311.054 557.116 311.054H568.641V248.684H557.116Z" fill="#2E2E47"/>
<path d="M568.641 311.054C572.41 311.054 575.466 297.092 575.466 279.869C575.466 262.646 572.41 248.684 568.641 248.684C564.871 248.684 561.815 262.646 561.815 279.869C561.815 297.092 564.871 311.054 568.641 311.054Z" fill="#2E2E47"/>
<path d="M570.839 279.869C570.839 291.288 569.855 300.545 568.636 300.545C567.422 300.545 566.432 291.288 566.432 279.869C566.432 268.449 567.416 259.192 568.636 259.192C569.855 259.192 570.839 268.449 570.839 279.869Z" fill="white"/>
<path d="M462.205 151.057H442.698V171.075H462.502C462.476 164.666 462.377 157.993 462.205 151.057Z" fill="white"/>
<path d="M442.698 216.451H461.533C461.799 211.079 462.017 205.383 462.184 199.368H442.698V216.451Z" fill="white"/>
<path d="M462.502 171.075H442.698V199.368H462.184C462.429 190.605 462.549 181.167 462.502 171.075Z" fill="#FFC97D"/>
<path d="M274.191 151.057H293.699V171.075H273.894C273.92 164.666 274.014 157.993 274.191 151.057Z" fill="white"/>
<path d="M293.694 216.451H274.859C274.593 211.079 274.374 205.383 274.207 199.368H293.694V216.451Z" fill="white"/>
<path d="M273.889 171.075H293.694V199.368H274.207C273.968 190.605 273.842 181.167 273.889 171.075Z" fill="#FFC97D"/>
<path d="M472.678 248.684C468.911 248.684 465.852 262.649 465.852 279.869C465.852 297.088 468.911 311.054 472.678 311.054H484.203V248.684H472.678Z" fill="#2E2E47"/>
<path d="M484.203 311.054C487.972 311.054 491.028 297.092 491.028 279.869C491.028 262.646 487.972 248.684 484.203 248.684C480.433 248.684 477.377 262.646 477.377 279.869C477.377 297.092 480.433 311.054 484.203 311.054Z" fill="#2E2E47"/>
<path d="M486.402 279.869C486.402 291.288 485.417 300.545 484.198 300.545C482.984 300.545 481.994 291.288 481.994 279.869C481.994 268.449 482.978 259.192 484.198 259.192C485.417 259.192 486.402 268.449 486.402 279.869Z" fill="white"/>
<path d="M444.156 58.5616H292.24V265.859H444.156V58.5616Z" fill="#2E2E47"/>
<path d="M444.156 58.5616H292.24V123H444.156V58.5616Z" fill="#EAE6E4"/>
<path d="M444.156 111.416H292.24V111.888H444.156V111.416Z" fill="#2E2E47"/>
<path d="M444.156 97.5002H292.24V97.9721H444.156V97.5002Z" fill="#2E2E47"/>
<path d="M444.156 83.5897H292.24V84.0616H444.156V83.5897Z" fill="#2E2E47"/>
<path d="M444.156 69.6736H292.24V70.1455H444.156V69.6736Z" fill="#2E2E47"/>
<path d="M470.849 199.083L470.88 198.798C472.011 188.097 472.933 169.007 470.932 138.842C469.734 120.794 468.035 107.164 468.014 107.026L467.973 106.697L526.411 119.988L526.318 120.449L468.499 107.301C468.765 109.49 470.281 122.309 471.375 138.809C473.36 168.749 472.464 187.795 471.349 198.567L526.344 193.491L526.38 193.958L470.849 199.083Z" fill="#2E2E47"/>
<path d="M292.24 58.5616H444.156V64.7185L292.24 62.6442V58.5616Z" fill="#2E2E47"/>
<path d="M445.178 277.926H300.785V289.258H445.178V277.926Z" fill="#2E2E47"/>
<path d="M345.64 213.103H295.549V265.859H345.64V213.103Z" fill="#FFC97D"/>
<path d="M324.492 213.103H316.697V225.659H324.492V213.103Z" fill="#FFEA8F"/>
<path d="M361.328 213.103H345.64V265.859H361.328V213.103Z" fill="#9C6F43"/>
<path d="M422.096 157.73H359.625V223.524H422.096V157.73Z" fill="#7A644F"/>
<path d="M395.722 157.73H385.999V173.386H395.722V157.73Z" fill="#9C6F43"/>
<path d="M441.661 157.73H422.096V223.524H441.661V157.73Z" fill="#665140"/>
<path d="M389.396 228.04H353.487V265.859H389.396V228.04Z" fill="#FFC97D"/>
<path d="M374.234 228.04H368.644V237.039H374.234V228.04Z" fill="#FFEA8F"/>
<path d="M400.64 228.04H389.396V265.859H400.64V228.04Z" fill="#9C6F43"/>
<path d="M396.43 228.04H393.606V237.039H396.43V228.04Z" fill="#FFC97D"/>
<path d="M390.178 187.603H351.783V228.04H390.178V187.603Z" fill="#FFC97D"/>
<path d="M390.178 181.507H349.678V187.603H390.178V181.507Z" fill="#FFC97D"/>
<path d="M404.037 181.507H390.173V187.603H404.037V181.507Z" fill="#9C6F43"/>
<path d="M402.198 187.603H390.173V228.04H402.198V187.603Z" fill="#9C6F43"/>
<path d="M365.382 188.959C365.382 190.803 366.804 192.301 368.555 192.301H373.401C375.151 192.301 376.574 190.803 376.574 188.959H365.382Z" fill="#2E2E47"/>
<path d="M323.382 173.001C323.236 173.001 323.085 172.969 322.939 172.897C322.418 172.639 322.194 171.992 322.434 171.443C323.236 169.632 326.748 168.826 327.805 168.623C328.373 168.513 328.915 168.908 329.019 169.506C329.124 170.104 328.749 170.675 328.181 170.785C326.414 171.125 324.544 171.893 324.33 172.37C324.148 172.765 323.773 173.001 323.382 173.001Z" fill="#515032"/>
<path d="M323.471 165.994C323.325 165.994 323.174 165.961 323.028 165.89C322.402 165.582 320.495 165.571 319.407 165.665C318.833 165.714 318.328 165.259 318.281 164.655C318.234 164.051 318.667 163.519 319.24 163.47C319.782 163.426 322.564 163.234 323.913 163.898C324.434 164.156 324.658 164.809 324.414 165.363C324.236 165.764 323.861 165.994 323.471 165.994Z" fill="#515032"/>
<path d="M322.116 189.37C322.074 189.37 322.032 189.37 321.991 189.365C321.418 189.294 321.011 188.745 321.079 188.141C321.089 188.059 321.996 180.003 322.22 176.513C322.298 175.273 322.34 172.107 322.382 168.441C322.481 159.996 322.59 153.406 322.996 151.787C323.596 149.4 324.221 140.313 324.226 140.22C324.268 139.616 324.768 139.161 325.341 139.199C325.914 139.243 326.347 139.77 326.31 140.373C326.284 140.757 325.664 149.762 325.018 152.341C324.648 153.823 324.539 162.63 324.471 168.458C324.429 172.156 324.388 175.35 324.304 176.651C324.075 180.195 323.189 188.053 323.153 188.388C323.09 188.959 322.637 189.37 322.116 189.37Z" fill="#515032"/>
<path d="M312.117 187.735L314.967 212.878H331.328L333.901 187.735H312.117Z" fill="#82664B"/>
<path d="M324.888 145.109C324.888 145.109 321.944 144.533 321.485 140.077C321.027 135.621 322.517 123.653 327.394 124.838C332.265 126.024 331.442 145.235 324.888 145.109Z" fill="#515032"/>
<path d="M324.424 143.084C324.424 143.084 321.715 139.951 321.845 139.572C321.975 139.194 322.658 139.868 323.132 139.572C323.606 139.276 322.741 136.439 323.132 135.638C323.523 134.831 324.252 135.89 324.424 135.215C324.596 134.54 323.132 132.927 324.038 130.644C324.94 128.356 326.92 125.524 327.092 125.777C327.264 126.029 326.232 130.178 327.092 130.304C327.951 130.43 328.556 130.853 328.639 132.208C328.728 133.563 328.035 135.254 327.821 136.016C327.607 136.779 327.91 137.032 327.821 138.343C327.733 139.654 327.045 142.744 324.424 143.084Z" fill="#75723B"/>
<path d="M320.772 154.509C320.772 154.509 318.479 156.419 314.649 153.999C310.82 151.579 302.228 142.98 306.209 139.967C310.184 136.949 324.95 149.537 320.772 154.509Z" fill="#515032"/>
<path d="M318.87 153.603C318.87 153.603 314.691 153.741 314.467 153.406C314.243 153.071 315.207 152.967 315.27 152.413C315.332 151.864 312.534 150.761 312.138 149.965C311.742 149.164 313.04 149.263 312.607 148.709C312.175 148.154 309.986 148.281 308.731 146.163C307.475 144.044 306.448 140.757 306.761 140.779C307.069 140.807 309.726 144.182 310.361 143.6C310.997 143.018 311.711 142.815 312.842 143.594C313.972 144.374 314.889 145.954 315.363 146.596C315.837 147.238 316.223 147.161 317.213 148.045C318.203 148.923 320.23 151.376 318.87 153.603Z" fill="#75723B"/>
<path d="M321.027 181.902C321.027 181.902 318.151 184.3 313.342 181.26C308.533 178.22 297.747 167.426 302.739 163.64C307.735 159.848 326.274 175.657 321.027 181.902Z" fill="#515032"/>
<path d="M318.641 180.761C318.641 180.761 313.394 180.936 313.118 180.514C312.836 180.091 314.05 179.959 314.123 179.268C314.201 178.577 310.69 177.199 310.195 176.19C309.694 175.185 311.325 175.306 310.783 174.609C310.242 173.912 307.491 174.071 305.917 171.41C304.338 168.749 303.057 164.622 303.442 164.655C303.828 164.688 307.167 168.924 307.965 168.194C308.762 167.459 309.658 167.212 311.075 168.183C312.492 169.16 313.649 171.147 314.243 171.953C314.837 172.754 315.327 172.667 316.567 173.775C317.802 174.878 320.349 177.962 318.641 180.761Z" fill="#75723B"/>
<path d="M324.252 151.88C323.893 151.88 323.538 151.683 323.345 151.332C323.059 150.805 323.231 150.135 323.731 149.828C324.2 149.543 328.394 147.041 331.005 146.816C331.583 146.766 332.083 147.216 332.13 147.82C332.177 148.423 331.75 148.956 331.177 149.005C329.358 149.164 325.94 151.03 324.773 151.732C324.612 151.831 324.429 151.88 324.252 151.88Z" fill="#515032"/>
<path d="M328.65 148.039C328.65 148.039 328.389 145.57 332.609 144.154C336.83 142.738 348.918 141.109 349.126 145.257C349.334 149.406 330.364 153.274 328.65 148.039Z" fill="#515032"/>
<path d="M329.311 148.072C329.311 148.072 333.141 144.242 333.141 144.988C333.141 145.735 332.281 146.733 332.88 146.591C333.485 146.448 337.267 143.353 337.267 144.242C337.267 145.131 336.538 145.416 337.481 145.098C338.429 144.78 341.998 143.32 341.951 143.567C341.91 143.814 340.143 144.741 341.691 144.632C343.238 144.527 346.292 143.776 346.422 144.132C346.552 144.489 345.088 145.411 345.989 145.268C346.891 145.125 348.313 144.911 348.443 145.268C348.574 145.625 342.681 146.124 342.983 146.3C343.285 146.475 345.177 146.87 345.046 147.222C344.916 147.578 339.091 146.936 339.211 147.189C339.331 147.436 340.79 148.747 339.888 148.824C338.987 148.895 336.059 148.116 335.934 148.259C335.803 148.401 336.449 149.537 334.944 149.647C333.438 149.757 329.311 148.072 329.311 148.072Z" fill="#75723B"/>
<path d="M326.242 170.175C326.242 170.175 325.888 166.526 331.578 164.436C337.267 162.35 353.56 159.936 353.841 166.06C354.123 172.195 328.556 177.907 326.242 170.175Z" fill="#515032"/>
<path d="M327.139 170.225C327.139 170.225 332.302 164.562 332.302 165.665C332.302 166.768 333.974 167.344 334.787 167.135C335.1 167.053 335.027 167.316 338.309 166.598C339.2 166.4 341.915 163.612 342.842 163.415C344.322 163.097 344.025 165.379 345.354 165.116C348.084 164.578 350.158 164.233 350.22 164.408C350.392 164.935 348.423 166.296 349.642 166.087C350.861 165.879 352.773 165.561 352.945 166.087C353.117 166.614 345.177 167.349 345.583 167.613C345.989 167.876 348.537 168.452 348.365 168.979C348.193 169.506 340.336 168.557 340.498 168.924C340.654 169.292 342.629 171.229 341.41 171.339C340.19 171.449 336.251 170.291 336.074 170.505C335.902 170.713 336.772 172.398 334.74 172.551C332.708 172.705 327.139 170.225 327.139 170.225Z" fill="#75723B"/>
<path d="M321.376 164.408C321.376 164.408 320.433 161.324 315.827 161.127C311.216 160.929 299.175 163.283 300.972 168.376C302.765 173.462 322.288 171.35 321.376 164.408Z" fill="#515032"/>
<path d="M320.772 164.683C320.772 164.683 315.363 161.423 315.723 162.323C316.082 163.228 317.359 164.123 316.734 164.167C316.103 164.211 311.096 161.824 311.523 162.899C311.951 163.975 312.769 164.057 311.732 164.008C310.695 163.958 306.673 163.475 306.834 163.761C306.996 164.046 309.08 164.534 307.584 164.957C306.089 165.385 302.89 165.571 302.937 166.049C302.984 166.526 304.792 167.113 303.885 167.267C302.978 167.421 301.551 167.668 301.603 168.145C301.655 168.622 307.381 167.113 307.188 167.437C306.996 167.761 305.417 168.913 305.709 169.292C306 169.676 311.117 166.817 311.127 167.157C311.138 167.503 310.403 169.61 311.278 169.374C312.154 169.138 314.504 167.146 314.691 167.273C314.879 167.399 314.827 169.007 316.28 168.595C317.729 168.194 320.772 164.683 320.772 164.683Z" fill="#75723B"/>
<path d="M329.191 182.621C329.134 182.621 329.072 182.615 329.014 182.604C327.425 182.314 324.487 182.017 323.366 182.44C322.824 182.648 322.225 182.352 322.032 181.776C321.834 181.205 322.116 180.574 322.663 180.371C324.669 179.608 328.9 180.349 329.374 180.437C329.942 180.541 330.322 181.112 330.223 181.71C330.129 182.242 329.686 182.621 329.191 182.621Z" fill="#515032"/>
<path d="M326.175 180.986C326.175 180.986 327.967 176.557 334.819 176.93C341.665 177.304 359.187 182.522 355.868 189.798C352.549 197.075 323.919 191.126 326.175 180.986Z" fill="#515032"/>
<path d="M327.034 181.479C327.034 181.479 335.465 177.43 334.813 178.714C334.167 179.998 332.156 181.139 333.084 181.293C334.011 181.447 341.733 178.642 340.961 180.168C340.19 181.699 338.971 181.699 340.508 181.781C342.045 181.858 348.068 181.721 347.792 182.122C347.521 182.522 344.369 182.939 346.521 183.784C348.678 184.629 353.393 185.376 353.253 186.072C353.117 186.769 350.371 187.384 351.695 187.741C353.018 188.097 355.097 188.668 354.962 189.37C354.821 190.073 346.542 187.011 346.787 187.521C347.031 188.026 349.215 189.958 348.735 190.484C348.256 191.011 341.05 186.04 340.988 186.544C340.93 187.049 341.738 190.276 340.472 189.804C339.206 189.332 335.986 186.04 335.694 186.199C335.397 186.358 335.272 188.745 333.172 187.927C331.083 187.115 327.034 181.479 327.034 181.479Z" fill="#75723B"/>
<path d="M323.637 158.169C323.377 158.169 323.116 158.065 322.913 157.862L319.844 154.756C319.427 154.333 319.417 153.636 319.813 153.203C320.214 152.764 320.876 152.753 321.287 153.17L324.356 156.276C324.773 156.698 324.784 157.395 324.388 157.829C324.184 158.054 323.908 158.169 323.637 158.169Z" fill="#515032"/>
<path d="M325.242 160.276C325.242 160.276 327.321 156.314 331.708 155.82C336.095 155.327 343.301 154.745 345.797 156.402C348.298 158.065 326.107 159.085 325.242 160.276Z" fill="#515032"/>
<path d="M323.507 163.613C323.392 163.613 323.272 163.591 323.153 163.547C322.611 163.344 322.329 162.713 322.522 162.142C323.585 159.025 328.076 157.099 328.587 156.89C329.124 156.671 329.728 156.951 329.942 157.516C330.15 158.081 329.884 158.718 329.348 158.943C328.212 159.415 325.117 161.039 324.487 162.888C324.335 163.333 323.934 163.613 323.507 163.613Z" fill="#515032"/>
<path d="M322.512 185.705C321.975 185.705 321.517 185.266 321.47 184.695C321.412 184.338 320.699 183.087 319.933 182.028C319.584 181.545 319.672 180.854 320.136 180.486C320.594 180.119 321.251 180.212 321.6 180.7C322.158 181.474 323.465 183.4 323.554 184.52C323.601 185.123 323.174 185.655 322.595 185.705C322.569 185.699 322.543 185.705 322.512 185.705Z" fill="#515032"/>
<mask id="mask0_1_3" style="mask-type:luminance" maskUnits="userSpaceOnUse" x="292" y="58" width="153" height="208">
<path d="M444.156 58.5616H292.24V265.859H444.156V58.5616Z" fill="white"/>
</mask>
<g mask="url(#mask0_1_3)">
<path d="M446.157 211.962H394.982V265.859H446.157V211.962Z" fill="#FFC97D"/>
<path d="M424.555 211.962H416.589V224.786H424.555V211.962Z" fill="#FFEA8F"/>
</g>
<path d="M353.487 229.972L389.396 231.519V228.04H353.487V229.972Z" fill="#2E2E47"/>
<path d="M190.702 293.203H23.983V311.355H190.702V293.203Z" fill="white"/>
<path d="M189.191 284.698C189.728 284.566 190.806 284.912 191.499 286.091C192.192 287.271 191.322 288.385 191.322 288.385L196.6 283.671L191.463 278.958C191.463 278.958 188.915 281.23 187.998 281.487C187.909 281.509 187.815 281.531 187.711 281.542C187.701 282.53 187.737 284.412 188.149 285.054C188.717 285.943 188.659 284.829 189.191 284.698Z" fill="#FFA982"/>
<path d="M192.036 298.965C191.838 296.243 191.322 288.385 191.322 288.385C191.322 288.385 192.192 287.271 191.499 286.091C190.806 284.912 189.722 284.566 189.191 284.698C188.654 284.829 188.717 285.943 188.149 285.06C187.737 284.418 187.701 282.53 187.711 281.548C186.711 281.669 184.965 281.35 183.731 282.283C182.365 283.315 183.512 300.276 186.638 303.047C189.764 305.813 192.234 301.681 192.036 298.965Z" fill="white"/>
<path d="M189.514 303.547C189.483 303.547 189.446 303.541 189.415 303.525C187.518 302.537 186.56 299.557 185.627 295.058C184.731 290.734 184.741 281.817 184.741 281.723C184.741 281.592 184.84 281.487 184.965 281.487C185.09 281.487 185.189 281.592 185.189 281.723C185.189 281.811 185.179 290.679 186.065 294.954C186.945 299.19 187.883 302.197 189.613 303.097C189.722 303.152 189.769 303.294 189.712 303.41C189.675 303.497 189.597 303.547 189.514 303.547Z" fill="#FA634B"/>
<path d="M283.258 312.705C283.362 312.135 284.102 311.24 285.409 311.054C286.717 310.867 287.327 312.162 287.327 312.162L286.431 307.201L279.22 308.178C279.22 308.178 280.147 311.553 279.996 312.541C279.98 312.634 279.959 312.733 279.928 312.842C280.777 313.254 282.429 313.989 283.153 313.852C284.143 313.671 283.153 313.271 283.258 312.705Z" fill="#FFA982"/>
<path d="M296.783 315.795C294.345 314.878 287.322 312.162 287.322 312.162C287.322 312.162 286.712 310.867 285.404 311.054C284.096 311.24 283.356 312.135 283.252 312.705C283.148 313.276 284.143 313.671 283.138 313.852C282.413 313.984 280.762 313.254 279.912 312.842C279.61 313.852 278.62 315.405 278.923 316.969C279.261 318.703 294.434 324.525 298.112 322.648C301.796 320.777 299.227 316.711 296.783 315.795Z" fill="white"/>
<path d="M296.32 321.15C294.819 321.15 292.97 320.838 290.781 320.36C286.665 319.46 278.938 315.806 278.86 315.773C278.745 315.718 278.699 315.581 278.751 315.46C278.803 315.339 278.933 315.29 279.048 315.345C279.126 315.383 286.806 319.01 290.875 319.905C294.908 320.788 297.898 321.112 299.383 319.817C299.477 319.735 299.618 319.746 299.696 319.85C299.774 319.949 299.764 320.097 299.665 320.179C298.873 320.871 297.753 321.15 296.32 321.15Z" fill="#FA634B"/>
<path d="M290.927 305.994L272.045 183.378L224.819 198.216L219.874 243.026L188.29 278.469C188.138 279.375 199.049 292.802 199.841 290.723C199.841 290.723 231.207 270.156 238.147 259.752C242.972 252.519 248.088 235.015 251.808 220.292L277.109 309.336C277.417 310.203 291.255 308.211 290.927 305.994Z" fill="#4D92A1"/>
<path d="M254.689 120.706C246.259 121.936 237.699 123.939 235.135 132.488C231.978 142.996 232.895 155.178 230.019 169.989C229.727 171.487 227.622 176.431 226.382 183.828C225.35 189.99 224.819 198.222 224.819 198.222C224.819 198.222 268.898 194.54 272.868 188.712C272.868 188.712 272.352 185.518 271.597 175.762C270.029 155.53 274.348 138.508 268.497 129.953C265.365 125.376 259.415 120.015 254.689 120.706Z" fill="#FFC97D"/>
<path d="M251.428 113.244C251.428 113.244 251.678 116.47 251.782 119.455C251.834 120.937 251.501 122.709 251.782 123.302C252.027 123.818 255.148 123.889 257.123 123.017C258.076 122.594 257.857 119.916 257.665 118.791C257.461 117.59 256.966 116.465 256.966 116.465L251.428 113.244Z" fill="#FFA982"/>
<path d="M247.656 106.044C247.656 106.044 245.78 108.365 246.676 110.56C247.572 112.75 249.328 114.374 251.36 114.017C253.392 113.661 251.688 106.692 250.36 106.115C249.031 105.528 248.25 105.281 247.656 106.044Z" fill="#C96B59"/>
<path d="M253.543 99.783C256.055 99.0422 258.707 100.343 259.874 102.796L261.098 105.369C261.671 106.576 262.463 107.663 263.094 109.562C263.724 111.455 264.104 115.29 260.838 116.712C258.556 117.705 253.34 117.151 251.949 115.515C250.558 113.88 250.13 112.371 250.13 112.371C250.13 112.371 249.01 112.788 248.349 112.003C247.661 111.18 247.004 109.106 247.536 108.689C248.52 107.915 248.802 108.771 249.047 108.574C249.292 108.376 249.099 104.096 252.11 101.155C252.501 100.776 252.756 100.019 253.543 99.783Z" fill="#FFA982"/>
<path d="M260.254 109.973C260.254 109.973 258.665 110.088 258.186 110.33C257.706 110.571 257.081 110.736 256.883 111.356C256.685 111.976 254.835 111.575 254.356 111.356C252.694 110.593 251.803 109.573 250.964 107.965C250.839 107.723 248.922 108.546 249.187 109.134C249.453 109.721 252.105 116.393 254.492 118.736C256.8 121.003 259.884 120.69 262.192 119.45C264.501 118.21 264.271 114.187 264.146 113.249C264.021 112.305 263.354 109.057 263.026 108.793C262.698 108.53 261.817 108.629 261.479 109.024C261.145 109.408 260.77 109.924 260.254 109.973Z" fill="#C96B59"/>
<path d="M259.4 110.467C259.353 110.467 259.306 110.461 259.264 110.456C259.144 110.429 259.066 110.308 259.087 110.182C259.113 110.055 259.228 109.973 259.347 109.995C259.665 110.061 260.535 109.49 260.728 109.15C260.963 108.733 260.895 108.481 260.03 107.877C259.165 107.268 258.045 105.55 258.337 104.508C258.634 103.449 260.207 103.427 260.275 103.427C260.4 103.427 260.499 103.531 260.499 103.663C260.499 103.794 260.4 103.899 260.275 103.899C259.91 103.899 258.931 104.041 258.764 104.639C258.556 105.38 259.473 106.922 260.275 107.487C260.999 107.992 261.604 108.519 261.109 109.391C260.9 109.776 259.999 110.467 259.4 110.467Z" fill="#2E2E47"/>
<path d="M253.475 106.154C253.403 106.154 253.335 106.115 253.288 106.05C253.22 105.94 253.246 105.797 253.35 105.726C253.397 105.693 254.518 104.919 255.377 104.661C256.31 104.381 256.909 104.864 256.935 104.881C257.034 104.963 257.05 105.106 256.972 105.21C256.899 105.314 256.758 105.331 256.659 105.254C256.638 105.237 256.206 104.903 255.497 105.111C254.705 105.347 253.606 106.11 253.595 106.115C253.559 106.143 253.517 106.154 253.475 106.154Z" fill="#2E2E47"/>
<path d="M258.019 111.438C258.019 111.438 259.952 110.988 260.754 110.708C261.463 110.461 262.187 110.236 262.187 110.236C262.187 110.236 262.317 111.658 261.406 112.135C259.342 113.216 258.019 111.438 258.019 111.438Z" fill="white"/>
<path d="M254.231 110.099C254.424 110.505 255.169 110.522 255.898 110.138C256.628 109.754 257.06 109.117 256.867 108.711C256.675 108.305 255.929 108.288 255.2 108.673C254.476 109.057 254.038 109.693 254.231 110.099Z" fill="#F2836D"/>
<path d="M260.494 107.175C260.687 107.581 261.192 107.718 261.624 107.493C262.057 107.262 262.255 106.752 262.062 106.346C261.869 105.94 261.364 105.803 260.931 106.028C260.499 106.258 260.301 106.774 260.494 107.175Z" fill="#F2836D"/>
<path d="M254.804 107.559C254.752 107.559 254.7 107.542 254.658 107.504C254.564 107.421 254.554 107.273 254.637 107.175C254.669 107.136 255.382 106.28 256.487 106.148C256.607 106.132 256.722 106.225 256.732 106.357C256.748 106.483 256.659 106.604 256.534 106.615C255.601 106.725 254.981 107.476 254.971 107.482C254.929 107.531 254.867 107.559 254.804 107.559Z" fill="#2E2E47"/>
<path d="M259.306 105.885C259.269 105.885 259.228 105.874 259.196 105.852C259.092 105.786 259.056 105.644 259.113 105.534C259.129 105.501 259.53 104.788 260.655 104.65C260.775 104.634 260.89 104.727 260.9 104.859C260.916 104.985 260.827 105.106 260.702 105.117C259.811 105.226 259.504 105.742 259.493 105.77C259.457 105.847 259.384 105.885 259.306 105.885Z" fill="#2E2E47"/>
<path d="M258.16 100.469C258.16 100.469 256.232 102.598 254.007 104.217C252.934 105.002 251.49 105.66 251.074 106.944C250.625 108.316 251.652 110.335 251.126 110.555C250.115 110.983 247.76 107.718 247.656 106.681C247.551 105.644 251.287 100.996 253.012 99.5745C256.174 96.9789 259.457 99.4044 258.16 100.469Z" fill="#C96B59"/>
<path d="M255.554 106.736C255.554 106.736 255.455 107.74 256.195 107.685C256.935 107.63 256.633 106.384 256.357 106.379C256.081 106.373 255.554 106.736 255.554 106.736Z" fill="#2E2E47"/>
<path d="M259.754 105.27C259.754 105.27 259.665 106.275 260.337 106.22C261.01 106.165 260.739 104.919 260.483 104.914C260.233 104.908 259.754 105.27 259.754 105.27Z" fill="#2E2E47"/>
<path d="M254.804 122.896L257.633 121.113L257.852 120.311C257.852 120.311 260.233 121.228 260.66 122.188C261.088 123.148 259.306 127.873 259.306 127.873L254.361 125.634L247.994 126.77C247.994 126.77 249.672 122.545 249.771 122.397C249.87 122.248 251.808 120.361 251.808 120.361L254.804 122.896Z" fill="#FFC97D"/>
<path d="M251.808 220.533C251.798 220.533 251.787 220.533 251.777 220.533C251.657 220.517 251.568 220.396 251.584 220.27C251.631 219.902 252.756 211.282 255.831 209.169C255.935 209.098 256.07 209.131 256.138 209.235C256.206 209.345 256.174 209.487 256.075 209.559C253.168 211.556 252.037 220.237 252.027 220.325C252.011 220.446 251.918 220.533 251.808 220.533Z" fill="#2E2E47"/>
<path d="M230.034 258.863C229.722 258.863 228.914 258.418 225.548 253.93C224.553 252.607 223.459 251.082 222.714 250.012C222.948 250.78 223.287 251.888 223.615 253.035C224.98 257.776 224.85 258.364 224.808 258.556C224.751 258.808 224.595 258.852 224.527 258.857C224.303 258.885 223.615 258.967 220.348 248.744C220.307 248.623 220.374 248.486 220.489 248.448C220.604 248.409 220.734 248.475 220.77 248.596C222.12 252.821 223.761 257.321 224.392 258.243C224.35 256.865 222.453 250.582 221.818 248.651V248.645L221.766 248.486L222.011 248.278L222.141 248.365C222.172 248.387 222.188 248.398 222.229 248.492H222.235C222.552 249.123 228.82 257.908 229.972 258.369C229.972 258.342 229.967 258.309 229.961 258.259C229.607 255.653 219.791 243.301 219.692 243.174C219.614 243.076 219.624 242.927 219.718 242.845C219.812 242.763 219.952 242.774 220.031 242.873C220.437 243.383 230.029 255.455 230.399 258.193C230.467 258.687 230.258 258.814 230.128 258.846C230.113 258.852 230.076 258.863 230.034 258.863Z" fill="#2E2E47"/>
<path d="M93.9468 322.166C95.6193 321.93 97.0156 321.156 97.7972 320.635C97.7346 320.267 98.2869 319.027 97.5419 318.067C96.7291 317.013 95.5099 317.715 93.1235 317.474C90.7372 317.238 90.2891 315.658 88.0487 313.94C85.8083 312.222 87.0796 307.218 86.0428 306.85C85.0059 306.483 82.3122 307.668 79.358 307.822C76.4037 307.975 75.6482 307.69 75.6482 307.69C74.2571 309.232 75.6586 310.587 75.7524 312.255C75.8462 313.924 75.3512 314.165 74.7521 316.398C74.1581 318.632 74.4811 320.053 74.4811 320.053C74.4811 320.053 77.2843 321.085 81.0409 321.716C84.7975 322.347 91.3468 322.539 93.9468 322.166Z" fill="#2E2E47"/>
<path d="M97.8284 320.717C97.8128 320.7 97.7972 320.673 97.792 320.635C97.0104 321.156 95.6141 321.93 93.9416 322.166C91.3416 322.533 84.7923 322.341 81.0357 321.71C77.2791 321.079 74.4759 320.047 74.4759 320.047C74.4759 320.047 74.1633 320.19 74.0695 320.673C73.9757 321.156 73.3818 323.208 73.7569 323.609C74.132 324.004 78.7171 324.295 79.6497 324.377C80.5824 324.459 80.4104 323.329 80.7491 323.005C81.0878 322.681 83.3699 323.12 84.3442 323.285C85.3133 323.45 84.735 323.609 84.8183 324.02C84.9017 324.432 85.4384 324.245 87.2932 324.339C89.1429 324.432 95.687 323.455 96.6249 323.334C97.5627 323.214 98.115 322.594 98.2244 321.853C98.3286 321.118 98.0421 320.925 97.8284 320.717Z" fill="#CC8B70"/>
<path d="M10.6916 300.962C11.4731 302.46 12.5881 303.399 13.2863 303.882C13.5624 303.624 14.7556 303.497 15.2714 302.257C15.8341 300.902 14.8442 300.09 14.1929 297.642C13.5468 295.195 14.6618 293.911 15.261 290.811C15.8602 287.705 20.3514 286.251 20.2837 285.049C20.216 283.842 18.309 281.861 17.1471 279.073C15.9852 276.285 15.9488 275.396 15.9488 275.396C14.2137 274.875 13.6145 276.96 12.2963 277.948C10.9833 278.936 10.6134 278.585 8.59703 279.205C6.58065 279.825 5.54901 280.906 5.54901 280.906C5.54901 280.906 5.70011 284.187 6.51292 288.182C7.32572 292.166 9.47757 298.636 10.6916 300.962Z" fill="#2E2E47"/>
<path d="M13.2289 303.958C13.2394 303.931 13.255 303.904 13.2811 303.882C12.5829 303.404 11.4679 302.46 10.6863 300.962C9.47233 298.636 7.32569 292.166 6.51289 288.171C5.70008 284.176 5.54898 280.895 5.54898 280.895C5.54898 280.895 5.32494 280.67 4.89769 280.834C4.47566 280.999 2.60517 281.531 2.4176 282.108C2.23003 282.689 3.61075 287.299 3.87127 288.253C4.13178 289.203 4.98627 288.429 5.36662 288.583C5.74697 288.736 6.19506 291.195 6.40347 292.226C6.61188 293.258 6.27842 292.775 5.97623 293.082C5.67403 293.384 6.0127 293.807 6.59104 295.656C7.16938 297.505 10.2591 303.338 10.6863 304.189C11.1136 305.034 11.8118 305.237 12.4474 304.946C13.0831 304.655 13.13 304.277 13.2289 303.958Z" fill="#CC8B70"/>
<path d="M78.7379 130.117C82.5258 127.423 89.6587 155.886 90.9665 161.28C88.8511 162.246 84.3546 163.799 77.227 163.837C73.3557 149.839 77.6959 130.853 78.7379 130.117Z" fill="#2E2E47"/>
<path d="M50.6284 144.725C50.0188 136.055 52.7594 132.751 57.1934 129.366C63.18 124.789 71.4383 124.493 76.7163 127.143C82.6821 130.139 85.4488 137.273 85.9125 146.991C86.2199 153.494 83.5522 177.775 83.5522 177.775L49.1331 179.4C49.1331 179.4 50.3835 170.159 50.2376 159.837C50.1491 153.691 51.04 150.558 50.6284 144.725Z" fill="#FFC97D"/>
<path d="M45.4494 197.064C45.8662 192.937 46.4863 188.136 47.4762 184.201L48.6277 172.003C48.6277 172.003 55.8492 170.631 57.2455 166.658C58.8347 162.12 56.8183 129.656 56.8183 129.656C59.0587 126.902 61.7264 126.83 61.7264 126.83L63.8834 149.159L78.1127 148.566C78.0085 146.459 74.9345 126.408 74.9345 126.408C79.9624 127.741 80.9471 130.562 80.9471 130.562C84.4016 142.206 85.1622 180.42 85.1622 180.42C86.5378 189.617 87.5955 226.597 88.278 258.835C88.3197 260.882 86.8452 262.122 86.8816 264.12C86.8973 265.003 87.9914 269.47 88.0123 270.348C88.4864 294.273 89.1742 310.834 89.1742 310.834C89.1742 310.834 87.6788 312.261 81.6766 312.623C76.6122 312.925 74.3822 311.323 74.3822 311.323C74.3822 311.323 68.9843 257.041 68.0985 247.652C67.9058 245.6 65.905 210.195 65.905 210.195C65.905 210.195 65.4726 245.66 60.0174 255.559C53.8797 266.704 21.2111 286.958 21.2111 286.958C21.2111 286.958 10.9312 277.306 13.1352 274.7C19.7054 266.94 42.1773 246.615 42.1773 246.615L45.4494 197.064Z" fill="#4D92A1"/>
<path d="M66.0405 212.664C66.0353 212.664 66.0353 212.664 66.0301 212.664C65.905 212.659 65.8112 212.549 65.8164 212.417C65.8633 211.408 66.2958 202.54 67.6348 201.355C68.9739 200.164 75.3565 199.368 75.6222 199.33C75.742 199.314 75.8567 199.407 75.8671 199.533C75.8827 199.659 75.7941 199.78 75.6743 199.791C73.4235 200.071 68.9113 200.828 67.9214 201.706C67.02 202.507 66.4365 208.56 66.2645 212.434C66.2541 212.566 66.1603 212.664 66.0405 212.664Z" fill="#2E2E47"/>
<path d="M58.4126 193.804C58.4126 193.804 59.2775 197.119 63.2321 197.969C67.1867 198.82 68.3174 196.263 69.5678 195.889C70.8235 195.516 72.9545 195.385 73.3349 194.589C73.71 193.793 76.9769 192.805 72.8972 192.142C68.8176 191.483 59.7464 191.829 58.4126 193.804Z" fill="#FFE2BD"/>
<path d="M78.5712 151.299L63.9094 152.001C63.9094 152.001 64.5763 158.46 70.8391 158.74C77.1071 159.02 79.4152 154.619 78.5712 151.299Z" fill="#FFEA8F"/>
<path d="M44.0218 168.804C42.4379 153.368 52.2853 133.081 53.5723 132.696C57.8447 131.412 58.3501 160.616 58.4126 167.657C55.5939 168.441 49.576 170.466 44.0218 168.804Z" fill="#FFC97D"/>
<path d="M273.566 193.266L271.237 163.047C271.237 163.047 264.881 155.952 263.068 145.822C261.254 135.693 264.605 125.404 264.605 125.404C264.605 125.404 263.229 123.648 261.598 122.934C261.598 122.934 257.956 132.384 257.456 137.975L247.036 138.173C247.036 138.173 246.572 127.621 246.864 122.287C246.864 122.287 244.972 122.501 242.81 123.807C242.81 123.807 241.799 135.808 241.372 140.198C240.945 144.588 239.236 154.827 234.531 157.642C229.831 160.457 226.835 174.527 226.945 178.236C227.054 181.951 224.819 201.245 224.819 201.245C224.819 201.245 254.09 201.196 261.249 199.056C268.408 196.916 273.566 193.266 273.566 193.266Z" fill="#4D92A1"/>
<path d="M244.936 189.047C238.261 189.047 231.952 188.789 231.853 188.783L231.639 188.772V182.456L231.874 182.467C232.046 182.473 249.042 183.29 255.513 183.148C261.973 183.005 272.186 180.991 272.29 180.969C272.41 180.947 272.529 181.03 272.55 181.156C272.571 181.282 272.493 181.408 272.373 181.43C272.269 181.452 262.02 183.471 255.523 183.614C249.453 183.746 234.161 183.043 232.087 182.945V188.328C234.015 188.405 248.448 188.926 255.94 188.202C263.948 187.428 272.754 186.232 272.842 186.221C272.962 186.204 273.077 186.292 273.092 186.424C273.108 186.55 273.024 186.671 272.899 186.687C272.811 186.698 264 187.9 255.982 188.673C252.986 188.959 248.896 189.047 244.936 189.047Z" fill="#2E2E47"/>
<path d="M57.7144 166.219C57.7248 167.179 58.7721 171.229 58.7721 171.229C58.7721 171.229 71.2403 193.744 67.5358 196.965C63.1539 200.773 58.7721 193.332 50.0657 181.024C47.1688 176.936 45.4598 172.305 44.944 167.251C49.1383 164.156 52.7698 163.239 57.7144 166.219Z" fill="#FFE2BD"/>
<path d="M98.0838 99.1794C99.2561 96.1833 102.21 94.2023 105.274 94.3505C109.458 94.5535 114.887 95.2669 116.711 97.5332C119.821 101.402 109.75 187.79 108.556 190.177C107.363 192.564 51.1286 199.314 49.4665 198.342C47.8044 197.371 40.7601 145.383 48.0806 143.545C55.401 141.707 81.9214 141.092 83.3074 138.87C84.4172 137.097 93.4153 111.136 98.0838 99.1794Z" fill="#9C6F43"/>
<path d="M57.8707 161.429L102.455 146.355L222.578 147.244L211.277 196.147L173.841 206.189L55.6199 196.619L57.8707 161.429Z" fill="#9C6F43"/>
<path d="M100.517 146.892C97.073 146.662 94.9889 143.249 96.2185 139.841C101.028 126.523 111.584 97.6868 112.944 97.3246C114.397 96.935 150.593 99.8927 163.431 100.952C165.802 101.149 167.282 103.432 166.583 105.819L154.954 145.674C154.162 148.385 151.573 150.262 148.879 150.086L100.517 146.892Z" fill="#9C6F43"/>
<path d="M154.615 149.943C152.719 149.768 151.593 147.869 152.271 145.987C156.33 134.694 163.999 103.602 170.069 100.485C171.46 99.772 209.277 100.606 221.255 100.782C223.152 100.809 224.418 102.565 223.917 104.469L211.371 152.281C210.954 153.878 209.422 154.992 207.849 154.844L154.615 149.943Z" fill="#9C6F43"/>
<path d="M220.161 98.691C220.901 95.5193 224.022 93.8292 227.33 94.8224C231.384 96.0461 236.318 97.9831 238.037 100.524C241.127 105.1 236.568 201.926 235.38 204C234.588 205.388 203.509 210.689 186.028 211.638C177.327 212.11 176.045 209.136 175.488 208.768C173.81 207.66 167.313 151.551 174.706 150.355C182.1 149.159 206.76 148.544 208.141 146.673C209.24 145.175 217.071 111.921 220.161 98.691Z" fill="#9C6F43"/>
<path d="M174.665 206.645C174.342 206.645 174.065 206.387 174.029 206.047C173.998 205.75 170.856 176.074 170.606 166.559C170.361 157.203 172.169 152.177 172.351 151.71C173.096 149.241 175.983 149.12 182.282 148.857C185.549 148.72 189.613 148.55 194.776 148.012C196.819 147.798 198.585 147.65 200.148 147.518C203.571 147.227 205.838 147.035 207.073 146.503C208.453 145.905 208.615 144.999 208.802 143.951C208.87 143.572 208.938 143.183 209.073 142.804C209.897 140.456 220.666 97.5002 220.77 97.0667C220.859 96.7046 221.213 96.4905 221.552 96.5838C221.896 96.6771 222.099 97.0503 222.011 97.4069C221.568 99.1794 211.116 140.856 210.277 143.265C210.183 143.534 210.126 143.852 210.063 144.193C209.86 145.323 209.584 146.87 207.557 147.743C206.135 148.358 203.79 148.555 200.247 148.857C198.689 148.989 196.928 149.137 194.901 149.351C189.702 149.894 185.617 150.064 182.334 150.201C176.806 150.432 174.029 150.547 173.565 152.133L173.544 152.193C173.524 152.243 171.643 157.209 171.888 166.521C172.138 175.981 175.274 205.602 175.305 205.898C175.347 206.272 175.092 206.601 174.738 206.645C174.712 206.639 174.685 206.645 174.665 206.645Z" fill="#2E2E47"/>
<path d="M60.4081 196.943C60.2779 196.943 60.1476 196.905 60.033 196.817C57.4747 194.885 57.506 192.18 57.5425 189.052C57.5529 188.097 57.5633 187.115 57.506 186.078C57.2872 182.193 56.6098 170.362 59.1681 161.829C60.2674 158.164 67.0721 154.613 79.3996 151.277C87.6736 149.038 95.7964 147.633 97.1771 147.397C97.7867 146.794 99.9803 144.878 102.632 145.702C104.81 146.377 154.157 149.938 172.987 151.255C173.341 151.277 173.607 151.601 173.586 151.974C173.565 152.347 173.258 152.627 172.904 152.605C170.132 152.413 105.024 147.858 102.268 147.002C99.9699 146.289 97.9639 148.478 97.9483 148.5L97.7972 148.67L97.5783 148.709C87.8924 150.284 62.3203 155.793 60.3873 162.246C57.902 170.538 58.5689 182.182 58.7825 186.007C58.845 187.088 58.8346 188.097 58.819 189.074C58.7825 192.048 58.7565 194.199 60.7728 195.725C61.0594 195.944 61.1271 196.367 60.9187 196.669C60.8041 196.844 60.6061 196.943 60.4081 196.943Z" fill="#2E2E47"/>
<path d="M169.736 172.321C169.72 172.321 169.71 172.321 169.694 172.321C169.48 172.305 148.301 170.828 138.005 169.983C127.704 169.138 65.0714 162.169 64.4409 162.098C64.0866 162.06 63.8313 161.725 63.873 161.357C63.9095 160.984 64.2273 160.715 64.5764 160.759C65.2068 160.83 127.819 167.799 138.104 168.639C148.394 169.484 169.569 170.96 169.777 170.977C170.132 170.999 170.397 171.322 170.377 171.695C170.351 172.047 170.069 172.321 169.736 172.321Z" fill="#2E2E47"/>
<path d="M152.068 148.901C151.739 148.901 151.458 148.632 151.427 148.281C151.224 145.724 152.886 140.851 154.991 134.683C155.965 131.824 156.976 128.866 157.919 125.788C160.852 116.229 166.109 103.767 166.161 103.641C166.307 103.3 166.682 103.147 167.011 103.3C167.334 103.454 167.48 103.849 167.334 104.195C167.282 104.321 162.056 116.717 159.143 126.21C158.195 129.305 157.179 132.274 156.199 135.149C154.23 140.922 152.526 145.91 152.708 148.176C152.74 148.55 152.474 148.873 152.125 148.906C152.104 148.901 152.088 148.901 152.068 148.901Z" fill="#2E2E47"/>
<path d="M98.3755 147.897C98.2557 147.886 97.6305 147.803 96.9531 146.98C96.156 146.014 95.5776 144.407 95.2285 142.212C94.8742 139.962 97.4116 132.043 102.768 118.687C106.795 108.651 111.078 98.927 111.563 98.2081C112.574 96.71 116.059 96.8253 116.747 96.8637C117.101 96.8856 117.372 97.2039 117.351 97.5771C117.331 97.9502 117.028 98.2355 116.674 98.2136C115.293 98.1368 113.048 98.3288 112.605 98.9873C112.193 99.6293 107.931 109.265 103.914 119.285C96.7864 137.064 96.3487 141.087 96.4894 141.987C97.1563 146.217 98.485 146.547 98.4954 146.552C98.4693 146.547 98.4537 146.547 98.4537 146.547L98.3755 147.897Z" fill="#2E2E47"/>
<path d="M69.1927 203.418C69.125 203.418 69.0572 203.385 69.0103 203.319C68.9374 203.215 68.9635 203.067 69.0625 202.99C69.2604 202.842 69.844 202.765 71.454 202.595C73.4443 202.381 76.1693 202.085 77.9668 201.443C78.54 201.24 78.8786 200.993 78.8734 200.795C78.8682 200.351 77.6177 199.731 76.7789 199.445C76.6591 199.407 76.5965 199.275 76.633 199.149C76.6695 199.023 76.7945 198.957 76.9144 198.995C77.3155 199.127 79.3111 199.846 79.3215 200.79C79.3267 201.234 78.9307 201.596 78.1127 201.887C76.2683 202.551 73.512 202.847 71.5009 203.061C70.5057 203.171 69.4793 203.281 69.3178 203.374C69.2813 203.402 69.2344 203.418 69.1927 203.418Z" fill="#2E2E47"/>
<path d="M46.0173 256.964C45.9756 256.964 45.9339 256.959 45.887 256.948C44.4282 256.58 42.3649 248.322 41.9689 246.67C41.9376 246.544 42.0106 246.417 42.1304 246.385C42.2503 246.352 42.3701 246.428 42.4014 246.555C44.0895 253.562 45.5015 256.372 45.9913 256.492C46.0121 256.498 46.0538 256.509 46.1215 256.426C46.3924 256.097 46.6686 255.066 45.4181 251.85C44.6887 249.968 43.7821 248.256 43.7717 248.239C43.7196 248.14 43.7404 248.02 43.8238 247.948C43.9071 247.877 44.0218 247.872 44.1051 247.943C45.3608 248.98 48.8882 251.63 50.1491 251.444C49.8886 250.774 46.4862 248.3 43.2246 246.214C43.1204 246.149 43.0839 246 43.1516 245.891C43.2142 245.781 43.3548 245.742 43.4591 245.814C43.4747 245.825 45.2879 246.988 47.0542 248.239C50.743 250.862 50.6545 251.329 50.6024 251.581C50.5815 251.685 50.5034 251.866 50.2116 251.91C49.4822 252.02 48.1796 251.444 46.3403 250.193C45.6943 249.754 45.0899 249.304 44.6366 248.953C45.6161 250.961 47.5752 255.395 46.455 256.739C46.3299 256.882 46.1788 256.964 46.0173 256.964Z" fill="#2E2E47"/>
<path d="M76.4714 307.822C76.3568 307.822 76.263 307.734 76.2474 307.613C76.237 307.498 75.122 296.024 75.4242 288.687C75.6274 283.743 75.4242 282.673 74.9761 280.319C74.7572 279.155 74.4811 277.701 74.1633 275.342C73.71 271.939 73.1264 261.491 72.5064 250.429C71.8343 238.4 71.1361 225.96 70.6203 223.184C69.646 217.949 68.4788 207.786 68.4632 207.682C68.4476 207.556 68.5362 207.435 68.656 207.418C68.7758 207.402 68.8905 207.495 68.9061 207.621C68.9165 207.726 70.0836 217.866 71.0579 223.085C71.579 225.889 72.2772 238.345 72.9545 250.39C73.5745 261.442 74.1581 271.884 74.6062 275.265C74.9188 277.613 75.1949 279.057 75.4138 280.22C75.867 282.612 76.0755 283.704 75.867 288.703C75.5648 296.002 76.6798 307.443 76.6903 307.558C76.7007 307.684 76.6121 307.8 76.4923 307.816C76.4871 307.822 76.4819 307.822 76.4714 307.822Z" fill="#2E2E47"/>
<path d="M259.092 99.8488C259.092 99.8488 256.669 94.1913 253.97 94.3505C251.272 94.5096 247.932 95.7991 247.02 96.3149C245.04 97.4289 244.149 100.601 244.081 101.709C243.982 103.289 245.097 105.194 245.769 106.939L246.52 108.557C246.52 108.557 249.099 107.586 249.802 107.18C256.018 103.613 258.587 100.913 259.092 99.8488Z" fill="#4B5DFA"/>
<path d="M259.019 99.6129C259.019 99.6129 266.288 98.4221 266.194 99.3495C266.1 100.277 262.849 102.604 260.603 103.383C258.358 104.162 250.261 107.218 249.906 107.109C249.693 107.043 254.179 104.464 256.862 102.335C258.681 100.897 259.019 99.6129 259.019 99.6129Z" fill="#2E2E47"/>
<path d="M252.506 153.889C251.058 153.889 249.651 153.411 248.442 152.479C245.962 150.563 244.707 147.024 244.988 142.771L245.004 142.552H259.181L259.207 142.755C259.217 142.843 259.483 144.884 259.134 147.222C258.67 150.355 257.315 152.468 255.221 153.34C254.325 153.702 253.408 153.889 252.506 153.889ZM245.42 143.018C245.202 147.013 246.395 150.311 248.708 152.1C250.547 153.521 252.861 153.812 255.059 152.896C259.363 151.112 258.91 144.286 258.79 143.018H245.42Z" fill="#2E2E47"/>
<path d="M60.6009 108.777C60.6009 108.777 60.7416 114.292 62.9403 115.943C65.1338 117.595 66.0717 117.046 67.2909 116.026C68.5153 115.005 67.666 106.576 65.2589 106.955C62.8465 107.328 61.0907 108.096 60.6009 108.777Z" fill="#9C6F43"/>
<path d="M65.6862 116.596C65.6862 116.596 65.9467 123.017 65.0401 125.859C64.5086 127.522 69.9951 129.475 72.5846 129.245C74.231 129.097 73.1786 127.247 72.3449 125.563C71.8708 124.603 71.355 123.593 71.2403 123.132C70.5057 120.119 71.1205 118.308 70.8808 117.787C70.6412 117.266 66.327 115.762 65.6862 116.596Z" fill="#FFE2BD"/>
<path d="M66.8116 118.632L70.8652 119.905C70.8548 120.668 70.9121 121.623 71.157 122.759C68.5883 122.281 66.8116 118.632 66.8116 118.632Z" fill="#2E2E47"/>
<path d="M75.9765 105.232C75.9765 105.232 76.4663 107.603 77.1436 109.737C77.5604 111.06 78.0971 112.152 78.7692 114.105C79.4413 116.059 79.4778 119.23 76.1953 120.937C72.9128 122.644 70.266 121.661 68.0881 119.949C66.3583 118.588 65.1599 115.905 65.1599 115.905C65.1599 115.905 64.6076 116.97 63.5239 115.762C62.4402 114.561 61.1584 111.992 62.3099 111.29C63.4562 110.593 63.9772 111.811 64.2273 111.597C64.4774 111.389 63.9824 109.6 63.9459 107.778C63.9042 106.006 71.0528 101.149 75.9765 105.232Z" fill="#FFE2BD"/>
<path d="M68.8488 109.726C68.7655 109.726 68.6873 109.677 68.6456 109.594C68.5935 109.479 68.6404 109.337 68.7498 109.282C68.8019 109.254 70.0472 108.618 70.9642 108.481C71.084 108.464 71.1987 108.552 71.2195 108.678C71.2351 108.804 71.1518 108.925 71.0319 108.947C70.1879 109.079 68.9634 109.699 68.953 109.704C68.9113 109.721 68.8801 109.726 68.8488 109.726Z" fill="#2E2E47"/>
<path d="M76.7893 113.869C76.7893 113.869 75.3721 114.615 73.2307 115.175C73.2307 115.175 74.1789 116.124 75.0803 116.124C77.5291 116.124 76.7893 114.001 76.7893 113.869Z" fill="white"/>
<path d="M69.1979 114.094C69.3334 114.588 70.1618 114.769 71.0475 114.506C71.9333 114.237 72.5481 113.622 72.4126 113.128C72.2772 112.634 71.4487 112.453 70.563 112.717C69.6772 112.986 69.0676 113.6 69.1979 114.094Z" fill="#FFA982"/>
<path d="M76.3256 111.767C76.461 112.261 77.0602 112.514 77.6646 112.327C78.2742 112.146 78.6546 111.597 78.5243 111.104C78.3941 110.61 77.7897 110.357 77.1853 110.544C76.5757 110.73 76.1901 111.279 76.3256 111.767Z" fill="#FFA982"/>
<path d="M65.6549 108.299C65.6549 108.299 66.1655 112.075 65.6549 112.519C65.1443 112.964 64.6858 112.881 64.1439 112.344C63.602 111.806 62.5287 108.601 62.9039 108.299C63.279 107.998 65.6549 108.299 65.6549 108.299Z" fill="#9C6F43"/>
<path d="M74.9449 113.556C74.7781 113.556 74.601 113.529 74.4134 113.48C74.2936 113.447 74.2206 113.32 74.2519 113.194C74.2832 113.068 74.403 112.991 74.5228 113.024C74.9761 113.15 75.3356 113.09 75.5597 112.849C75.7785 112.613 75.8567 112.223 75.7577 111.85C75.6743 111.526 75.4763 111.301 75.221 111.23C74.4395 111.016 73.9028 110.643 73.6162 110.116C73.215 109.375 73.4339 108.546 73.5277 108.195L73.5381 108.157C73.8455 107.004 75.7941 107.548 75.8775 107.575C75.9973 107.608 76.0651 107.74 76.0338 107.86C76.0025 107.987 75.8775 108.058 75.7629 108.025C75.3461 107.904 74.1216 107.701 73.9653 108.283L73.9549 108.321C73.8663 108.645 73.6892 109.309 74.0018 109.885C74.2258 110.297 74.6739 110.599 75.3356 110.78C75.7472 110.89 76.0651 111.246 76.1901 111.729C76.3308 112.261 76.2058 112.832 75.8775 113.183C75.643 113.425 75.32 113.556 74.9449 113.556Z" fill="#2E2E47"/>
<path d="M75.2627 104.041C75.2627 104.041 73.6631 97.7417 70.8392 97.4234C68.0152 97.1051 64.3419 97.8514 63.3155 98.2191C61.0855 99.0202 59.6474 102.154 59.3973 103.289C59.043 104.908 59.5589 107.339 60.1216 109.227C60.2518 109.666 60.7989 111.021 60.7989 111.021C60.7989 111.021 63.6594 110.275 64.4565 109.984C71.4748 107.4 75.2106 106.011 75.2627 104.041Z" fill="#4B5DFA"/>
<path d="M69.2709 111.68C69.1979 111.68 69.1302 111.641 69.0833 111.575C69.0156 111.466 69.0416 111.323 69.1458 111.252C70.3077 110.44 71.3967 110.324 71.4436 110.319C71.5686 110.308 71.6728 110.401 71.6832 110.533C71.6937 110.659 71.6051 110.774 71.48 110.785C71.4696 110.785 70.4536 110.895 69.3907 111.641C69.3542 111.669 69.3125 111.68 69.2709 111.68Z" fill="#2E2E47"/>
<path d="M70.563 110.632C70.7402 110.549 71.0372 110.412 71.3289 110.73C71.6207 111.049 71.6311 111.746 71.4071 112.119C71.1831 112.492 70.5891 112.371 70.4015 112.097C70.2139 111.822 70.0316 111.125 70.1202 110.961C70.2087 110.802 70.4432 110.692 70.563 110.632Z" fill="#2E2E47"/>
<path d="M74.9501 109.984C74.9188 109.984 74.8823 109.979 74.8511 109.962C74.7417 109.907 74.6948 109.765 74.7469 109.649C74.9344 109.243 75.5753 108.552 76.6643 108.848C76.7841 108.881 76.857 109.007 76.8258 109.134C76.7945 109.26 76.6747 109.337 76.5548 109.304C75.544 109.029 75.1689 109.825 75.1533 109.858C75.1116 109.935 75.0334 109.984 74.9501 109.984Z" fill="#2E2E47"/>
<path d="M75.5962 109.287C75.6639 109.112 76.0651 108.821 76.336 109.084C76.6017 109.348 76.7372 109.957 76.6382 110.291C76.5392 110.632 76.0859 110.555 75.8984 110.324C75.7108 110.094 75.4919 109.551 75.5962 109.287Z" fill="#2E2E47"/>
<path d="M75.2314 103.789C75.2314 103.789 82.9635 103.855 82.7186 104.798C82.4737 105.742 78.7275 107.575 76.2683 107.987C73.8142 108.393 64.4409 110.269 64.0866 110.088C63.8782 109.984 68.5206 108.398 72.5533 106.231C74.6843 105.084 75.2314 103.789 75.2314 103.789Z" fill="#2E2E47"/>
<path d="M66.0457 109.446C65.9571 109.446 65.8737 109.391 65.8373 109.298C65.7904 109.177 65.8477 109.04 65.9623 108.991C65.9884 108.98 68.7654 107.8 71.8656 106.324C74.799 104.925 75.0074 103.761 75.0074 103.75C75.0282 103.624 75.1376 103.536 75.2575 103.553C75.3773 103.569 75.4607 103.685 75.4503 103.811C75.4346 103.953 75.2106 105.248 72.0479 106.752C68.9374 108.234 66.1551 109.413 66.129 109.424C66.103 109.441 66.0717 109.446 66.0457 109.446Z" fill="#2E2E47"/>
<path d="M224.819 202.359C224.819 202.359 223.615 202.502 221.885 202.584C220.661 202.644 218.285 200.845 217.524 201.349C216.764 201.854 218.952 203.813 218.994 204.411C219.035 205.004 214.747 208.022 214.789 208.357C214.893 209.235 215.92 209.487 215.92 209.487C215.92 209.487 217.092 210.195 217.514 210.288C217.936 210.382 218.478 210.31 218.478 210.31C218.478 210.31 218.796 210.579 219.129 210.656C219.463 210.733 222.11 210.157 224.027 208.966C226.856 207.204 228.2 205.459 228.2 205.459L224.819 202.359Z" fill="#FFA982"/>
<path d="M251.808 168.666C245.639 179.147 221.151 201.668 222.578 206.557C224.001 211.446 258.884 190.429 265.287 173.879C266.308 171.235 267.173 168.524 267.898 165.824C262.453 165.588 257.394 162.504 254.861 161.407C253.924 163.947 252.694 167.163 251.808 168.666Z" fill="#FFA982"/>
<path d="M270.378 133.624C268.908 128.899 263.922 128.756 263.516 130.249C263.516 130.249 257.837 148.226 253.47 161.763C256.008 163.294 263.458 166.554 268.903 166.795C273.931 152.083 271.613 137.597 270.378 133.624Z" fill="#FFC97D"/>
<path d="M254.731 213.548C254.705 213.548 254.679 213.542 254.653 213.531C254.538 213.488 254.476 213.35 254.518 213.23C254.799 212.412 257.211 211.43 261.155 209.899C263.636 208.938 267.387 207.484 267.371 206.925C267.371 206.925 267.366 206.914 267.34 206.892C266.777 206.414 263.432 206.733 256.518 209.581C256.404 209.63 256.273 209.57 256.232 209.449C256.185 209.328 256.242 209.191 256.357 209.147C257.347 208.741 266.069 205.207 267.621 206.53C267.825 206.705 267.83 206.903 267.814 207.007C267.684 207.83 265.261 208.812 261.312 210.343C258.576 211.402 255.174 212.725 254.94 213.394C254.908 213.488 254.82 213.548 254.731 213.548Z" fill="#2E2E47"/>
<path d="M259.306 174.082C259.269 174.082 259.233 174.071 259.196 174.055L251.318 169.5C251.209 169.44 251.173 169.297 251.23 169.182C251.287 169.067 251.423 169.029 251.532 169.089L259.41 173.643C259.519 173.704 259.556 173.846 259.499 173.962C259.462 174.039 259.384 174.082 259.306 174.082Z" fill="#2E2E47"/>
<path d="M76.0911 24.9348H2.40197C2.04767 24.9348 1.76111 24.633 1.76111 24.2598C1.76111 23.8867 2.04767 23.5849 2.40197 23.5849H76.0911C76.4454 23.5849 76.732 23.8867 76.732 24.2598C76.732 24.633 76.4454 24.9348 76.0911 24.9348Z" fill="#2E2E47"/>
<path d="M171.106 24.9348H86.246C85.8917 24.9348 85.6051 24.633 85.6051 24.2598C85.6051 23.8867 85.8917 23.5849 86.246 23.5849H171.106C171.46 23.5849 171.747 23.8867 171.747 24.2598C171.747 24.633 171.46 24.9348 171.106 24.9348Z" fill="#2E2E47"/>
<path d="M172.648 70.6229H146.612V71.9728H172.648V70.6229Z" fill="#2E2E47"/>
<path d="M17.8244 81.8008H0V83.1507H17.8244V81.8008Z" fill="#2E2E47"/>
<path d="M586.293 326.693C645.229 326.693 693.005 324.857 693.005 322.594C693.005 320.33 645.229 318.495 586.293 318.495C527.358 318.495 479.581 320.33 479.581 322.594C479.581 324.857 527.358 326.693 586.293 326.693Z" fill="#1A1817"/>
<path d="M589.617 142.678C589.617 142.678 583.537 165.533 580.567 167.712C576.696 170.554 552.603 173.451 550.181 179.718C548.743 183.438 550.129 188.931 554.328 190.21C558.528 191.483 580.911 192.334 589.138 183.378C597.37 174.417 597.949 161.072 598.063 153.587C598.225 143.452 592.181 137.58 589.617 142.678Z" fill="#FFC97D"/>
<path d="M554.406 181.886L555.073 181.765C555.073 181.765 556.183 183.982 556.225 184.421C556.261 184.86 551.697 190.276 550.441 191.615C549.185 192.948 545.632 191.456 544.809 190.654C543.986 189.848 541.318 187.252 542.089 185.985C542.86 184.717 548.539 184.377 549.41 183.554C550.285 182.725 554.406 181.886 554.406 181.886Z" fill="#946255"/>
<path d="M589.268 147.298C589.268 147.298 589.029 158.526 588.779 168.754C588.633 174.724 588.45 183.51 588.455 184.059C588.695 183.834 588.924 183.603 589.143 183.367C594.739 177.276 596.797 169.155 597.579 162.23C594.567 155.919 589.268 147.298 589.268 147.298Z" fill="#2E2E47"/>
<path d="M599.913 246.33C600.424 255.494 600.825 264.262 600.981 272.082C601.236 284.5 602.414 315.926 608.051 314.972C612.97 314.138 615.367 274.936 616.466 246.203C609.036 246.714 602.69 246.483 599.913 246.33Z" fill="#946255"/>
<path d="M646.738 245.616C646.738 245.616 646.201 242.966 645.362 238.779C640.704 241.676 634.785 243.52 628.731 244.678C632.404 252.201 636.39 258.578 639.735 259.741C648.676 262.858 674.67 266.759 675.473 261.755C676.275 256.745 646.738 245.616 646.738 245.616Z" fill="#946255"/>
<path d="M635.921 190.183C635.843 189.733 635.739 189.233 635.609 188.69C634.082 189.145 632.3 189.606 630.211 190.062C619.462 192.394 602.002 193.963 596.63 194.408C597.589 210.651 597.448 231.975 598.407 249.128C601.184 249.282 610.552 249.15 617.987 248.645C618.628 231.931 617.305 216.33 617.305 216.33C617.305 216.33 621.254 228.194 626.84 246.242C632.894 245.084 643.07 242.231 647.728 239.328C645.222 226.833 637.646 200.153 635.921 190.183Z" fill="#4D92A1"/>
<path d="M635.921 190.183C635.843 189.733 635.739 189.233 635.609 188.69C634.082 189.145 632.3 189.606 630.211 190.062C623.995 191.412 615.544 192.504 608.473 193.272C603.279 194.704 598.954 196.235 598.954 196.235C598.954 196.235 613.736 197.909 623.38 196.872C630.971 196.054 634.77 194.26 636.427 192.838C636.229 191.856 636.057 190.967 635.921 190.183Z" fill="#2E2E47"/>
<path d="M635.609 188.69C631.972 170.477 629.784 154.147 618.753 142.371C608.953 131.906 601.429 128.883 592.889 135.786C586.21 141.185 590.248 160.413 593.28 174.812C594.02 178.313 596.208 187.313 596.745 196.389C602.122 195.944 618.524 195.664 629.273 193.332C631.362 192.877 635.937 190.325 635.609 188.69Z" fill="#FFC97D"/>
<path d="M604.43 139.951C604.43 139.951 605.196 166.845 604.508 168.902C603.821 170.96 576.274 181.951 576.967 186.429C577.655 190.907 577.639 192.844 585.116 195.264C592.592 197.684 615.268 186.489 618.759 179.285C625.49 165.407 614.965 146.108 612.59 142.003C610.214 137.904 604.373 137.525 604.43 139.951Z" fill="#FFC97D"/>
<path d="M683.001 259.203C682.678 258.868 681.204 258.062 679.792 257.524C678.515 257.036 675.488 257.123 675.488 257.123C675.488 257.123 670.163 260.29 671.909 268.729C671.935 268.844 672.617 271.725 673.039 275.182C673.612 279.858 674.024 285.515 674.67 286.042C674.712 286.08 674.759 286.113 674.806 286.141C675.931 286.926 677.624 286.536 677.989 285.801C678.369 285.038 682.522 278.749 683.288 266.046C683.408 264.109 683.611 259.845 683.001 259.203Z" fill="#FA634B"/>
<path d="M612.553 315.197C612.553 315.197 612.595 303.865 613.048 299.689C613.225 298.065 610.891 299.102 608.692 299.25C605.707 299.453 602.57 299.173 602.57 299.173C602.57 299.173 603.409 309.951 602.878 312.151C602.372 314.247 610.354 318.923 612.553 315.197Z" fill="#EAE6E4"/>
<path d="M613.553 314.84C612.543 314.527 612.543 314.527 612.543 314.527C612.543 314.527 611.256 314.017 609.031 314.461C606.801 314.906 607.28 313.94 605.722 313.133C605.16 312.843 604.717 312.579 604.378 312.36C603.274 311.646 601.872 311.591 600.778 312.321C600.569 312.458 600.366 312.628 600.179 312.837C598.86 314.275 597.532 316.195 594.838 316.925C592.144 317.655 589.274 317.792 588.789 319.148C588.768 319.202 588.752 319.252 588.737 319.307C588.367 320.635 589.128 322.27 589.831 322.467C590.566 322.676 606.478 322.989 608.15 322.725C609.818 322.467 613.064 322.138 613.444 321.364C613.647 320.958 613.944 319.268 614.038 317.704C614.116 316.294 614.033 314.988 613.553 314.84Z" fill="#FA634B"/>
<path d="M676.556 257.42L664.359 253.227C664.359 253.227 664.135 255.801 663.124 258.567C662.369 260.63 660.92 263.818 660.92 263.818C660.92 263.818 672.112 265.387 673.232 267.198C674.806 269.744 679.359 260.657 676.556 257.42Z" fill="#EAE6E4"/>
<path d="M617.414 216.791C617.352 216.791 617.294 216.742 617.279 216.676C616.211 211.243 613.152 206.491 611.85 204.461L611.787 204.362C610.526 202.397 603.597 203.144 603.524 203.155C603.445 203.16 603.383 203.105 603.373 203.029C603.362 202.952 603.419 202.88 603.492 202.869C603.784 202.836 610.657 202.096 612.011 204.203L612.074 204.302C613.387 206.348 616.466 211.133 617.545 216.621C617.56 216.698 617.513 216.774 617.44 216.791C617.435 216.791 617.425 216.791 617.414 216.791Z" fill="#2E2E47"/>
<path d="M595.333 194.287C595.265 194.287 595.208 194.238 595.198 194.166C595.187 194.09 595.234 194.013 595.307 194.002C595.354 193.996 599.981 193.118 609.578 187.351C619.024 181.677 621.713 176.294 620.634 165.182C619.597 154.531 613.111 143.205 613.048 143.09C613.006 143.024 613.027 142.936 613.095 142.892C613.157 142.848 613.246 142.87 613.283 142.941C613.35 143.057 619.868 154.438 620.91 165.154C621.468 170.878 620.994 174.917 619.384 178.247C617.706 181.715 614.726 184.596 609.724 187.603C600.074 193.398 595.406 194.276 595.359 194.287C595.349 194.287 595.338 194.287 595.333 194.287Z" fill="#2E2E47"/>
<path d="M616.633 176.393C615.747 176.393 613.778 175.153 610.802 173.204C608.468 171.679 606.051 170.099 604.831 169.819C602.086 169.193 593.869 174.867 593.786 174.922C593.723 174.966 593.64 174.949 593.598 174.884C593.556 174.818 593.572 174.73 593.634 174.686C593.978 174.45 602.028 168.891 604.889 169.539C606.155 169.824 608.588 171.421 610.943 172.958C613.381 174.554 616.153 176.36 616.784 176.074C616.836 176.052 616.862 176.009 616.878 175.943C617.06 174.982 612.506 172.475 609.781 170.977C606.983 169.435 606.572 169.166 606.634 168.902C606.676 168.743 606.869 168.749 606.931 168.749C608.609 168.804 615.184 170.433 615.46 170.505C615.533 170.521 615.58 170.598 615.559 170.68C615.544 170.757 615.466 170.806 615.393 170.785C615.325 170.768 608.833 169.16 607.02 169.04C607.431 169.358 608.682 170.049 609.901 170.719C613.981 172.969 617.347 174.917 617.138 175.998C617.107 176.157 617.018 176.272 616.888 176.338C616.825 176.376 616.737 176.393 616.633 176.393Z" fill="#2E2E47"/>
<path d="M604.665 167.827C604.592 167.827 604.529 167.766 604.529 167.69C604.524 167.481 603.972 147.068 604.373 143.007C604.592 140.79 605.113 139.336 605.931 138.678C606.405 138.294 606.869 138.277 607.176 138.332C607.249 138.343 607.301 138.42 607.291 138.497C607.28 138.573 607.207 138.628 607.134 138.617C606.879 138.573 606.494 138.59 606.098 138.908C605.582 139.325 604.91 140.379 604.649 143.04C604.248 147.084 604.8 167.481 604.805 167.684C604.805 167.761 604.743 167.827 604.665 167.827Z" fill="#2E2E47"/>
<path d="M640.329 248.667C640.277 248.667 640.225 248.634 640.204 248.58C640.173 248.508 640.204 248.42 640.277 248.393L646.686 245.49C646.753 245.457 646.837 245.49 646.863 245.567C646.894 245.638 646.863 245.726 646.79 245.753L640.381 248.656C640.366 248.662 640.345 248.667 640.329 248.667Z" fill="#2E2E47"/>
<path d="M598.246 113.134C598.246 113.134 600.502 113.414 601.262 116.64C602.023 119.867 601.038 124.849 599.83 126.172C598.621 127.494 590.873 117.595 592.473 115.406C594.072 113.216 598.246 113.134 598.246 113.134Z" fill="#2E2E47"/>
<path d="M598.574 124.405C598.574 124.405 601.747 131.528 602.977 132.806C604.206 134.085 598.105 136.192 596.406 135.72C594.708 135.248 595.474 134.035 595.495 133.92C595.515 133.805 594.208 129.102 594.588 128.175C594.963 127.247 598.449 123.95 598.574 124.405Z" fill="#946255"/>
<path d="M597.98 127.012L594.583 129.569C594.692 130.397 594.906 131.412 595.104 132.257C595.755 131.906 596.886 131.111 597.271 130.469C598.438 128.499 597.98 127.012 597.98 127.012Z" fill="#2E2E47"/>
<path d="M598.845 121.617C598.777 121.189 598.808 119.307 598.824 118.457C599.1 118.643 599.48 118.451 600.09 118.632C601.163 118.945 601.137 120.75 600.773 121.793C600.408 122.836 599.1 122.775 599.1 122.775C599.1 122.775 598.939 122.177 598.845 121.617Z" fill="#946255"/>
<path d="M599.105 122.77C599.105 122.77 598.939 122.177 598.845 121.617C598.777 121.189 598.808 119.307 598.824 118.457C598.73 118.396 598.662 118.303 598.61 118.177C598.548 118.023 598.511 117.804 598.511 117.496C598.511 117.496 598.907 114.023 596.599 112.113C594.291 110.209 588.935 110.884 587.45 113.496C585.965 116.103 586.252 118.835 586.059 120.492C585.97 121.25 585.866 126.424 586.08 127.478C586.559 129.848 588.263 130.869 591.967 130.754C595.515 130.639 597.954 128.718 598.491 127.127C599.038 125.541 599.105 122.77 599.105 122.77Z" fill="#946255"/>
<path d="M592.332 123.982C592.332 123.982 590.237 124.526 587.528 123.79C587.528 123.79 586.95 125.031 588.909 125.541C590.873 126.057 592.332 123.982 592.332 123.982Z" fill="white"/>
<path d="M593.52 118.363C593.504 118.363 593.489 118.363 593.473 118.358C593.463 118.352 592.504 118.018 591.899 118.133C591.827 118.149 591.759 118.094 591.743 118.018C591.728 117.941 591.78 117.869 591.853 117.853C592.52 117.727 593.515 118.073 593.556 118.089C593.624 118.116 593.666 118.193 593.64 118.265C593.624 118.325 593.572 118.363 593.52 118.363Z" fill="#2E2E47"/>
<path d="M593.723 119.669C593.635 119.675 593.447 119.636 593.009 119.472C592.368 119.23 591.587 119.51 591.576 119.516C591.509 119.543 591.431 119.499 591.41 119.428C591.384 119.357 591.425 119.274 591.493 119.252C591.53 119.241 592.374 118.94 593.098 119.208C593.499 119.357 593.645 119.384 593.687 119.389C593.697 119.384 593.713 119.379 593.728 119.379C593.806 119.373 593.864 119.428 593.874 119.505C593.879 119.554 593.853 119.603 593.822 119.631C593.801 119.647 593.78 119.664 593.723 119.669Z" fill="#2E2E47"/>
<path d="M591.931 119.346C591.931 119.346 591.498 119.516 591.738 120.158C591.972 120.794 592.493 120.728 592.723 120.361C592.931 120.026 592.947 119.609 592.764 119.466C592.629 119.357 592.363 119.143 591.931 119.346Z" fill="#2E2E47"/>
<path d="M586.788 119.664C586.773 119.664 586.752 119.664 586.736 119.658C586.668 119.631 586.632 119.549 586.658 119.477C586.679 119.417 586.783 119.203 587.314 119.011C588.059 118.736 588.706 119.302 588.737 119.324C588.794 119.373 588.799 119.461 588.752 119.521C588.706 119.582 588.622 119.587 588.565 119.538C588.56 119.532 588.002 119.049 587.403 119.274C586.986 119.428 586.908 119.576 586.908 119.582C586.887 119.625 586.84 119.658 586.788 119.664Z" fill="#2E2E47"/>
<path d="M587.757 119.137C587.757 119.137 588.117 119.285 587.908 119.883C587.7 120.481 587.268 120.432 587.075 120.097C586.903 119.796 586.892 119.411 587.049 119.269C587.169 119.17 587.398 118.961 587.757 119.137Z" fill="#2E2E47"/>
<path d="M587.674 120.877C587.257 120.668 585.835 120.317 585.746 121.348C585.616 122.874 587.096 122.852 587.684 122.473C588.383 122.023 588.159 121.113 587.674 120.877Z" fill="#774237"/>
<path d="M594.322 121.124C594.13 120.959 593.89 120.871 593.645 120.833C593.067 120.745 591.847 120.652 591.602 121.453C591.076 123.17 593.306 123.132 594.166 122.737C594.89 122.402 594.921 121.623 594.322 121.124Z" fill="#774237"/>
<path d="M589.445 123.22C588.747 123.253 588.482 122.814 588.466 122.792C588.247 122.479 588.169 122.205 588.231 121.963C588.33 121.595 588.732 121.425 589.055 121.294C589.195 121.233 589.326 121.178 589.388 121.124C589.669 120.882 589.774 120.18 589.638 119.455C589.352 117.913 589.352 117.913 588.914 117.891C588.857 117.891 588.794 117.886 588.721 117.88C588.002 117.826 586.585 117.952 586.575 117.952C586.502 117.957 586.439 117.902 586.429 117.826C586.423 117.749 586.476 117.683 586.548 117.672C586.606 117.666 587.997 117.546 588.737 117.595C588.805 117.601 588.867 117.601 588.924 117.606C589.57 117.639 589.591 117.738 589.899 119.389C590.029 120.103 589.977 120.97 589.56 121.338C589.466 121.42 589.32 121.48 589.154 121.552C588.883 121.667 588.549 121.804 588.487 122.04C588.445 122.188 588.513 122.391 588.685 122.633C588.706 122.665 589.039 123.192 590.065 122.786C590.133 122.759 590.211 122.797 590.237 122.869C590.263 122.94 590.227 123.022 590.159 123.05C589.883 123.159 589.649 123.214 589.445 123.22Z" fill="#2E2E47"/>
<path d="M596.526 114.659C596.526 114.659 597.016 117.447 597.032 118.418C597.047 119.389 597.178 119.872 597.568 119.988C597.954 120.103 598.595 119.861 598.897 119.472C599.199 119.082 600.356 112.206 598.72 112.377C597.084 112.552 596.406 113.93 596.526 114.659Z" fill="#2E2E47"/>
<path d="M586.33 114.829C586.33 114.829 586.017 108.678 588.466 107.526C590.915 106.373 594.416 105.907 595.442 105.923C597.667 105.956 599.83 108.327 600.366 109.271C601.137 110.615 601.346 112.958 601.367 114.824C601.372 115.257 601.257 116.64 601.257 116.64C601.257 116.64 598.48 116.849 597.683 116.832C590.665 116.679 586.929 116.58 586.33 114.829Z" fill="#4B5DFA"/>
<path d="M586.293 114.588C586.293 114.588 579.369 117.024 579.853 117.798C580.338 118.572 584.209 119.066 586.528 118.676C588.846 118.287 597.782 117.085 598.048 116.816C598.204 116.657 593.593 116.662 589.373 115.96C587.143 115.587 586.293 114.588 586.293 114.588Z" fill="#2E2E47"/>
<path d="M582.641 177.057C582.516 177.057 582.396 177.013 582.281 176.936C582.063 176.782 581.406 176.31 580.786 171.92C580.489 169.791 580.343 167.75 580.343 167.728C580.333 167.596 580.426 167.487 580.552 167.476C580.677 167.465 580.781 167.563 580.791 167.695C581.015 170.916 581.667 175.926 582.537 176.546C582.61 176.596 582.656 176.59 582.693 176.579C582.922 176.502 583.396 176.009 582.87 173.089C582.563 171.399 582.068 169.753 582.062 169.736L582.474 169.561C582.964 170.609 584.459 173.375 585.46 173.627C585.6 173.665 585.72 173.638 585.83 173.556C585.908 173.495 585.955 173.397 585.97 173.259C586.121 171.959 583.631 168.425 582.656 167.174C582.578 167.075 582.594 166.927 582.688 166.845C582.781 166.762 582.922 166.779 583 166.878C583.011 166.888 583.907 168.046 584.767 169.396C585.944 171.246 586.496 172.562 586.413 173.32C586.382 173.589 586.278 173.792 586.095 173.934C585.882 174.104 585.626 174.154 585.355 174.088C584.558 173.885 583.652 172.612 582.99 171.498C583.099 171.964 583.214 172.486 583.308 173.001C583.751 175.454 583.594 176.771 582.828 177.029C582.761 177.046 582.698 177.057 582.641 177.057Z" fill="#2E2E47"/>
<path d="M510.186 322.314C513.09 322.314 515.444 319.835 515.444 316.777C515.444 313.719 513.09 311.24 510.186 311.24C507.283 311.24 504.929 313.719 504.929 316.777C504.929 319.835 507.283 322.314 510.186 322.314Z" fill="#2E2E47"/>
<path d="M510.186 319.213C511.464 319.213 512.5 318.123 512.5 316.777C512.5 315.431 511.464 314.341 510.186 314.341C508.909 314.341 507.873 315.431 507.873 316.777C507.873 318.123 508.909 319.213 510.186 319.213Z" fill="white"/>
<path d="M513.756 309.528V314.428L511.552 317.479C511.249 317.896 510.78 318.143 510.28 318.143C508.999 318.143 508.243 316.634 508.962 315.52L510.181 313.633V309.528H513.756Z" fill="#EAE6E4"/>
<path d="M545.387 315.394C545.309 315.394 545.226 315.389 545.148 315.378L508.535 310.401C507.514 310.263 506.789 309.276 506.92 308.2C507.05 307.125 507.993 306.362 509.009 306.499L543.767 311.224L558.647 189.283C558.778 188.229 559.679 187.477 560.679 187.576L587.846 190.314C588.872 190.418 589.623 191.379 589.529 192.46C589.43 193.541 588.518 194.331 587.492 194.232L562.128 191.675L547.242 313.677C547.18 314.192 546.924 314.664 546.528 314.983C546.2 315.251 545.799 315.394 545.387 315.394Z" fill="#EAE6E4"/>
<path d="M512.839 311.119C512.76 311.119 512.677 311.114 512.599 311.103L475.986 306.126C474.965 305.989 474.241 305.001 474.371 303.925C474.501 302.85 475.444 302.087 476.46 302.224L511.218 306.949L526.099 185.008C526.229 183.954 527.125 183.203 528.131 183.301L555.297 186.04C556.324 186.144 557.074 187.104 556.98 188.185C556.881 189.266 555.969 190.056 554.943 189.958L529.579 187.4L514.693 309.402C514.631 309.918 514.376 310.39 513.98 310.708C513.651 310.977 513.25 311.119 512.839 311.119Z" fill="#EAE6E4"/>
<path d="M476.898 312.48C476.789 312.48 476.679 312.469 476.564 312.447C475.548 312.255 474.876 311.235 475.054 310.165L476.075 304.145C476.257 303.075 477.231 302.367 478.242 302.554C479.258 302.746 479.93 303.766 479.753 304.836L478.732 310.856C478.57 311.811 477.784 312.48 476.898 312.48Z" fill="#EAE6E4"/>
<path d="M548.341 322.778C549.008 319.802 547.259 316.82 544.433 316.117C541.607 315.414 538.776 317.257 538.108 320.233C537.441 323.209 539.191 326.191 542.017 326.894C544.842 327.597 547.674 325.754 548.341 322.778Z" fill="#2E2E47"/>
<path d="M545.533 321.458C545.533 322.802 544.496 323.894 543.22 323.894C541.943 323.894 540.906 322.802 540.906 321.458C540.906 320.113 541.943 319.021 543.22 319.021C544.496 319.021 545.533 320.113 545.533 321.458Z" fill="white"/>
<path d="M546.784 314.209V319.109L544.58 322.16C544.277 322.577 543.808 322.824 543.308 322.824C542.027 322.824 541.271 321.315 541.99 320.201L543.209 318.313V314.209H546.784Z" fill="#EAE6E4"/>
<path d="M541.089 191.028L538.286 188.909L536.587 191.45C533.695 192.213 530.746 194.353 528.589 197.574C526.432 200.795 525.51 204.439 525.802 207.567L524.103 210.107L526.906 212.225C530.991 215.254 537.494 212.972 541.401 207.128C545.314 201.278 545.174 194.062 541.089 191.028Z" fill="#2E2E47"/>
<path d="M538.112 204.667C541.847 199.086 541.766 192.254 537.932 189.409C534.098 186.564 527.963 188.781 524.228 194.363C520.494 199.944 520.575 206.775 524.409 209.62C528.243 212.466 534.378 210.248 538.112 204.667Z" fill="#EAE6E4"/>
<path d="M524.108 210.102C520.024 207.073 519.883 199.851 523.791 194.007C527.698 188.163 534.201 185.875 538.286 188.909C542.37 191.938 542.511 199.16 538.603 205.004C534.696 210.848 528.188 213.136 524.108 210.102ZM537.629 189.892C534.06 187.241 528.271 189.398 524.723 194.699C521.175 199.999 521.196 206.469 524.765 209.114C528.334 211.764 534.123 209.608 537.671 204.307C541.214 199.012 541.198 192.542 537.629 189.892Z" fill="#2E2E47"/>
<path d="M530.835 200.049C530.835 200.049 530.47 199.506 531.46 198.551C532.445 197.596 537.426 193.201 537.426 193.201L532.184 199.325C532.179 199.325 531.424 200.213 530.835 200.049Z" fill="#2E2E47"/>
<path d="M531.476 199.006L529.334 194.984C529.334 194.984 529.558 199.346 530.392 199.967C530.882 200.329 531.231 200.049 531.439 199.758C531.59 199.539 531.601 199.242 531.476 199.006Z" fill="#2E2E47"/>
<path d="M489.648 201.366C489.648 201.366 489.236 190.457 489.523 188.619C489.809 186.78 489.809 186.78 489.809 186.78C489.809 186.78 488.444 183.899 489.33 182.961C490.215 182.023 492.987 185.502 492.987 185.502C492.987 185.502 509.665 187.302 512.568 188.273C515.47 189.244 515.85 189.376 515.85 189.376C515.85 189.376 516.663 186.874 518.726 187.977C520.789 189.074 519.68 191.944 519.68 191.944C519.68 191.944 520.8 205.416 518.101 209.273C515.402 213.131 491.685 207.605 490.606 205.986C489.522 204.367 489.648 201.366 489.648 201.366Z" fill="#84CECA"/>
<path d="M493.29 191.982C493.831 192.059 494.264 191.648 494.259 191.066C494.253 190.484 493.811 189.952 493.269 189.881C492.727 189.804 492.294 190.215 492.3 190.797C492.305 191.379 492.748 191.911 493.29 191.982Z" fill="white"/>
<path d="M495.488 198.759C495.493 199.341 495.936 199.873 496.478 199.945C497.02 200.021 497.453 199.61 497.447 199.028C497.442 198.447 496.999 197.914 496.457 197.843C495.916 197.772 495.483 198.178 495.488 198.759Z" fill="white"/>
<path d="M500.266 189.787C500.271 190.369 500.714 190.901 501.256 190.973C501.798 191.05 502.23 190.638 502.225 190.056C502.22 189.475 501.777 188.942 501.235 188.871C500.693 188.794 500.256 189.206 500.266 189.787Z" fill="white"/>
<path d="M502.616 194.315C502.621 194.896 503.064 195.428 503.606 195.5C504.148 195.577 504.58 195.165 504.575 194.583C504.57 194.002 504.127 193.469 503.585 193.398C503.043 193.327 502.611 193.733 502.616 194.315Z" fill="white"/>
<path d="M512.37 192.937C512.911 193.014 513.344 192.602 513.339 192.021C513.334 191.439 512.891 190.907 512.349 190.836C511.807 190.759 511.374 191.17 511.38 191.752C511.38 192.328 511.828 192.86 512.37 192.937Z" fill="white"/>
<path d="M517.106 201.728C516.564 201.651 516.131 202.063 516.137 202.644C516.142 203.226 516.585 203.758 517.127 203.83C517.668 203.907 518.101 203.495 518.096 202.913C518.091 202.337 517.648 201.805 517.106 201.728Z" fill="white"/>
<path d="M519.841 194.732C519.69 194.616 519.518 194.534 519.331 194.507C518.789 194.43 518.356 194.841 518.361 195.423C518.367 196.005 518.81 196.537 519.351 196.608C519.555 196.636 519.737 196.597 519.893 196.504C519.883 195.873 519.862 195.275 519.841 194.732Z" fill="white"/>
<path d="M543.671 204.254L487.454 196.533L483.551 228.06L539.768 235.781L543.671 204.254Z" fill="#9C6F43"/>
<path d="M543.671 204.253L487.454 196.533L486.927 200.788L543.144 208.508L543.671 204.253Z" fill="#FFC97D"/>
<path d="M542.994 209.702L486.777 201.982L486.25 206.237L542.467 213.957L542.994 209.702Z" fill="#FFC97D"/>
<path d="M542.322 215.157L486.105 207.437L485.578 211.692L541.795 219.412L542.322 215.157Z" fill="#FFC97D"/>
<path d="M541.645 220.611L485.428 212.89L484.901 217.146L541.118 224.866L541.645 220.611Z" fill="#FFC97D"/>
<path d="M540.967 226.066L484.75 218.345L484.224 222.6L540.441 230.321L540.967 226.066Z" fill="#FFC97D"/>
<path d="M540.295 231.52L484.078 223.8L483.552 228.055L539.769 235.775L540.295 231.52Z" fill="#FFC97D"/>
<path d="M556.334 205.985L543.531 204.227L539.628 235.754L552.431 237.512L556.334 205.985Z" fill="#2E2E47"/>
<path d="M556.334 205.984L543.531 204.226L543.004 208.481L555.807 210.24L556.334 205.984Z" fill="#9C6F43"/>
<path d="M555.656 211.439L542.854 209.681L542.327 213.936L555.13 215.694L555.656 211.439Z" fill="#9C6F43"/>
<path d="M554.979 216.893L542.176 215.135L541.65 219.39L554.452 221.148L554.979 216.893Z" fill="#9C6F43"/>
<path d="M554.308 222.346L541.506 220.588L540.979 224.843L553.781 226.601L554.308 222.346Z" fill="#9C6F43"/>
<path d="M553.631 227.8L540.828 226.042L540.301 230.297L553.104 232.055L553.631 227.8Z" fill="#9C6F43"/>
<path d="M552.958 233.257L540.155 231.499L539.628 235.754L552.431 237.512L552.958 233.257Z" fill="#9C6F43"/>
<path d="M485.161 215.029L484.896 217.159L484.75 218.355L484.224 222.613L484.093 223.672C489.231 221.598 507.138 214.355 510.197 212.922C513.776 211.249 515.501 205.289 515.501 205.289C515.501 205.289 498.052 210.969 495.473 212.066C494.003 212.686 489.121 214.003 485.161 215.029Z" fill="#2E2E47"/>
<path d="M499.615 196.455C499.495 196.312 494.967 195.247 492.201 194.441C489.434 193.634 485.542 194.106 484.614 196.444C483.682 198.781 484.51 204.313 484.218 207.045C483.927 209.778 482.103 217.839 482.483 219.194C482.864 220.55 491.028 216.851 496.984 216.16C502.939 215.474 508.988 211.863 513.016 208.604C517.043 205.344 516.147 200.724 514.881 199.484C513.615 198.244 499.615 196.455 499.615 196.455Z" fill="#FFE2BD"/>
<path d="M513.922 206.425L512.979 202.238C512.823 201.536 512.213 201.053 511.531 201.081L506.227 201.3L505.383 197.289C502.277 196.8 499.62 196.46 499.62 196.46C499.526 196.35 496.796 195.686 494.279 195.022L494.952 197.612C495.124 198.276 495.702 198.732 496.358 198.721L502.725 198.617L503.684 203.188C503.835 203.901 504.445 204.395 505.138 204.367L510.463 204.148L511.343 208.066C511.463 208.593 511.843 209.01 512.328 209.158C512.562 208.977 512.792 208.796 513.016 208.615C513.787 207.989 514.376 207.314 514.818 206.623L513.922 206.425Z" fill="#CC8B70"/>
<path d="M506.826 211.496L505.883 207.309C505.726 206.606 505.117 206.123 504.434 206.151L499.13 206.37L498.177 201.832C498.031 201.13 497.437 200.636 496.754 200.647L490.33 200.757L489.163 196.263C488.981 195.56 488.345 195.094 487.657 195.16L485.396 195.368C485.057 195.67 484.792 196.032 484.62 196.455C484.406 196.992 484.286 197.7 484.224 198.501L486.714 198.271L487.86 202.683C488.032 203.347 488.611 203.802 489.267 203.791L495.634 203.687L496.593 208.258C496.744 208.971 497.354 209.471 498.047 209.438L503.371 209.218L504.252 213.136C504.32 213.427 504.46 213.685 504.658 213.883C505.971 213.274 507.243 212.582 508.441 211.852L506.826 211.496Z" fill="#CC8B70"/>
<path d="M498.792 212.374C498.635 211.671 498.026 211.188 497.343 211.216L492.039 211.435L491.086 206.897C490.94 206.195 490.346 205.701 489.663 205.712L484.286 205.8C484.281 206.255 484.26 206.678 484.224 207.045C484.177 207.506 484.083 208.115 483.963 208.823L488.538 208.746L489.496 213.317C489.648 214.031 490.257 214.53 490.95 214.497L496.275 214.278L496.707 216.198C496.801 216.187 496.895 216.176 496.989 216.165C497.838 216.067 498.693 215.907 499.542 215.699L498.792 212.374Z" fill="#CC8B70"/>
<path d="M483.343 219.491C484.864 219.403 488.168 218.234 491.648 217.285C491.44 216.67 490.877 216.259 490.247 216.286L484.943 216.506L483.989 211.968C483.921 211.649 483.765 211.375 483.546 211.172C483.051 213.91 482.468 217.032 482.437 218.525C482.577 218.98 482.916 219.337 483.343 219.491Z" fill="#CC8B70"/>
<path d="M559.529 237.371L476.486 225.93L467.172 300.915L550.216 312.356L559.529 237.371Z" fill="#FFC97D"/>
<path d="M502.636 229.538L494.515 228.42L492.547 244.269L500.668 245.387L502.636 229.538Z" fill="#FFEA8F"/>
<path d="M559.53 237.374L518.171 231.676L508.857 306.66L550.216 312.358L559.53 237.374Z" fill="#9C6F43"/>
<path d="M581.396 186.001C581.396 186.001 575.477 187.774 574.961 188.663C574.445 189.551 572.595 194.397 573.981 195.132C575.367 195.867 576.487 195.39 576.972 195.439C577.457 195.489 578.968 196.224 579.447 195.983C579.926 195.741 583.068 191.203 583.068 191.203C583.068 191.203 585.882 190.177 586.173 188.421C586.45 186.671 583.495 185.326 581.396 186.001Z" fill="#946255"/>
<path d="M551.207 181.836C551.207 181.836 545.429 182.846 544.632 183.235C543.835 183.625 539.88 182.237 540.474 183.746C541.068 185.255 544.559 185.189 545.34 185.705C546.122 186.226 549.608 186.764 550.478 186.583C551.348 186.402 552.801 185.156 553.698 184.783C554.594 184.41 555.5 184.673 555.709 183.658C555.917 182.643 554.208 180.08 553.385 180.662C552.562 181.238 551.207 181.836 551.207 181.836Z" fill="#946255"/>
<path d="M551.765 188.646C551.264 187.724 549.941 188.871 549.941 188.871C549.941 188.871 550.264 188.174 549.634 187.719C548.998 187.263 548.143 187.999 548.143 187.999C548.143 187.999 548.524 187.033 547.826 186.879C547.122 186.725 545.648 187.9 545.648 187.9L544.293 189.058C544.293 189.058 545.908 186.945 545.382 186.243C544.856 185.54 542.563 188.35 542.563 188.35C542.563 188.35 541.016 189.875 542.068 190.66C543.121 191.445 544.246 190.863 544.246 190.863C544.246 190.863 544.752 191.67 545.465 191.933C546.179 192.196 546.804 191.478 546.804 191.478C546.804 191.478 547.216 192.147 547.685 192.24C548.154 192.334 549.024 191.785 549.024 191.785C549.024 191.785 549.279 192.147 549.847 192.065C550.415 191.982 552.265 189.568 551.765 188.646Z" fill="#946255"/>
<path d="M637.604 204.132C637.589 204.132 637.573 204.131 637.557 204.126C631.654 202.809 628.387 197.387 628.356 197.333C628.293 197.223 628.325 197.08 628.429 197.009C628.533 196.938 628.669 196.976 628.736 197.086C628.768 197.141 631.941 202.397 637.651 203.671C637.771 203.698 637.849 203.824 637.823 203.95C637.797 204.06 637.703 204.132 637.604 204.132Z" fill="#2E2E47"/>
<path d="M626.605 243.685C626.511 243.685 626.423 243.619 626.392 243.52C626.355 243.399 626.418 243.268 626.532 243.229C626.558 243.218 626.626 243.202 626.991 243.103C637.37 240.343 644.388 237.939 646.753 236.332C646.858 236.26 646.993 236.293 647.061 236.403C647.129 236.513 647.097 236.655 646.993 236.727C643.747 238.933 633.134 241.951 627.1 243.559C626.85 243.624 626.699 243.663 626.673 243.674C626.652 243.685 626.626 243.685 626.605 243.685Z" fill="#2E2E47"/>
<path d="M644.378 236.765C644.284 236.765 644.195 236.705 644.164 236.606C644.122 236.469 639.928 223.074 638.698 218.607C637.463 214.135 635.426 204.049 635.405 203.95C635.379 203.824 635.457 203.698 635.577 203.671C635.697 203.643 635.817 203.725 635.843 203.852C635.864 203.95 637.896 214.02 639.126 218.476C640.355 222.937 644.544 236.326 644.586 236.458C644.622 236.579 644.56 236.716 644.445 236.754C644.424 236.765 644.404 236.765 644.378 236.765Z" fill="#2E2E47"/>
<path d="M613.6 242.231C613.475 242.231 613.376 242.126 613.376 241.995V227.426C613.376 221.532 612.235 208.143 612.225 208.006C612.214 207.874 612.303 207.764 612.428 207.753C612.553 207.742 612.657 207.836 612.668 207.967C612.678 208.104 613.824 221.516 613.824 227.431V241.995C613.824 242.126 613.725 242.231 613.6 242.231Z" fill="#2E2E47"/>
<path d="M603.857 245.753C601.017 245.753 598.918 245.71 598.866 245.704C598.741 245.699 598.647 245.594 598.647 245.463C598.652 245.331 598.746 245.238 598.876 245.232C599.012 245.238 612.621 245.534 617.513 244.601C617.633 244.579 617.753 244.661 617.774 244.793C617.795 244.919 617.716 245.04 617.591 245.068C614.575 245.644 608.307 245.753 603.857 245.753Z" fill="#2E2E47"/>
</svg>
