<svg width="76" height="75" viewBox="0 0 76 75" fill="none" xmlns="http://www.w3.org/2000/svg">
<path d="M55.2413 30.3397C54.9015 30.0152 54.3682 30.0198 54.0329 30.3465C50.955 33.3421 49.1089 35.2518 46.9774 37.6437C46.5432 38.1319 46.7744 38.9143 47.4341 39.0666V46.6668C47.4341 47.1479 47.8244 47.5382 48.3055 47.5382C52.583 47.5382 56.3016 47.6835 60.8972 47.6562C61.3664 47.6528 61.7487 47.2784 61.7618 46.8097C61.8319 44.3665 61.7883 42.2741 61.8556 39.0697C62.52 38.9319 62.761 38.1597 62.3496 37.6664C60.0876 34.9488 57.8414 32.8134 55.2413 30.3397ZM54.6479 32.1813C56.4866 33.9322 58.1512 35.5423 59.775 37.3521H49.5923C51.0696 35.7477 52.5685 34.217 54.6479 32.1813ZM55.5212 45.8813C53.4096 45.845 53.9003 45.857 53.4912 45.8504C53.4618 44.6332 53.7119 43.4212 54.2042 42.4287C54.3375 42.1609 54.4374 42.0293 54.4941 41.9692C54.5826 42.0338 54.7324 42.1847 54.8867 42.4469C55.4338 43.3777 55.6643 44.6761 55.5212 45.8813ZM60.0399 45.9167C59.1216 45.9262 58.1911 45.9184 57.2605 45.9067C57.4054 44.3732 57.104 42.7785 56.389 41.5641C55.74 40.46 54.834 39.9846 53.9665 40.2785C53.276 40.5145 52.8812 41.176 52.6434 41.6526C52.0358 42.8766 51.726 44.3544 51.7516 45.8291C50.8914 45.8175 50.0222 45.8012 49.177 45.7976V39.095H60.1128C60.0463 42.3308 60.088 43.4538 60.0399 45.9167Z" fill="black"/>
<path d="M55.1268 26.7189C47.9789 26.7189 42.1636 32.9075 42.1636 40.5144C42.1636 48.1214 47.9789 54.3111 55.1268 54.3111C62.2754 54.3111 68.0906 48.1214 68.0906 40.5144C68.0906 32.9075 62.2754 26.7189 55.1268 26.7189ZM55.1268 52.5682C48.9399 52.5682 43.9065 47.1614 43.9065 40.5144C43.9065 33.8685 48.9399 28.4618 55.1268 28.4618C61.3143 28.4618 66.3478 33.8685 66.3478 40.5144C66.3478 47.1614 61.3143 52.5682 55.1268 52.5682Z" fill="black"/>
<path d="M75.5744 40.2732C75.3522 31.9259 71.5167 25.5703 63.2499 23.1512C62.168 22.6563 61.0202 22.2792 59.8127 22.0394C48.7452 19.836 37.3404 28.92 37.3878 40.9932C37.4347 53.4328 53.4613 73.4299 54.9931 74.0342C55.4406 74.2111 55.835 74.237 56.2127 74.1626C60.6107 74.9299 73.079 74.6689 73.079 73.7214C73.079 72.7382 62.953 72.8068 60.8606 72.8855C64.2398 70.9218 75.9226 53.3573 75.5744 40.2732ZM56.9964 71.4687C55.8044 72.8534 55.749 72.6279 54.9192 71.6856C51.7225 68.0552 39.1714 51.7078 39.1307 40.9864C39.0883 30.017 49.4693 21.7627 59.4728 23.7482C71.7852 26.1962 79.2777 45.3882 56.9964 71.4687Z" fill="black"/>
<path d="M55.2197 34.26C54.5415 33.75 53.481 33.9163 53.0649 34.841C52.8737 35.2665 52.8771 35.7374 53.0734 36.1356C53.4987 36.9934 54.6605 37.1986 55.3422 36.5589C56.001 35.9407 55.9326 34.7947 55.2197 34.26Z" fill="black"/>
<path d="M10.4314 34.3088C10.5407 34.4727 10.7088 34.5698 10.8916 34.6298C12.0439 34.975 16.8297 34.9016 16.8297 34.5108C16.8297 34.1935 13.9925 34.1654 13.4802 34.1708C16.7811 32.5945 24.0837 19.2735 24.1596 12.2908C24.2431 4.61116 17.9505 -0.31933 10.974 0.721055C5.32276 0.975214 0.750312 5.88526 0.390536 10.7777C0.127288 14.3531 1.20638 17.158 2.41142 19.6566C4.0755 23.1037 7.89871 30.5161 10.4314 34.3088ZM2.12888 10.9047C2.4346 6.74691 6.47691 2.44564 11.4918 2.44564C17.0772 2.44564 22.0682 7.17561 20.9273 14.1114C19.7829 21.0838 15.3296 26.7012 11.195 32.2936C9.12624 29.0625 5.49287 22.0323 3.98069 18.8986C2.70984 16.2639 1.90875 13.8958 2.12888 10.9047Z" fill="black"/>
<path d="M11.2602 16.3774C14.2019 16.3774 16.5955 14.1863 16.5955 11.4937C16.5955 8.79997 14.2019 6.60889 11.2602 6.60889C8.31794 6.60889 5.92432 8.79997 5.92432 11.4937C5.92432 14.1863 8.31794 16.3774 11.2602 16.3774ZM12.9258 8.72678C14.0654 9.25406 14.8526 10.2896 14.8526 11.4937C14.8526 13.0946 13.4699 14.4049 11.6968 14.5959C10.3273 14.0821 9.18101 12.8289 9.29923 11.5317C9.48199 9.52582 10.8659 8.7877 12.9258 8.72678Z" fill="black"/>
<path d="M24.2478 52.3118C20.3486 52.5652 17.4391 52.6002 12.6564 53.2399C4.53325 54.3244 -0.94074 63.4475 4.65631 69.904C8.19654 73.9877 14.8963 73.8482 20.2804 73.7347C24.4655 73.6427 39.1307 74.1421 51.2041 73.6961C51.6846 73.6791 52.0602 73.2751 52.0426 72.794C52.0244 72.3118 51.6199 71.8863 51.1394 71.9555C38.6749 72.4136 25.1736 71.8819 20.2441 71.9929C14.9633 72.1007 8.97777 72.2278 5.97312 68.7625C1.30781 63.3797 6.12911 55.8695 12.8873 54.9669C17.5956 54.3372 20.5153 54.3028 24.3613 54.0501C38.8221 53.1048 37.7072 38.6038 25.7609 36.4341C22.6718 35.8735 17.5027 35.9859 13.693 36.2775C13.2136 36.3149 12.8544 36.7336 12.8913 37.2136C12.9276 37.6947 13.3537 38.0374 13.8269 38.0158C17.3574 37.7446 22.5203 37.6164 25.4495 38.1497C35.3954 39.9551 36.8571 51.4849 24.2478 52.3118Z" fill="black"/>
</svg>
