<svg width="285" height="489" viewBox="0 0 285 489" fill="none" xmlns="http://www.w3.org/2000/svg">
<path d="M435.32 152.951H433.252V53.4498C433.252 24.4757 409.727 0.90155 380.814 0.90155H106.945C78.0311 0.90155 54.5062 24.4757 54.5062 53.4498V152.939H52.4384C21.5665 152.939 0 178.561 0 215.239V366.582C0 381.672 14.1831 399.2 34.1683 406.233V446.483C34.1683 469.874 53.156 488.902 76.4985 488.902C99.8409 488.902 118.829 469.874 118.829 446.483V409.391H368.942V446.483C368.942 469.874 387.93 488.902 411.272 488.902C434.614 488.902 453.602 469.874 453.602 446.483V406.233C473.587 399.212 487.771 381.672 487.771 366.582V215.251C487.758 178.561 466.192 152.951 435.32 152.951ZM75.1848 53.4498C75.1848 35.8971 89.4286 21.6234 106.945 21.6234H380.802C398.318 21.6234 412.561 35.8971 412.561 53.4498V152.939H75.1848V53.4498ZM98.138 446.495C98.138 458.465 88.4191 468.192 76.4863 468.192C64.5414 468.192 54.8346 458.453 54.8346 446.495V409.403H98.138V446.495ZM432.912 446.495C432.912 458.465 423.193 468.192 411.26 468.192C399.315 468.192 389.608 458.453 389.608 446.495V409.403H432.912V446.495ZM467.08 366.594C467.08 373.956 453.347 388.669 435.32 388.669H52.4262C34.3994 388.669 20.6664 373.956 20.6664 366.594V215.251C20.6664 189.995 33.1343 173.673 52.4262 173.673H435.308C454.6 173.673 467.068 189.995 467.068 215.251V366.594H467.08Z" fill="#AEAEAE" fill-opacity="0.2"/>
<path d="M93.0416 233.108H85.5121C62.5225 233.108 43.8145 251.856 43.8145 274.893C43.8145 297.931 62.5225 316.678 85.5121 316.678H93.0416C116.031 316.678 134.739 297.931 134.739 274.893C134.739 251.856 116.031 233.108 93.0416 233.108ZM93.0416 295.944H85.5121C73.92 295.944 64.493 286.498 64.493 274.881C64.493 263.265 73.92 253.818 85.5121 253.818H93.0416C104.634 253.818 114.061 263.265 114.061 274.881C114.061 286.498 104.634 295.944 93.0416 295.944Z" fill="#AEAEAE" fill-opacity="0.2"/>
<path d="M326.028 343.788H162.862C157.157 343.788 152.522 348.432 152.522 354.148C152.522 359.865 157.157 364.509 162.862 364.509H326.028C331.733 364.509 336.367 359.865 336.367 354.148C336.367 348.432 331.745 343.788 326.028 343.788Z" fill="#AEAEAE" fill-opacity="0.2"/>
<path d="M346.22 305.379H141.344C135.639 305.379 131.005 310.023 131.005 315.74C131.005 321.457 135.639 326.101 141.344 326.101H346.22C351.925 326.101 356.559 321.457 356.559 315.74C356.559 310.023 351.937 305.379 346.22 305.379Z" fill="#AEAEAE" fill-opacity="0.2"/>
</svg>
