<svg width="104" height="103" viewBox="0 0 104 103" fill="none" xmlns="http://www.w3.org/2000/svg">
<g id="Group 38">
<path id="Vector" d="M75.8813 41.1359C75.4115 40.6873 74.6742 40.6936 74.2107 41.1454C69.9559 45.2864 67.4038 47.9264 64.4572 51.233C63.857 51.9078 64.1766 52.9894 65.0885 53.2V63.7065C65.0885 64.3716 65.6281 64.9112 66.2932 64.9112C72.2064 64.9112 77.3471 65.1121 83.6999 65.0743C84.3486 65.0696 84.8772 64.552 84.8952 63.9041C84.9921 60.5267 84.9319 57.6341 85.0249 53.2043C85.9433 53.0138 86.2765 51.9463 85.7077 51.2644C82.5807 47.5076 79.4757 44.5555 75.8813 41.1359ZM75.0609 43.6818C77.6028 46.1021 79.9039 48.328 82.1486 50.8299H68.072C70.1143 48.6119 72.1864 46.4958 75.0609 43.6818ZM76.2681 62.6207C73.349 62.5705 74.0274 62.587 73.4619 62.5779C73.4213 60.8953 73.767 59.2198 74.4476 57.8478C74.6319 57.4776 74.7699 57.2956 74.8483 57.2125C74.9707 57.3019 75.1777 57.5105 75.3911 57.8729C76.1473 59.1597 76.4661 60.9546 76.2681 62.6207ZM82.5149 62.6697C81.2454 62.6827 79.959 62.6719 78.6726 62.6557C78.8729 60.5359 78.4562 58.3314 77.4679 56.6525C76.5707 55.1263 75.3181 54.469 74.1189 54.8753C73.1644 55.2016 72.6186 56.1161 72.29 56.7749C71.45 58.467 71.0217 60.5099 71.0571 62.5485C69.8679 62.5324 68.6664 62.51 67.4979 62.505V53.2392H82.6156C82.5237 57.7124 82.5814 59.2649 82.5149 62.6697Z" fill="#00DD68"/>
<path id="Vector_2" d="M75.7228 36.1305C65.8414 36.1305 57.8024 44.6856 57.8024 55.2015C57.8024 65.7174 65.8414 74.2741 75.7228 74.2741C85.605 74.2741 93.6441 65.7174 93.6441 55.2015C93.6441 44.6856 85.605 36.1305 75.7228 36.1305ZM75.7228 71.8647C67.17 71.8647 60.2117 64.3904 60.2117 55.2015C60.2117 46.0142 67.17 38.5399 75.7228 38.5399C84.2764 38.5399 91.2347 46.0142 91.2347 55.2015C91.2347 64.3904 84.2764 71.8647 75.7228 71.8647Z" fill="#00DD68"/>
<path id="Vector_3" d="M103.989 54.8682C103.682 43.3288 98.38 34.5427 86.952 31.1986C85.4564 30.5144 83.8696 29.9931 82.2004 29.6616C66.9006 26.6156 51.1346 39.1734 51.2002 55.8634C51.2649 73.06 73.4201 100.704 75.5377 101.539C76.1563 101.784 76.7016 101.82 77.2237 101.717C83.3035 102.778 100.54 102.417 100.54 101.107C100.54 99.7479 86.5416 99.8427 83.6491 99.9515C88.3204 97.2369 104.471 72.9557 103.989 54.8682ZM78.3071 97.9928C76.6593 99.9071 76.5827 99.5954 75.4356 98.2927C71.0164 93.2741 53.6658 70.6754 53.6095 55.854C53.5509 40.6899 67.9016 29.2791 81.7306 32.0239C98.7513 35.408 109.109 61.9391 78.3071 97.9928Z" fill="#00DD68"/>
<path id="Vector_4" d="M75.8515 46.5554C74.9139 45.8505 73.4479 46.0803 72.8727 47.3586C72.6084 47.9468 72.6131 48.5978 72.8845 49.1483C73.4724 50.3341 75.0784 50.6178 76.0209 49.7334C76.9316 48.8788 76.837 47.2946 75.8515 46.5554Z" fill="#00DD68"/>
<path id="Vector_5" d="M13.9358 46.6229C14.0869 46.8494 14.3193 46.9837 14.5719 47.0666C16.1649 47.5438 22.7808 47.4423 22.7808 46.9021C22.7808 46.4634 18.8587 46.4246 18.1504 46.4321C22.7136 44.253 32.8088 25.8379 32.9137 16.1851C33.0291 5.56871 24.3302 -1.24723 14.6858 0.191006C6.87356 0.542357 0.552583 7.33003 0.0552274 14.0933C-0.308687 19.0359 1.18305 22.9135 2.8489 26.3676C5.14933 31.1329 10.4346 41.3798 13.9358 46.6229ZM2.45832 14.269C2.88095 8.52118 8.46906 2.57508 15.4016 2.57508C23.1229 2.57508 30.0226 9.11381 28.4453 18.7018C26.8633 28.3405 20.7071 36.1061 14.9914 43.8371C12.1315 39.3704 7.10872 29.6517 5.01827 25.3198C3.26144 21.6775 2.15401 18.4038 2.45832 14.269Z" fill="#00DD68"/>
<path id="Vector_6" d="M15.0816 21.8344C19.1482 21.8344 22.4571 18.8054 22.4571 15.0831C22.4571 11.3593 19.1482 8.33032 15.0816 8.33032C11.0142 8.33032 7.70526 11.3593 7.70526 15.0831C7.70526 18.8054 11.0142 21.8344 15.0816 21.8344ZM17.3842 11.2581C18.9596 11.987 20.0478 13.4186 20.0478 15.0831C20.0478 17.2961 18.1363 19.1076 15.6852 19.3716C13.7919 18.6613 12.2073 16.9289 12.3708 15.1356C12.6234 12.3627 14.5365 11.3423 17.3842 11.2581Z" fill="#00DD68"/>
<path id="Vector_7" d="M33.0358 71.5103C27.6455 71.8606 23.6233 71.909 17.0118 72.7934C5.78223 74.2926 -1.78504 86.9044 5.95235 95.8298C10.8464 101.475 20.1082 101.282 27.5512 101.125C33.3367 100.998 53.6099 101.689 70.3002 101.072C70.9645 101.049 71.4837 100.49 71.4594 99.8251C71.4343 99.1584 70.8751 98.5702 70.2108 98.6659C52.9798 99.2992 34.3156 98.5642 27.501 98.7176C20.2007 98.8667 11.9264 99.0423 7.77271 94.2518C1.32337 86.8106 7.98835 76.4286 17.331 75.1808C23.8397 74.3102 27.8759 74.2628 33.1926 73.9134C53.1833 72.6066 51.642 52.5603 35.1275 49.5609C30.857 48.786 23.7112 48.9413 18.4447 49.3444C17.7819 49.3962 17.2855 49.975 17.3365 50.6385C17.3866 51.3036 17.9757 51.7773 18.6298 51.7475C23.5105 51.3726 30.6476 51.1954 34.6969 51.9326C48.4462 54.4285 50.4669 70.3672 33.0358 71.5103Z" fill="#00DD68"/>
</g>
</svg>
