<svg width="82" height="74" viewBox="0 0 82 74" fill="none" xmlns="http://www.w3.org/2000/svg">
<path d="M8.82626 67.2826C9.14775 67.2832 9.45637 67.1563 9.68456 66.9299C9.98418 66.6345 17.0157 59.6274 17.0157 53.8534C17.0157 49.2909 13.3418 45.5786 8.82626 45.5786C4.31072 45.5786 0.638184 49.2909 0.638184 53.8534C0.638184 59.6274 7.66852 66.6345 7.96814 66.9299C8.19627 67.1563 8.50483 67.2831 8.82626 67.2826ZM8.82626 48.0231C11.9941 48.0231 14.5712 50.6384 14.5712 53.8534C14.5712 57.2797 10.9749 61.9371 8.82626 64.292C6.67781 61.94 3.08269 57.2861 3.08269 53.8534C3.08269 50.6384 5.65961 48.0231 8.82626 48.0231Z" fill="black"/>
<path d="M73.1186 0.275269C68.6031 0.275269 64.9292 3.98735 64.9292 8.54992C64.9292 14.3241 71.9607 21.3311 72.2603 21.6265C72.4888 21.8525 72.7972 21.9792 73.1186 21.9792C73.4399 21.9792 73.7483 21.8525 73.9768 21.6265C74.2764 21.3311 81.3067 14.3241 81.3067 8.54992C81.3067 3.98803 77.634 0.275269 73.1186 0.275269ZM73.1186 18.988C70.97 16.6331 67.3737 11.9756 67.3737 8.54992C67.3737 5.33489 69.9508 2.71978 73.1186 2.71978C76.2865 2.71978 78.8622 5.33557 78.8622 8.5506C78.8622 11.9763 75.2671 16.6338 73.1186 18.9886V18.988Z" fill="black"/>
<path d="M13.0815 54.3572C12.9338 48.6985 4.71945 48.6985 4.57227 54.3572C4.72029 60.0177 12.9349 60.0155 13.0815 54.3572ZM7.01677 54.3572C7.05955 51.9296 10.5939 51.9296 10.637 54.3572C10.5936 56.7851 7.05938 56.7857 7.01677 54.3572Z" fill="black"/>
<path d="M73.1189 4.76208C67.508 4.9096 67.5091 13.199 73.1189 13.3465C78.728 13.1985 78.7266 4.9096 73.1189 4.76208ZM73.1189 10.902C70.7397 10.8589 70.7401 7.24937 73.1189 7.20659C75.4965 7.24937 75.4962 10.8596 73.1189 10.902Z" fill="black"/>
<path d="M9.56049 71.7479C8.73191 73.1088 10.79 74.3896 11.6421 73.0297C14.382 68.5699 17.4124 64.2953 20.7137 60.2335C29.0118 75.0649 50.078 78.2238 62.2206 66.0954C62.2376 66.0768 62.2593 66.0634 62.2744 66.0437C72.2665 56.7623 73.2407 39.6238 64.2577 29.2484C66.0354 28.6597 67.8311 28.1392 69.6414 27.6742L68.0197 31.818C67.4461 33.3031 69.6986 34.1996 70.2971 32.7084L73.0812 25.5934L67.6598 20.2513C66.5143 19.1341 64.8111 20.8668 65.9434 21.9928L69.2501 25.2511C66.956 25.8339 64.6792 26.4858 62.4372 27.2605C53.2048 17.6888 36.7529 16.9502 26.7179 25.7645C26.6585 25.8075 26.6033 25.8559 26.5529 25.9091C17.6737 33.0359 14.3341 47.3459 19.4993 57.8883C15.865 62.2691 12.5439 66.9004 9.56049 71.7479ZM61.9351 62.8251C62.2569 61.8518 62.4545 60.8418 62.5231 59.819C62.6569 58.2601 62.9305 57.779 63.1952 57.3142C64.4293 55.917 63.9761 49.9435 62.1766 49.0479C58.819 46.8507 55.3325 51.304 52.3137 47.6881C49.9711 45.3942 50.1627 44.8158 51.3539 42.7367C52.6147 40.6656 53.3231 40.1587 55.3656 41.3037C58.3102 43.0111 60.5432 42.3542 63.3687 41.521C64.6658 41.1558 65.9391 40.7106 67.1812 40.1881C69.4261 47.9618 67.1385 57.0815 61.9351 62.8251ZM66.4321 37.8468C63.873 38.7964 59.112 41.0043 56.5921 39.1887C53.3951 37.3698 51.1037 38.2522 49.2335 41.521C47.3607 44.7873 47.6687 46.5628 50.6038 49.4358C53.509 52.2789 55.6897 51.7562 58.0006 51.2047C58.8005 50.974 60.4621 50.6716 60.7125 51.0049C60.9272 51.166 61.308 51.7221 61.4287 53.6307C61.5336 55.2892 61.3486 55.6144 61.0693 56.1069C60.6301 56.8785 60.2545 57.6753 60.0881 59.61C59.9771 62.29 58.6905 62.6736 59.7803 65.0053C48.328 75.5606 29.4354 71.9129 22.4011 58.253C23.4524 57.0216 24.5233 55.8212 25.6139 54.6518C26.4349 56.5948 28.4134 56.8861 29.5482 58.3144C30.7287 60.481 30.9211 66.2645 33.3508 67.1333C35.0608 67.6307 36.4799 66.7259 36.9485 64.5284C37.5051 61.6425 41.3554 58.4986 41.1379 55.4659C41.0968 50.9254 40.7424 48.0305 33.1639 47.3216C41.8536 39.7073 51.495 33.8872 61.7566 30.1227C63.7774 32.3876 65.3624 35.0062 66.4321 37.8468ZM31.282 48.9885C31.8858 49.4541 32.5399 49.7838 33.1914 49.8373C38.5328 50.2766 38.5727 51.6004 38.6557 54.4995C38.9258 56.2295 38.211 57.4023 36.9273 59.2615C35.9057 60.7905 34.8494 62.372 34.5427 64.1022C34.4734 64.4943 34.3444 64.7199 34.2215 64.8027C33.0025 63.0712 32.7699 58.4708 31.5223 56.8725C30.3313 55.0009 27.4439 54.795 27.6704 52.4778C28.8534 51.2782 30.0572 50.1151 31.282 48.9885ZM59.8701 28.2238C49.675 32.1141 40.0976 37.9768 31.4514 45.5738C31.0368 44.777 29.947 43.1914 30.2037 42.5117C30.9279 40.7911 31.4835 40.7483 32.8991 40.6514C34.9161 40.6466 36.0347 39.9144 36.9393 35.7661C37.1447 34.8278 37.3881 34.8124 38.4135 34.7475C39.1321 34.7017 40.0262 34.6457 40.7434 33.9879C42.5308 32.1864 40.9242 30.4204 40.2589 29.1586C37.4367 23.6838 33.1631 29.2576 29.4863 26.7239C38.1804 19.8992 51.9297 20.6375 59.8701 28.2238ZM27.5417 28.3256C28.2588 28.9079 29.48 29.7395 31.6374 29.8339C33.1186 29.8965 34.3505 29.5962 35.3327 29.353C37.0659 28.922 37.3751 28.8486 38.0697 30.2451C38.3045 30.7713 39.0474 31.6941 39.0915 32.1854C37.4812 32.548 35.377 31.9757 34.5522 35.2451C33.9071 38.2046 33.5245 38.2058 32.893 38.207C30.6566 38.2603 29.0301 38.9397 27.9742 41.511C27.1115 43.7824 28.6609 45.4609 29.6039 47.207C28.8948 47.8606 28.2038 48.5454 27.5081 49.2226C27.7177 44.4381 24.4185 40.4677 21.325 37.1987C22.714 33.8167 24.8375 30.7859 27.5417 28.3254V28.3256ZM19.4828 46.5745C19.4881 44.3093 19.804 42.0555 20.4217 39.8761C21.9224 41.5524 23.4689 43.2863 24.2788 45.1464C25.1257 47.0661 25.0478 49.3733 25.158 51.5632C23.8339 52.9328 22.5437 54.3528 21.2744 55.8093C20.0914 52.8738 19.4832 49.7384 19.4828 46.5735V46.5745Z" fill="black"/>
</svg>
