<svg width="156" height="36" viewBox="0 0 156 36" fill="none" xmlns="http://www.w3.org/2000/svg">
<g id="icon-32-logo 1">
<g id="Group">
<path id="Vector" d="M6.78263 27.5625C11.3044 29.4379 15.0721 30.375 18.087 30.375C21.1018 30.375 24.8696 29.4379 29.3913 27.5625M18.087 18L22.1712 23.0805C22.4335 23.4067 22.8744 23.5327 23.27 23.3955L32.5961 20.1465C33.1105 19.9665 33.3829 19.4051 33.202 18.8921C33.1647 18.7875 33.1116 18.6896 33.0404 18.603L29.3913 14.0625M18.087 18L29.3913 14.0625M18.087 18L6.78263 14.0625M18.087 18L14.0027 23.0805C13.7405 23.4067 13.2996 23.5316 12.9039 23.3944L3.57784 20.1465C3.06349 19.9665 2.79106 19.4051 2.97193 18.8921C3.00923 18.7875 3.06236 18.6896 3.13358 18.603L6.78263 14.0625M29.3913 14.0625L34.2443 10.1115C34.3845 9.99674 34.4907 9.84599 34.5518 9.67499C34.7315 9.16199 34.4602 8.60062 33.9447 8.42062L24.8278 5.24474C24.5033 5.13112 24.1416 5.19524 23.8748 5.41124L18.087 10.125M29.3913 14.0625L18.087 10.125M18.087 10.125L6.78263 14.0625M18.087 10.125L12.2991 5.41124C12.0324 5.19524 11.6706 5.13112 11.3462 5.24474L2.22923 8.42062C1.71376 8.60062 1.44245 9.16199 1.62219 9.67499C1.68323 9.84599 1.78949 9.99674 1.92967 10.1115L6.78263 14.0625" stroke="#13C265" stroke-width="2" stroke-linecap="round" stroke-linejoin="round"/>
<path id="Vector_2" fill-rule="evenodd" clip-rule="evenodd" d="M50.9148 25.875V16.884C50.9148 16.047 50.8063 14.265 50.7249 12.618C51.1861 14.211 51.7016 15.885 52.0271 16.722L55.4998 25.875H58.5656L61.9026 16.83C62.2553 15.885 62.8793 13.995 63.3948 12.321C63.293 13.941 63.215 15.822 63.206 16.83L63.2049 25.875H66.7318V8.02798H61.7941L57.7788 19.26C57.5889 19.746 57.3176 20.664 57.0463 21.582C56.8021 20.664 56.5036 19.773 56.3409 19.287L52.1899 8.02798H47.3878V25.875H50.9148ZM75.1106 26.253C79.777 26.253 81.3777 23.364 81.3777 19.611C81.3777 15.858 79.777 12.969 75.1106 12.969C70.4442 12.969 68.8435 15.912 68.8435 19.611C68.8435 23.31 70.4442 26.253 75.1106 26.253ZM75.1106 23.661C72.9402 23.661 72.3976 21.69 72.3976 19.611C72.3976 17.532 72.9402 15.561 75.1106 15.561C77.281 15.561 77.8236 17.532 77.8236 19.611C77.8236 21.69 77.281 23.661 75.1106 23.661ZM89.2953 25.875L94.0974 13.347H90.5433L88.4543 19.584C88.2372 20.178 88.0744 20.907 87.9388 21.474C87.8303 20.907 87.6675 20.151 87.4504 19.584L85.1715 13.347H81.5089L86.3381 25.875H89.2953ZM96.8873 10.998C97.9996 10.998 98.895 10.107 98.895 8.99998C98.895 7.89298 97.9996 7.00198 96.8873 7.00198C95.7749 7.00198 94.8796 7.89298 94.8796 8.99998C94.8796 10.107 95.7749 10.998 96.8873 10.998ZM98.5965 25.875V13.347H95.2052V25.875H98.5965ZM104.561 25.875V19.665C104.805 18.612 105.646 15.858 107.654 15.858C108.712 15.858 109.2 16.587 109.2 18.207V25.875H112.591V17.316C112.591 13.86 110.638 12.969 108.576 12.969C105.809 12.969 104.696 14.751 104.344 15.534V13.347H101.169V25.875H104.561ZM120.59 32.409C123.846 32.409 127.129 31.221 127.129 28.008C127.129 25.119 124.66 24.201 121.811 23.958C119.559 23.769 117.253 23.715 117.253 22.878C117.253 22.446 117.66 22.122 118.176 21.825C118.827 22.014 119.559 22.095 120.373 22.095C123.954 22.095 126.071 20.394 126.071 17.505C126.071 16.614 125.881 15.858 125.501 15.21C126.83 14.562 127.291 13.617 127.291 12.483C127.291 12.213 127.264 11.781 127.183 11.295L124.443 10.89V12.24C124.443 12.942 124.361 13.428 124.144 13.833C123.195 13.266 121.974 12.969 120.482 12.969C116.819 12.969 114.839 14.751 114.839 17.613C114.839 19.017 115.327 20.151 116.277 20.907C115.083 21.717 114.405 22.554 114.405 23.715C114.405 25.011 115.273 25.659 116.521 26.01C115.544 26.631 114.405 27.603 114.405 29.007C114.405 31.383 117.389 32.409 120.59 32.409ZM120.427 19.773C118.99 19.773 118.393 18.882 118.393 17.532C118.393 16.047 119.044 15.291 120.455 15.291C121.865 15.291 122.517 16.02 122.517 17.478C122.517 18.882 121.838 19.773 120.427 19.773ZM120.59 29.898C118.338 29.898 117.362 29.25 117.362 28.467C117.362 27.846 117.877 27.387 118.962 26.739C119.722 26.793 120.509 26.874 121.486 26.982C122.978 27.198 124.036 27.495 124.036 28.386C124.036 29.412 122.517 29.898 120.59 29.898ZM140.065 25.875V22.797H132.93C133.69 22.068 134.531 21.204 135.372 20.286C137.705 17.775 139.496 15.345 139.496 12.483C139.496 9.13498 137.407 7.64998 133.907 7.64998C129.864 7.64998 127.857 9.53998 128.101 13.104L131.791 13.806C131.601 11.349 132.198 10.431 133.798 10.431C135.209 10.431 135.697 11.295 135.697 12.78C135.697 14.319 135.073 15.912 131.763 19.449C129.674 21.744 127.802 23.553 127.802 23.553V25.875H140.065ZM152.487 25.875V21.582H155.281V18.504H152.487V7.81198H149.475L141.119 18.801V21.582H148.96V25.875H152.487ZM148.96 18.504H144.971L148.96 13.32V18.504Z" fill="#1A1817"/>
</g>
</g>
</svg>
