<svg width="104" height="121" viewBox="0 0 104 121" fill="none" xmlns="http://www.w3.org/2000/svg">
<g clip-path="url(#clip0_1480_1702)">
<path d="M89.9923 36.785C88.3552 32.6382 86.0095 28.9118 83.0215 25.7095C80.0229 22.497 76.528 19.9731 72.6324 18.2071C71.4425 17.6675 70.2305 17.207 68.9999 16.8247C68.577 16.6934 68.152 16.5714 67.7251 16.4587L72.9809 6.10493C73.2919 5.26789 73.0517 4.32567 72.3776 3.73921C70.0226 1.69037 67.4898 0.741962 64.6349 0.838748C62.2432 0.920507 59.9312 1.7297 57.6947 2.51282C55.0142 3.45107 52.2425 4.42157 49.3045 4.1542C48.5795 4.08835 47.87 4.39373 47.4206 4.9656C46.9707 5.53792 46.8411 6.2985 47.0773 6.98704L51.7572 16.5228C51.3268 16.6399 50.8991 16.7668 50.4731 16.9029C49.3275 17.2693 48.1986 17.7041 47.0888 18.2071C43.1932 19.9726 39.6983 22.497 36.6997 25.7095C33.7113 28.9113 31.3664 32.6378 29.7289 36.785C28.0374 41.07 27.1802 45.6194 27.1802 50.3066C27.1802 54.2218 27.7782 58.0402 28.961 61.6889C29.3419 62.864 30.6392 63.4721 31.7906 63.0218C32.8531 62.6063 33.403 61.4361 33.0513 60.3515C32.0317 57.204 31.477 53.8236 31.477 50.3062C31.477 36.4385 40.0955 24.6988 51.8665 20.9719C53.2311 20.5396 54.6377 20.2153 56.078 20.008C57.3156 19.8299 58.5785 19.738 59.8604 19.738C61.0087 19.738 62.1415 19.8118 63.2544 19.9554C64.7062 20.1423 66.1243 20.4482 67.5004 20.8627C79.4523 24.4645 88.2442 36.3006 88.2442 50.3066C88.2442 51.6378 88.1646 52.949 88.0106 54.2355C87.8629 55.4707 88.7927 56.572 90.0361 56.6352C91.1676 56.6927 92.1478 55.8627 92.2809 54.7389C92.4543 53.2783 92.541 51.7995 92.541 50.3066C92.541 45.6194 91.6838 41.07 89.9923 36.785ZM56.0037 15.684L52.1014 8.3964C54.6678 8.12151 56.9932 7.30789 59.1155 6.56455C63.0947 5.17155 65.6775 4.41229 68.3961 6.10935L63.4287 15.6491C62.2508 15.513 61.0609 15.4445 59.8608 15.4445C58.5626 15.4449 57.2758 15.5249 56.0037 15.684Z" fill="#C1E1EE"/>
<path d="M101.253 61.0596C99.7739 59.5751 97.7798 58.75 95.6588 58.75C93.6705 58.75 91.795 59.4726 90.3366 60.7949C90.2486 60.8744 90.1624 60.9566 90.0774 61.0401L82.9421 67.9274L77.5434 73.1383C76.0956 71.8377 74.1657 71.0386 72.089 71.0386H53.7453C52.463 71.0386 51.2434 70.7531 50.2084 70.2202C46.9829 68.5518 43.5097 67.7015 39.8905 67.7015C38.1211 67.7015 36.3637 67.9075 34.651 68.3048C33.2231 68.6358 31.8271 69.0998 30.4824 69.6885C27.6041 70.9476 24.9607 72.7768 22.7464 75.0921C21.4194 76.4816 20.3078 77.9913 19.4001 79.5898C18.4602 79.1646 17.4317 78.9366 16.3648 78.9366C14.3774 78.9366 12.5108 79.7104 11.1077 81.1123L1.19626 91.0153C0.0660909 92.1445 0.0660909 93.9781 1.19626 95.1134L25.2867 119.182C26.4231 120.312 28.2584 120.312 29.3885 119.182L30.4807 118.091L39.3004 109.279C41.2944 107.287 41.9159 104.452 41.1737 101.927L41.8213 101.286C43.7198 99.383 46.2977 98.3175 48.9897 98.3175H76.8135C78.9279 98.3175 80.9282 97.366 82.2552 95.7229L101.45 72.0918C102.834 70.6201 103.59 68.7105 103.59 66.674C103.59 64.5421 102.758 62.5503 101.253 61.0596ZM36.1571 106.139L27.3379 114.951L5.43162 93.0641L14.2514 84.2523C14.8352 83.6689 15.6036 83.3768 16.3657 83.3768C17.1279 83.3768 17.8962 83.6689 18.4801 84.2523L36.1576 101.914C37.3258 103.082 37.3258 104.972 36.1571 106.139ZM98.1231 69.1418L78.8076 92.9254C78.3184 93.5282 77.5819 93.8769 76.8069 93.8769H48.3289C44.8809 93.8769 41.5793 95.2473 39.1416 97.6829L38.6714 98.146L22.9309 82.4195C24.9904 78.3877 28.6268 75.1978 32.9082 73.4976C34.3564 72.9218 35.878 72.5169 37.4377 72.307C38.2467 72.1983 39.0659 72.1422 39.8905 72.1422C42.659 72.1422 45.478 72.7702 48.1705 74.1658C49.9102 75.0665 51.8658 75.4793 53.828 75.4793H72.0894C73.3041 75.4793 74.4289 76.0666 75.0973 76.9929C75.4361 77.4614 75.6577 78.0165 75.7152 78.6259C75.9183 80.7066 74.286 82.4575 72.242 82.4575H54.4632C53.2379 82.4575 52.2409 83.4537 52.2409 84.6778C52.2409 85.381 52.57 86.0085 53.0818 86.416C53.4613 86.7183 53.9417 86.8986 54.4632 86.8986H57.3897H59.9867H72.1022C72.9214 86.8986 73.7468 86.8036 74.5342 86.5627C78.298 85.3991 80.4248 81.8963 80.1536 78.3554C80.1501 78.3064 80.1457 78.2569 80.1412 78.2074C80.1028 77.795 80.0267 77.4017 79.9254 77.0146L86.1079 71.0475L93.1893 64.2128C93.8687 63.534 94.764 63.1915 95.6593 63.1915C96.5484 63.1915 97.4432 63.534 98.1231 64.2128C98.8087 64.8917 99.1453 65.7862 99.1453 66.6745C99.1453 67.5685 98.8082 68.4626 98.1231 69.1418Z" fill="#C1E1EE"/>
<path d="M99.1451 66.6741C99.1451 67.5686 98.8085 68.4631 98.1229 69.1419L78.8074 92.9255C78.3186 93.5283 77.5817 93.877 76.8072 93.877H48.3296C44.8816 93.877 41.58 95.247 39.1418 97.6834L38.6716 98.1466L22.9307 82.4196C26.0482 76.3168 32.7788 72.1427 39.8903 72.1427C42.6584 72.1427 45.4778 72.7707 48.1703 74.1663C49.91 75.0675 51.8656 75.4798 53.8278 75.4798H72.0892C73.9178 75.4798 75.5434 76.8123 75.7146 78.6264C75.9176 80.7071 74.2858 82.4581 72.2414 82.4581H54.4626C53.2373 82.4581 52.2403 83.4542 52.2403 84.6784C52.2403 85.9026 53.2373 86.8987 54.4626 86.8987H72.1016C72.9208 86.8987 73.7462 86.8037 74.5335 86.5624C78.35 85.3824 80.483 81.7982 80.1402 78.2075C80.1021 77.7951 80.026 77.4018 79.9243 77.0147L93.1886 64.2125C93.868 63.5337 94.7633 63.1912 95.6586 63.1912C96.5477 63.1912 97.443 63.5337 98.1224 64.2125C98.8085 64.8913 99.1451 65.7858 99.1451 66.6741Z" fill="white"/>
<path d="M36.1572 106.139L27.3379 114.951L5.43164 93.0641L14.2509 84.2527C14.8353 83.6689 15.6036 83.3772 16.3653 83.3772C17.127 83.3772 17.8953 83.6689 18.4797 84.2527L36.1567 101.914C37.3254 103.082 37.3254 104.972 36.1572 106.139Z" fill="white"/>
<path d="M18.4782 93.1327C19.4701 92.1417 19.4701 90.535 18.4782 89.544C17.4863 88.553 15.8782 88.553 14.8863 89.544C13.8944 90.535 13.8944 92.1417 14.8863 93.1327C15.8782 94.1237 17.4863 94.1237 18.4782 93.1327Z" fill="#C1E1EE"/>
<path d="M66.6012 49.7556C66.6012 43.7549 58.3069 44.0161 58.3069 41.0224C58.3069 39.6121 59.1275 39.0031 60.6385 39.0031C61.4701 39.0031 62.1641 39.2228 62.8515 39.6479C63.6101 40.1173 64.5965 39.9749 65.183 39.3032C65.8939 38.4896 65.7439 37.2353 64.8544 36.6215C63.9635 36.0068 62.9377 35.563 61.7107 35.3774V33.7338C61.7107 32.888 61.0246 32.2025 60.178 32.2025C59.3314 32.2025 58.6453 32.888 58.6453 33.7338V35.4433C55.6856 36.0315 53.884 38.1639 53.884 41.2402C53.884 46.905 62.1782 46.8471 62.1782 50.0769C62.1782 51.5057 61.3949 52.2437 59.6136 52.2437C58.5993 52.2437 57.6262 51.9529 56.6026 51.3793C55.7343 50.8927 54.6373 51.1662 54.0977 52.002C53.5001 52.9283 53.8238 54.1631 54.7952 54.6854C56.0271 55.3483 57.4134 55.7589 58.6449 55.9052V57.5125C58.6449 58.3584 59.3309 59.0439 60.1776 59.0439C61.0242 59.0439 61.7103 58.3584 61.7103 57.5125V55.7598C64.9358 55.0774 66.6012 52.7643 66.6012 49.7556Z" fill="#C1E1EE"/>
</g>
<defs>
<clipPath id="clip0_1480_1702">
<rect width="103.241" height="119.197" fill="white" transform="translate(0.348633 0.83252)"/>
</clipPath>
</defs>
</svg>
