<svg width="154" height="106" viewBox="0 0 154 106" fill="none" xmlns="http://www.w3.org/2000/svg">
<g id="Moving_Truck">
<path id="Vector" d="M153.995 78.9698C152.057 38.269 152.542 40.5301 151.411 38.4305L139.136 15.0114C137.844 12.5887 135.422 10.9736 132.515 10.9736H104.896C103.766 10.9736 102.635 11.2966 101.666 11.9426V6.28975C101.666 3.05952 99.0817 0.475342 95.8515 0.475342H5.88972C2.6595 0.475342 0.0753174 3.05952 0.0753174 6.28975V71.0557C0.0753174 74.1245 2.49799 76.7086 5.5667 76.8701V84.7842C5.5667 86.8838 7.34332 88.6605 9.44297 88.6605H21.3948C22.6869 99.3202 32.3776 106.911 42.8758 105.619C51.7589 104.489 58.7039 97.5436 59.8345 88.6605H63.7107C64.1953 90.9216 66.1334 92.6982 68.5561 92.6982H90.0371C92.4597 92.6982 94.3979 90.9216 94.8824 88.6605H106.188C107.48 99.3202 117.171 106.911 127.669 105.619C136.552 104.489 143.497 97.5436 144.628 88.6605C149.958 88.6605 154.157 84.2997 153.995 78.9698ZM5.88972 73.6399C4.43612 73.6399 3.30554 72.5093 3.30554 71.0557C3.46705 71.0557 3.30554 72.9939 3.30554 6.28975C3.30554 4.83614 4.43612 3.70557 5.88972 3.70557H95.8515C97.3051 3.70557 98.4356 4.83614 98.4356 6.28975C98.5972 6.28975 98.4356 4.51312 98.4356 73.6399H54.1816C46.5905 65.7259 33.9927 65.7259 26.4016 73.6399C-4.60851 73.6399 16.0649 73.6399 5.88972 73.6399ZM21.0718 85.4302H9.28146C8.95843 85.4302 8.63541 85.1072 8.63541 84.7842V77.3547C8.63541 77.0317 8.79692 76.8701 9.11994 76.7086H23.979C22.3639 79.4543 21.3948 82.3615 21.0718 85.4302ZM56.4427 88.6605C55.3122 97.5436 47.2366 103.681 38.3535 102.55C31.0855 101.581 25.4326 95.9285 24.4635 88.6605C23.979 83.6536 25.7556 78.6468 29.4704 75.255C30.1164 74.609 30.7624 74.1245 31.4085 73.6399C37.5459 69.6021 45.783 70.2482 51.1129 75.255C54.9891 78.6468 56.9273 83.6536 56.4427 88.6605ZM91.4907 87.6914C91.4907 88.6605 90.6831 89.468 89.714 89.468H68.233C67.587 89.468 67.1025 89.145 66.7794 88.6605C66.4564 88.1759 66.4564 87.8529 66.4564 86.3993C66.4564 85.4302 67.264 84.6227 68.233 84.6227H89.714C90.3601 84.6227 90.8446 84.9457 91.1676 85.4302C91.6522 85.9148 91.4907 86.2378 91.4907 87.6914ZM94.7209 85.4302C94.2364 83.0076 92.2982 81.3925 89.8755 81.3925H68.233C65.8104 81.3925 63.8722 83.1691 63.3877 85.4302H59.5114C59.3499 82.3615 58.3809 79.4543 56.6042 76.8701H98.2741C98.2741 82.2 97.9511 83.4921 99.2432 85.4302H94.7209ZM150.119 65.4028H146.404C145.92 65.4028 145.597 65.0798 145.597 64.5953C145.112 52.9665 144.951 53.6125 145.274 53.2895C145.597 52.9665 145.597 52.9665 149.473 52.9665L150.119 65.4028ZM141.398 88.6605C140.429 97.5436 132.515 104.004 123.793 103.035C114.91 102.066 108.449 94.1518 109.418 85.4302C110.226 77.1932 117.171 70.8942 125.57 70.8942C134.937 70.8942 142.367 79.1313 141.398 88.6605ZM144.628 85.4302C143.336 74.7705 133.645 67.1795 122.985 68.4716C114.102 69.6021 107.157 76.5471 106.027 85.4302H104.896C103.119 85.4302 101.666 83.9766 101.666 82.2V17.5955C101.666 15.8189 103.119 14.3653 104.896 14.3653H132.515C134.13 14.3653 135.422 15.1729 136.229 16.6265C149.635 41.9837 148.827 40.3686 148.989 41.6607L149.312 49.8978H145.758C143.497 49.8978 141.721 51.6744 141.721 53.9356C141.721 54.0971 141.721 52.9665 142.205 64.9183C142.367 67.018 143.982 68.7946 146.243 68.7946H150.119L150.604 79.2928C150.927 82.523 148.02 85.4302 144.628 85.4302Z" fill="#333333"/>
<path id="Vector_2" d="M130.899 21.1486C130.092 19.5335 128.477 18.5645 126.7 18.5645H112.487C110.226 18.5645 108.449 20.3411 108.449 22.6022V60.2343C108.449 61.2034 109.095 61.8495 110.064 61.8495C111.034 61.8495 111.68 61.2034 111.68 60.2343V43.7602C112.326 43.9217 110.711 43.7602 134.614 43.7602C138.329 43.7602 140.752 39.7224 138.975 36.4922L130.899 21.1486ZM134.453 40.53H112.487C112.003 40.53 111.68 40.207 111.68 39.7224V22.6022C111.68 22.1177 112.003 21.7947 112.487 21.7947H126.7C127.346 21.7947 127.831 22.1177 127.992 22.6022L136.068 37.9458C136.714 39.2379 135.745 40.53 134.453 40.53Z" fill="#333333"/>
<path id="Vector_3" d="M40.2915 78.6467C35.6076 78.6467 31.8929 82.3615 31.8929 87.0453C31.8929 91.7291 35.6076 95.4439 40.2915 95.4439C44.9753 95.4439 48.69 91.7291 48.69 87.0453C48.8516 82.3615 44.9753 78.6467 40.2915 78.6467ZM45.2983 88.6604C43.6832 93.3443 37.0612 93.3443 35.4461 88.6604C34.154 84.4611 38.0303 80.7464 42.0681 82.2C44.6523 83.0075 46.2674 85.7532 45.2983 88.6604Z" fill="#333333"/>
<path id="Vector_4" d="M125.408 78.6467C120.724 78.6467 117.01 82.3615 117.01 87.0453C117.01 91.7291 120.724 95.4439 125.408 95.4439C130.092 95.4439 133.807 91.7291 133.807 87.0453C133.807 82.3615 129.93 78.6467 125.408 78.6467ZM130.253 88.6604C128.638 93.3443 122.016 93.3443 120.401 88.6604C119.109 84.7842 122.824 80.7464 127.023 82.0385C129.607 83.0075 131.061 85.9147 130.253 88.6604Z" fill="#333333"/>
<path id="Vector_5" d="M119.271 49.5748H116.848C115.879 49.5748 115.233 50.2208 115.233 51.1899C115.233 52.1589 115.879 52.805 116.848 52.805H119.271C120.24 52.805 120.886 52.1589 120.886 51.1899C120.886 50.2208 120.078 49.5748 119.271 49.5748Z" fill="#333333"/>
<path id="Vector_6" d="M13.3192 40.0457L15.4188 37.946V54.7432C15.4188 55.7123 16.0649 56.3583 17.0339 56.3583H49.6592C50.6283 56.3583 51.2743 55.7123 51.2743 54.7432V37.4615C54.02 40.2072 54.1815 40.5302 54.9891 40.5302C56.4427 40.5302 57.0887 38.7536 56.1197 37.7845C33.5081 15.173 34.4772 15.9805 33.5081 15.9805C32.539 15.9805 33.8311 15.0114 11.058 37.7845C10.412 38.4306 10.412 39.3996 11.058 40.0457C11.7041 40.6917 12.6731 40.6917 13.3192 40.0457ZM37.3844 52.9666H29.3088V40.3687H37.3844V52.9666ZM18.8106 34.7158L33.5081 19.8568L48.0441 34.2313V52.9666H40.6146V38.7536C40.6146 37.7845 39.9685 37.1385 38.9995 37.1385H27.6937C26.7246 37.1385 26.0786 37.7845 26.0786 38.7536V52.9666H18.6491V34.7158H18.8106Z" fill="#333333"/>
<path id="Vector_7" d="M80.0234 41.3375V49.09C80.0234 50.5436 81.8 51.1897 82.7691 50.2206C93.1058 39.8839 92.2983 40.853 92.4598 40.5299C92.6213 40.2069 92.7828 39.7224 92.6213 39.3994C92.6213 38.9148 92.1368 38.4303 82.7691 29.2242C81.8 28.2551 80.0234 28.9011 80.0234 30.3547V38.1073H61.9342C60.9651 38.1073 60.319 38.7533 60.319 39.7224C60.319 40.6914 60.9651 41.3375 61.9342 41.3375C61.9342 41.176 61.1266 41.3375 80.0234 41.3375ZM83.2536 34.231L88.745 39.7224L83.2536 45.2138V34.231Z" fill="#333333"/>
</g>
</svg>
