<svg width="87" height="98" viewBox="0 0 87 98" fill="none" xmlns="http://www.w3.org/2000/svg">
<g clip-path="url(#clip0_1480_1717)">
<path d="M70.9717 78.7289H57.6784C57.1284 78.7289 56.5909 78.9506 56.2022 79.3384C55.8134 79.7263 55.5877 80.2625 55.5877 80.813V93.537H5.04264V4.26328H70.9717V39.1878L75.1496 34.4495V2.17925C75.1496 1.63053 74.9257 1.09433 74.5387 0.704695C74.1499 0.316844 73.6107 0.0952148 73.0607 0.0952148H2.95369C2.4019 0.0952148 1.86622 0.316844 1.47566 0.704695C1.0869 1.09433 0.864746 1.63053 0.864746 2.17925V95.621C0.864746 96.1697 1.0869 96.7059 1.47566 97.0956C1.86443 97.4834 2.4019 97.705 2.95369 97.705H60.2905C60.8405 97.705 61.3744 97.487 61.7613 97.0991L68.202 90.7148L68.2109 90.7058L74.5405 84.3662C74.9292 83.9765 75.1496 83.4439 75.1496 82.8952V45.8509L70.9717 50.5892V78.7289ZM59.7674 93.612V82.897H70.8947L59.7674 93.612Z" fill="black"/>
<path d="M63.1355 25.302H20.0576V31.4897H63.1355V25.302Z" fill="black"/>
<path d="M63.1354 35.5613H12.7104V41.749H63.1354V35.5613Z" fill="black"/>
<path d="M12.7104 45.8206V52.0101H59.6634L63.1354 48.0726V45.8206H12.7104Z" fill="black"/>
<path d="M12.7104 56.0815V62.2693H37.9641L36.461 60.6357L34.6122 58.6249C34.304 58.2871 34.2503 57.7884 34.485 57.3952C34.6749 57.0753 35.017 56.8858 35.3789 56.8858L35.628 56.9162L45.2163 59.2719C45.4152 59.322 45.5944 59.4274 45.7323 59.5794L48.2082 62.2693H50.6143L55.9692 56.1995V56.0815H12.7104Z" fill="black"/>
<path d="M85.9186 32.0706L81.8142 28.4656C81.6243 28.2976 81.3806 28.2064 81.128 28.2064L81.0618 28.2082C80.7859 28.2243 80.5279 28.3512 80.3469 28.5585L75.1496 34.4514L70.9717 39.1896L63.1355 48.0744L59.6653 52.0101L55.9693 56.1996L50.6143 62.2694L49.4373 63.6045L48.2083 62.2694L45.7324 59.5795C45.5944 59.4293 45.4153 59.3221 45.2164 59.2721L35.628 56.9164L35.379 56.886C35.0171 56.886 34.6749 57.0754 34.485 57.3954C34.2503 57.7886 34.3023 58.289 34.6122 58.625L36.4611 60.6358L37.9642 62.2694L46.7159 71.7834C47.429 72.5591 48.443 73.0041 49.4982 73.0041C50.6054 72.9934 51.623 72.5287 52.3306 71.7262L70.9717 50.5874L75.1514 45.851L86.0154 33.5345C86.3934 33.1037 86.3522 32.4478 85.9186 32.0706Z" fill="black"/>
</g>
<defs>
<clipPath id="clip0_1480_1717">
<rect width="85.4086" height="97.6098" fill="white" transform="translate(0.864746 0.0952148)"/>
</clipPath>
</defs>
</svg>
