<svg width="100" height="99" viewBox="0 0 100 99" fill="none" xmlns="http://www.w3.org/2000/svg">
<g clip-path="url(#clip0_1480_1691)">
<path d="M54.0141 48.7847V29.4403C54.0141 27.0567 52.0749 25.1239 49.6821 25.1239C47.2898 25.1239 45.3501 27.0561 45.3501 29.4403V50.9145C45.3501 51.8401 45.7189 52.7279 46.3761 53.3822L64.3887 71.33C66.0801 73.0153 68.823 73.0153 70.5144 71.33C72.2058 69.6447 72.2058 66.9115 70.5144 65.2262L54.0141 48.7847Z" fill="#C1E1EE"/>
<path d="M66.5361 88.6623C65.8532 87.0761 64.0612 86.2751 62.4204 86.8292C60.1521 87.5947 57.8197 88.1482 55.442 88.4849C53.7262 88.7283 52.4896 90.2502 52.5996 91.9732L52.8293 95.5762C52.952 97.4991 54.6882 98.9079 56.6041 98.6477C59.8048 98.2131 62.9427 97.4683 65.9887 96.42C67.8168 95.7906 68.7276 93.7506 67.9651 91.9795L66.5361 88.6623Z" fill="#C1E1EE"/>
<path d="M90.5009 71.2529L87.2967 69.5676C85.7641 68.7614 83.8645 69.2616 82.9385 70.7214C81.656 72.7423 80.1914 74.6391 78.5565 76.3957C77.3775 77.662 77.3804 79.6208 78.5565 80.89L81.0145 83.5426C82.326 84.9578 84.5647 84.9613 85.8874 83.5565C88.0952 81.2117 90.0606 78.6663 91.7659 75.9431C92.789 74.3076 92.2103 72.1523 90.5009 71.2529Z" fill="#C1E1EE"/>
<path d="M98.8533 43.8419C98.6172 41.9358 96.8002 40.6347 94.9093 41.0074L91.3549 41.7081C89.6519 42.0436 88.4968 43.6281 88.698 45.3458C88.876 46.863 88.9656 48.3959 88.9656 49.9294C88.9656 50.7825 88.9377 51.6379 88.8824 52.4898C88.7701 54.218 90.0055 55.7427 91.7254 55.9896L95.3118 56.5043C97.2277 56.779 98.9662 55.3718 99.1029 53.4478C99.186 52.2771 99.2279 51.1012 99.2279 49.9288C99.2285 47.8929 99.1028 45.8564 98.8533 43.8419Z" fill="#C1E1EE"/>
<path d="M36.4577 86.5209C35.4142 86.1407 34.3865 85.7159 33.3826 85.2499C19.6578 78.8744 10.7897 65.0101 10.7897 49.9288C10.7897 28.4534 28.3247 10.9815 49.8777 10.9815C58.7086 10.9815 67.1487 13.9301 73.9648 19.2515L69.9743 21.9956C69.5212 22.3068 69.5764 22.9901 70.0737 23.2254L89.5968 32.458C90.0941 32.6933 90.66 32.3038 90.6158 31.7573L88.8791 10.2947C88.8348 9.7482 88.2137 9.45437 87.7606 9.76558L82.726 13.2277C73.7403 5.23243 62.1065 0.755493 49.8783 0.755493C43.218 0.755493 36.7549 2.05656 30.667 4.6216C27.7413 5.85428 24.9204 7.3802 22.2821 9.15649C19.67 10.9148 17.2138 12.9339 14.9821 15.1582C12.7503 17.3819 10.7239 19.8293 8.95869 22.432C7.17598 25.0608 5.64513 27.8721 4.40741 30.7866C1.83311 36.8521 0.527344 43.2925 0.527344 49.9288C0.527344 59.4715 3.27498 68.7279 8.47361 76.6965C13.5344 84.4542 20.6483 90.6165 29.0459 94.5179C30.4099 95.1514 31.8093 95.7245 33.2308 96.2322C34.9251 96.8372 36.7799 95.8868 37.2708 94.1609L38.3771 90.2728C38.8209 88.7144 37.9845 87.0766 36.4577 86.5209Z" fill="#C1E1EE"/>
</g>
<defs>
<clipPath id="clip0_1480_1691">
<rect width="98.7013" height="97.9241" fill="white" transform="translate(0.527344 0.755493)"/>
</clipPath>
</defs>
</svg>
