<svg width="254" height="470" viewBox="0 0 254 470" fill="none" xmlns="http://www.w3.org/2000/svg">
<g opacity="0.4">
<path d="M198.942 146.441H196.79V50.61C196.79 22.7046 172.313 0 142.229 0H-142.726C-172.81 0 -197.287 22.7046 -197.287 50.61V146.43H-199.439C-231.56 146.43 -254 171.107 -254 206.431V352.192C-254 366.726 -239.243 383.607 -218.449 390.381V429.146C-218.449 451.674 -198.692 470 -174.405 470C-150.117 470 -130.361 451.674 -130.361 429.146V393.422H129.877V429.146C129.877 451.674 149.633 470 173.92 470C198.208 470 217.964 451.674 217.964 429.146V390.381C238.758 383.619 253.516 366.726 253.516 352.192V206.443C253.503 171.107 231.063 146.441 198.942 146.441ZM-175.772 50.61C-175.772 33.7048 -160.951 19.9575 -142.726 19.9575H142.217C160.442 19.9575 175.262 33.7048 175.262 50.61V146.43H-175.772V50.61ZM-151.889 429.157C-151.889 440.686 -162.002 450.054 -174.417 450.054C-186.846 450.054 -196.946 440.674 -196.946 429.157V393.433H-151.889V429.157ZM196.436 429.157C196.436 440.686 186.324 450.054 173.908 450.054C161.479 450.054 151.38 440.674 151.38 429.157V393.433H196.436V429.157ZM231.987 352.204C231.987 359.294 217.698 373.464 198.942 373.464H-199.452C-218.208 373.464 -232.497 359.294 -232.497 352.204V206.443C-232.497 182.118 -219.524 166.399 -199.452 166.399H198.929C219.002 166.399 231.975 182.118 231.975 206.443V352.204H231.987Z" fill="#AEAEAE" fill-opacity="0.2"/>
<path d="M164.302 223.642H156.467C132.547 223.642 113.082 241.698 113.082 263.886C113.082 286.074 132.547 304.129 156.467 304.129H164.302C188.222 304.129 207.687 286.074 207.687 263.886C207.687 241.698 188.222 223.642 164.302 223.642ZM164.302 284.16H156.467C144.406 284.16 134.597 275.062 134.597 263.874C134.597 252.686 144.406 243.588 156.467 243.588H164.302C176.363 243.588 186.172 252.686 186.172 263.874C186.172 275.062 176.363 284.16 164.302 284.16Z" fill="#AEAEAE" fill-opacity="0.2"/>
<path d="M85.2255 330.239H-84.5455C-90.4813 330.239 -95.3033 334.711 -95.3033 340.217C-95.3033 345.723 -90.4813 350.196 -84.5455 350.196H85.2255C91.1613 350.196 95.9833 345.723 95.9833 340.217C95.9833 334.711 91.1739 330.239 85.2255 330.239Z" fill="#AEAEAE" fill-opacity="0.2"/>
<path d="M106.235 293.247H-106.934C-112.87 293.247 -117.692 297.72 -117.692 303.226C-117.692 308.732 -112.87 313.204 -106.934 313.204H106.235C112.171 313.204 116.993 308.732 116.993 303.226C116.993 297.72 112.183 293.247 106.235 293.247Z" fill="#AEAEAE" fill-opacity="0.2"/>
</g>
</svg>
