<svg width="305" height="488" viewBox="0 0 305 488" fill="none" xmlns="http://www.w3.org/2000/svg">
<path d="M453.197 152.05H451.045V52.5482C451.045 23.5742 426.568 0 396.484 0H111.529C81.4447 0 56.9675 23.5742 56.9675 52.5482V152.038H54.816C22.6944 152.038 0.254883 177.66 0.254883 214.337V365.68C0.254883 380.77 15.0121 398.299 35.8063 405.332V445.581C35.8063 468.972 55.5627 488 79.85 488C104.137 488 123.894 468.972 123.894 445.581V408.489H384.132V445.581C384.132 468.972 403.888 488 428.175 488C452.463 488 472.219 468.972 472.219 445.581V405.332C493.013 398.311 507.771 380.77 507.771 365.68V214.349C507.758 177.66 485.318 152.05 453.197 152.05ZM78.4832 52.5482C78.4832 34.9956 93.3036 20.7219 111.529 20.7219H396.471C414.696 20.7219 429.517 34.9956 429.517 52.5482V152.038H78.4832V52.5482ZM102.366 445.593C102.366 457.563 92.2532 467.29 79.8374 467.29C67.4089 467.29 57.3093 457.551 57.3093 445.593V408.501H102.366V445.593ZM450.691 445.593C450.691 457.563 440.578 467.29 428.163 467.29C415.734 467.29 405.635 457.551 405.635 445.593V408.501H450.691V445.593ZM486.242 365.692C486.242 373.055 471.953 387.767 453.197 387.767H54.8033C36.0468 387.767 21.7579 373.055 21.7579 365.692V214.349C21.7579 189.093 34.7305 172.772 54.8033 172.772H453.184C473.257 172.772 486.23 189.093 486.23 214.349V365.692H486.242Z" fill="#AEAEAE" fill-opacity="0.2"/>
</svg>
