<svg width="156" height="37" viewBox="0 0 156 37" fill="none" xmlns="http://www.w3.org/2000/svg">
<path d="M6.78256 28.0625C11.3043 29.9379 15.072 30.875 18.0869 30.875C21.1018 30.875 24.8695 29.9379 29.3913 28.0625M18.0869 18.5L22.1712 23.5805C22.4334 23.9067 22.8743 24.0327 23.27 23.8955L32.596 20.6465C33.1104 20.4665 33.3828 19.9051 33.202 19.3921C33.1647 19.2875 33.1115 19.1896 33.0403 19.103L29.3913 14.5625M18.0869 18.5L29.3913 14.5625M18.0869 18.5L6.78256 14.5625M18.0869 18.5L14.0027 23.5805C13.7404 23.9067 13.2995 24.0316 12.9039 23.8944L3.57778 20.6465C3.06343 20.4665 2.791 19.9051 2.97187 19.3921C3.00917 19.2875 3.0623 19.1896 3.13352 19.103L6.78256 14.5625M29.3913 14.5625L34.2442 10.6115C34.3844 10.4967 34.4907 10.346 34.5517 10.175C34.7314 9.66199 34.4601 9.10062 33.9447 8.92062L24.8277 5.74474C24.5033 5.63112 24.1415 5.69524 23.8747 5.91124L18.0869 10.625M29.3913 14.5625L18.0869 10.625M18.0869 10.625L6.78256 14.5625M18.0869 10.625L12.2991 5.91124C12.0323 5.69524 11.6706 5.63112 11.3461 5.74474L2.22917 8.92062C1.71369 9.10062 1.44239 9.66199 1.62213 10.175C1.68317 10.346 1.78943 10.4967 1.92961 10.6115L6.78256 14.5625" stroke="#13C265" stroke-width="2" stroke-linecap="round" stroke-linejoin="round"/>
<path fill-rule="evenodd" clip-rule="evenodd" d="M50.9147 26.375V17.384C50.9147 16.547 50.8061 14.765 50.7247 13.118C51.186 14.711 51.7014 16.385 52.027 17.222L55.4997 26.375H58.5654L61.9025 17.33C62.2552 16.385 62.8792 14.495 63.3947 12.821C63.2929 14.441 63.2149 16.322 63.2059 17.33L63.2047 26.375H66.7317V8.52801H61.794L57.7787 19.76C57.5887 20.246 57.3174 21.164 57.0461 22.082C56.802 21.164 56.5035 20.273 56.3407 19.787L52.1898 8.52801H47.3877V26.375H50.9147ZM75.1105 26.753C79.7769 26.753 81.3776 23.864 81.3776 20.111C81.3776 16.358 79.7769 13.469 75.1105 13.469C70.444 13.469 68.8434 16.412 68.8434 20.111C68.8434 23.81 70.444 26.753 75.1105 26.753ZM75.1105 24.161C72.94 24.161 72.3974 22.19 72.3974 20.111C72.3974 18.032 72.94 16.061 75.1105 16.061C77.2809 16.061 77.8235 18.032 77.8235 20.111C77.8235 22.19 77.2809 24.161 75.1105 24.161ZM89.2952 26.375L94.0973 13.847H90.5432L88.4541 20.084C88.2371 20.678 88.0743 21.407 87.9387 21.974C87.8301 21.407 87.6674 20.651 87.4503 20.084L85.1714 13.847H81.5087L86.338 26.375H89.2952ZM96.8872 11.498C97.9995 11.498 98.8948 10.607 98.8948 9.50001C98.8948 8.39301 97.9995 7.50201 96.8872 7.50201C95.7748 7.50201 94.8795 8.39301 94.8795 9.50001C94.8795 10.607 95.7748 11.498 96.8872 11.498ZM98.5964 26.375V13.847H95.2051V26.375H98.5964ZM104.561 26.375V20.165C104.805 19.112 105.646 16.358 107.653 16.358C108.712 16.358 109.2 17.087 109.2 18.707V26.375H112.591V17.816C112.591 14.36 110.638 13.469 108.576 13.469C105.809 13.469 104.696 15.251 104.344 16.034V13.847H101.169V26.375H104.561ZM120.59 32.909C123.846 32.909 127.129 31.721 127.129 28.508C127.129 25.619 124.66 24.701 121.811 24.458C119.559 24.269 117.253 24.215 117.253 23.378C117.253 22.946 117.66 22.622 118.176 22.325C118.827 22.514 119.559 22.595 120.373 22.595C123.954 22.595 126.07 20.894 126.07 18.005C126.07 17.114 125.881 16.358 125.501 15.71C126.83 15.062 127.291 14.117 127.291 12.983C127.291 12.713 127.264 12.281 127.183 11.795L124.443 11.39V12.74C124.443 13.442 124.361 13.928 124.144 14.333C123.195 13.766 121.974 13.469 120.482 13.469C116.819 13.469 114.838 15.251 114.838 18.113C114.838 19.517 115.327 20.651 116.276 21.407C115.083 22.217 114.404 23.054 114.404 24.215C114.404 25.511 115.273 26.159 116.521 26.51C115.544 27.131 114.404 28.103 114.404 29.507C114.404 31.883 117.389 32.909 120.59 32.909ZM120.427 20.273C118.989 20.273 118.393 19.382 118.393 18.032C118.393 16.547 119.044 15.791 120.454 15.791C121.865 15.791 122.516 16.52 122.516 17.978C122.516 19.382 121.838 20.273 120.427 20.273ZM120.59 30.398C118.338 30.398 117.362 29.75 117.362 28.967C117.362 28.346 117.877 27.887 118.962 27.239C119.722 27.293 120.509 27.374 121.485 27.482C122.978 27.698 124.036 27.995 124.036 28.886C124.036 29.912 122.516 30.398 120.59 30.398ZM140.065 26.375V23.297H132.93C133.69 22.568 134.531 21.704 135.372 20.786C137.705 18.275 139.496 15.845 139.496 12.983C139.496 9.63501 137.406 8.15001 133.907 8.15001C129.864 8.15001 127.857 10.04 128.101 13.604L131.79 14.306C131.601 11.849 132.197 10.931 133.798 10.931C135.209 10.931 135.697 11.795 135.697 13.28C135.697 14.819 135.073 16.412 131.763 19.949C129.674 22.244 127.802 24.053 127.802 24.053V26.375H140.065ZM152.486 26.375V22.082H155.281V19.004H152.486V8.31201H149.475L141.119 19.301V22.082H148.96V26.375H152.486ZM148.96 19.004H144.971L148.96 13.82V19.004Z" fill="#1A1817"/>
</svg>
