<svg width="104" height="121" viewBox="0 0 104 121" fill="none" xmlns="http://www.w3.org/2000/svg">
<g id="Frame" clip-path="url(#clip0_8_60)">
<g id="Group">
<path id="Vector" d="M89.992 36.785C88.3549 32.6382 86.0092 28.9118 83.0212 25.7095C80.0226 22.497 76.5278 19.9731 72.6321 18.2071C71.4422 17.6675 70.2302 17.207 68.9996 16.8247C68.5768 16.6934 68.1517 16.5714 67.7248 16.4587L72.9807 6.10493C73.2916 5.26789 73.0514 4.32567 72.3773 3.73921C70.0223 1.69037 67.4895 0.741962 64.6347 0.838748C62.243 0.920507 59.9309 1.7297 57.6944 2.51282C55.0139 3.45107 52.2422 4.42157 49.3042 4.1542C48.5792 4.08835 47.8697 4.39373 47.4203 4.9656C46.9704 5.53792 46.8408 6.2985 47.077 6.98704L51.757 16.5228C51.3266 16.6399 50.8988 16.7668 50.4729 16.9029C49.3272 17.2693 48.1984 17.7041 47.0885 18.2071C43.1929 19.9726 39.698 22.497 36.6994 25.7095C33.711 28.9113 31.3662 32.6378 29.7286 36.785C28.0371 41.07 27.1799 45.6194 27.1799 50.3066C27.1799 54.2218 27.7779 58.0402 28.9607 61.6889C29.3416 62.864 30.639 63.4721 31.7904 63.0218C32.8529 62.6063 33.4027 61.4361 33.051 60.3515C32.0314 57.204 31.4767 53.8236 31.4767 50.3062C31.4767 36.4385 40.0952 24.6988 51.8662 20.9719C53.2308 20.5396 54.6374 20.2153 56.0777 20.008C57.3153 19.8299 58.5782 19.738 59.8601 19.738C61.0084 19.738 62.1412 19.8118 63.2541 19.9554C64.7059 20.1423 66.124 20.4482 67.5001 20.8627C79.452 24.4645 88.2439 36.3006 88.2439 50.3066C88.2439 51.6378 88.1643 52.949 88.0103 54.2355C87.8626 55.4707 88.7924 56.572 90.0358 56.6352C91.1673 56.6927 92.1475 55.8627 92.2807 54.7389C92.4541 53.2783 92.5407 51.7995 92.5407 50.3066C92.5407 45.6194 91.6835 41.07 89.992 36.785ZM56.0034 15.684L52.1011 8.3964C54.6675 8.12151 56.9929 7.30789 59.1152 6.56455C63.0945 5.17155 65.6773 4.41229 68.3959 6.10935L63.4284 15.6491C62.2505 15.513 61.0606 15.4445 59.8605 15.4445C58.5623 15.4449 57.2755 15.5249 56.0034 15.684Z" fill="#00DD68"/>
<g id="Group_2">
<g id="Group_3">
<g id="Group_4">
<path id="Vector_2" d="M101.253 61.0596C99.7738 59.5751 97.7798 58.75 95.6588 58.75C93.6705 58.75 91.795 59.4726 90.3366 60.7949C90.2486 60.8744 90.1623 60.9566 90.0774 61.0401L82.9421 67.9274L77.5434 73.1383C76.0956 71.8377 74.1657 71.0386 72.0889 71.0386H53.7453C52.4629 71.0386 51.2434 70.7531 50.2083 70.2202C46.9828 68.5518 43.5096 67.7015 39.8904 67.7015C38.1211 67.7015 36.3637 67.9075 34.6509 68.3048C33.2231 68.6358 31.8271 69.0998 30.4824 69.6885C27.6041 70.9476 24.9607 72.7768 22.7464 75.0921C21.4194 76.4816 20.3078 77.9913 19.4001 79.5898C18.4601 79.1646 17.4317 78.9366 16.3648 78.9366C14.3774 78.9366 12.5107 79.7104 11.1076 81.1123L1.19621 91.0153C0.0660451 92.1445 0.0660451 93.9781 1.19621 95.1134L25.2867 119.182C26.4231 120.312 28.2583 120.312 29.3885 119.182L30.4806 118.091L39.3003 109.279C41.2944 107.287 41.9159 104.452 41.1736 101.927L41.8212 101.286C43.7197 99.383 46.2976 98.3175 48.9897 98.3175H76.8135C78.9279 98.3175 80.9281 97.366 82.2551 95.7229L101.45 72.0918C102.834 70.6201 103.59 68.7105 103.59 66.674C103.59 64.5421 102.758 62.5503 101.253 61.0596ZM36.1571 106.139L27.3378 114.951L5.43158 93.0641L14.2513 84.2523C14.8352 83.6689 15.6035 83.3768 16.3657 83.3768C17.1278 83.3768 17.8962 83.6689 18.48 84.2523L36.1575 101.914C37.3258 103.082 37.3258 104.972 36.1571 106.139ZM98.123 69.1418L78.8075 92.9254C78.3183 93.5282 77.5818 93.8769 76.8069 93.8769H48.3288C44.8808 93.8769 41.5793 95.2473 39.1415 97.6829L38.6713 98.146L22.9308 82.4195C24.9903 78.3877 28.6268 75.1978 32.9081 73.4976C34.3564 72.9218 35.878 72.5169 37.4377 72.307C38.2467 72.1983 39.0659 72.1422 39.8904 72.1422C42.659 72.1422 45.478 72.7702 48.1705 74.1658C49.9102 75.0665 51.8658 75.4793 53.828 75.4793H72.0894C73.304 75.4793 74.4289 76.0666 75.0972 76.9929C75.4361 77.4614 75.6577 78.0165 75.7152 78.6259C75.9182 80.7066 74.286 82.4575 72.242 82.4575H54.4632C53.2379 82.4575 52.2409 83.4537 52.2409 84.6778C52.2409 85.381 52.57 86.0085 53.0817 86.416C53.4613 86.7183 53.9416 86.8986 54.4632 86.8986H57.3897H59.9866H72.1022C72.9214 86.8986 73.7468 86.8036 74.5341 86.5627C78.298 85.3991 80.4247 81.8963 80.1536 78.3554C80.15 78.3064 80.1456 78.2569 80.1412 78.2074C80.1027 77.795 80.0266 77.4017 79.9253 77.0146L86.1079 71.0475L93.1892 64.2128C93.8686 63.534 94.7639 63.1915 95.6592 63.1915C96.5483 63.1915 97.4432 63.534 98.123 64.2128C98.8086 64.8917 99.1453 65.7862 99.1453 66.6745C99.1453 67.5685 98.8082 68.4626 98.123 69.1418Z" fill="#00DD68"/>
<path id="Vector_3" d="M99.1453 66.674C99.1453 67.5685 98.8086 68.463 98.123 69.1418L78.8075 92.9253C78.3188 93.5282 77.5818 93.8768 76.8073 93.8768H48.3297C44.8817 93.8768 41.5801 95.2469 39.142 97.6833L38.6718 98.1464L22.9308 82.4195C26.0484 76.3167 32.779 72.1426 39.8904 72.1426C42.6585 72.1426 45.478 72.7706 48.1705 74.1662C49.9102 75.0673 51.8658 75.4797 53.828 75.4797H72.0894C73.918 75.4797 75.5436 76.8121 75.7147 78.6263C75.9178 80.707 74.286 82.4579 72.2415 82.4579H54.4627C53.2374 82.4579 52.2404 83.4541 52.2404 84.6783C52.2404 85.9024 53.2374 86.8986 54.4627 86.8986H72.1017C72.9209 86.8986 73.7463 86.8036 74.5337 86.5623C78.3502 85.3823 80.4831 81.7981 80.1403 78.2073C80.1023 77.795 80.0262 77.4017 79.9244 77.0145L93.1888 64.2124C93.8682 63.5335 94.7635 63.191 95.6588 63.191C96.5479 63.191 97.4431 63.5335 98.1226 64.2124C98.8086 64.8912 99.1453 65.7857 99.1453 66.674Z" fill="white"/>
<path id="Vector_4" d="M36.1571 106.139L27.3378 114.951L5.43158 93.0641L14.2509 84.2527C14.8352 83.6689 15.6035 83.3772 16.3652 83.3772C17.1269 83.3772 17.8953 83.6689 18.4796 84.2527L36.1567 101.914C37.3253 103.082 37.3253 104.972 36.1571 106.139Z" fill="white"/>
</g>
<path id="Vector_5" d="M18.478 93.1329C19.4699 92.1419 19.4699 90.5351 18.478 89.5441C17.4861 88.5531 15.878 88.5531 14.8861 89.5441C13.8942 90.5351 13.8942 92.1419 14.8861 93.1329C15.878 94.1239 17.4861 94.1239 18.478 93.1329Z" fill="#00DD68"/>
</g>
</g>
<path id="Vector_6" d="M66.6013 49.7556C66.6013 43.7549 58.3071 44.0161 58.3071 41.0224C58.3071 39.6121 59.1276 39.0031 60.6386 39.0031C61.4702 39.0031 62.1642 39.2228 62.8516 39.6479C63.6102 40.1173 64.5966 39.9749 65.1832 39.3032C65.894 38.4896 65.7441 37.2353 64.8545 36.6215C63.9637 36.0068 62.9379 35.563 61.7108 35.3774V33.7338C61.7108 32.888 61.0248 32.2025 60.1782 32.2025C59.3315 32.2025 58.6455 32.888 58.6455 33.7338V35.4433C55.6858 36.0315 53.8842 38.1639 53.8842 41.2402C53.8842 46.905 62.1784 46.8471 62.1784 50.0769C62.1784 51.5057 61.395 52.2437 59.6137 52.2437C58.5995 52.2437 57.6263 51.9529 56.6028 51.3793C55.7344 50.8927 54.6375 51.1662 54.0978 52.002C53.5002 52.9283 53.824 54.1631 54.7954 54.6854C56.0273 55.3483 57.4136 55.7589 58.645 55.9052V57.5125C58.645 58.3584 59.3311 59.0439 60.1777 59.0439C61.0243 59.0439 61.7104 58.3584 61.7104 57.5125V55.7598C64.9359 55.0774 66.6013 52.7643 66.6013 49.7556Z" fill="#00DD68"/>
</g>
</g>
<defs>
<clipPath id="clip0_8_60">
<rect width="103.241" height="119.197" fill="white" transform="translate(0.348694 0.83252)"/>
</clipPath>
</defs>
</svg>
