<svg width="104" height="95" viewBox="0 0 104 95" fill="none" xmlns="http://www.w3.org/2000/svg">
<g id="Group 34">
<path id="Vector" d="M10.5563 86.3874C10.9707 86.3881 11.3686 86.2246 11.6628 85.9326C12.0491 85.5518 21.1143 76.5181 21.1143 69.0742C21.1143 63.1921 16.3778 58.4061 10.5563 58.4061C4.73471 58.4061 0 63.1921 0 69.0742C0 76.5181 9.06367 85.5518 9.44995 85.9326C9.74406 86.2246 10.1419 86.3881 10.5563 86.3874ZM10.5563 61.5576C14.6403 61.5576 17.9628 64.9293 17.9628 69.0742C17.9628 73.4914 13.3263 79.4959 10.5563 82.5318C7.78643 79.4996 3.15151 73.4997 3.15151 69.0742C3.15151 64.9293 6.47374 61.5576 10.5563 61.5576Z" fill="#00DD68"/>
<path id="Vector_2" d="M93.4438 0C87.6222 0 82.8857 4.78571 82.8857 10.6679C82.8857 18.112 91.9509 27.1457 92.3372 27.5265C92.6318 27.8178 93.0294 27.9812 93.4436 27.9812C93.8579 27.9812 94.2555 27.8178 94.5501 27.5265C94.9363 27.1457 104 18.112 104 10.6679C104 4.78658 99.2651 0 93.4438 0ZM93.4438 24.1248C90.6737 21.0889 86.0373 15.0844 86.0373 10.6679C86.0373 6.52298 89.3597 3.15151 93.4438 3.15151C97.5278 3.15151 100.849 6.52385 100.849 10.6688C100.849 15.0852 96.2136 21.0898 93.4438 24.1257V24.1248Z" fill="#00DD68"/>
<path id="Vector_3" d="M16.0421 69.7236C15.8517 62.4282 5.26151 62.4282 5.07176 69.7236C5.2626 77.0213 15.853 77.0184 16.0421 69.7236ZM8.22328 69.7236C8.27843 66.5939 12.835 66.5939 12.8906 69.7236C12.8346 72.8536 8.27821 72.8545 8.22328 69.7236Z" fill="#00DD68"/>
<path id="Vector_4" d="M93.4437 5.78455C86.2101 5.97473 86.2114 16.6616 93.4437 16.8518C100.675 16.661 100.673 5.97473 93.4437 5.78455ZM93.4437 13.7003C90.3765 13.6447 90.3769 8.99121 93.4437 8.93606C96.509 8.99121 96.5086 13.6456 93.4437 13.7003Z" fill="#00DD68"/>
<path id="Vector_5" d="M11.5028 92.1441C10.4346 93.8987 13.088 95.55 14.1864 93.7967C17.7188 88.0471 21.6257 82.5362 25.8818 77.2996C36.5799 96.4206 63.739 100.493 79.3935 84.8569C79.4153 84.8329 79.4434 84.8156 79.4628 84.7902C92.3449 72.8245 93.6009 50.7291 82.0197 37.3529C84.3116 36.5939 86.6266 35.9229 88.9605 35.3234L86.8698 40.6657C86.1303 42.5802 89.0342 43.736 89.8059 41.8136L93.3952 32.6407L86.4058 25.7536C84.929 24.3133 82.7332 26.5471 84.1929 27.9988L88.456 32.1995C85.4984 32.9508 82.5631 33.7912 79.6727 34.7901C67.7701 22.4499 46.5599 21.4977 33.6225 32.8613C33.546 32.9168 33.4748 32.9792 33.4098 33.0478C21.9626 42.2358 17.657 60.6846 24.3162 74.2762C19.6308 79.9239 15.3491 85.8947 11.5028 92.1441ZM79.0253 80.6407C79.4403 79.3859 79.695 78.0838 79.7835 76.7652C79.9559 74.7554 80.3087 74.1352 80.6499 73.536C82.241 71.7346 81.6566 64.0335 79.3368 62.8788C75.008 60.0462 70.5132 65.7874 66.6213 61.1258C63.6011 58.1684 63.8482 57.4228 65.3839 54.7422C67.0093 52.0722 67.9226 51.4187 70.5559 52.8949C74.3521 55.0961 77.2309 54.2492 80.8736 53.175C82.5459 52.7041 84.1874 52.1302 85.7888 51.4566C88.683 61.4786 85.7337 73.2359 79.0253 80.6407ZM84.823 48.4381C81.5238 49.6624 75.3858 52.5088 72.1371 50.1682C68.0154 47.8231 65.0613 48.9607 62.6502 53.175C60.2358 57.386 60.6328 59.675 64.4168 63.3789C68.1623 67.0443 70.9737 66.3704 73.9529 65.6594C74.9842 65.362 77.1263 64.9722 77.4491 65.4018C77.726 65.6095 78.2169 66.3265 78.3725 68.787C78.5078 70.9253 78.2692 71.3446 77.9092 71.9795C77.343 72.9742 76.8587 74.0015 76.6442 76.4958C76.5011 79.9509 74.8424 80.4455 76.2474 83.4514C61.4828 97.0596 37.126 92.3569 28.0573 74.7463C29.4126 73.1587 30.7932 71.6111 32.1993 70.1035C33.2577 72.6085 35.8085 72.984 37.2715 74.8255C38.7934 77.6187 39.0414 85.0749 42.1739 86.195C44.3784 86.8363 46.208 85.6698 46.8121 82.8367C47.5297 79.1161 52.4935 75.0629 52.2132 71.1531C52.1602 65.2994 51.7033 61.5672 41.9329 60.6533C53.1359 50.8368 65.5658 43.3333 78.7953 38.48C81.4005 41.4 83.444 44.776 84.823 48.4381ZM39.5067 62.8022C40.2851 63.4026 41.1284 63.8276 41.9684 63.8965C48.8546 64.4629 48.9061 66.1695 49.0131 69.9072C49.3613 72.1375 48.4397 73.6496 46.7847 76.0465C45.4676 78.0177 44.1059 80.0566 43.7104 82.2871C43.6211 82.7927 43.4548 83.0835 43.2964 83.1903C41.7248 80.958 41.4249 75.027 39.8166 72.9665C38.2811 70.5536 34.5586 70.2882 34.8505 67.3008C36.3757 65.7542 37.9277 64.2547 39.5067 62.8022ZM76.3632 36.0319C63.2194 41.0474 50.872 48.6058 39.7251 58.4C39.1906 57.3727 37.7856 55.3285 38.1165 54.4523C39.0501 52.2339 39.7665 52.1788 41.5915 52.0538C44.1919 52.0477 45.634 51.1038 46.8002 45.7556C47.0651 44.546 47.3789 44.5261 48.7008 44.4425C49.6272 44.3834 50.7799 44.3112 51.7046 43.4631C54.0089 41.1406 51.9376 38.8639 51.08 37.2371C47.4415 30.1788 41.9318 37.3647 37.1916 34.0983C48.4003 25.2997 66.1262 26.2515 76.3632 36.0319ZM34.6846 36.1632C35.6091 36.9139 37.1835 37.986 39.965 38.1077C41.8745 38.1885 43.4627 37.8013 44.729 37.4877C46.9635 36.932 47.362 36.8375 48.2576 38.6378C48.5603 39.3162 49.518 40.5059 49.5749 41.1393C47.4988 41.6068 44.7861 40.869 43.7227 45.0839C42.891 48.8995 42.3977 48.901 41.5836 48.9025C38.7004 48.9712 36.6036 49.8471 35.2423 53.1621C34.1301 56.0904 36.1275 58.2544 37.3433 60.5056C36.4291 61.3482 35.5382 62.231 34.6413 63.104C34.9116 56.9358 30.6581 51.817 26.6699 47.6025C28.4606 43.2425 31.1983 39.335 34.6846 36.163V36.1632ZM24.2949 59.6901C24.3017 56.7697 24.709 53.864 25.5054 51.0543C27.4401 53.2155 29.4339 55.4509 30.478 57.8489C31.5699 60.3239 31.4694 63.2984 31.6115 66.1216C29.9044 67.8873 28.2411 69.7181 26.6047 71.5958C25.0796 67.8113 24.2954 63.7691 24.2949 59.6888V59.6901Z" fill="#00DD68"/>
</g>
</svg>
