<svg width="214" height="197" viewBox="0 0 214 197" fill="none" xmlns="http://www.w3.org/2000/svg">
<rect width="214" height="197" fill="#1E1E1E"/>
<g id="Home01" clip-path="url(#clip0_0_1)">
<rect width="1440" height="3250" transform="translate(-325 -1385)" fill="white"/>
<g id="Group 36">
<g id="Group 35">
<g id="Local">
<g id="Local_2">
<g id="Rectangle 8" filter="url(#filter0_f_0_1)">
<rect x="21" y="21" width="171.756" height="155.435" rx="28" fill="url(#paint0_linear_0_1)"/>
</g>
<rect id="Rectangle 7" x="23.3315" y="22.5542" width="167.093" height="152.326" rx="28" fill="#F5F5F5"/>
<g id="_x31_30">
<path id="Vector" d="M130.881 87.1359C130.411 86.6873 129.674 86.6936 129.211 87.1454C124.956 91.2864 122.404 93.9264 119.457 97.233C118.857 97.9078 119.177 98.9894 120.089 99.2V109.706C120.089 110.372 120.628 110.911 121.293 110.911C127.206 110.911 132.347 111.112 138.7 111.074C139.349 111.07 139.877 110.552 139.895 109.904C139.992 106.527 139.932 103.634 140.025 99.2043C140.943 99.0138 141.276 97.9463 140.708 97.2644C137.581 93.5076 134.476 90.5555 130.881 87.1359ZM130.061 89.6818C132.603 92.1021 134.904 94.328 137.149 96.8299H123.072C125.114 94.6119 127.186 92.4958 130.061 89.6818ZM131.268 108.621C128.349 108.571 129.027 108.587 128.462 108.578C128.421 106.895 128.767 105.22 129.448 103.848C129.632 103.478 129.77 103.296 129.848 103.213C129.971 103.302 130.178 103.511 130.391 103.873C131.147 105.16 131.466 106.955 131.268 108.621ZM137.515 108.67C136.245 108.683 134.959 108.672 133.673 108.656C133.873 106.536 133.456 104.331 132.468 102.653C131.571 101.126 130.318 100.469 129.119 100.875C128.164 101.202 127.619 102.116 127.29 102.775C126.45 104.467 126.022 106.51 126.057 108.548C124.868 108.532 123.666 108.51 122.498 108.505V99.2392H137.616C137.524 103.712 137.581 105.265 137.515 108.67Z" fill="#00DD68"/>
<path id="Vector_2" d="M130.723 82.1305C120.841 82.1305 112.802 90.6856 112.802 101.202C112.802 111.717 120.841 120.274 130.723 120.274C140.605 120.274 148.644 111.717 148.644 101.202C148.644 90.6856 140.605 82.1305 130.723 82.1305ZM130.723 117.865C122.17 117.865 115.212 110.39 115.212 101.202C115.212 92.0142 122.17 84.5399 130.723 84.5399C139.276 84.5399 146.235 92.0142 146.235 101.202C146.235 110.39 139.276 117.865 130.723 117.865Z" fill="#00DD68"/>
<path id="Vector_3" d="M158.989 100.868C158.682 89.3289 153.38 80.5428 141.952 77.1987C140.456 76.5145 138.87 75.9932 137.2 75.6616C121.901 72.6157 106.135 85.1734 106.2 101.863C106.265 119.06 128.42 146.704 130.538 147.54C131.156 147.784 131.702 147.82 132.224 147.717C138.303 148.778 155.54 148.417 155.54 147.107C155.54 145.748 141.542 145.843 138.649 145.952C143.32 143.237 159.471 118.956 158.989 100.868ZM133.307 143.993C131.659 145.907 131.583 145.595 130.436 144.293C126.016 139.274 108.666 116.675 108.61 101.854C108.551 86.6899 122.902 75.2791 136.731 78.0239C153.751 81.4081 164.109 107.939 133.307 143.993Z" fill="#00DD68"/>
<path id="Vector_4" d="M130.851 92.5554C129.914 91.8505 128.448 92.0803 127.873 93.3586C127.608 93.9468 127.613 94.5978 127.884 95.1483C128.472 96.3341 130.078 96.6178 131.021 95.7334C131.932 94.8788 131.837 93.2946 130.851 92.5554Z" fill="#00DD68"/>
<path id="Vector_5" d="M68.9358 92.6229C69.0869 92.8494 69.3193 92.9837 69.5719 93.0666C71.1649 93.5438 77.7808 93.4423 77.7808 92.9021C77.7808 92.4634 73.8587 92.4246 73.1504 92.4321C77.7136 90.253 87.8088 71.8379 87.9137 62.1851C88.0291 51.5687 79.3302 44.7528 69.6858 46.191C61.8736 46.5424 55.5526 53.33 55.0552 60.0933C54.6913 65.0359 56.183 68.9135 57.8489 72.3676C60.1493 77.1329 65.4346 87.3798 68.9358 92.6229ZM57.4583 60.269C57.881 54.5212 63.4691 48.5751 70.4016 48.5751C78.1229 48.5751 85.0226 55.1138 83.4453 64.7018C81.8633 74.3405 75.7071 82.1061 69.9914 89.8371C67.1315 85.3704 62.1087 75.6517 60.0183 71.3198C58.2614 67.6775 57.154 64.4038 57.4583 60.269Z" fill="#00DD68"/>
<path id="Vector_6" d="M70.0816 67.8343C74.1482 67.8343 77.4571 64.8054 77.4571 61.0831C77.4571 57.3592 74.1482 54.3303 70.0816 54.3303C66.0142 54.3303 62.7053 57.3592 62.7053 61.0831C62.7053 64.8054 66.0142 67.8343 70.0816 67.8343ZM72.3842 57.258C73.9596 57.987 75.0478 59.4185 75.0478 61.0831C75.0478 63.2961 73.1363 65.1075 70.6852 65.3715C68.7919 64.6612 67.2073 62.9288 67.3708 61.1355C67.6234 58.3626 69.5365 57.3423 72.3842 57.258Z" fill="#00DD68"/>
<path id="Vector_7" d="M88.0358 117.51C82.6455 117.861 78.6233 117.909 72.0118 118.793C60.7822 120.293 53.215 132.904 60.9524 141.83C65.8464 147.475 75.1082 147.282 82.5512 147.125C88.3367 146.998 108.61 147.689 125.3 147.072C125.964 147.049 126.484 146.49 126.459 145.825C126.434 145.158 125.875 144.57 125.211 144.666C107.98 145.299 89.3156 144.564 82.501 144.718C75.2007 144.867 66.9264 145.042 62.7727 140.252C56.3234 132.811 62.9884 122.429 72.331 121.181C78.8397 120.31 82.8759 120.263 88.1926 119.913C108.183 118.607 106.642 98.5603 90.1275 95.5609C85.857 94.786 78.7112 94.9413 73.4447 95.3444C72.7819 95.3962 72.2855 95.975 72.3365 96.6385C72.3866 97.3036 72.9757 97.7773 73.6298 97.7475C78.5105 97.3726 85.6476 97.1954 89.6969 97.9326C103.446 100.428 105.467 116.367 88.0358 117.51Z" fill="#00DD68"/>
</g>
</g>
</g>
</g>
</g>
</g>
<defs>
<filter id="filter0_f_0_1" x="0.6" y="0.6" width="212.556" height="196.235" filterUnits="userSpaceOnUse" color-interpolation-filters="sRGB">
<feFlood flood-opacity="0" result="BackgroundImageFix"/>
<feBlend mode="normal" in="SourceGraphic" in2="BackgroundImageFix" result="shape"/>
<feGaussianBlur stdDeviation="10.2" result="effect1_foregroundBlur_0_1"/>
</filter>
<linearGradient id="paint0_linear_0_1" x1="106.878" y1="21" x2="106.878" y2="176.435" gradientUnits="userSpaceOnUse">
<stop stop-color="#EEEEEE"/>
<stop offset="1" stop-color="#ADADAD"/>
</linearGradient>
<clipPath id="clip0_0_1">
<rect width="1440" height="3250" fill="white" transform="translate(-325 -1385)"/>
</clipPath>
</defs>
</svg>
