<svg width="38" height="33" viewBox="0 0 38 33" fill="none" xmlns="http://www.w3.org/2000/svg">
<path id="&#226;&#128;&#156;" d="M10.368 19.456C12.2453 19.456 13.7387 20.0533 14.848 21.248C15.9573 22.3573 16.512 23.8933 16.512 25.856C16.512 27.9893 15.8293 29.6533 14.464 30.848C13.184 31.9573 11.392 32.512 9.088 32.512C6.272 32.512 4.05333 31.4453 2.432 29.312C0.810667 27.0933 0 23.9787 0 19.968C0 16.2133 0.810667 12.7573 2.432 9.6C4.13867 6.44267 6.61333 3.28533 9.856 0.127998C9.94133 0.0426661 10.0693 0 10.24 0C10.496 0 10.7093 0.128001 10.88 0.384003C11.0507 0.639999 11.0507 0.853333 10.88 1.024C6.69867 5.29066 4.608 10.3253 4.608 16.128C4.608 18.5173 5.03467 20.2667 5.888 21.376C6.656 20.096 8.14933 19.456 10.368 19.456ZM31.36 19.456C33.2373 19.456 34.7307 20.0533 35.84 21.248C36.9493 22.3573 37.504 23.8933 37.504 25.856C37.504 27.9893 36.8213 29.6533 35.456 30.848C34.176 31.9573 32.384 32.512 30.08 32.512C27.264 32.512 25.0453 31.4453 23.424 29.312C21.8027 27.0933 20.992 23.9787 20.992 19.968C20.992 16.2133 21.8027 12.7573 23.424 9.6C25.1307 6.44267 27.6053 3.28533 30.848 0.127998C30.9333 0.0426661 31.0613 0 31.232 0C31.488 0 31.7013 0.128001 31.872 0.384003C32.0427 0.639999 32.0427 0.853333 31.872 1.024C27.6907 5.29066 25.6 10.3253 25.6 16.128C25.6 18.5173 26.0267 20.2667 26.88 21.376C27.648 20.096 29.1413 19.456 31.36 19.456Z" fill="url(#paint0_linear_8_101)"/>
<defs>
<linearGradient id="paint0_linear_8_101" x1="-5.21266" y1="37.1451" x2="47.7813" y2="18.2589" gradientUnits="userSpaceOnUse">
<stop stop-color="#00DD68"/>
<stop offset="1" stop-color="#13C265"/>
</linearGradient>
</defs>
</svg>
