<svg xmlns="http://www.w3.org/2000/svg" version="1.1" xmlns:xlink="http://www.w3.org/1999/xlink" width="512" height="512" x="0" y="0" viewBox="0 0 64 64" style="enable-background:new 0 0 512 512" xml:space="preserve" class=""><g><path d="M32 20a7 7 0 1 1 7-7 7.008 7.008 0 0 1-7 7Zm0-12a5 5 0 1 0 5 5 5.006 5.006 0 0 0-5-5Z" fill="#000000" opacity="1" data-original="#000000" class=""></path><path d="M40 31h-2v-5a1 1 0 0 1 .291-.7l13.355-13.443a1.216 1.216 0 0 0 0-1.714 1.2 1.2 0 0 0-1.622-.067l-6.846 5.817a17.265 17.265 0 0 1-22.356 0l-6.846-5.817a1.205 1.205 0 0 0-1.622 1.781L25.709 25.3A1 1 0 0 1 26 26v5h-2v-4.587L10.936 13.268a3.206 3.206 0 0 1 4.335-4.717l6.846 5.818a15.265 15.265 0 0 0 19.766 0l6.846-5.818a3.206 3.206 0 0 1 4.335 4.717L40 26.413ZM32 58c-8.178 0-10.473-2.058-10.707-2.293A1 1 0 0 1 21 55v-4a7.008 7.008 0 0 1 7-7h8a7.008 7.008 0 0 1 7 7v4a1 1 0 0 1-.293.707C42.473 55.942 40.178 58 32 58Zm-9-3.515c.777.446 3.238 1.515 9 1.515 5.736 0 8.2-1.06 9-1.52V51a5.006 5.006 0 0 0-5-5h-8a5.006 5.006 0 0 0-5 5ZM42 55Z" fill="#000000" opacity="1" data-original="#000000" class=""></path><path d="M32 46a7 7 0 1 1 7-7 7.008 7.008 0 0 1-7 7Zm0-12a5 5 0 1 0 5 5 5.006 5.006 0 0 0-5-5ZM51 55a33.3 33.3 0 0 1-6.188-.507l.376-1.964A31.451 31.451 0 0 0 51 53c5.736 0 8.2-1.06 9-1.52V48a5.006 5.006 0 0 0-5-5h-8a4.994 4.994 0 0 0-4.167 2.236l-1.666-1.107A6.989 6.989 0 0 1 47 41h8a7.008 7.008 0 0 1 7 7v4a1 1 0 0 1-.293.707C61.473 52.942 59.178 55 51 55Z" fill="#000000" opacity="1" data-original="#000000" class=""></path><path d="M51 43a7 7 0 1 1 7-7 7.008 7.008 0 0 1-7 7Zm0-12a5 5 0 1 0 5 5 5.006 5.006 0 0 0-5-5ZM13 55c-8.178 0-10.473-2.058-10.707-2.293A1 1 0 0 1 2 52v-4a7.008 7.008 0 0 1 7-7h8a6.989 6.989 0 0 1 5.833 3.129l-1.666 1.107A4.994 4.994 0 0 0 17 43H9a5.006 5.006 0 0 0-5 5v3.485C4.777 51.931 7.238 53 13 53a31.451 31.451 0 0 0 5.812-.471l.376 1.964A33.3 33.3 0 0 1 13 55Z" fill="#000000" opacity="1" data-original="#000000" class=""></path><path d="M13 43a7 7 0 1 1 7-7 7.008 7.008 0 0 1-7 7Zm0-12a5 5 0 1 0 5 5 5.006 5.006 0 0 0-5-5Z" fill="#000000" opacity="1" data-original="#000000" class=""></path></g></svg>