<svg xmlns="http://www.w3.org/2000/svg" version="1.1" xmlns:xlink="http://www.w3.org/1999/xlink" width="512" height="512" x="0" y="0" viewBox="0 0 682.667 682.667" style="enable-background:new 0 0 512 512" xml:space="preserve" class="hovered-paths"><g><defs><clipPath id="a" clipPathUnits="userSpaceOnUse"><path d="M0 512h512V0H0Z" fill="#000000" opacity="1" data-original="#000000"></path></clipPath></defs><g clip-path="url(#a)" transform="matrix(1.33333 0 0 -1.33333 0 682.667)"><path d="m0 0-76.2 69.73c-9.32 8.52-9.96 22.99-1.43 32.31 8.52 9.31 22.99 9.95 32.31 1.43l71.66-65.59 35.74 55.7" style="stroke-width:15;stroke-linecap:round;stroke-linejoin:round;stroke-miterlimit:10;stroke-dasharray:none;stroke-opacity:1" transform="translate(130.02 257.72)" fill="none" stroke="#000000" stroke-width="15" stroke-linecap="round" stroke-linejoin="round" stroke-miterlimit="10" stroke-dasharray="none" stroke-opacity="" data-original="#000000" class="hovered-path"></path><path d="m0 0 76.01 118.45 77.57-71.85a22.912 22.912 0 0 1 16.89-6.05c6.22.37 12.02 3.26 16.06 8l31.71 37.2" style="stroke-width:15;stroke-linecap:round;stroke-linejoin:round;stroke-miterlimit:10;stroke-dasharray:none;stroke-opacity:1" transform="translate(186.39 257.72)" fill="none" stroke="#000000" stroke-width="15" stroke-linecap="round" stroke-linejoin="round" stroke-miterlimit="10" stroke-dasharray="none" stroke-opacity="" data-original="#000000" class="hovered-path"></path><path d="M0 0c.11.02.23.04.34.05C7.05.9 13.8-1.26 18.76-5.86l80.13-74.21 52.27 61.33-15.6 13.3c-11.55 9.85-8.11 28.52 6.2 33.6l81.72 29.03c14.31 5.08 28.75-7.23 26-22.17l-15.71-85.29c-2.75-14.93-20.641-21.29-32.2-11.43l-15.6 13.29-16.6-19.47" style="stroke-width:15;stroke-linecap:round;stroke-linejoin:round;stroke-miterlimit:10;stroke-dasharray:none;stroke-opacity:1" transform="translate(254.68 434.14)" fill="none" stroke="#000000" stroke-width="15" stroke-linecap="round" stroke-linejoin="round" stroke-miterlimit="10" stroke-dasharray="none" stroke-opacity="" data-original="#000000" class="hovered-path"></path><path d="M0 0c45.175 46.735 108.508 75.777 178.651 75.777 70.144 0 133.477-29.042 178.652-75.777" style="stroke-width:15;stroke-linecap:round;stroke-linejoin:round;stroke-miterlimit:10;stroke-dasharray:none;stroke-opacity:1" transform="translate(77.349 84.984)" fill="none" stroke="#000000" stroke-width="15" stroke-linecap="round" stroke-linejoin="round" stroke-miterlimit="10" stroke-dasharray="none" stroke-opacity="" data-original="#000000" class="hovered-path"></path><path d="M0 0c0-137.243 51.955-248.5 116.045-248.5S232.09-137.243 232.09 0" style="stroke-width:15;stroke-linecap:round;stroke-linejoin:round;stroke-miterlimit:10;stroke-dasharray:none;stroke-opacity:1" transform="translate(139.955 257.717)" fill="none" stroke="#000000" stroke-width="15" stroke-linecap="round" stroke-linejoin="round" stroke-miterlimit="10" stroke-dasharray="none" stroke-opacity="" data-original="#000000" class="hovered-path"></path><path d="M0 0c35.04-18.89 75.14-29.61 117.74-29.61 137.24 0 248.5 111.25 248.5 248.5h-497c0-83.93 41.61-158.14 105.32-203.13" style="stroke-width:15;stroke-linecap:round;stroke-linejoin:round;stroke-miterlimit:10;stroke-dasharray:none;stroke-opacity:1" transform="translate(138.26 38.83)" fill="none" stroke="#000000" stroke-width="15" stroke-linecap="round" stroke-linejoin="round" stroke-miterlimit="10" stroke-dasharray="none" stroke-opacity="" data-original="#000000" class="hovered-path"></path><path d="M0 0c0 42.154-34.173 76.328-76.328 76.328-42.154 0-76.327-34.174-76.327-76.328s34.173-76.327 76.327-76.327C-34.173-76.327 0-42.154 0 0Z" style="stroke-width:15;stroke-linecap:round;stroke-linejoin:round;stroke-miterlimit:10;stroke-dasharray:none;stroke-opacity:1" transform="translate(255.062 426.452)" fill="none" stroke="#000000" stroke-width="15" stroke-linecap="round" stroke-linejoin="round" stroke-miterlimit="10" stroke-dasharray="none" stroke-opacity="" data-original="#000000" class="hovered-path"></path><path d="M0 0c-1.454 1.21-9.78 7.488-21.995 3.809C-34.37.081-37.443-16.852-29.034-23.448c4.829-3.787 12.095-6.902 21.888-10.363 21.916-7.747 13.814-38.655-8.479-38.804-8.701-.058-12.768.494-20.411 5.494" style="stroke-width:15;stroke-linecap:round;stroke-linejoin:round;stroke-miterlimit:10;stroke-dasharray:none;stroke-opacity:1" transform="translate(193.87 460.71)" fill="none" stroke="#000000" stroke-width="15" stroke-linecap="round" stroke-linejoin="round" stroke-miterlimit="10" stroke-dasharray="none" stroke-opacity="" data-original="#000000" class="hovered-path"></path><path d="M0 0v11.281" style="stroke-width:15;stroke-linecap:round;stroke-linejoin:round;stroke-miterlimit:10;stroke-dasharray:none;stroke-opacity:1" transform="translate(178.246 376.81)" fill="none" stroke="#000000" stroke-width="15" stroke-linecap="round" stroke-linejoin="round" stroke-miterlimit="10" stroke-dasharray="none" stroke-opacity="" data-original="#000000" class="hovered-path"></path><path d="M0 0v10.464" style="stroke-width:15;stroke-linecap:round;stroke-linejoin:round;stroke-miterlimit:10;stroke-dasharray:none;stroke-opacity:1" transform="translate(178.246 465.63)" fill="none" stroke="#000000" stroke-width="15" stroke-linecap="round" stroke-linejoin="round" stroke-miterlimit="10" stroke-dasharray="none" stroke-opacity="" data-original="#000000" class="hovered-path"></path></g></g></svg>