<svg xmlns="http://www.w3.org/2000/svg" version="1.1" xmlns:xlink="http://www.w3.org/1999/xlink" width="512" height="512" x="0" y="0" viewBox="0 0 512 512" style="enable-background:new 0 0 512 512" xml:space="preserve" class="hovered-paths"><g><path d="M159.219 263.781c6.651-6.652 6.493-15.127 4.126-20.84-2.366-5.713-8.247-11.816-17.654-11.816-8.136 0-14.755-6.619-14.755-14.756v-23.611c0-8.136 6.619-14.755 14.755-14.755 9.407 0 15.288-6.104 17.654-11.816 2.367-5.713 2.525-14.188-4.127-20.841-5.753-5.753-5.753-15.113 0-20.866l16.697-16.697c2.786-2.787 6.492-4.322 10.434-4.322s7.647 1.535 10.434 4.321c6.652 6.653 15.126 6.497 20.84 4.129 5.712-2.366 11.816-8.247 11.816-17.654 0-8.137 6.619-14.756 14.755-14.756h23.611c8.136 0 14.755 6.619 14.755 14.756 0 9.407 6.104 15.288 11.816 17.654 5.712 2.364 14.187 2.523 20.84-4.129 5.753-5.753 15.115-5.751 20.868 0l16.697 16.698c5.753 5.753 5.753 15.113 0 20.867-6.652 6.652-6.494 15.127-4.127 20.84 2.366 5.712 8.246 11.816 17.654 11.816 8.136 0 14.755 6.619 14.755 14.755v23.611c0 8.137-6.619 14.756-14.755 14.756-9.408 0-15.288 6.104-17.654 11.816-2.367 5.713-2.525 14.188 4.127 20.84a14.655 14.655 0 0 1 4.322 10.434c0 3.941-1.535 7.647-4.322 10.435l-16.697 16.696c-5.754 5.753-15.115 5.754-20.868-.001-4.581-4.58-10.795-6.505-17.055-5.271a7 7 0 0 1-2.701-13.737c10.913-2.146 21.72 1.175 29.656 9.108a.755.755 0 0 0 1.069 0l16.697-16.696a.732.732 0 0 0 .221-.534.73.73 0 0 0-.22-.533c-9.646-9.646-12.391-23.478-7.164-36.098 5.227-12.619 16.948-20.459 30.588-20.459a.756.756 0 0 0 .755-.756v-23.611a.756.756 0 0 0-.755-.755c-13.64 0-25.361-7.84-30.588-20.459-5.228-12.62-2.483-26.452 7.163-36.098a.757.757 0 0 0 0-1.068l-16.697-16.697a.759.759 0 0 0-1.069.001c-9.646 9.645-23.478 12.39-36.097 7.162-12.619-5.227-20.458-16.947-20.458-30.588a.756.756 0 0 0-.755-.756h-23.611a.756.756 0 0 0-.755.756c0 13.641-7.839 25.361-20.459 30.588-12.62 5.229-26.453 2.483-36.097-7.163a.759.759 0 0 0-1.068 0l-16.697 16.697a.757.757 0 0 0 0 1.068c9.646 9.646 12.39 23.478 7.162 36.098-5.227 12.62-16.948 20.459-30.588 20.459a.756.756 0 0 0-.755.755v23.611c0 .417.339.756.755.756 13.64 0 25.361 7.839 30.588 20.459 5.228 12.62 2.483 26.451-7.162 36.097a.731.731 0 0 0-.221.534c0 .208.075.388.221.534l16.697 16.696a.756.756 0 0 0 1.069 0c8.039-8.037 18.972-11.338 29.994-9.058a7 7 0 0 1 5.437 8.273c-.784 3.785-4.487 6.223-8.273 5.436-6.324-1.306-12.613.604-17.258 5.248-2.787 2.787-6.492 4.322-10.434 4.322s-7.647-1.535-10.434-4.322l-16.696-16.695a14.66 14.66 0 0 1-4.322-10.435 14.64 14.64 0 0 1 4.32-10.433zm34.632 129.344a7 7 0 0 0-7-7H16a7 7 0 1 0 0 14h170.851a7 7 0 0 0 7-7zM256 154.835c27.42 0 49.728 22.308 49.728 49.728 0 12.932-4.94 25.182-13.911 34.494a7 7 0 1 0 10.083 9.712c11.496-11.935 17.828-27.635 17.828-44.207 0-35.14-28.588-63.728-63.728-63.728s-63.728 28.588-63.728 63.728c0 16.764 6.457 32.593 18.18 44.571a6.982 6.982 0 0 0 5.003 2.104 7 7 0 0 0 5.002-11.896c-9.147-9.346-14.185-21.697-14.185-34.778 0-27.42 22.308-49.728 49.728-49.728zm244.95 233.34-29.606-29.605a7 7 0 0 0-9.899 9.9l17.656 17.655h-57.724a7 7 0 1 0 0 14h57.725l-17.656 17.656a7 7 0 1 0 9.9 9.899l29.606-29.605a7 7 0 0 0-.002-9.9zm-55.016-230.227 16.185 9.344a7 7 0 1 0 7-12.124l-29.097-16.8C412.833 63.014 340.61 9 256 9 167.11 9 91.892 68.617 68.204 149.964l-9.344-16.183a7 7 0 0 0-12.124 7l16.787 29.075a195.979 195.979 0 0 0-3.086 34.707c0 73.372 40.501 139.944 105.697 173.736 1.03.533 2.13.787 3.215.787a7.001 7.001 0 0 0 3.227-13.217c-60.535-31.376-98.14-93.185-98.14-161.307 0-10.738.943-21.258 2.74-31.489l28.554-16.485a7 7 0 0 0-7-12.124l-17.247 9.958C103.296 78.617 173.273 23 256 23c78.299 0 145.178 49.821 170.608 119.426l-16.483 28.55a7 7 0 1 0 12.124 6.999l9.954-17.241a181.297 181.297 0 0 1 5.361 43.828c0 40.247-12.896 78.371-37.295 110.248a7 7 0 0 0 1.304 9.813 6.998 6.998 0 0 0 9.813-1.304c26.285-34.342 40.178-75.407 40.178-118.758a195.335 195.335 0 0 0-5.63-46.613zM408.04 350.78l.492 62.193c-.068 24.992-10.506 49.076-28.636 66.15-16.461 15.502-37.696 23.876-60.269 23.877-1.749 0-3.501-.05-5.265-.151-45.01-2.577-58.902-14.211-81.917-33.486-7.893-6.61-16.838-14.103-28.727-22.729-13.877-10.068-17.418-29.155-8.061-43.452 8.652-13.221 21.161-14.123 32.812-11.677l-.015-151.349c.004-7.382 2.897-14.331 8.146-19.572 5.243-5.235 12.188-8.119 19.558-8.119h.017c7.377.005 14.326 2.897 19.567 8.145 5.243 5.248 8.127 12.2 8.122 19.578l-.092 86.711c4.186-2.503 8.913-3.838 13.791-3.838h.021c7.375.005 14.323 2.896 19.564 8.142.384.385.756.778 1.115 1.181.365-.409.743-.81 1.134-1.2 5.241-5.238 12.187-8.122 19.557-8.122h.02c7.384.005 14.338 2.901 19.581 8.157.377.379.742.766 1.094 1.161.362-.406.736-.803 1.124-1.19 5.242-5.241 12.188-8.128 19.562-8.128h.02c7.375.003 14.325 2.895 19.567 8.143 5.241 5.245 8.124 12.198 8.118 19.575zm-13.507 62.229-.492-62.18c.003-3.698-1.426-7.133-4.025-9.734s-6.033-4.035-9.67-4.036h-.01c-3.636 0-7.067 1.43-9.665 4.027-2.587 2.587-4.016 6.003-4.025 9.624v.064a7 7 0 0 1-7 6.986h-.005a7 7 0 0 1-6.995-6.995v-.055c-.002-3.609-1.423-7.02-4.005-9.608-2.599-2.605-6.036-4.042-9.678-4.044h-.009c-3.634 0-7.064 1.429-9.662 4.024-2.601 2.6-4.033 6.035-4.031 9.677v.014a7.001 7.001 0 0 1-7 6.988h-.005a7 7 0 0 1-6.995-6.998v-.064c-.007-3.608-1.433-7.018-4.017-9.604-2.599-2.601-6.033-4.034-9.671-4.036h-.009c-3.475 0-6.846 1.463-9.493 4.122-2.724 2.734-4.294 6.394-4.325 10.064v.216a7 7 0 0 1-6.987 6.992h-.014a7 7 0 0 1-7-6.966v-.295l.117-111.021c.003-3.634-1.427-7.069-4.025-9.671-2.6-2.602-6.034-4.036-9.672-4.038h-.008c-3.633 0-7.065 1.43-9.665 4.025-2.602 2.599-4.036 6.032-4.038 9.669l.016 160.541a7.006 7.006 0 0 1-2.904 5.678 7.004 7.004 0 0 1-6.304.966c-6.206-2.063-10.81-2.904-14.318-2.904-6.609 0-9.332 2.984-11.573 6.408-5.261 8.038-3.253 18.78 4.569 24.455 12.283 8.913 21.426 16.571 29.494 23.327 22.205 18.597 33.351 27.932 73.729 30.243 20.642 1.188 40.225-5.899 55.135-19.94 15.344-14.448 24.177-34.831 24.235-55.921z" fill="#000000" opacity="1" data-original="#000000" class="hovered-path"></path></g></svg>