<svg width="104" height="110" viewBox="0 0 104 110" fill="none" xmlns="http://www.w3.org/2000/svg">
<g id="together 1">
<path id="Vector" d="M23.75 68.75C21 71.5 18.9375 73.7921 17.5625 75.625C16.0903 77.5697 14.4821 79.4077 12.75 81.125M96.625 79.75C95.25 78.375 93.875 76.5421 92.5 74.25C91.125 71.9579 89.75 70.125 88.375 68.75M69.125 96.25C67.9686 93.7668 67.0515 91.9325 66.375 90.75C65.6985 89.5675 64.7814 88.1925 63.625 86.625M70.5 28.1875L75.2438 24.8009C75.9541 24.2935 76.5068 23.5959 76.8383 22.7883C77.1699 21.9808 77.2668 21.096 77.1179 20.2359C76.8016 18.4113 76.2008 17.1655 75.3125 16.5C74.0888 15.5843 71.9864 15.5196 69.0081 16.3075C68.5699 16.4236 68.1512 16.6034 67.7651 16.841C63.5425 19.437 60.4199 21.5834 58.3986 23.2788C56.2894 25.0484 53.9065 27.83 51.25 31.625M26.5 28.9286C24.9339 25.6465 24.7716 22.869 26.0132 20.5961C27.2549 18.3233 30.7763 18.018 36.5774 19.679M56.75 14.7785L54.1719 13.277C53.1655 12.6903 51.9751 12.5037 50.8375 12.7545C46.0388 13.8133 42.967 14.8335 41.625 15.8125C41.053 16.2305 39.5268 17.5189 37.0463 19.6804C36.4719 20.1809 36.0297 20.8152 35.7587 21.5272C35.4878 22.2392 35.3963 23.007 35.4926 23.7627C35.5888 24.5184 35.8697 25.2388 36.3105 25.8602C36.7513 26.4815 37.3383 26.9848 38.0198 27.3254C39.7014 28.1655 40.8605 28.6454 41.4985 28.7623C42.7195 28.9878 43.8855 28.875 44.991 28.4226M29.25 53.625C27.3937 53.0159 24.6438 51.8705 21 50.1875L19.3569 54.0114C18.8798 55.121 18.8543 56.3729 19.286 57.5009C19.7176 58.629 20.5723 59.5441 21.6683 60.0518C26.0463 62.0785 29.7203 62.9159 32.6875 62.5625C36.521 62.106 38.1242 59.7864 37.5 55.6064V55.605C33.8562 54.8941 31.1063 54.2341 29.25 53.625ZM29.25 53.625C31.032 54.1984 34.1106 54.9821 38.4831 55.9776C39.616 56.2356 40.8045 56.059 41.8134 55.4826L42.3414 55.1801C42.9719 54.8195 43.509 54.3159 43.9093 53.7097C44.3096 53.1036 44.5619 52.4119 44.6459 51.6904L44.7188 51.0716C44.8151 50.245 44.6202 49.4107 44.1677 48.7122C43.7152 48.0138 43.0334 47.495 42.2396 47.245C37.5963 45.782 34.4104 44.7013 32.6875 44M29.25 53.625C27.5367 53.075 25.29 52.162 22.5097 50.8887C21.5379 50.4438 20.7496 49.6769 20.2781 48.7176L19.625 47.388C19.2186 46.5606 19.0681 45.6309 19.1928 44.7176C19.3174 43.8042 19.7116 42.9488 20.3249 42.2606L20.6562 41.8894C21.3376 41.124 22.2553 40.6085 23.2634 40.4249C24.2715 40.2413 25.3121 40.4001 26.2195 40.876C29.0107 42.3404 31.1668 43.3826 32.6875 44M32.6875 44C34.4544 44.7191 37.6719 45.8109 42.3372 47.2766C43.1338 47.5268 43.9882 47.5248 44.7836 47.2711C45.579 47.0174 46.2767 46.5242 46.7812 45.859L47.147 45.3778C48.0022 44.2516 48.2965 42.7969 47.9472 41.4274L47.9225 41.3311C47.7282 40.622 47.368 39.9693 46.8716 39.4268C46.3753 38.8843 45.7571 38.4677 45.068 38.2113C42.1791 37.1374 39.8856 36.3165 38.1875 35.75C36.9954 35.3526 33.6321 33.5775 28.0991 30.4233C27.2988 29.9674 26.3808 29.7602 25.4623 29.8281C24.5438 29.8959 23.6662 30.2357 22.9415 30.8041L22.2719 31.328C21.5401 31.902 21.0423 32.7228 20.8715 33.637C20.7007 34.5512 20.8686 35.4964 21.3438 36.2959L22.4094 38.0889C22.8386 38.8112 23.4559 39.4034 24.1955 39.8021C27.9506 41.8275 30.7817 43.2259 32.6875 44ZM37.5 97.625C43.9171 88.9171 48.5 83.6454 51.25 81.8125C52.2978 81.114 60.875 78.375 67.0625 74.25C71.5821 71.2374 74.5425 67.7765 77.7407 66.3644C80.125 65.3125 85.8766 58.1226 87.4579 55.9556C88.6734 54.2946 89.4104 52.3889 89.6703 50.2397C89.7646 49.4572 89.658 48.6634 89.3604 47.9335C89.0628 47.2035 88.584 46.5615 87.9694 46.068L85.3954 44M81.5 47.4375L85.0544 44.2475C85.6484 43.7141 86.0946 43.0365 86.3499 42.2801C86.6053 41.5237 86.6611 40.7142 86.5119 39.93L86.1997 38.2828C86.0294 37.3845 85.5973 36.5566 84.9578 35.9031C84.3183 35.2497 83.4999 34.7998 82.6055 34.6101L81.5 34.375M76 37.8125L80.9803 34.1605C81.5676 33.7297 82.0452 33.1666 82.3744 32.5168C82.7035 31.8671 82.8751 31.1489 82.875 30.4205V29.9063C82.875 28.1765 81.8218 26.62 80.2158 25.9779L77.1454 24.75" stroke="#13C265" stroke-width="3" stroke-linecap="round" stroke-linejoin="round"/>
</g>
</svg>
