<svg width="100" height="99" viewBox="0 0 100 99" fill="none" xmlns="http://www.w3.org/2000/svg">
<g id="trust 1">
<path id="Vector" d="M37.5 49C41.1363 53.47 43.6363 56.3863 45 57.75C46.3638 59.1138 46.9888 59.3225 46.875 58.375C49.535 54.0488 52.035 50.715 54.375 48.375C57.0229 45.7424 59.7319 43.1721 62.5 40.6663M46.875 84L39.5813 89.155C35.7425 91.4013 32.8713 89.715 30.625 85.875C30.2538 85.2413 29.1588 83.7038 28.9725 82.9938L27.5175 77.4338C27.16 76.0688 27.8063 76.245 26.875 75.25C25.8188 74.1213 23.115 71.8875 21.5663 71.4825C17.615 71.5375 15.01 71.1275 13.75 70.25C10.7063 68.1313 9.53751 63.27 10 61.5C10.1863 60.7888 10.7238 58.8025 11.095 58.1688L13.75 54C15.2713 51.4 15.5175 47.3913 13.9963 44.7925L11.095 39.8313C10.4671 38.7582 10.0962 37.5543 10.0113 36.3139C9.9264 35.0735 10.1298 33.8303 10.6057 32.6817C11.0815 31.533 11.8168 30.5102 12.7539 29.6932C13.6911 28.8762 14.8047 28.2872 16.0075 27.9725L20.625 26.5C23.5375 25.7375 25.505 24.73 26.2675 21.8163L28.9725 15.0063C29.2404 13.983 29.7072 13.0224 30.3463 12.1796C30.9855 11.3367 31.7844 10.628 32.6974 10.0939C33.6105 9.55987 34.6198 9.2109 35.6678 9.06695C36.7157 8.92301 37.7818 8.98691 38.805 9.25501C39.515 9.44126 39.3663 8.63001 40 9.00001L45.7925 12.9963C47.0838 13.7525 49.1475 13.7375 51.875 12.75C54.6388 11.75 58.0663 9.76501 59.375 9.00001L59.1688 10.095C60.2418 9.46713 61.4457 9.09621 62.6861 9.01131C63.9265 8.92641 65.1697 9.12984 66.3184 9.60566C67.467 10.0815 68.4899 10.8168 69.3069 11.754C70.1239 12.6911 70.7128 13.8047 71.0275 15.0075L72.4825 20.5663C72.8573 21.9969 73.6061 23.302 74.6519 24.3476C75.6978 25.3933 77.0031 26.1418 78.4338 26.5163L85.2438 27.9725C89.5463 29.1 90.8713 33.5013 89.745 37.805C89.5587 38.5156 89.2761 39.1973 88.905 39.8313L86.0038 44.7925C84.4825 47.3913 83.4788 50.15 85 52.75L88.905 58.1688C89.5329 59.2419 89.9038 60.4457 89.9887 61.6861C90.0736 62.9265 89.8702 64.1697 89.3944 65.3184C88.9185 66.467 88.1832 67.4899 87.2461 68.3069C86.3089 69.1239 85.1953 69.7128 83.9925 70.0275L85 70.875C82.0875 71.6375 73.245 74.52 72.4825 77.4338L71.0275 82.9938C69.9 87.2963 66.8025 90.125 62.5 89C61.7888 88.8138 59.8025 88.2763 59.1688 87.905L54.2075 85.0038C51.6088 83.4825 49.4738 82.4788 46.875 84ZM50 74C54.2538 74 57.9 73.6538 61.25 71.5C70 65.875 75 58.5525 75 49C75 43.42 70 21.5 47.5 22.75C36.2 23.3775 58.2263 24 50 24C36.1925 24 25 35.1925 25 49C25 53.0275 27.0588 58.13 28.75 61.5C32.8575 69.6825 40.22 74 50 74Z" stroke="#13C265" stroke-width="3" stroke-linecap="round" stroke-linejoin="round"/>
</g>
</svg>
