<svg width="81" height="71" viewBox="0 0 81 71" fill="none" xmlns="http://www.w3.org/2000/svg">
<path id="Vector" d="M2 32.8315V39.048C2 48.4111 8.69565 54.8717 17.6232 56.002C17.8029 56.0246 20.2311 56.0076 20.413 56.002C29.4053 55.7104 36.5942 48.2257 36.5942 39.048V32.8315M48.3116 58.2625C46.9758 59.8155 46.0462 60.9457 45.5217 61.6533C44.2205 63.4097 43.2899 65.0441 43.2899 65.0441M48.8696 13.6171C48.9923 14.2952 48.6207 14.1065 47.7536 13.0519C46.8865 11.9974 45.399 9.92562 43.2899 6.83547M61.7029 11.3565C62.0845 9.15251 62.0845 6.89199 61.7029 4.57494C61.3212 2.2579 61.3212 1.50515 61.7029 2.31442M72.8623 13.6171C72.7585 13.3492 73.1301 12.5964 73.9783 11.3565C74.8264 10.1166 76.1276 8.42123 77.8841 6.27034M73.4203 57.6974C73.523 57.2803 73.8946 57.469 74.5362 58.2625C75.1779 59.0559 76.4791 60.9401 78.442 63.9138M61.7029 61.0882L62.2609 69M61.7029 53.7414C70.9474 53.7414 79 45.5854 79 36.2223C79 26.8592 70.9474 18.7032 61.7029 18.7032C52.4584 18.7032 44.4058 26.8592 44.4058 36.2223C44.4058 38.1833 44.4058 46.3947 52.7754 52.6112C55.7326 54.8073 48.8651 48.8723 51.8648 50.8988C54.5207 52.6948 58.2703 53.7414 61.7029 53.7414ZM20.413 49.2204C27.6667 49.2204 36.5942 41.6295 36.5942 32.2664C36.5942 30.649 36.0362 23.7894 31.5725 18.1381C27.1087 12.4868 33.7876 21.3503 31.9184 19.3837C28.8752 16.1771 24.0376 14.1822 19.2971 14.1822C10.0526 14.1822 2 22.9033 2 32.2664C2 39.2424 7.2148 45.4882 13.1594 48.0901C15.1938 48.9808 18.0562 49.2204 20.413 49.2204ZM56.6812 30.571C56.3352 28.6462 56.6812 31.7013 56.6812 36.7875C56.6812 41.8737 56.9144 45.5052 56.6812 42.4388C56.1232 35.0921 57.7971 36.7875 56.6812 30.571ZM66.1667 31.1362C65.7951 34.1506 66.1667 35.2808 66.1667 36.7875C66.1667 38.2941 66.353 39.4244 66.7246 42.4388C67.5549 49.1684 66.9969 24.4066 66.1667 31.1362ZM14.8333 39.048C15.2049 38.2941 15.3913 36.9762 15.3913 35.0921C15.3913 33.2079 15.2049 29.6295 14.8333 24.3546C16.4626 24.9186 18.1365 25.6725 19.8551 26.6151C21.5736 27.5577 24.3635 29.2531 28.2246 31.7013L14.8333 39.048Z" stroke="#13C265" stroke-width="3" stroke-linecap="round" stroke-linejoin="round"/>
</svg>
