<svg width="222" height="53" viewBox="0 0 222 53" fill="none" xmlns="http://www.w3.org/2000/svg">
<path opacity="0.5" d="M17.304 45.704C15.896 45.704 14.9147 45.4267 14.36 44.872C13.8053 44.2747 13.528 43.2507 13.528 41.8V4.68C13.528 3.272 13.8053 2.29066 14.36 1.736C14.9147 1.18133 15.9173 0.903999 17.368 0.903999C18.776 0.903999 19.7573 1.20267 20.312 1.8C20.8667 2.35466 21.144 3.35733 21.144 4.808V41.864C21.144 43.272 20.8667 44.2747 20.312 44.872C19.7573 45.4267 18.7547 45.704 17.304 45.704ZM7.448 17.608C6.46667 18.504 5.592 18.952 4.824 18.952C4.056 18.9093 3.20267 18.376 2.264 17.352C1.368 16.3707 0.941333 15.4533 0.984 14.6C1.06933 13.7467 1.66667 12.8293 2.776 11.848L13.72 2.184C14.7013 1.33067 15.576 0.946665 16.344 1.032C17.1547 1.07466 18.008 1.58666 18.904 2.568C19.8427 3.54933 20.2693 4.46666 20.184 5.32C20.0987 6.17333 19.48 7.09067 18.328 8.072L7.448 17.608ZM42.6285 46.088C40.1112 46.088 37.9138 45.6827 36.0365 44.872C34.1592 44.0187 32.5805 42.8667 31.3005 41.416C30.0205 39.9227 28.9965 38.216 28.2285 36.296C27.4605 34.3333 26.9058 32.2427 26.5645 30.024C26.2232 27.8053 26.0525 25.5227 26.0525 23.176C26.0525 20.9573 26.2232 18.76 26.5645 16.584C26.9058 14.408 27.4392 12.36 28.1645 10.44C28.9325 8.47733 29.9565 6.74933 31.2365 5.256C32.5165 3.72 34.0738 2.52533 35.9085 1.672C37.7858 0.775998 39.9832 0.327999 42.5005 0.327999C44.9325 0.327999 47.0445 0.754665 48.8365 1.608C50.6712 2.46133 52.2072 3.63466 53.4445 5.128C54.7245 6.62133 55.7485 8.34933 56.5165 10.312C57.2845 12.2747 57.8392 14.3653 58.1805 16.584C58.5218 18.76 58.6925 20.9787 58.6925 23.24C58.6925 25.544 58.5218 27.8053 58.1805 30.024C57.8392 32.2427 57.2845 34.3333 56.5165 36.296C55.7485 38.216 54.7245 39.9227 53.4445 41.416C52.2072 42.8667 50.6925 44.0187 48.9005 44.872C47.1085 45.6827 45.0178 46.088 42.6285 46.088ZM42.3085 38.28C44.0578 38.28 45.4658 37.9173 46.5325 37.192C47.5992 36.424 48.4312 35.4427 49.0285 34.248C49.6685 33.0533 50.1165 31.7733 50.3725 30.408C50.6285 29.0427 50.7778 27.7627 50.8205 26.568C50.9058 25.3307 50.9485 24.328 50.9485 23.56V23.176C50.9485 19.976 50.6285 17.2453 49.9885 14.984C49.3485 12.7227 48.3885 11.016 47.1085 9.864C45.8712 8.66933 44.3138 8.072 42.4365 8.072C40.4738 8.072 38.8525 8.66933 37.5725 9.864C36.2925 11.016 35.3325 12.7227 34.6925 14.984C34.0952 17.2027 33.7965 19.9547 33.7965 23.24C33.7965 26.44 34.1165 29.1707 34.7565 31.432C35.3965 33.6507 36.3352 35.3573 37.5725 36.552C38.8525 37.704 40.4312 38.28 42.3085 38.28ZM79.7535 46.088C77.2362 46.088 75.0388 45.6827 73.1615 44.872C71.2842 44.0187 69.7055 42.8667 68.4255 41.416C67.1455 39.9227 66.1215 38.216 65.3535 36.296C64.5855 34.3333 64.0308 32.2427 63.6895 30.024C63.3482 27.8053 63.1775 25.5227 63.1775 23.176C63.1775 20.9573 63.3482 18.76 63.6895 16.584C64.0308 14.408 64.5642 12.36 65.2895 10.44C66.0575 8.47733 67.0815 6.74933 68.3615 5.256C69.6415 3.72 71.1988 2.52533 73.0335 1.672C74.9108 0.775998 77.1082 0.327999 79.6255 0.327999C82.0575 0.327999 84.1695 0.754665 85.9615 1.608C87.7962 2.46133 89.3322 3.63466 90.5695 5.128C91.8495 6.62133 92.8735 8.34933 93.6415 10.312C94.4095 12.2747 94.9642 14.3653 95.3055 16.584C95.6468 18.76 95.8175 20.9787 95.8175 23.24C95.8175 25.544 95.6468 27.8053 95.3055 30.024C94.9642 32.2427 94.4095 34.3333 93.6415 36.296C92.8735 38.216 91.8495 39.9227 90.5695 41.416C89.3322 42.8667 87.8175 44.0187 86.0255 44.872C84.2335 45.6827 82.1428 46.088 79.7535 46.088ZM79.4335 38.28C81.1828 38.28 82.5908 37.9173 83.6575 37.192C84.7242 36.424 85.5562 35.4427 86.1535 34.248C86.7935 33.0533 87.2415 31.7733 87.4975 30.408C87.7535 29.0427 87.9028 27.7627 87.9455 26.568C88.0308 25.3307 88.0735 24.328 88.0735 23.56V23.176C88.0735 19.976 87.7535 17.2453 87.1135 14.984C86.4735 12.7227 85.5135 11.016 84.2335 9.864C82.9962 8.66933 81.4388 8.072 79.5615 8.072C77.5988 8.072 75.9775 8.66933 74.6975 9.864C73.4175 11.016 72.4575 12.7227 71.8175 14.984C71.2202 17.2027 70.9215 19.9547 70.9215 23.24C70.9215 26.44 71.2415 29.1707 71.8815 31.432C72.5215 33.6507 73.4602 35.3573 74.6975 36.552C75.9775 37.704 77.5562 38.28 79.4335 38.28ZM101.967 52.168C101.967 52.168 101.881 52.1467 101.711 52.104C101.54 52.0613 101.369 51.8907 101.199 51.592C101.028 51.336 100.943 50.9093 100.943 50.312C100.943 49.5013 101.071 48.968 101.327 48.712C101.583 48.456 101.753 48.328 101.839 48.328C101.881 48.2853 102.18 48.0293 102.735 47.56C103.289 47.1333 103.609 46.3867 103.695 45.32C103.268 45.2347 102.884 45.128 102.543 45C102.244 44.8293 101.967 44.616 101.711 44.36C101.327 43.976 101.092 43.4853 101.007 42.888C100.921 42.248 100.879 41.6293 100.879 41.032C100.921 40.3493 100.985 39.688 101.071 39.048C101.199 38.408 101.561 37.8747 102.159 37.448C102.799 37.0213 103.823 36.808 105.231 36.808C106.852 36.808 108.004 37.1493 108.687 37.832C109.071 38.216 109.305 38.728 109.391 39.368C109.476 39.9653 109.519 40.5627 109.519 41.16C109.519 41.4587 109.497 41.7573 109.455 42.056C109.455 42.3547 109.433 42.632 109.391 42.888C109.22 44.5947 108.772 46.152 108.047 47.56C107.364 48.968 106.489 50.0773 105.423 50.888C104.399 51.7413 103.247 52.168 101.967 52.168ZM131.253 46.088C128.736 46.088 126.539 45.6827 124.662 44.872C122.784 44.0187 121.206 42.8667 119.926 41.416C118.646 39.9227 117.622 38.216 116.854 36.296C116.086 34.3333 115.531 32.2427 115.19 30.024C114.848 27.8053 114.678 25.5227 114.678 23.176C114.678 20.9573 114.848 18.76 115.19 16.584C115.531 14.408 116.064 12.36 116.79 10.44C117.558 8.47733 118.582 6.74933 119.862 5.256C121.142 3.72 122.699 2.52533 124.534 1.672C126.411 0.775998 128.608 0.327999 131.126 0.327999C133.558 0.327999 135.67 0.754665 137.462 1.608C139.296 2.46133 140.832 3.63466 142.07 5.128C143.35 6.62133 144.374 8.34933 145.142 10.312C145.91 12.2747 146.464 14.3653 146.806 16.584C147.147 18.76 147.318 20.9787 147.318 23.24C147.318 25.544 147.147 27.8053 146.806 30.024C146.464 32.2427 145.91 34.3333 145.142 36.296C144.374 38.216 143.35 39.9227 142.07 41.416C140.832 42.8667 139.318 44.0187 137.526 44.872C135.734 45.6827 133.643 46.088 131.253 46.088ZM130.934 38.28C132.683 38.28 134.091 37.9173 135.158 37.192C136.224 36.424 137.056 35.4427 137.654 34.248C138.294 33.0533 138.742 31.7733 138.998 30.408C139.254 29.0427 139.403 27.7627 139.446 26.568C139.531 25.3307 139.574 24.328 139.574 23.56V23.176C139.574 19.976 139.254 17.2453 138.614 14.984C137.974 12.7227 137.014 11.016 135.734 9.864C134.496 8.66933 132.939 8.072 131.062 8.072C129.099 8.072 127.478 8.66933 126.198 9.864C124.918 11.016 123.958 12.7227 123.318 14.984C122.72 17.2027 122.422 19.9547 122.422 23.24C122.422 26.44 122.742 29.1707 123.382 31.432C124.022 33.6507 124.96 35.3573 126.198 36.552C127.478 37.704 129.056 38.28 130.934 38.28ZM168.378 46.088C165.861 46.088 163.664 45.6827 161.787 44.872C159.909 44.0187 158.331 42.8667 157.051 41.416C155.771 39.9227 154.747 38.216 153.979 36.296C153.211 34.3333 152.656 32.2427 152.315 30.024C151.973 27.8053 151.803 25.5227 151.803 23.176C151.803 20.9573 151.973 18.76 152.315 16.584C152.656 14.408 153.189 12.36 153.915 10.44C154.683 8.47733 155.707 6.74933 156.987 5.256C158.267 3.72 159.824 2.52533 161.659 1.672C163.536 0.775998 165.733 0.327999 168.251 0.327999C170.683 0.327999 172.795 0.754665 174.587 1.608C176.421 2.46133 177.957 3.63466 179.195 5.128C180.475 6.62133 181.499 8.34933 182.267 10.312C183.035 12.2747 183.589 14.3653 183.931 16.584C184.272 18.76 184.443 20.9787 184.443 23.24C184.443 25.544 184.272 27.8053 183.931 30.024C183.589 32.2427 183.035 34.3333 182.267 36.296C181.499 38.216 180.475 39.9227 179.195 41.416C177.957 42.8667 176.443 44.0187 174.651 44.872C172.859 45.6827 170.768 46.088 168.378 46.088ZM168.059 38.28C169.808 38.28 171.216 37.9173 172.283 37.192C173.349 36.424 174.181 35.4427 174.779 34.248C175.419 33.0533 175.867 31.7733 176.123 30.408C176.379 29.0427 176.528 27.7627 176.571 26.568C176.656 25.3307 176.699 24.328 176.699 23.56V23.176C176.699 19.976 176.379 17.2453 175.739 14.984C175.099 12.7227 174.139 11.016 172.859 9.864C171.621 8.66933 170.064 8.072 168.187 8.072C166.224 8.072 164.603 8.66933 163.323 9.864C162.043 11.016 161.083 12.7227 160.443 14.984C159.845 17.2027 159.547 19.9547 159.547 23.24C159.547 26.44 159.867 29.1707 160.507 31.432C161.147 33.6507 162.085 35.3573 163.323 36.552C164.603 37.704 166.181 38.28 168.059 38.28ZM205.503 46.088C202.986 46.088 200.789 45.6827 198.912 44.872C197.034 44.0187 195.456 42.8667 194.176 41.416C192.896 39.9227 191.872 38.216 191.104 36.296C190.336 34.3333 189.781 32.2427 189.44 30.024C189.098 27.8053 188.928 25.5227 188.928 23.176C188.928 20.9573 189.098 18.76 189.44 16.584C189.781 14.408 190.314 12.36 191.04 10.44C191.808 8.47733 192.832 6.74933 194.112 5.256C195.392 3.72 196.949 2.52533 198.784 1.672C200.661 0.775998 202.858 0.327999 205.376 0.327999C207.808 0.327999 209.92 0.754665 211.712 1.608C213.546 2.46133 215.082 3.63466 216.32 5.128C217.6 6.62133 218.624 8.34933 219.392 10.312C220.16 12.2747 220.714 14.3653 221.056 16.584C221.397 18.76 221.568 20.9787 221.568 23.24C221.568 25.544 221.397 27.8053 221.056 30.024C220.714 32.2427 220.16 34.3333 219.392 36.296C218.624 38.216 217.6 39.9227 216.32 41.416C215.082 42.8667 213.568 44.0187 211.776 44.872C209.984 45.6827 207.893 46.088 205.503 46.088ZM205.184 38.28C206.933 38.28 208.341 37.9173 209.408 37.192C210.474 36.424 211.306 35.4427 211.904 34.248C212.544 33.0533 212.992 31.7733 213.248 30.408C213.504 29.0427 213.653 27.7627 213.696 26.568C213.781 25.3307 213.824 24.328 213.824 23.56V23.176C213.824 19.976 213.504 17.2453 212.864 14.984C212.224 12.7227 211.264 11.016 209.984 9.864C208.746 8.66933 207.189 8.072 205.312 8.072C203.349 8.072 201.728 8.66933 200.448 9.864C199.168 11.016 198.208 12.7227 197.568 14.984C196.97 17.2027 196.672 19.9547 196.672 23.24C196.672 26.44 196.992 29.1707 197.632 31.432C198.272 33.6507 199.21 35.3573 200.448 36.552C201.728 37.704 203.306 38.28 205.184 38.28Z" fill="#00DD68"/>
</svg>
