<svg width="192" height="53" viewBox="0 0 192 53" fill="none" xmlns="http://www.w3.org/2000/svg">
<path opacity="0.5" d="M16.496 46.024C14.2347 46.024 12.144 45.6827 10.224 45C8.304 44.2747 6.59733 43.3147 5.104 42.12C3.61067 40.8827 2.43733 39.4747 1.584 37.896C0.773333 36.3173 0.325333 34.6747 0.24 32.968C0.24 31.0907 1.62667 30.152 4.4 30.152C5.25333 30.152 5.89333 30.2373 6.32 30.408C6.74667 30.5787 7.088 30.8987 7.344 31.368C7.6 31.8373 7.856 32.4773 8.112 33.288C8.41067 34.1413 8.90133 34.9733 9.584 35.784C10.3093 36.5947 11.248 37.2773 12.4 37.832C13.552 38.344 14.9387 38.6 16.56 38.6C18.3093 38.6 19.824 38.3227 21.104 37.768C22.384 37.1707 23.3653 36.36 24.048 35.336C24.7733 34.312 25.136 33.1387 25.136 31.816C25.136 30.4933 24.7733 29.3627 24.048 28.424C23.3653 27.4427 22.4267 26.696 21.232 26.184C20.0373 25.6293 18.672 25.352 17.136 25.352C16.3253 25.352 15.6 25.288 14.96 25.16C14.3627 25.032 13.872 24.712 13.488 24.2C13.1467 23.688 12.976 22.8347 12.976 21.64C12.976 20.4027 13.1467 19.5493 13.488 19.08C13.872 18.568 14.384 18.248 15.024 18.12C15.664 17.992 16.3893 17.928 17.2 17.928C18.6507 17.928 19.8453 17.736 20.784 17.352C21.7653 16.968 22.512 16.4347 23.024 15.752C23.536 15.0693 23.792 14.3013 23.792 13.448C23.792 12.296 23.5147 11.2933 22.96 10.44C22.4053 9.544 21.616 8.86133 20.592 8.392C19.6107 7.88 18.4373 7.624 17.072 7.624C15.8347 7.624 14.768 7.79466 13.872 8.136C12.976 8.43467 12.1867 8.88267 11.504 9.48C10.864 10.0773 10.2667 10.8027 9.712 11.656C9.072 12.8933 8.32533 13.6187 7.472 13.832C6.66133 14.0453 5.59467 13.768 4.272 13C3.20533 12.36 2.56533 11.6773 2.352 10.952C2.13867 10.184 2.288 9.30933 2.8 8.328C2.928 8.02933 3.16267 7.58133 3.504 6.984C3.888 6.344 4.42133 5.66133 5.104 4.936C5.82933 4.168 6.704 3.44266 7.728 2.76C8.752 2.03466 10.0107 1.43733 11.504 0.967999C12.9973 0.498664 14.7253 0.263996 16.688 0.263996C19.0773 0.263996 21.1893 0.647996 23.024 1.416C24.8587 2.14133 26.416 3.12266 27.696 4.36C28.976 5.55466 29.936 6.92 30.576 8.456C31.2587 9.94933 31.6 11.5067 31.6 13.128C31.6 14.5787 31.3227 15.88 30.768 17.032C30.2133 18.184 29.5307 19.144 28.72 19.912C27.9093 20.68 27.0987 21.256 26.288 21.64C27.184 22.024 28.016 22.5573 28.784 23.24C29.5947 23.9227 30.2987 24.7333 30.896 25.672C31.536 26.568 32.0267 27.528 32.368 28.552C32.7093 29.576 32.88 30.6213 32.88 31.688C32.88 34.4187 32.176 36.872 30.768 39.048C29.4027 41.224 27.4827 42.9307 25.008 44.168C22.5333 45.4053 19.696 46.024 16.496 46.024ZM47.733 45.64C46.5383 45.64 45.6637 45.512 45.109 45.256C44.597 45 44.2557 44.6373 44.085 44.168C43.9143 43.6987 43.829 43.1653 43.829 42.568C43.829 40.0933 44.1917 37.6827 44.917 35.336C45.6423 32.9893 46.581 30.7067 47.733 28.488C48.885 26.2693 50.101 24.1787 51.381 22.216C52.661 20.2107 53.8557 18.3547 54.965 16.648C56.117 14.9413 57.0557 13.4053 57.781 12.04C58.549 10.6747 58.933 9.544 58.933 8.648H40.885C40.2023 8.648 39.5623 8.56267 38.965 8.392C38.3677 8.22133 37.8983 7.88 37.557 7.368C37.2157 6.81333 37.045 5.93867 37.045 4.744C37.045 3.54933 37.1943 2.696 37.493 2.184C37.8343 1.62933 38.261 1.288 38.773 1.16C39.3277 0.989332 39.925 0.903999 40.565 0.903999H64.117C65.3543 0.903999 66.229 1.11733 66.741 1.544C67.253 1.928 67.573 2.44 67.701 3.08C67.8717 3.67733 67.957 4.36 67.957 5.128C67.957 6.92 67.5517 8.79733 66.741 10.76C65.973 12.68 64.9703 14.664 63.733 16.712C62.5383 18.76 61.237 20.8507 59.829 22.984C58.421 25.1173 57.0983 27.2933 55.861 29.512C54.6237 31.688 53.5997 33.8853 52.789 36.104C52.021 38.28 51.637 40.4773 51.637 42.696C51.637 43.2507 51.5517 43.7627 51.381 44.232C51.253 44.6587 50.9117 45 50.357 45.256C49.8023 45.512 48.9277 45.64 47.733 45.64ZM73.779 52.168C73.779 52.168 73.6937 52.1467 73.523 52.104C73.3523 52.0613 73.1817 51.8907 73.011 51.592C72.8403 51.336 72.755 50.9093 72.755 50.312C72.755 49.5013 72.883 48.968 73.139 48.712C73.395 48.456 73.5657 48.328 73.651 48.328C73.6937 48.2853 73.9923 48.0293 74.547 47.56C75.1017 47.1333 75.4217 46.3867 75.507 45.32C75.0803 45.2347 74.6963 45.128 74.355 45C74.0563 44.8293 73.779 44.616 73.523 44.36C73.139 43.976 72.9043 43.4853 72.819 42.888C72.7337 42.248 72.691 41.6293 72.691 41.032C72.7337 40.3493 72.7977 39.688 72.883 39.048C73.011 38.408 73.3737 37.8747 73.971 37.448C74.611 37.0213 75.635 36.808 77.043 36.808C78.6643 36.808 79.8163 37.1493 80.499 37.832C80.883 38.216 81.1177 38.728 81.203 39.368C81.2883 39.9653 81.331 40.5627 81.331 41.16C81.331 41.4587 81.3097 41.7573 81.267 42.056C81.267 42.3547 81.2457 42.632 81.203 42.888C81.0323 44.5947 80.5843 46.152 79.859 47.56C79.1763 48.968 78.3017 50.0773 77.235 50.888C76.211 51.7413 75.059 52.168 73.779 52.168ZM112.602 45.576C111.407 45.576 110.533 45.4053 109.978 45.064C109.466 44.7227 109.125 44.2533 108.954 43.656C108.826 43.0587 108.762 42.3973 108.762 41.672V31.944H90.074C88.8793 31.944 88.0047 31.7733 87.45 31.432C86.8953 31.048 86.5327 30.5573 86.362 29.96C86.234 29.3627 86.17 28.7227 86.17 28.04C86.17 27.6987 86.1913 27.4213 86.234 27.208C86.2767 26.952 86.3193 26.696 86.362 26.44L92.698 3.72C93.082 2.09866 93.6153 1.13866 94.298 0.839996C94.9807 0.541331 96.026 0.541331 97.434 0.839996C98.5433 1.096 99.3753 1.52267 99.93 2.12C100.527 2.67467 100.719 3.4 100.506 4.296L94.81 24.712H108.762V4.424C108.762 3.74133 108.826 3.144 108.954 2.632C109.125 2.12 109.487 1.69333 110.042 1.352C110.639 1.01066 111.535 0.839996 112.73 0.839996C113.925 0.839996 114.799 1.032 115.354 1.416C115.909 1.75733 116.25 2.22666 116.378 2.824C116.506 3.37866 116.57 4.01867 116.57 4.744V41.8C116.57 42.4827 116.485 43.1227 116.314 43.72C116.186 44.3173 115.845 44.7653 115.29 45.064C114.735 45.4053 113.839 45.576 112.602 45.576ZM138.066 46.088C135.549 46.088 133.351 45.6827 131.474 44.872C129.597 44.0187 128.018 42.8667 126.738 41.416C125.458 39.9227 124.434 38.216 123.666 36.296C122.898 34.3333 122.343 32.2427 122.002 30.024C121.661 27.8053 121.49 25.5227 121.49 23.176C121.49 20.9573 121.661 18.76 122.002 16.584C122.343 14.408 122.877 12.36 123.602 10.44C124.37 8.47733 125.394 6.74933 126.674 5.256C127.954 3.72 129.511 2.52533 131.346 1.672C133.223 0.775998 135.421 0.327999 137.938 0.327999C140.37 0.327999 142.482 0.754665 144.274 1.608C146.109 2.46133 147.645 3.63466 148.882 5.128C150.162 6.62133 151.186 8.34933 151.954 10.312C152.722 12.2747 153.277 14.3653 153.618 16.584C153.959 18.76 154.13 20.9787 154.13 23.24C154.13 25.544 153.959 27.8053 153.618 30.024C153.277 32.2427 152.722 34.3333 151.954 36.296C151.186 38.216 150.162 39.9227 148.882 41.416C147.645 42.8667 146.13 44.0187 144.338 44.872C142.546 45.6827 140.455 46.088 138.066 46.088ZM137.746 38.28C139.495 38.28 140.903 37.9173 141.97 37.192C143.037 36.424 143.869 35.4427 144.466 34.248C145.106 33.0533 145.554 31.7733 145.81 30.408C146.066 29.0427 146.215 27.7627 146.258 26.568C146.343 25.3307 146.386 24.328 146.386 23.56V23.176C146.386 19.976 146.066 17.2453 145.426 14.984C144.786 12.7227 143.826 11.016 142.546 9.864C141.309 8.66933 139.751 8.072 137.874 8.072C135.911 8.072 134.29 8.66933 133.01 9.864C131.73 11.016 130.77 12.7227 130.13 14.984C129.533 17.2027 129.234 19.9547 129.234 23.24C129.234 26.44 129.554 29.1707 130.194 31.432C130.834 33.6507 131.773 35.3573 133.01 36.552C134.29 37.704 135.869 38.28 137.746 38.28ZM175.191 46.088C172.674 46.088 170.476 45.6827 168.599 44.872C166.722 44.0187 165.143 42.8667 163.863 41.416C162.583 39.9227 161.559 38.216 160.791 36.296C160.023 34.3333 159.468 32.2427 159.127 30.024C158.786 27.8053 158.615 25.5227 158.615 23.176C158.615 20.9573 158.786 18.76 159.127 16.584C159.468 14.408 160.002 12.36 160.727 10.44C161.495 8.47733 162.519 6.74933 163.799 5.256C165.079 3.72 166.636 2.52533 168.471 1.672C170.348 0.775998 172.546 0.327999 175.063 0.327999C177.495 0.327999 179.607 0.754665 181.399 1.608C183.234 2.46133 184.77 3.63466 186.007 5.128C187.287 6.62133 188.311 8.34933 189.079 10.312C189.847 12.2747 190.402 14.3653 190.743 16.584C191.084 18.76 191.255 20.9787 191.255 23.24C191.255 25.544 191.084 27.8053 190.743 30.024C190.402 32.2427 189.847 34.3333 189.079 36.296C188.311 38.216 187.287 39.9227 186.007 41.416C184.77 42.8667 183.255 44.0187 181.463 44.872C179.671 45.6827 177.58 46.088 175.191 46.088ZM174.871 38.28C176.62 38.28 178.028 37.9173 179.095 37.192C180.162 36.424 180.994 35.4427 181.591 34.248C182.231 33.0533 182.679 31.7733 182.935 30.408C183.191 29.0427 183.34 27.7627 183.383 26.568C183.468 25.3307 183.511 24.328 183.511 23.56V23.176C183.511 19.976 183.191 17.2453 182.551 14.984C181.911 12.7227 180.951 11.016 179.671 9.864C178.434 8.66933 176.876 8.072 174.999 8.072C173.036 8.072 171.415 8.66933 170.135 9.864C168.855 11.016 167.895 12.7227 167.255 14.984C166.658 17.2027 166.359 19.9547 166.359 23.24C166.359 26.44 166.679 29.1707 167.319 31.432C167.959 33.6507 168.898 35.3573 170.135 36.552C171.415 37.704 172.994 38.28 174.871 38.28Z" fill="#00DD68"/>
</svg>
