<svg width="79" height="47" viewBox="0 0 79 47" fill="none" xmlns="http://www.w3.org/2000/svg">
<path opacity="0.5" d="M15.92 46.088C12.8907 46.088 10.1813 45.4907 7.792 44.296C5.44533 43.1013 3.58933 41.4373 2.224 39.304C0.901333 37.1707 0.24 34.7173 0.24 31.944C0.24 30.7493 0.410667 29.6187 0.752 28.552C1.09333 27.4853 1.52 26.5253 2.032 25.672C2.58667 24.8187 3.14133 24.0933 3.696 23.496C4.29333 22.856 4.80533 22.3653 5.232 22.024C5.70133 21.6827 6.02133 21.512 6.192 21.512C6.064 21.4693 5.76533 21.2347 5.296 20.808C4.82667 20.3813 4.29333 19.784 3.696 19.016C3.14133 18.248 2.65067 17.352 2.224 16.328C1.84 15.2613 1.648 14.1093 1.648 12.872C1.648 10.3973 2.26667 8.2 3.504 6.28C4.74133 4.36 6.42667 2.84533 8.56 1.736C10.736 0.626664 13.1893 0.0719986 15.92 0.0719986C18.5653 0.0719986 20.9333 0.626664 23.024 1.736C25.1147 2.84533 26.7573 4.38133 27.952 6.344C29.1893 8.30666 29.808 10.5253 29.808 13C29.808 13.896 29.68 14.7707 29.424 15.624C29.168 16.4347 28.8267 17.2027 28.4 17.928C28.016 18.6533 27.6107 19.272 27.184 19.784C26.7573 20.296 26.3733 20.7227 26.032 21.064C25.7333 21.3627 25.52 21.512 25.392 21.512C25.5627 21.512 25.8613 21.6827 26.288 22.024C26.7573 22.3653 27.2693 22.856 27.824 23.496C28.3787 24.136 28.912 24.8827 29.424 25.736C29.936 26.5893 30.3627 27.5493 30.704 28.616C31.0453 29.6827 31.216 30.792 31.216 31.944C31.216 34.12 30.7893 36.0827 29.936 37.832C29.1253 39.5813 27.9947 41.0747 26.544 42.312C25.136 43.5493 23.5147 44.488 21.68 45.128C19.8453 45.768 17.9253 46.088 15.92 46.088ZM15.792 38.92C17.3707 38.92 18.7147 38.6427 19.824 38.088C20.976 37.5333 21.872 36.744 22.512 35.72C23.152 34.6533 23.472 33.4373 23.472 32.072C23.472 30.664 23.152 29.448 22.512 28.424C21.872 27.4 20.976 26.6107 19.824 26.056C18.672 25.5013 17.2853 25.224 15.664 25.224C14.128 25.224 12.7627 25.5013 11.568 26.056C10.416 26.6107 9.52 27.4 8.88 28.424C8.28267 29.448 7.984 30.664 7.984 32.072C7.984 33.4373 8.304 34.6533 8.944 35.72C9.584 36.744 10.48 37.5333 11.632 38.088C12.8267 38.6427 14.2133 38.92 15.792 38.92ZM15.792 18.44C17.072 18.44 18.1813 18.2267 19.12 17.8C20.0587 17.3307 20.784 16.6693 21.296 15.816C21.808 14.9627 22.064 13.9813 22.064 12.872C22.064 11.7627 21.7867 10.8027 21.232 9.992C20.72 9.13866 19.9947 8.49866 19.056 8.072C18.1173 7.60267 17.008 7.368 15.728 7.368C14.4907 7.368 13.4027 7.60267 12.464 8.072C11.5253 8.49866 10.8 9.13866 10.288 9.992C9.776 10.8027 9.52 11.7627 9.52 12.872C9.52 13.9813 9.776 14.9627 10.288 15.816C10.8 16.6693 11.5253 17.3307 12.464 17.8C13.4453 18.2267 14.5547 18.44 15.792 18.44ZM40.223 45.64C38.6443 45.64 37.535 45.3413 36.895 44.744C36.255 44.104 35.935 42.9947 35.935 41.416C35.935 40.3067 36.063 39.4533 36.319 38.856C36.6177 38.216 37.087 37.7467 37.727 37.448C38.367 37.1493 39.2203 37 40.287 37C41.8657 37 42.975 37.32 43.615 37.96C44.255 38.6 44.575 39.7307 44.575 41.352C44.575 42.4187 44.4257 43.272 44.127 43.912C43.871 44.552 43.423 45 42.783 45.256C42.1857 45.512 41.3323 45.64 40.223 45.64ZM64.5345 46.024C61.3345 46.024 58.6038 45.3413 56.3425 43.976C54.0812 42.568 52.3318 40.52 51.0945 37.832C49.8998 35.144 49.3025 31.9013 49.3025 28.104C49.3025 24.8187 49.6652 21.768 50.3905 18.952C51.1585 16.136 52.2465 13.6187 53.6545 11.4C55.1052 9.13867 56.8332 7.21867 58.8385 5.64C60.8865 4.06133 63.1692 2.84533 65.6865 1.992C68.2038 1.13866 70.9345 0.711998 73.8785 0.711998C74.5612 0.711998 75.1585 0.797331 75.6705 0.967999C76.2252 1.096 76.6732 1.43733 77.0145 1.992C77.3558 2.54666 77.5265 3.42133 77.5265 4.616C77.5265 5.81066 77.3345 6.68533 76.9505 7.24C76.6092 7.79467 76.1398 8.136 75.5425 8.264C74.9878 8.392 74.3478 8.456 73.6225 8.456C71.4892 8.456 69.5905 8.73333 67.9265 9.288C66.2625 9.84267 64.7905 10.5893 63.5105 11.528C62.2305 12.4667 61.1638 13.5547 60.3105 14.792C59.4572 15.9867 58.8172 17.2667 58.3905 18.632C57.9638 19.9547 57.7292 21.2773 57.6865 22.6L56.7905 22.984C57.0465 22.2587 57.5585 21.576 58.3265 20.936C59.0945 20.296 60.0545 19.784 61.2065 19.4C62.4012 18.9733 63.6812 18.76 65.0465 18.76C67.7345 18.76 70.1025 19.336 72.1505 20.488C74.2412 21.64 75.8838 23.2187 77.0785 25.224C78.2732 27.1867 78.8705 29.4053 78.8705 31.88C78.8705 34.6107 78.2518 37.0427 77.0145 39.176C75.8198 41.3093 74.1345 42.9947 71.9585 44.232C69.8252 45.4267 67.3505 46.024 64.5345 46.024ZM64.2785 38.792C65.7718 38.792 67.0305 38.536 68.0545 38.024C69.1212 37.4693 69.9105 36.7013 70.4225 35.72C70.9772 34.7387 71.2545 33.5653 71.2545 32.2C71.2545 30.92 70.9985 29.8107 70.4865 28.872C69.9745 27.8907 69.2065 27.144 68.1825 26.632C67.2012 26.0773 66.0278 25.8 64.6625 25.8C63.1692 25.8 61.8678 26.0773 60.7585 26.632C59.6492 27.144 58.7958 27.8693 58.1985 28.808C57.6438 29.7467 57.3665 30.8347 57.3665 32.072C57.3665 33.4373 57.6225 34.632 58.1345 35.656C58.6892 36.68 59.4785 37.4693 60.5025 38.024C61.5265 38.536 62.7852 38.792 64.2785 38.792Z" fill="#00DD68"/>
</svg>
