<?xml version="1.0" encoding="utf-8"?>
<!-- Generator: Adobe Illustrator 26.0.1, SVG Export Plug-In . SVG Version: 6.00 Build 0)  -->
<svg version="1.1" id="Layer_1" xmlns="http://www.w3.org/2000/svg" xmlns:xlink="http://www.w3.org/1999/xlink" x="0px" y="0px"
	 viewBox="0 0 5628 1608" style="enable-background:new 0 0 5628 1608;" xml:space="preserve">
<style type="text/css">
	.st0{fill:#E9F1F2;}
	.st1{opacity:0.17;fill:#ABCBD3;enable-background:new    ;}
	.st2{fill:#A58130;}
	.st3{fill:#D9AC39;}
	.st4{fill:#7F6226;}
	.st5{fill:#916D2D;}
	.st6{opacity:0.68;fill:#C8D4DE;enable-background:new    ;}
	.st7{fill:#FFE49F;}
	.st8{fill:#E0E1E2;}
	.st9{fill:#C8D4DE;}
	.st10{fill:#160B0B;}
	.st11{fill:#301815;}
	.st12{fill:#FF9C71;}
	.st13{fill:#EA7759;}
	.st14{fill:#0F485E;}
	.st15{fill:#0B3444;}
	.st16{fill:#FFF8EE;}
	.st17{fill:#DDCCB6;}
	.st18{fill:#AF342E;}
	.st19{fill:#F9916B;}
	.st20{fill:#E26D56;}
	.st21{fill:#632E20;}
	.st22{fill:#DB563B;}
	.st23{fill:#F0503A;}
	.st24{fill:#24315D;}
	.st25{fill:#19233F;}
	.st26{fill:#191414;}
	.st27{fill:#BF3C2B;}
	.st28{fill:#491F17;}
	.st29{fill:#FFFEE3;}
	.st30{fill:#007FB7;}
	.st31{opacity:0.55;fill:#FFFEE3;enable-background:new    ;}
	.st32{fill:#4C1F16;}
	.st33{fill:#D34233;}
	.st34{fill:#FFF2DC;}
	.st35{fill:#3F2E2B;}
	.st36{fill:#2D1F1D;}
	.st37{fill:#9E9993;}
	.st38{fill:#B57E26;}
	.st39{opacity:8.000000e-02;fill:#FFF2DC;enable-background:new    ;}
	.st40{opacity:0.29;fill:#FFFEE3;enable-background:new    ;}
	.st41{fill:#E35143;}
	.st42{fill:#F6FAF8;}
	.st43{fill:#262262;}
	.st44{fill:#FFFFFF;}
	.st45{fill:#C0E1ED;}
	.st46{fill:#24325B;}
	.st47{fill:#D9AB39;}
	.st48{fill:#EAF2F4;}
	.st49{fill:#EA5444;}
	.st50{fill:#7C8B99;}
</style>
<rect class="st0" width="5628" height="1608"/>
<polygon class="st1" points="5628,335.6 5628,1608 0,1608 0,763.9 221.2,862.2 662.2,568.9 1024.4,755.7 1024.4,477.7 1283.8,269 
	1596.7,433.8 1596.7,1150.3 2038.3,992.1 2253.9,1079.2 2253.9,776.7 2471.6,598.5 2772.6,697.4 2772.6,1027.8 3104.9,968 
	3431,1191.9 3431,776.7 3895.7,510.7 4091.6,620.5 4091.6,1253.5 4279.7,1183.8 4279.7,873.2 4623.1,719.4 4798.9,797.4 
	4798.9,917.2 5098.4,797.4 5276.1,917.2 5276.1,565.6 "/>
<g>
	<polygon class="st2" points="3503.5,878.4 3503.5,1296.3 3601.9,1296.3 3614.9,929.4 	"/>
	<polygon class="st3" points="3503.5,878.4 3349.2,963.5 3371.1,1325.5 3503.5,1296.3 	"/>
	<polygon class="st3" points="3127.2,1222 3127.2,1176.5 3275.4,1064.7 3275.4,1143.4 	"/>
	<polygon class="st2" points="3275.4,1064.7 3392.1,1090.2 3392.1,1163.1 3275.4,1143.4 	"/>
	<polygon class="st4" points="3392.1,1163.1 3214.4,1223.6 3127.2,1222 3275.4,1143.4 	"/>
	<polygon class="st3" points="3196.1,1163.9 3196.1,1505.7 3107.8,1505.7 3094.1,1235.6 	"/>
	<polygon class="st2" points="3196.1,1163.9 3458.5,1213.1 3446.4,1505.7 3196.1,1505.7 	"/>
	<polygon class="st5" points="3226.2,1169.5 3226.2,1230.7 3319.6,1238.8 3321,1187.3 	"/>
	<polygon class="st2" points="3755,910 3755,736.3 3833.9,776.4 3833.9,933.1 	"/>
	<polygon class="st3" points="3755,736.3 3668.7,799.4 3676,951.3 3755,910 	"/>
	<polygon class="st4" points="3676,951.3 3743.4,969.5 3833.9,933.1 3755,910 	"/>
	<polygon class="st2" points="3824.2,807.9 3894.7,834.7 3885,933.1 3833.9,910 	"/>
	<polygon class="st4" points="3848.1,817 3845.1,905.1 3833.1,900.9 3833.9,811.6 	"/>
	<polygon class="st3" points="3824.2,1069.1 3824.2,897.8 3662.6,975.6 3672.4,1117.7 	"/>
	<polygon class="st2" points="3945.7,940.4 3929.9,1069.1 3824.2,1069.1 3824.2,897.8 	"/>
	<polygon class="st4" points="3699.8,957.7 3702.9,974.8 3785.9,941.7 3782.3,918 	"/>
	<polygon class="st3" points="3635.9,1118.9 3643.2,1505.7 3874,1505.7 3874,1012 	"/>
	<polygon class="st2" points="4064.8,1083.7 4051.4,1505.7 3874,1505.7 3874,1012 	"/>
	<polygon class="st4" points="3705.3,1305.2 3755,1290.2 3747.6,1505.7 3699.1,1505.7 	"/>
	<polygon class="st3" points="3521.7,1258.9 3521.7,1136 3435.5,1187 3441.5,1290.2 	"/>
	<polygon class="st2" points="3521.7,1136 3614.9,1173.6 3609.2,1269.6 3521.7,1258.9 	"/>
	<polygon class="st3" points="3550.9,1505.7 3550.9,1235.6 3386.9,1304.8 3400.2,1505.7 	"/>
	<polygon class="st2" points="3550.9,1235.6 3706.4,1270.8 3699.1,1505.7 3550.9,1505.7 	"/>
	<polygon class="st2" points="3326.1,1505.7 3326.1,1370.6 3416,1381.4 3416,1505.7 	"/>
	<polygon class="st3" points="3326.1,1370.6 3260.5,1398.4 3266.6,1505.7 3326.1,1505.7 	"/>
	<polygon class="st4" points="3416,1398 3435.5,1395.3 3433,1505.7 3416,1505.7 	"/>
	<polygon class="st4" points="3196.1,1163.9 3437.2,1216.9 3437.2,1209.1 	"/>
	<polygon class="st4" points="3275.4,1064.7 3383.8,1096.2 3392.1,1163.1 3392.1,1090.2 	"/>
	<polygon class="st4" points="3503.5,878.4 3608.8,933.1 3610.9,1042.5 3614.9,929.4 	"/>
	<polygon class="st4" points="3521.7,1136 3609.7,1176.8 3611.8,1225.9 3614.9,1173.6 	"/>
	<polygon class="st4" points="3550.9,1235.6 3699.1,1277.9 3702.3,1402.5 3706.4,1270.8 	"/>
	<polygon class="st4" points="3326.1,1370.6 3411.3,1385.8 3416,1438.2 3416,1381.4 	"/>
	<polygon class="st4" points="3874,1012 4056.5,1090.9 4060.1,1231.8 4064.8,1083.7 	"/>
	<polygon class="st4" points="3824.2,897.8 3938.8,946.4 3937.4,1007.8 3945.7,940.4 	"/>
	<polygon class="st4" points="3848.1,817 3891,837.9 3890.8,874.3 3894.7,834.7 	"/>
	<polygon class="st4" points="3755,736.3 3830.7,778.4 3833.5,856.9 3833.9,776.4 	"/>
	<polygon class="st6" points="3552.9,901 3552.9,944.8 3556.5,939.8 3560.6,944.8 3569.2,939.8 3569.2,947.7 3575.2,949.3 
		3575.2,911.2 	"/>
	<polygon class="st6" points="3324.6,1075.5 3324.6,1109.4 3333.8,1105.7 3333.8,1109.4 3343.5,1110.9 3343.5,1080 	"/>
	<polygon class="st6" points="3878,916.7 3878,963.2 3883.3,964 3885,952.1 3886.4,962.2 3892.1,963.2 3894.7,959.8 3894.7,967.1 
		3899.1,968.1 3901.1,924.8 	"/>
	<polygon class="st6" points="3566.8,1154.2 3566.8,1183.3 3570.7,1179.3 3574,1183.3 3584.5,1186.2 3585.9,1161.9 	"/>
	<polygon class="st6" points="3617.5,1250.7 3617.5,1305.2 3624.2,1298.8 3627,1305.2 3632.7,1305.2 3634.3,1296.3 3639.4,1303.2 
		3643.2,1303.2 3643.2,1257 	"/>
	<polygon class="st7" points="3326.1,1370.6 3263.8,1400.6 3264.7,1472.4 3260.5,1398.4 	"/>
	<polygon class="st8" points="3196.1,1163.9 3099.6,1238.8 3099.6,1343.3 3094.1,1235.6 	"/>
	<polygon class="st8" points="3275.4,1064.7 3132,1179 3127.2,1208.6 3127.2,1176.5 	"/>
	<polygon class="st8" points="3353.1,1027.5 3353.1,967.3 3503.5,878.4 3349.2,963.5 	"/>
	<polygon class="st8" points="3521.7,1136 3440,1190.4 3439.5,1255.2 3435.5,1187 	"/>
	<polygon class="st8" points="3874,1012 3640.8,1124.5 3637.6,1208.3 3635.9,1118.9 	"/>
	<polygon class="st8" points="3550.9,1235.6 3392.1,1307.7 3391.2,1370.6 3386.9,1304.8 	"/>
	<polygon class="st8" points="3755,736.3 3672,802.2 3672,867.7 3668.7,799.4 	"/>
	<polygon class="st9" points="3149.2,1196.9 3152.1,1268.7 3145.1,1267.2 3141.5,1255.6 3139.9,1265.9 3130.5,1268.7 3128.7,1211.2 
			"/>
	<polygon class="st9" points="3699.2,777.1 3701.5,817 3705.2,815.2 3707,801.5 3711.8,810.4 3719.4,807 3717.6,763.7 	"/>
	<polygon class="st9" points="3761.4,1062.6 3764.7,1133.5 3755,1136 3751.7,1123.4 3749.3,1142.8 3740,1144.9 3737.1,1136 
		3732.7,1136 3730.4,1076.5 	"/>
	<polygon class="st9" points="3298.9,1382.2 3298.9,1404.4 3295.7,1406.7 3293.3,1403.1 3291.8,1408.9 3287.6,1410.3 3287.6,1386.9 
			"/>
</g>
<g>
	<polygon class="st3" points="1865.8,1194.3 1855.9,1066 1918.7,1021.2 1918.7,1205.1 	"/>
	<polygon class="st2" points="1918.7,1021.2 2012.9,1059.8 2003.1,1225.7 1918.7,1205.1 	"/>
	<polygon class="st4" points="1877,1051 1877,1196.6 1865.8,1194.3 1855.9,1066 	"/>
	<polygon class="st3" points="2090.2,973 2084.8,866.6 2133.3,836.4 2133.3,959.5 	"/>
	<polygon class="st2" points="2133.3,836.4 2191.8,861.3 2187.8,955.5 2133.3,959.5 	"/>
	<polygon class="st4" points="2306.6,1034.4 2205.6,1072.8 2205.6,1162.3 2303.2,1231.6 	"/>
	<polygon class="st2" points="2402.9,1261 2412.2,1072.8 2306.6,1034.4 2303.2,1231.6 	"/>
	<polygon class="st3" points="2045.5,1123.1 2213,1102 2215.7,924.3 2039.4,980.2 	"/>
	<polygon class="st2" points="2215.7,924.3 2293.8,966.7 2278.3,1128.9 2213,1102 	"/>
	<polygon class="st4" points="2278.3,1128.9 2106,1132.2 2045.5,1123.1 2213,1102 	"/>
	<polygon class="st3" points="1527.5,885.5 1533.9,959.6 1750.1,907.3 1750.1,811.8 	"/>
	<polygon class="st2" points="1750.1,811.8 1803.9,870 1803.9,936.5 1750.1,907.3 	"/>
	<polygon class="st4" points="1803.9,936.5 1595.7,977.6 1533.9,959.6 1750.1,907.3 	"/>
	<polygon class="st2" points="2424.3,1502.1 2444.5,1273.3 2303.2,1231.6 2287.1,1502.1 	"/>
	<polygon class="st4" points="2328,1238.9 2320.7,1502.1 2301.9,1502.1 2311.9,1234.1 	"/>
	<polygon class="st5" points="2304.4,1164.3 2346.7,1176.8 2343.8,1243.6 2303.2,1231.6 	"/>
	<polygon class="st2" points="1779.7,951.2 1775.2,1502.1 1681.4,1502.1 1665.7,900.1 	"/>
	<polygon class="st3" points="1681.4,1502.1 1567.9,1502.1 1536.5,980.7 1665.7,900.1 	"/>
	<polygon class="st2" points="2130.9,1502.1 2130.9,1092.9 2315.3,1142.8 2301.9,1502.1 	"/>
	<polygon class="st3" points="2130.9,1092.9 1968.1,1168.7 1976.2,1502.1 2130.9,1502.1 	"/>
	<polygon class="st4" points="1983.1,1234.3 2008.4,1231.6 2003.3,1502.1 1976.2,1502.1 	"/>
	<polygon class="st3" points="1795.8,1326.2 1789.5,1219.5 1882.8,1178.2 1882.8,1332.5 	"/>
	<polygon class="st2" points="1882.8,1178.2 1989.6,1216.7 1984.2,1343.3 1882.8,1332.5 	"/>
	<polygon class="st3" points="1720.4,1502.1 1714.2,1366.8 1816.4,1309.2 1816.4,1502.1 	"/>
	<polygon class="st2" points="1997.7,1343.3 1816.4,1309.2 1816.4,1502.1 1993.2,1502.1 	"/>
	<polygon class="st4" points="1805.2,1212.5 1808,1313.9 1795.5,1321 1789.5,1219.5 	"/>
	<polygon class="st8" points="2130.9,1092.9 1973.3,1173.4 1971.3,1210.1 1969.1,1209.3 1968.1,1168.7 	"/>
	<polygon class="st8" points="2215.7,924.3 2045.5,983.3 2042.3,1048.7 2039.4,980.2 	"/>
	<polygon class="st8" points="2133.3,836.4 2089.6,871.7 2087.8,924.3 2084.8,866.6 	"/>
	<polygon class="st8" points="1918.7,1021.2 1877,1058.8 1877,1051 	"/>
	<polygon class="st8" points="1882.8,1178.2 1805.3,1218.3 1805.2,1212.5 	"/>
	<polygon class="st8" points="1816.4,1309.2 1718.7,1372.8 1718.4,1458.9 1714.2,1366.8 	"/>
	<polygon class="st8" points="1665.7,900.1 1542.3,985 1542.4,1079.2 1536.5,980.7 	"/>
	<polygon class="st8" points="1750.1,811.8 1531.6,892 1531.6,932.7 1527.5,885.5 	"/>
	<polygon class="st4" points="2327.9,1241.4 2441,1277.8 2438.6,1340.9 2444.5,1273.3 2328,1238.9 	"/>
	<polygon class="st4" points="2306.6,1034.4 2407.5,1078 2407.9,1159.1 2412.2,1072.8 	"/>
	<polygon class="st4" points="2215.7,924.3 2288.6,970.3 2287.3,1034.4 2293.8,966.7 	"/>
	<polygon class="st4" points="2133.3,836.4 2188.2,866 2190,904.7 2191.8,861.3 	"/>
	<polygon class="st4" points="1918.7,1021.2 2008.4,1065 2008.2,1139.4 2012.9,1059.8 	"/>
	<polygon class="st4" points="2130.9,1092.9 2310,1147.7 2311.2,1251.6 2315.3,1142.8 	"/>
	<polygon class="st4" points="1882.8,1178.2 1984.2,1223.4 1987.2,1272.5 1989.6,1216.7 	"/>
	<polygon class="st4" points="1816.4,1309.2 1992.3,1350.2 1995.7,1415 1997.7,1343.3 	"/>
	<polygon class="st4" points="1665.7,900.1 1777,957.3 1778.8,1051 1779.7,951.2 	"/>
	<polygon class="st5" points="1705.7,918.1 1710.6,999.1 1761.7,1006.2 1764.4,944.3 	"/>
	<polygon class="st4" points="1750.1,811.8 1801.6,874.2 1803.9,904.7 1803.9,870 	"/>
	<polygon class="st9" points="2135.7,949.7 2135.7,974.3 2131,977.9 2129.6,973 2125.4,979.4 2118.9,981 2118.9,977.4 2115.8,979.4 
		2115.8,956 	"/>
	<polygon class="st6" points="2159.7,847.6 2159.7,860.8 2162.6,862.8 2164.4,860.4 2165.1,862.8 2168.7,864 2168.7,851.4 	"/>
	<path class="st6" d="M2213,1115.1v34.8l7.7-1.3c0,0,0.6-7.8,2.1-4.7c1.2,2.6,4.1,10.5,4.1,10.5l8.1-7.7v-24.9L2213,1115.1z"/>
	<polygon class="st6" points="2357.7,1053 2357.7,1084.7 2361.6,1085.9 2363.1,1078.3 2365.8,1087 2373.3,1089.2 2373.3,1058.6 	"/>
	<polygon class="st9" points="1609,935.5 1609,973.7 1603.4,977.6 1595,972.8 1595,980.5 1588.2,984.1 1588.2,948.5 	"/>
	<polygon class="st6" points="1774.2,837.9 1774.2,859.3 1777,858.3 1779.7,861.2 1783.5,863.5 1783.5,848 	"/>
	<polygon class="st9" points="1846,1194.5 1846,1231.6 1838,1233.9 1833.3,1230.5 1827.2,1239.4 1827.2,1202.8 	"/>
	<polygon class="st6" points="1897.9,1324.5 1897.9,1357.2 1901.3,1355 1904.2,1364 1914.3,1365.1 1918.5,1354.7 1918.5,1328.4 	"/>
</g>
<g>
	<path class="st10" d="M2851.9,1488.7c0,0-0.1,6.4,0.8,6.6c0.9,0.1,22,0,22,0l1.5-3.8c0,0,14.2,3.8,20.9,3.8s25.8,0,25.8,0
		s2.9-5.8,1.7-6.6C2923.1,1487.9,2851.9,1488.7,2851.9,1488.7z"/>
	<path class="st11" d="M2850.9,1463.1c0,0,0.1,24.7,1,25.6s72.5,0,72.5,0s3.3-7.7-3.1-9.9s-26.7-1.7-34.6-5.5
		c-7.9-3.9-11-15.1-11-15.1L2850.9,1463.1z"/>
	<path class="st10" d="M2796.1,1488.7c0,0,0.1,6.4-0.8,6.6c-0.9,0.1-22,0-22,0l-1.5-3.8c0,0-14.2,3.8-20.9,3.8s-25.8,0-25.8,0
		s-2.9-5.8-1.7-6.6C2724.9,1487.9,2796.1,1488.7,2796.1,1488.7z"/>
	<path class="st11" d="M2797.1,1457.2c0,0-0.1,30.6-1,31.5s-72.5,0-72.5,0s-3.3-7.7,3.1-9.9s26.7-1.7,34.6-5.5
		c7.9-3.9,11-15.1,11-15.1L2797.1,1457.2z"/>
	<path class="st12" d="M2913.6,1017.1c0,0-7.9-1.6-21.1-2.7c-13.2-1-14.2,14.8-14.2,14.8l35.2,1.8V1017.1z"/>
	<path class="st13" d="M2699.9,1106.5c0,0,11,20.9,14.2,27.1s1,26.9,1,26.9l-10.2-0.5l-12.9-21.4L2699.9,1106.5z"/>
	<polygon class="st14" points="2673.3,1138.3 2724.9,1128.2 2725.9,1287.5 2675,1272.2 	"/>
	<polygon class="st15" points="2717.6,1137.9 2719,1140 2722.7,1282.6 2679.2,1267.3 	"/>
	<path class="st12" d="M2722.7,890.7c0,0,0,0.1-0.1,0.2c-6.8,23.3-22.8,215.7-22.8,215.7l-7.1,1l-14.4,2.1c0,0-17.4-63.5-22.4-115.9
		c-1.9-19.7-2.7-37.9-3.1-53c-0.6-25.1,0.1-41.6,0.1-41.6s10.1-4.2,22.6-8.3C2697.5,883.5,2726.7,876.1,2722.7,890.7z"/>
	<polygon class="st16" points="2678.3,1144.3 2679.2,1267.3 2719,1278.9 2717.6,1137.9 	"/>
	<path class="st17" d="M2683.5,1174.6c0,0,14.7,11.9,24,11.6c9.4-0.3,10.5-6.2,10.5-6.2l-0.4-42.1l-20.4,3.2L2683.5,1174.6z"/>
	<path class="st15" d="M2713.1,1143.2c-0.7,0.4-15.1,1.4-15.1,1.4l-0.2-0.9c3.1-0.4,13-1.6,13.6-1.9c0.7-0.3,0.9-3.1-1-3.4
		c-1.4-0.2-9.7,1.3-13.3,2l-0.3-1.7c0,0,13.7-2.7,15.6-1.9C2714.2,1137.5,2713.8,1142.8,2713.1,1143.2z"/>
	<path class="st12" d="M2709.7,1178.3c-5.1,1.8-24.2-2.3-26.2-3.7c-0.6-0.4-1.3-2-2.2-4.3c-2.2-6.1-4.8-17.2-4.9-25.7
		c-0.1-11.8,1.9-34.9,1.9-34.9l14.4-2.1l7.1-1c0,0,0.6,27.3,1.6,32.2C2702.4,1143.7,2714.8,1176.5,2709.7,1178.3z"/>
	<path class="st13" d="M2722.6,890.9c-6.8,23.3-22.8,215.7-22.8,215.7s0.6,27.3,1.6,32.2c1,4.9,13.3,37.7,8.3,39.5
		c-5.1,1.8-24.2-2.3-26.2-3.7c-0.6-0.4-1.3-2-2.2-4.3c3.4,0.9,8.5,1,15.2-2.5c13-6.8-0.3-46.1-3.3-56.5c-0.2-0.7-0.4-2-0.5-3.8
		c-1.7-24.8,3-146.7-4.5-160c-16.1,0-35.4-6.9-35.4-6.9c-0.6-25.1,0.1-41.6,0.1-41.6s10.1-4.2,22.6-8.3h47
		C2722.6,890.8,2722.6,890.8,2722.6,890.9z"/>
	<path class="st12" d="M3007.5,937.4c-3.8,4.5-61.6,73.9-82.6,99.3c0,0,0,0,0,0.1c-0.1,0.2-0.3,0.3-0.5,0.5c-0.2,0.2-0.5,0.6-0.9,1
		c-1.4,1.4-3,2.8-4.6,3.9c-4.1,3.1-8.1,5.3-8.1,5.3l1-7.6l-1.5-1.7l-1.3-1.5l-4.7-5.2c0,0,1.3-2.8,3.5-7.4v0
		c0.4-0.8,0.8-1.6,1.2-2.5c0,0,0,0,0,0c12.4-26.6,45.2-97.8,42.7-104.2c-0.6-1.6-2.4-4.1-4.8-7.2c0,0,0,0,0,0
		c-6.3-8.2-16.8-20.4-21.3-31.6c-0.8-2-1.4-3.8-1.7-5.7c-0.6-3-0.6-5.9,0.3-8.5c5.7-16.8,61.7-19.9,61.7-19.9s1.4,3.3,3.6,8.3
		c0.2,0.4,0.3,0.8,0.5,1.2c7.4,17.1,22.3,51.6,23.1,54.6C3014.2,912.5,3010.1,934.3,3007.5,937.4z"/>
	<path class="st18" d="M2776,757c0,0,22.2-4.3,42.9-4.6s44.7,1.1,44.7,1.1l0.1,7.7l-42.7,16.7l-45-16L2776,757z"/>
	<path class="st19" d="M2860.7,758.1c0,0-7.9,11.9-24.2,17.7c-5,1.8-10.9,3-17.5,3.1c-28.1,0.5-38-13.3-38-13.3l5.1-18l3-10.6
		l64.6-4.2L2860.7,758.1z"/>
	<path class="st20" d="M2860.7,758.1c0,0-7.9,11.9-24.2,17.7c-1.2-3.9-3.2-9.2-6.4-15.5c-7.3-14-43.9-12.8-43.9-12.8l3-10.6
		l64.6-4.2L2860.7,758.1z"/>
	<path class="st12" d="M2879,707.3c-4.1,15-35.1,32.7-45.5,35.5c-10.5,2.8-42-0.1-49.5-3.5c-0.2-0.1-0.5-0.2-0.7-0.4
		c-2.3-1.2-5-3.4-7.7-6c-6.2-6-12.4-14.3-13.1-17.8c-0.5-2.5-5-29.9-2.7-61.3c0.1-1.2,0.2-2.3,0.3-3.5c0-0.4,0.1-0.9,0.1-1.3
		c2.7-28.5,6-57.5,9.1-68.7c0.1-0.4,0.2-0.7,0.3-1c0.6-1.8,1.1-3.1,1.6-3.5c6.9-5.9,20-16.9,38.5-18.3c16.6-1.3,31.2,2.5,40.8,7.9
		c4.6,2.5,8.1,5.3,10.2,8.1c0.4,0.5,0.7,0.9,0.9,1.3c0.6,1,1.4,3.2,2.3,6.2c0,0.1,0.1,0.2,0.1,0.3c2.3,7.7,5.4,20.7,8.4,35.5
		c1.3,6.6,2.7,13.5,4,20.5c0.3,1.6,0.6,3.2,0.9,4.8v0.1c0.5,2.6,0.9,5.3,1.2,8C2881.9,674.5,2880.7,701.1,2879,707.3z"/>
	<path class="st13" d="M2875.1,629.6c0,0,7.5-3.5,10.6-2.9c3.1,0.6,7.9,27.3,7.2,29.4c-0.7,2-17.4,1.5-17.4,1.5L2875.1,629.6z"/>
	<path class="st12" d="M2762.6,630c0,0-10.4-1.6-12-0.2c-1.6,1.4-5.5,28-2.6,30.9c2.2,2.2,14.3-0.5,14.3-0.5L2762.6,630z"/>
	<path class="st13" d="M2872.6,616.9l-3.2,67.2l-8.5,6.8l-25.8,2.3l-5.4-4.3l7-2c0,0-0.1,5.3,12.8-7.7c12.9-13,9.4-56.7,0-70.7
		c-9.4-14-22.6-16.3-26.6-18.2c-4.1-1.8-12.2,3.4-18.2-1.2c-5.9-4.5-17.7-0.5-17.7-0.5l0.7-8.4l21.6,0.4l31-5.1l23.9,5.9
		C2866.5,589.1,2869.6,602.2,2872.6,616.9z"/>
	<path class="st21" d="M2879.2,626.7L2879.2,626.7c-0.9,8.4-1.6,14.7-1.7,15.5c0,0,0,0.1,0,0.1l-2.1,0.4l-1.6,0.3l-2.4,0.5l-3.4,0.6
		h0c0,0-0.7-7.8-2-17c0-0.1,0-0.2,0-0.2c-1.4-9.7-3.4-20.9-5.9-25.9c-7-13.9-15-21.5-26.5-14.5c-9.2,5.6-12.6-0.6-18.2,1.7
		c-5.5,2.3-10-1.3-16.4-3.7c-2.7-1-7.3,0.9-11.7,4c0,0-0.1,0-0.1,0c-3.1,2.1-6.1,4.7-8.3,7.2c-0.8,0.9-1.5,2-2.1,3.4
		c-2.9,6.7-4.2,18.5-5.7,27.3c-1.7,9.7-2.2,20.7-2.3,22.5c0,0.2,0,0.3,0,0.3l-8.4,0.3h0c0,0,0-0.2-0.1-0.5c-0.5-5.9-5.1-59-3.5-62
		c0.9-1.6,5.4-4.1,9.4-6.1c1.2-0.6,2.4-1.1,3.5-1.6c2.1-0.9,3.6-1.5,3.6-1.5l38.1-10.4l41.4,5.1l8.1,1l2.3,0.3c0,0,6.4,1.4,11.8,3.5
		c3.5,1.3,6.6,3,7.3,4.7C2883.4,584.9,2881,609.8,2879.2,626.7z"/>
	<path class="st21" d="M2881.4,709.5c-4.1,15-37.4,30.5-47.8,33.2c-10.5,2.8-42-0.1-49.5-3.5c-0.2-0.1-0.5-0.2-0.7-0.4
		c-3-1.5-6.6-4.5-10.1-7.8c-0.1-0.1-0.2-0.1-0.2-0.2c-5.5-5.2-10.7-11.1-12.6-13.5c-4.1-5.1-3.1-32.3-0.4-63.6
		c0.1-1.2,0.2-2.3,0.3-3.5l0.2-0.8v0c0,0,8.2-4.1,8.4-0.5v0.2c-0.2,4,12.7,33.3,18.6,36c5.9,2.7,21.2-3.6,33.9-4
		c8.6-0.3,17.3,2.3,24.1,2c3.2-0.1,5.9-0.9,8.2-2.9c3.1-2.7,6.2-10,8.8-17.3c1-2.8,1.9-5.7,2.6-8.2c1.9-6.1,3-10.8,3-10.8l3.4-0.6
		l2.4-0.5l1.6-0.3l2.1-0.4h0c0.5,2.7,0.9,5.5,1.3,8.3C2882.3,675.1,2883.1,703.4,2881.4,709.5z"/>
	<path class="st22" d="M2831.6,681.8c-4.8,3.4-10.3,5.1-15.7,4.1c-0.8-0.2-1.7-0.5-2.7-0.9c0,0-0.1,0-0.1,0
		c-5.7-2.6-13.4-9.4-11.6-13.8c2.1-5.2,11-4.9,11-4.9s1.4-34.7,5.9-34.5c4.4,0.2,6.4,34.3,6.4,34.3s9.4-0.6,11.9,3.2
		C2839.2,673,2836.4,678.4,2831.6,681.8z"/>
	<path class="st21" d="M2884.7,564.9l-9.8,12.4l-1.7,2.1l-9.1,1.7l-0.8,0.1l-1.3,0.2c0,0-8.9-1-17.1-2c-7-0.8-13.6-1.7-14.2-1.8
		c-0.2,0-0.7-0.1-1.4-0.2c-5.5-0.9-24.6-3.8-24.6-3.8l-35.2,6.8l-3.2,0.6c0,0,0,0,0,0c-0.6-1.2-18.5-40,7.5-38.5
		c5.5,0.3,10.7,0.7,15.5,1c0,0,0,0,0.1,0c15.2,0.8,27.4,0.6,40-5.7c16.6-8.2,26.1-12.6,28.9-8.7c2.8,3.9-7.5,7.3-4.7,9.5
		c2.8,2.2,21.1-5.7,22.4-5.8c1.3-0.1,0.1,3.7,0.2,4.6c0,1-14.9,10.2-10.9,11.7C2869.3,550.7,2882.6,561,2884.7,564.9z"/>
	<path class="st23" d="M2922.4,867c-0.2,2.2-0.4,4.5-0.6,6.9c-0.2,2.3-0.6,4.7-0.9,7.1c-0.7,4.5-1.6,9-2.7,13.3
		c-5.2,19.8-14.1,46-14.1,46s-2.1,39-5.6,71.9c-2.4,22.3-5.4,41.8-8.8,44.4c-8.1,6-51.4,8.7-76.4,9.1c-25,0.4-68.5,1.6-73.6-2.2
		c-0.6-0.5-1.2-1.7-1.8-3.5c-0.8-2.5-1.6-6.2-2.4-10.6c-1.4-8.2-2.6-19-3.6-30.4c-0.7-7.6-1.3-15.5-1.8-22.9
		c-0.7-10-1.3-19.4-1.7-26.5c0,0,0,0,0,0c-0.4-7.9-0.7-12.9-0.7-12.9s-2.1-7-4.9-17.8c-1-4.1-2.2-8.7-3.3-13.7c-2-8.5-4-18.2-5.6-28
		c-0.4-2.5-0.8-4.9-1.1-7.4c-0.1-0.8-0.2-1.6-0.3-2.3c-4.6-31.3-6.9-33.6-6.9-33.6l68.3-82.4l2.3,0.3l44.9,6.3l14.5-1.2l4.8-0.4
		l15.9-1.3l4.7-0.4l18.5,19.8l6,6.4l37.3,39.8C2922.9,840.5,2923.5,852.2,2922.4,867z"/>
	<path class="st23" d="M2779.2,775.4l-47.2,69l-0.2,16.6l-0.1,6.7l-0.6,55.3c0,0-4.5,0.9-11.7,2c-7.6,1.1-18.4,2.2-30.1,2.4
		c-22.8,0.4-42.6-3.9-44.3-8.3c-0.2-0.5,0-2.8,0.5-6.5c3.8-25.4,23.8-116.2,28-121.2c4.8-5.8,94.5-30,94.5-30l8.1,10.1L2779.2,775.4
		z"/>
	<path class="st24" d="M2880.2,1459.1c0,0-7.7,3.8-16.8,4.7c-9.1,1-15.3-1.6-15.3-1.6s-16.1-230.3-23.2-300.8
		c-1.5-14.9-2.4-24-2.5-24.2c-0.2-0.6-3.1,0.4-6.9,0.7c-3.9,0.3-6.3-0.1-6.3-0.1l-10.3,323.1c0,0-8.9,3.6-15.4,3.7
		c-6.5,0.1-14.8-1.5-14.8-1.5s-28-336-28.9-380.2c-0.1-2.9,0-4.7,0.2-5.2c3.5-7.7,148.2-10.8,149.7-4.9
		C2891.2,1078.9,2880.2,1459.1,2880.2,1459.1z"/>
	<polygon class="st25" points="2778.2,1098.5 2754.5,1124.2 2750.4,1119.1 2769.2,1094.1 	"/>
	<path class="st26" d="M2791.2,696.7c-3.7,2,0.7,24.5,24,27.2c23.3,2.8,38.2-14.9,35.3-24.6C2847.6,689.6,2796.3,693.8,2791.2,696.7
		z"/>
	<polygon class="st21" points="2759.3,637 2759.2,661.3 2763,653.2 	"/>
	<polygon class="st13" points="2828,617 2830.4,637.6 2857.6,638.5 2857.3,620 	"/>
	<polygon class="st21" points="2879.2,626.7 2879.2,626.8 2879,650.9 2878.9,650.6 2878.7,650.3 2875.4,642.7 2876.6,637.4 	"/>
	<path class="st21" d="M2873.8,643c0,1-4.8,23.4-4.8,23.4s-10.2,10.1-5.9-6.8c0.4-1.7,0.8-3.5,1.2-5.1c2.9-14.8,1.7-27.5,1.7-27.5
		s3.2,6.3,5.6,11C2872.8,640.5,2873.7,642.6,2873.8,643z"/>
	<path class="st21" d="M2771.1,626.5c0,0-0.7,24.2,0.9,32.7c1.6,8.5-5.3,6.7-5.3,6.7l-3.7-12.8L2771.1,626.5z"/>
	<path class="st27" d="M2813.2,654.9c0,0,2.2,21.3,0.5,21.3c-1.7,0-1.3-9.9-1.3-9.9L2813.2,654.9z"/>
	<path class="st27" d="M2831.6,681.8c-4.8,3.4-10.3,5.1-15.7,4.1c-0.8-0.2-1.7-0.5-2.7-0.9c6.4,1.9,15.6-4.2,15.9-9.3
		c0.3-5.1-6.7-5.8-6.7-5.8l-4-38.2c4.4,0.2,6.4,34.3,6.4,34.3s9.4-0.6,11.9,3.2C2839.2,673,2836.4,678.4,2831.6,681.8z"/>
	<path class="st28" d="M2826.7,610.2c-2.2,1.2-0.3,9.9,0.4,10.1c0.7,0.2,31.3,4.1,31.9,3.2s1.1-6.6,0.4-7
		C2858.7,616.2,2829.9,608.5,2826.7,610.2z"/>
	<path class="st29" d="M2835.1,623.4c-7.7-0.9-11.1,19.2-4.3,24.5s26.4-0.7,28.8-3.5C2862,641.7,2866.9,627,2835.1,623.4z"/>
	<polygon class="st13" points="2806.2,614.7 2806.5,635.8 2783.1,642.6 2779.1,620.5 	"/>
	<path class="st28" d="M2776.4,617.8l1.5,6.9c0,0,31.8-9.7,32-10.4c0.2-0.7-1.3-8.9-3-9.3S2778.5,615.6,2776.4,617.8z"/>
	<path class="st29" d="M2800,623.8c7.6-1.5,12.7,18.2,6.4,24c-6.3,5.8-26.4,1.5-29-1C2774.8,644.3,2768.7,630,2800,623.8z"/>
	<path class="st30" d="M2804.7,638.4c-0.2,5.9-5.2,10.5-11.2,10.3c-5.9-0.2-10.5-5.2-10.3-11.2c0.2-5.9,5.2-10.5,11.2-10.3
		C2800.4,627.5,2805,632.5,2804.7,638.4z"/>
	<path class="st26" d="M2798.9,638.2c-0.1,2.7-2.4,4.8-5.1,4.7c-2.7-0.1-4.8-2.4-4.7-5.1s2.4-4.8,5.1-4.7
		C2796.9,633.2,2799,635.5,2798.9,638.2z"/>
	<path class="st31" d="M2791.8,633.9c-0.1,1.2-1.1,2.1-2.4,2c-1.3,0-2.3-1-2.2-2.2c0.1-1.2,1.1-2.1,2.4-2
		C2790.9,631.7,2791.9,632.7,2791.8,633.9z"/>
	<path class="st30" d="M2852.9,636.3c0.5,5.9-3.9,11.1-9.8,11.6c-5.9,0.5-11.1-3.9-11.6-9.8s3.9-11.1,9.8-11.6
		C2847.2,626,2852.4,630.4,2852.9,636.3z"/>
	<path class="st26" d="M2847.1,636.8c0.2,2.7-1.8,5.1-4.5,5.3s-5.1-1.8-5.3-4.5s1.8-5.1,4.5-5.3S2846.8,634.1,2847.1,636.8z"/>
	<path class="st13" d="M2828.7,645.2c0,0,2.9,9.8,14.9,8.3c12-1.5,16-9.1,16-9.1s-7.6,4.1-17.5,5
		C2832.2,650.5,2828.7,645.2,2828.7,645.2z"/>
	<path class="st13" d="M2808.1,645.4c0,0-2.5,9.9-14.5,9s-16.2-7.6-16.2-7.6s7.6,3.6,17.6,3.5
		C2805.2,650.1,2808.1,645.4,2808.1,645.4z"/>
	<path class="st32" d="M2880.3,651.2c1.4,7.8,2.8,52.2,1.1,58.3c-4.1,15-37.4,30.5-47.8,33.2c-10.5,2.8-42-0.1-49.5-3.5
		c-0.2-0.1-0.5-0.2-0.7-0.4c-3-1.5-6.6-4.5-10.1-7.8c0.8,0.7,1.6,1.3,2.4,1.8c13.5,9.5,28.3,6.5,47.8,6
		c20.7-0.5,43.6-16.8,46.7-38.8c1.1-7.9,0.7-16.2-0.3-23.5c-0.5-3.5-1.1-6.7-1.7-9.6c-1.1-5.6-2.4-10-3.1-12.2
		c1.9-6.1,3-10.8,3-10.8h0c0,0-0.7-7.8-2-17c0-0.1,0-0.2,0-0.2c-1.4-9.7-3.4-20.9-5.9-25.9c-7-13.9-15-21.5-26.5-14.5
		c-9.2,5.6-12.6-0.6-18.2,1.7c-5.5,2.3-10-1.3-16.4-3.7c-2.7-1-7.3,0.9-11.7,4c0,0-0.1,0-0.1,0c-3.1,2.1-6.1,4.7-8.3,7.2
		c-0.8,0.9-1.5,2-2.1,3.4c0.2-1.4,0.7-2.8,1.3-4.3c2.4-6,5.8-9.7,9.6-11.9c2.6-1.5,5.3-2.3,8-2.6c0,0,0,0,0,0
		c2.9-0.3,5.7-0.2,8.2,0.1c0,0,0.1,0,0.1,0c3.8,0.5,6.8,1.5,8.4,1.7c5.2,0.8,10.3-5.9,16.6-1.5c4.2,2.9,10.6,1.5,15.9-1.3
		c1.1-0.6,2.2-1.2,3.2-1.9c1.3-0.9,2.5-1.9,3.5-2.9c0.6-0.6,1-1.3,1.2-2.1c0.5-2.1-0.6-4.6-2.1-7.1c-2.3-3.8-5.8-7.6-6.6-9.6
		c-1.6-3.8,9.8-8.1,7.9-9.9c-1.8-1.7-8.9,0.9-26.3,3.5c-16.9,2.5-35.5-5.5-36.5-5.9c15.2,0.8,27.4,0.6,40-5.7
		c16.6-8.2,26.1-12.6,28.9-8.7c2.8,3.9-7.5,7.3-4.7,9.5c2.8,2.2,21.1-5.7,22.4-5.8c1.3-0.1,0.1,3.7,0.2,4.6c0,1-14.9,10.2-10.9,11.7
		c4,1.5,17.4,11.8,19.5,15.7l-9.8,12.4c3.5,1.3,6.6,3,7.3,4.7c1.1,2.9-1.3,27.8-3.1,44.7v0.1
		C2879.2,626.8,2878.9,643.4,2880.3,651.2z"/>
	<path class="st32" d="M2871.5,638c-0.5,3.4-2.1,13-2.3,13.1c-0.3,0.2-4.1,3.8-4.1,3.8l-0.7-0.5c2.9-14.8,1.7-27.5,1.7-27.5
		S2869.2,633.2,2871.5,638z"/>
	<path class="st25" d="M2880.2,1459.1c0,0-7.7,3.8-16.8,4.7c-9.1,1-15.3-1.6-15.3-1.6s21.6-5.9,23.5-12.8
		c1.9-6.9-4.6-335.8-15.1-347.4c-10.5-11.6-114.8-18.6-116.7-18.9c-0.1-2.9,0-4.7,0.2-5.2c3.5-7.7,148.2-10.8,149.7-4.9
		C2891.2,1078.9,2880.2,1459.1,2880.2,1459.1z"/>
	<polygon class="st25" points="2802.4,1074.6 2806.2,1117.6 2821.7,1117.3 2822.8,1071.5 	"/>
	<polygon class="st25" points="2853.7,1094.9 2878.2,1119.8 2882.1,1114.6 2862.5,1090.2 	"/>
	<path class="st25" d="M2824.9,1161.4c-1.5-14.9-2.4-24-2.5-24.2c-0.2-0.6-3.1,0.4-6.9,0.7c-3.9,0.3-6.3-0.1-6.3-0.1l-10.3,323.1
		c0,0-8.9,3.6-15.4,3.7c-6.5,0.1-14.8-1.5-14.8-1.5s14.8-1.6,19-10.6c4.2-9-9.9-321.2-5.6-323.6c4.2-2.4,39.9,0.8,40.9,2.7
		C2823.9,1133.6,2824.8,1158.8,2824.9,1161.4z"/>
	<path class="st33" d="M2813,783.4l-4,69.5c0,0,24-0.4,24-2c0-1.6-4.8-70.1-4.8-70.1l-7.2-2.9L2813,783.4z"/>
	<path class="st34" d="M2825.4,801.4c0,4.3-1.8,7.8-4,7.8s-4-3.5-4-7.8s1.8-7.8,4-7.8C2823.6,793.6,2825.4,797.1,2825.4,801.4z"/>
	<path class="st33" d="M2920.8,881c-0.7,4.5-1.6,9-2.7,13.3c-5.2,19.8-14.1,46-14.1,46s-5.9,110-14.3,116.3
		c-8.1,6-51.4,8.7-76.4,9.1c-25,0.4-68.5,1.6-73.6-2.2c-1.5-1.2-2.9-6.4-4.2-14.1c0,0,79.1-15.1,84.9-28.5
		c14.6-33.7-6.6-79-3.1-85.4s29.8-2.9,59.7-13.2c27.5-9.5,23.8-62.5,26.5-71.2C2909.2,860.9,2915.6,872.1,2920.8,881z"/>
	<ellipse class="st34" cx="2820.9" cy="831.7" rx="4" ry="7.8"/>
	<path class="st33" d="M2804.9,809.3l12.4-18.2l-36.2-18.8c0,0-1.2,2.3-1.9,10.4C2778.5,790.8,2804.9,809.3,2804.9,809.3z"/>
	<path class="st18" d="M2920.8,881c-0.7,4.5-1.6,9-2.7,13.3c-5.2,19.8-14.1,46-14.1,46s-2.1,39-5.6,71.9
		c-2.4,22.4-5.4,41.8-8.8,44.4c-8.1,6-51.4,8.7-76.4,9.1c-25,0.4-68.5,1.6-73.6-2.2c-0.6-0.5-1.2-1.7-1.8-3.5
		c16.2-8.6,140.9-10.9,147.1-13.8c6.3-2.9,9.8-106.1,8.6-108.4c-1.2-2.3,6.3-6.9,10.7-19.1s6.9-54.2,6.9-54.2l1.1,1.9l5.4,9.4
		L2920.8,881z"/>
	<path class="st18" d="M2821.1,777.9c0,0-38.9-10.2-45.1-20.8c-5.8,1.3-9.5,2-9.5,3.7c0,19.4,37,45,37,45L2821.1,777.9z"/>
	<path class="st35" d="M2891.3,1074.9c-1.3,0.3-45.1,1.5-78.9,2c-33.8,0.5-73,2.1-74.1,1.8c-0.2-0.1-0.4-0.6-0.7-1.6
		c-1.2-4.1-2.5-15-0.3-16.9c1.2-1,32.1-2.5,66-3.7l0.3,0c41.5-1.4,87.4-2.5,88.3-1.8C2893.7,1056,2892.6,1074.6,2891.3,1074.9z"/>
	<path class="st36" d="M2891.3,1074.9c-1.3,0.3-45.1,1.5-78.9,2c-33.8,0.5-73,2.1-74.1,1.8c-0.2-0.1-0.4-0.6-0.7-1.6v0
		c0,0,118.6,1,117.4-15.4c-0.4-5.7-47-5.2-51.4-5.1c41.5-1.4,87.4-2.5,88.3-1.8C2893.7,1056,2892.6,1074.6,2891.3,1074.9z"/>
	<path class="st33" d="M2730.1,996c-1.5-21.3-2.3-39.4-2.3-39.4s-4-13.3-8.2-31.5c-7.6,1.1-18.4,2.2-30.1,2.4
		c-22.8,0.4-42.6-3.9-44.3-8.3c-0.2-0.5,0-2.8,0.5-6.5c0,0,47.2,3.7,62.1-9c2.3-2,4.4-4.2,6.2-6.6c10.1-13.1,13.9-30.3,17.3-29.8
		c0.2,0,0.4,0.2,0.6,0.5c2.9,5.5-2,52.6,2.6,68.3C2739.3,952.7,2730.1,996,2730.1,996z"/>
	<path class="st12" d="M2924.9,1036C2924.9,1036,2924.9,1036,2924.9,1036c-0.1,0.1-0.2,0.3-0.5,0.5c-0.2,0.2-0.5,0.6-0.8,0.9
		c-1,1.1-2.6,2.8-4.7,4.8c-7,6.8-19.2,17-30.9,19.3c-3.2,0.6-10.5-1.5-16.5-6.7c-2-1.7-3.9-3.8-5.5-6.2c-3.1-4.7-5-15.9-2.5-20.3
		c1.4-2.4,27-4.5,44.3-4.3c0.3,0,0.7,0,1,0c5.2,0.1,9.7,0.4,12.3,1.1c0.1,0,0.1,0,0.2,0c1.4,0.3,2.2,0.8,2.4,1.3
		C2925,1031,2924.9,1036,2924.9,1036z"/>
	<path class="st13" d="M3007.5,937.4c-3.8,4.5-61.6,73.9-82.6,99.3c0,0,0,0,0,0.1c-0.1,0.2-0.3,0.3-0.5,0.5c-0.2,0.2-0.5,0.6-0.9,1
		c-1.4,1.4-3,2.8-4.6,3.9c-7,6.8-19.2,17-30.9,19.3c-3.2,0.6-10.5-1.5-16.5-6.7c12.6,2.9,24.9-7.1,36.4-14.6c0.7-0.5,1.5-1.2,2.5-2
		c2.8-2.7,6.5-7.1,10.7-12.9c0,0,0.1-0.1,0.1-0.1c21.5-29.5,77-100.7,66.1-126.4c-12.4,6.2-39.4,11.3-40.3,11.4c0,0,0,0,0,0
		c-6.3-8.2-16.8-20.4-21.3-31.6c-0.8-2-1.4-3.8-1.7-5.7c14.2-8.1,38.9-21.7,43.7-21.8c2.4,0,11.5,1.2,22.4,2.9
		c7.4,17.1,22.3,51.6,23.1,54.6C3014.2,912.5,3010.1,934.3,3007.5,937.4z"/>
	<path class="st23" d="M2987,876.2c-5.6,3.8-12.6,7.7-19.9,10.9c-4.1,1.8-8.1,3.3-11.8,4.4c-0.1,0-0.1,0.1-0.2,0.1
		c-1.1,0.3-2.3,0.7-3.4,1c-0.1,0-0.1,0-0.2,0c-0.6,0.2-1.2,0.3-1.8,0.5c0,0-0.1,0-0.1,0c-5.2,1.3-9.6,2.1-12.9,2.5
		c-3.3,0.4-5.5,0.5-6.1,0.5c-0.6,0-4.5-6.4-9.8-15.3c-5.2-8.8-11.6-20.1-17.2-29.9c-7.2-12.6-12.9-22.9-12.9-22.9l-15.8-24.6l-3.2-5
		l-15.3-23.8l-0.2-0.3l8.7-14.3l0.7-1.2c0,0,0.4,0.1,1.1,0.2c9.6,2,81,17.1,89,24.3c5.5,4.9,22.4,34.5,33.9,56.1
		c6.5,12,11.3,21.6,11.5,22.9C3001.5,864.8,2995.8,870.3,2987,876.2z"/>
	<path class="st33" d="M3001.1,862.6c0.7,3.7-15.2,16.3-34,24.6c-18.8,8.2-34.6,9-36.4,9.1c-0.6,0-4.5-6.4-9.8-15.3
		c-5.2-8.8-11.6-20.1-17.2-29.9c0.2-0.8,0.6-1.2,0.9-1.2c2.6,0,10.4,12.8,17.2,24.1c5.6,9.1,10.4,17.2,11.5,16.8
		c2.3-0.8,46.1-32.1,32.7-56.2c-13.4-24.1-24.7-46.5-56.4-49.3c-8.4-0.8-19.5,3.6-29.9,9c-2.7,1.4-5.4,2.9-7.9,4.4
		c-13.8,8-25,16.8-25,16.8l-17.6-24.6l-9-2.2l8.3-7.8l7.3-4.1l29.2-16.4l1.8-1c9.6,2,81,17.1,89,24.3
		C2964.2,791.2,3000.4,858.9,3001.1,862.6z"/>
	<path class="st18" d="M2863.6,753.5c0,0,7.5,0.9,8.7,4.2c4.2,11.6-29.9,47.5-29.9,47.5l-21.4-27.2
		C2821.1,777.9,2852.2,768.3,2863.6,753.5z"/>
	<polygon class="st15" points="2724.9,1128.2 2726.9,1129.4 2728.2,1287.5 2725.9,1287.5 	"/>
	<polygon class="st37" points="2681.6,1191.9 2715,1191.9 2715,1197.1 2681.6,1195.4 	"/>
	<polygon class="st37" points="2681.6,1202.6 2681.6,1205.9 2714.2,1208.4 2714.2,1203.6 	"/>
	<polygon class="st37" points="2681.6,1214 2681.6,1217.2 2714.2,1222 2714.2,1217.2 	"/>
	<polygon class="st37" points="2681.6,1251.9 2681.6,1255.1 2714.2,1262.8 2714.2,1258 	"/>
	<polygon class="st37" points="2681.6,1258.9 2681.6,1262.2 2714.2,1271.6 2714.2,1266.8 	"/>
	<path class="st38" d="M2825,1058.6c-2.7-0.9-23.4-1.5-25.9,0.1c-2.9,1.8-1.3,13.9,0.2,15.3c1.5,1.4,23.4,0.8,26,0.4
		C2827.8,1073.9,2827.8,1059.5,2825,1058.6z M2822.6,1071.7c-2,0.2-19.4,0.7-20.6-0.2s-2.5-9-0.2-10.2c2-1,18.4-0.6,20.6,0
		C2824.6,1061.9,2824.7,1071.4,2822.6,1071.7z"/>
	<polygon class="st38" points="2812,1064.9 2812,1067.7 2825.4,1067.7 2825,1064.6 	"/>
	<path class="st34" d="M2950.8,892.8c0.2,0,0.5-0.1,0.7-0.2c-0.6,0.2-1.2,0.3-1.8,0.5C2950,893,2950.4,892.9,2950.8,892.8z"/>
	<path class="st18" d="M2987,876.2c-5.6,3.8-12.6,7.7-19.9,10.9c-4.1,1.8-8.1,3.3-11.8,4.4c14.5-5.1,35.6-21.2,38.2-29.5
		c2.9-9.2-29.8-60.8-37.7-71.5c-7.9-10.7-86.8-25.4-86.8-25.4l-2.4-5.9c9.6,2,81,17.1,89,24.3c5.5,4.9,22.4,34.5,33.9,56.1
		c6.5,12,11.3,21.6,11.5,22.9C3001.5,864.8,2995.8,870.3,2987,876.2z"/>
	<path class="st18" d="M2728.3,931.3c2.5,6,0.2,37.2,0.1,38.2c-0.4-7.9-0.7-12.9-0.7-12.9s-2.1-7-4.9-17.8l0.2-14.2
		c0,0,7.5-54.8,8.2-51.8C2732,875.8,2725.7,925.2,2728.3,931.3z"/>
	<path class="st39" d="M2759.2,771.3c3.6,1-70.1,28.5-75.4,33.8c-5.3,5.3-26.9,89.3-30.8,94c-3.9,4.7,21.3-94.8,24.7-99.4
		C2681.2,795.1,2755.9,770.4,2759.2,771.3z"/>
	<path class="st39" d="M2743.8,944.2c3.7-4,16.8,3.3,14.5,10.8s-7.6,83.6-10.2,84.1C2745.5,1039.5,2739.6,948.8,2743.8,944.2z"/>
	<path class="st29" d="M2793.7,699.4c-1.6,1.4,0.8,5.2,0.8,5.2s13.4,1.1,25.6,1.3s26.9-2.8,26.9-2.8s0.9-3.5,0.1-4.1
		c-0.9-0.6-10.2-2.7-27.5-2.9S2795.1,698.2,2793.7,699.4z"/>
	<path class="st40" d="M2794.4,642.1c-0.2-1.8,13.8-1.1,13.8-0.5C2808.1,642.1,2794.8,646.6,2794.4,642.1z"/>
	<path class="st31" d="M2839.7,633.4c-0.1,1.2-1.1,2.1-2.4,2c-1.3,0-2.3-1-2.2-2.2c0.1-1.2,1.1-2.1,2.4-2S2839.7,632.2,2839.7,633.4
		z"/>
	<path class="st40" d="M2842.2,642c-0.2-2,15.4-1.2,15.4-0.6C2857.6,642,2842.7,647,2842.2,642z"/>
	<path class="st27" d="M2884.3,632.8c0.5-0.5,5.6,15.2,5.2,16.2c-0.4,1-2.2,2.9-3.4,2.2C2885,650.6,2883.5,633.6,2884.3,632.8z"/>
	<path class="st22" d="M2753.2,635.3c-0.6-0.4-3.8,15.7-3.3,16.6c0.5,0.9,2.4,2.7,3.5,1.9S2754.1,636,2753.2,635.3z"/>
	<path class="st13" d="M2883.4,638.8c0.3,0.2,3.8,2.8,3.6,4.9c-0.2,2.1-3.6,1.9-3.6,1.9V638.8z"/>
	<path class="st12" d="M2754.8,642.6c0,0-2.2,0.5-2.5,2.1c-0.3,1.6,0.4,5.3,3.2,4C2758.2,647.4,2754.8,642.6,2754.8,642.6z"/>
</g>
<g>
	<polygon class="st41" points="2405.2,72.4 2413.8,269 3204.4,254 3212.9,72.4 	"/>
	<g>
		<path class="st42" d="M2537.6,149.9l46.4-42.3h13.5v114.1h-30.1v-58.6l-29.8,27.2l-30-27.1v58.4h-30.1V107.6h13.5L2537.6,149.9z"
			/>
		<path class="st42" d="M2675.1,107.6c31.5,0,57.1,25.7,57.1,57.2s-25.6,56.9-57.1,56.9s-56.9-25.4-56.9-56.9
			C2618.2,133.3,2643.6,107.6,2675.1,107.6z M2675.1,137.4c-14.9,0-27.1,12.2-27.1,27.2c0,14.9,12.2,27.2,27.1,27.2
			c15.1,0,27.2-12.3,27.2-27.2C2702.4,149.6,2690.2,137.4,2675.1,137.4z"/>
		<path class="st42" d="M2856.9,107.5l-53.1,114.2h-13.7l-53.2-114.2h30.1l30,65l30.1-65C2827.1,107.5,2856.9,107.5,2856.9,107.5z"
			/>
		<path class="st42" d="M2869.9,107.6h30v114.1h-30V107.6z"/>
		<path class="st42" d="M3006.6,221.7l-53.9-54v54h-30V107.6h12.2l54,53.8v-53.8h30v114.1L3006.6,221.7L3006.6,221.7z"/>
		<path class="st42" d="M3146.6,160.4v4.3c0,31.5-25.6,57-57,57s-56.9-25.6-56.9-57c0-31.5,25.4-57.1,56.9-57.1
			c15.7,0,29.8,6.4,40.2,16.6l-21.1,21c-4.9-4.6-11.2-7.6-19-7.6c-14.3,0-26.9,11.4-26.9,27.1s12.9,27.1,26.9,27.1
			c9,0,17.3-4.4,22.1-11.3h-22.1v-20.1L3146.6,160.4L3146.6,160.4z"/>
	</g>
	<polygon class="st41" points="3133.1,270.4 2710.8,238.4 2753,340.6 3117.4,328.5 	"/>
	<polygon class="st41" points="2810.2,351.8 2910.4,421.9 3086.5,324 	"/>
</g>
<g>
	<g>
		<g>
			<path class="st43" d="M4492.3,966.8c-2.7,0-5.4-1.5-6.7-4.2l-51.1-103.9c-1.8-3.7-0.3-8.1,3.4-9.9c3.7-1.8,8.1-0.3,9.9,3.4
				l51.1,103.9c1.8,3.7,0.3,8.1-3.4,9.9C4494.5,966.6,4493.4,966.8,4492.3,966.8z"/>
		</g>
		<g>
			<path class="st43" d="M5343.4,966.8c-1.1,0-2.2-0.2-3.3-0.8c-3.7-1.8-5.2-6.3-3.4-9.9l51.1-103.9c1.8-3.7,6.3-5.2,9.9-3.4
				s5.2,6.3,3.4,9.9l-51.1,103.9C5348.8,965.3,5346.1,966.8,5343.4,966.8z"/>
		</g>
		<g>
			<path class="st44" d="M4436.9,896.7h-24.5c-10.2,0-18.5-8.3-18.5-18.5v-99.8c0-10.2,8.3-18.5,18.5-18.5h24.5
				c10.2,0,18.5,8.3,18.5,18.5v99.8C4455.5,888.4,4447.1,896.7,4436.9,896.7z"/>
			<path class="st45" d="M4431.2,896.7L4431.2,896.7c-12.7,0-23.1-10.4-23.1-23.1v-90.7c0-12.7,10.4-23.1,23.1-23.1l0,0
				c12.7,0,23.1,10.4,23.1,23.1v90.7C4454.3,886.3,4443.9,896.7,4431.2,896.7z"/>
			<g>
				
					<rect x="4387.3" y="794.1" transform="matrix(0.8162 -0.5778 0.5778 0.8162 351.8271 2702.4243)" class="st44" width="71.9" height="8.3"/>
			</g>
			<g>
				
					<rect x="4387" y="817.4" transform="matrix(0.8162 -0.5777 0.5777 0.8162 338.3765 2706.8013)" class="st44" width="74" height="8.3"/>
			</g>
			<g>
				<path class="st43" d="M4424.7,899.9c-18.7,0-33.9-15.2-33.9-33.9v-75.3c0-18.7,15.2-33.9,33.9-33.9s33.9,15.2,33.9,33.9v75.3
					C4458.6,884.7,4443.4,899.9,4424.7,899.9z M4424.7,763c-15.2,0-27.6,12.4-27.6,27.6V866c0,15.2,12.4,27.6,27.6,27.6
					s27.6-12.4,27.6-27.6v-75.3C4452.3,775.4,4439.9,763,4424.7,763z"/>
			</g>
		</g>
		<g>
			<path class="st45" d="M5411,896.7L5411,896.7c-16.9,0-30.8-13.8-30.8-30.8v-75.3c0-16.9,13.9-30.8,30.8-30.8l0,0
				c16.9,0,30.8,13.8,30.8,30.8V866C5441.8,882.9,5427.9,896.7,5411,896.7z"/>
			<g>
				
					<rect x="5373.5" y="794.5" transform="matrix(0.8162 -0.5777 0.5777 0.8162 532.6671 3271.907)" class="st44" width="71.9" height="8.3"/>
			</g>
			<g>
				
					<rect x="5373.2" y="817.2" transform="matrix(0.8162 -0.5777 0.5777 0.8162 519.7552 3276.6479)" class="st44" width="74.4" height="8.3"/>
			</g>
			<g>
				<path class="st43" d="M5411,899.9c-18.7,0-33.9-15.2-33.9-33.9v-75.3c0-18.7,15.2-33.9,33.9-33.9c18.7,0,33.9,15.2,33.9,33.9
					v75.3C5444.9,884.7,5429.7,899.9,5411,899.9z M5411,763c-15.2,0-27.6,12.4-27.6,27.6V866c0,15.2,12.4,27.6,27.6,27.6
					c15.2,0,27.6-12.4,27.6-27.6v-75.3C5438.6,775.4,5426.2,763,5411,763z"/>
			</g>
		</g>
	</g>
	<g>
		<rect x="4482.9" y="362.3" class="st44" width="870" height="922"/>
		<rect x="4509.2" y="383.8" class="st45" width="843.6" height="900.5"/>
		<g>
			<path class="st43" d="M4482.9,1287.5c-1.7,0-3.1-1.4-3.1-3.2v-922c0-1.7,1.4-3.1,3.1-3.1h870c1.7,0,3.1,1.4,3.1,3.1V556
				c0,1.7-1.4,3.2-3.1,3.2s-3.1-1.4-3.1-3.2V365.5H4486v918.8C4486,1286.1,4484.6,1287.5,4482.9,1287.5z"/>
		</g>
		<g>
			<path class="st43" d="M5352.8,1171.4c-1.7,0-3.1-1.4-3.1-3.2V664.4c0-1.7,1.4-3.2,3.1-3.2s3.1,1.4,3.1,3.2v503.8
				C5356,1170,5354.6,1171.4,5352.8,1171.4z"/>
		</g>
	</g>
	<g>
		<polygon class="st46" points="5282.3,706.2 4553.4,706.2 4553.4,1284.3 4879.5,1284.3 5282.3,1284.3 		"/>
		<g>
			<path class="st43" d="M5282.3,810.1c-1.7,0-3.1-1.4-3.1-3.2V706.2c0-1.7,1.4-3.2,3.1-3.2s3.1,1.4,3.1,3.2v100.7
				C5285.5,808.7,5284,810.1,5282.3,810.1z"/>
		</g>
		<g>
			<path class="st43" d="M5282.3,1287.5c-1.7,0-3.1-1.4-3.1-3.2V932c0-1.7,1.4-3.2,3.1-3.2s3.1,1.4,3.1,3.2v352.4
				C5285.5,1286.1,5284,1287.5,5282.3,1287.5z"/>
		</g>
		<g>
			<path class="st43" d="M4553.4,1287.5c-1.7,0-3.1-1.4-3.1-3.2V706.2c0-1.7,1.4-3.2,3.1-3.2s3.1,1.4,3.1,3.2v578.1
				C4556.5,1286.1,4555.1,1287.5,4553.4,1287.5z"/>
		</g>
	</g>
	<g>
		<rect x="4912.6" y="1091.8" class="st47" width="192.6" height="192.6"/>
		<g>
			<path class="st43" d="M5105.2,1287.5h-192.6c-1.7,0-3.1-1.4-3.1-3.2s1.4-3.2,3.1-3.2h189.4v-186.2h-186.3v97.9
				c0,1.7-1.4,3.2-3.1,3.2s-3.1-1.4-3.1-3.2v-101.1c0-1.7,1.4-3.2,3.1-3.2h192.6c1.7,0,3.1,1.4,3.1,3.2v192.6
				C5108.4,1286.1,5107,1287.5,5105.2,1287.5z"/>
		</g>
	</g>
	<g>
		<rect x="5013.5" y="1039" class="st44" width="245.3" height="245.3"/>
		<rect x="5032.5" y="1039" class="st47" width="226.3" height="245.3"/>
		<rect x="5121.3" y="1039" class="st9" width="29.7" height="129.3"/>
		<rect x="5044.6" y="1065.8" class="st48" width="60.6" height="37.8"/>
		<g>
			<path class="st43" d="M5258.8,1287.5c-1.7,0-3.1-1.4-3.1-3.2v-242.2h-239v242.2c0,1.7-1.4,3.2-3.1,3.2s-3.1-1.4-3.1-3.2V1039
				c0-1.7,1.4-3.2,3.1-3.2h245.3c1.7,0,3.1,1.4,3.1,3.2v245.3C5261.9,1286.1,5260.5,1287.5,5258.8,1287.5z"/>
		</g>
	</g>
	<g>
		<rect x="4553.4" y="436.6" class="st9" width="729" height="269.7"/>
		<g>
			<path class="st43" d="M5282.3,709.4h-729c-1.7,0-3.1-1.4-3.1-3.2V436.6c0-1.7,1.4-3.1,3.1-3.1h608.8c1.7,0,3.1,1.4,3.1,3.1
				s-1.4,3.1-3.1,3.1h-605.6v263.4h722.6V436.6c0-1.7,1.4-3.1,3.1-3.1s3.1,1.4,3.1,3.1v269.7C5285.5,708,5284,709.4,5282.3,709.4z"
				/>
		</g>
		<g>
			<g>
				<path class="st43" d="M5243.1,677.2h-578.3c-1.7,0-3.1-1.4-3.1-3.2c0-1.7,1.4-3.2,3.1-3.2h578.3c1.7,0,3.1,1.4,3.1,3.2
					C5246.3,675.8,5244.9,677.2,5243.1,677.2z"/>
			</g>
			<g>
				<path class="st43" d="M4620.9,677.2h-67.5c-1.7,0-3.1-1.4-3.1-3.2c0-1.7,1.4-3.2,3.1-3.2h67.5c1.7,0,3.1,1.4,3.1,3.2
					C4624,675.8,4622.6,677.2,4620.9,677.2z"/>
			</g>
			<g>
				<path class="st43" d="M5178.8,642.6h-384.7c-1.7,0-3.1-1.4-3.1-3.2c0-1.7,1.4-3.2,3.1-3.2h384.7c1.7,0,3.1,1.4,3.1,3.2
					C5182,641.2,5180.5,642.6,5178.8,642.6z"/>
			</g>
			<g>
				<path class="st43" d="M4750.8,642.6h-171.9c-1.7,0-3.1-1.4-3.1-3.2c0-1.7,1.4-3.2,3.1-3.2h171.9c1.7,0,3.1,1.4,3.1,3.2
					C4753.9,641.2,4752.5,642.6,4750.8,642.6z"/>
			</g>
			<g>
				<path class="st43" d="M5208.5,608h-210.3c-1.7,0-3.1-1.4-3.1-3.2c0-1.7,1.4-3.2,3.1-3.2h210.3c1.7,0,3.1,1.4,3.1,3.2
					C5211.6,606.5,5210.2,608,5208.5,608z"/>
			</g>
			<g>
				<path class="st43" d="M4948.7,608h-315.4c-1.7,0-3.1-1.4-3.1-3.2c0-1.7,1.4-3.2,3.1-3.2h315.4c1.7,0,3.1,1.4,3.1,3.2
					C4951.9,606.5,4950.5,608,4948.7,608z"/>
			</g>
			<g>
				<path class="st43" d="M5282.3,573.3h-426.4c-1.7,0-3.1-1.4-3.1-3.2c0-1.7,1.4-3.2,3.1-3.2h426.4c1.7,0,3.1,1.4,3.1,3.2
					C5285.5,571.9,5284,573.3,5282.3,573.3z"/>
			</g>
			<g>
				<path class="st43" d="M4733.5,573.3h-180.1c-1.7,0-3.1-1.4-3.1-3.2c0-1.7,1.4-3.2,3.1-3.2h180.1c1.7,0,3.1,1.4,3.1,3.2
					C4736.6,571.9,4735.2,573.3,4733.5,573.3z"/>
			</g>
			<g>
				<path class="st43" d="M5282.3,538.7h-89.9c-1.7,0-3.1-1.4-3.1-3.2c0-1.7,1.4-3.2,3.1-3.2h89.9c1.7,0,3.1,1.4,3.1,3.2
					C5285.5,537.3,5284,538.7,5282.3,538.7z"/>
			</g>
			<g>
				<path class="st43" d="M5124.4,538.7h-458.9c-1.7,0-3.1-1.4-3.1-3.2c0-1.7,1.4-3.2,3.1-3.2h458.9c1.7,0,3.1,1.4,3.1,3.2
					S5126.1,538.7,5124.4,538.7z"/>
			</g>
			<g>
				<path class="st43" d="M5250.5,504h-240c-1.7,0-3.1-1.4-3.1-3.1s1.4-3.1,3.1-3.1h240c1.7,0,3.1,1.4,3.1,3.1
					C5253.7,502.6,5252.3,504,5250.5,504z"/>
			</g>
			<g>
				<path class="st43" d="M4969.7,504h-416.4c-1.7,0-3.1-1.4-3.1-3.1s1.4-3.1,3.1-3.1h416.4c1.7,0,3.1,1.4,3.1,3.1
					S4971.5,504,4969.7,504z"/>
			</g>
			<g>
				<path class="st43" d="M4743.4,469.4h-155.9c-1.7,0-3.1-1.4-3.1-3.1s1.4-3.1,3.1-3.1h155.9c1.7,0,3.1,1.4,3.1,3.1
					C4746.5,468,4745.1,469.4,4743.4,469.4z"/>
			</g>
			<g>
				<path class="st43" d="M5227,469.4h-433c-1.7,0-3.1-1.4-3.1-3.1s1.4-3.1,3.1-3.1h433c1.7,0,3.1,1.4,3.1,3.1
					C5230.2,468,5228.8,469.4,5227,469.4z"/>
			</g>
		</g>
	</g>
	<g>
		<g>
			
				<ellipse transform="matrix(0.9925 -0.1222 0.1222 0.9925 -15.3206 555.5313)" class="st44" cx="4521.4" cy="402.7" rx="19" ry="19"/>
			<ellipse class="st49" cx="4526.7" cy="402.8" rx="13.6" ry="19"/>
			<g>
				<path class="st43" d="M4521.4,424.9c-12.2,0-22.1-9.9-22.1-22.1c0-12.2,9.9-22.1,22.1-22.1s22.1,9.9,22.1,22.1
					C4543.5,415,4533.6,424.9,4521.4,424.9z M4521.4,386.9c-8.7,0-15.8,7.1-15.8,15.8s7.1,15.8,15.8,15.8s15.8-7.1,15.8-15.8
					S4530.1,386.9,4521.4,386.9z"/>
			</g>
		</g>
		<g>
			
				<ellipse transform="matrix(0.9925 -0.1222 0.1222 0.9925 -9.3766 652.4221)" class="st44" cx="5314.2" cy="402.7" rx="19" ry="19"/>
			<ellipse class="st49" cx="5319.6" cy="402.8" rx="13.6" ry="19"/>
			<g>
				<path class="st43" d="M5314.3,424.9c-12.2,0-22.1-9.9-22.1-22.1c0-12.2,9.9-22.1,22.1-22.1s22.1,9.9,22.1,22.1
					C5336.4,415,5326.5,424.9,5314.3,424.9z M5314.3,386.9c-8.7,0-15.8,7.1-15.8,15.8s7.1,15.8,15.8,15.8s15.8-7.1,15.8-15.8
					S5323,386.9,5314.3,386.9z"/>
			</g>
		</g>
	</g>
	<g>
		<g>
			<g>
				<path class="st44" d="M4502.6,1393.2h118.8v131.7c0,10.2-8.2,18.4-18.4,18.4h-82c-10.1,0-18.4-8.2-18.4-18.4V1393.2z"/>
				<path class="st46" d="M4520,1393.2h101.4v133.1c0,9.4-7.6,17-17,17h-67.5c-9.4,0-17-7.6-17-17L4520,1393.2L4520,1393.2z"/>
				<g>
					<path class="st43" d="M4590.9,1546.4h-57.7c-18.6,0-33.7-15.1-33.7-33.7v-119.6c0-1.7,1.4-3.2,3.1-3.2h118.8
						c1.7,0,3.1,1.4,3.1,3.2v119.6C4624.5,1531.3,4609.5,1546.4,4590.9,1546.4z M4505.8,1396.3v116.4c0,15.1,12.3,27.4,27.4,27.4
						h57.7c15.1,0,27.4-12.3,27.4-27.4v-116.4H4505.8z"/>
				</g>
				<g>
					<path class="st43" d="M4538.1,1503.6c-1.7,0-3.1-1.4-3.1-3.2v-91.5c0-1.7,1.4-3.2,3.1-3.2s3.1,1.4,3.1,3.2v91.5
						C4541.3,1502.2,4539.9,1503.6,4538.1,1503.6z"/>
				</g>
				<g>
					<path class="st43" d="M4565.3,1503.6c-1.7,0-3.1-1.4-3.1-3.2v-91.5c0-1.7,1.4-3.2,3.1-3.2s3.1,1.4,3.1,3.2v91.5
						C4568.5,1502.2,4567.1,1503.6,4565.3,1503.6z"/>
				</g>
				<g>
					<path class="st43" d="M4590.9,1503.6c-1.7,0-3.1-1.4-3.1-3.2v-91.5c0-1.7,1.4-3.2,3.1-3.2s3.1,1.4,3.1,3.2v91.5
						C4594,1502.2,4592.6,1503.6,4590.9,1503.6z"/>
				</g>
			</g>
			<g>
				<path class="st44" d="M5214.3,1393.2H5333v131.7c0,10.2-8.2,18.4-18.4,18.4h-82c-10.1,0-18.4-8.2-18.4-18.4V1393.2z"/>
				<path class="st46" d="M5231.6,1393.2H5333v133.1c0,9.4-7.6,17-17,17h-67.5c-9.4,0-17-7.6-17-17L5231.6,1393.2L5231.6,1393.2z"/>
				<g>
					<path class="st43" d="M5302.5,1546.4h-57.7c-18.6,0-33.7-15.1-33.7-33.7v-119.6c0-1.7,1.4-3.2,3.1-3.2H5333
						c1.7,0,3.1,1.4,3.1,3.2v119.6C5336.2,1531.3,5321.1,1546.4,5302.5,1546.4z M5217.4,1396.3v116.4c0,15.1,12.3,27.4,27.4,27.4
						h57.7c15.1,0,27.4-12.3,27.4-27.4v-116.4H5217.4z"/>
				</g>
				<g>
					<path class="st43" d="M5249.7,1503.6c-1.7,0-3.1-1.4-3.1-3.2v-91.5c0-1.7,1.4-3.2,3.1-3.2s3.1,1.4,3.1,3.2v91.5
						C5252.9,1502.2,5251.5,1503.6,5249.7,1503.6z"/>
				</g>
				<g>
					<path class="st43" d="M5277,1503.6c-1.7,0-3.1-1.4-3.1-3.2v-91.5c0-1.7,1.4-3.2,3.1-3.2c1.7,0,3.1,1.4,3.1,3.2v91.5
						C5280.1,1502.2,5278.7,1503.6,5277,1503.6z"/>
				</g>
				<g>
					<path class="st43" d="M5302.5,1503.6c-1.7,0-3.1-1.4-3.1-3.2v-91.5c0-1.7,1.4-3.2,3.1-3.2s3.1,1.4,3.1,3.2v91.5
						C5305.7,1502.2,5304.3,1503.6,5302.5,1503.6z"/>
				</g>
			</g>
		</g>
		<g>
			<rect x="4431.7" y="1284.3" class="st44" width="972.2" height="108.9"/>
			<rect x="4456.5" y="1284.3" class="st9" width="947.5" height="108.9"/>
			<g>
				<path class="st43" d="M4804.1,1396.3h-372.4c-1.7,0-3.1-1.4-3.1-3.2v-108.9c0-1.7,1.4-3.2,3.1-3.2h666.2c1.7,0,3.1,1.4,3.1,3.2
					s-1.4,3.2-3.1,3.2h-663V1390h369.2c1.7,0,3.1,1.4,3.1,3.2S4805.8,1396.3,4804.1,1396.3z"/>
			</g>
			<g>
				<path class="st43" d="M5404,1396.3h-540.1c-1.7,0-3.1-1.4-3.1-3.2s1.4-3.2,3.1-3.2h536.9v-102.6h-200c-1.7,0-3.1-1.4-3.1-3.2
					s1.4-3.2,3.1-3.2H5404c1.7,0,3.1,1.4,3.1,3.2v108.9C5407.1,1394.9,5405.7,1396.3,5404,1396.3z"/>
			</g>
		</g>
		<g>
			<g>
				
					<ellipse transform="matrix(6.209813e-02 -0.9981 0.9981 6.209813e-02 2893.1245 5755.8657)" class="st44" cx="4509.1" cy="1338.6" rx="26.4" ry="26.4"/>
				<ellipse class="st49" cx="4516.7" cy="1338.8" rx="19" ry="26.4"/>
				<g>
					<path class="st43" d="M4509.2,1368.3c-16.3,0-29.5-13.2-29.5-29.5s13.2-29.5,29.5-29.5s29.5,13.2,29.5,29.5
						C4538.8,1355.1,4525.5,1368.3,4509.2,1368.3z M4509.2,1315.5c-12.8,0-23.2,10.4-23.2,23.2c0,12.8,10.4,23.2,23.2,23.2
						s23.2-10.4,23.2-23.2C4532.5,1325.9,4522,1315.5,4509.2,1315.5z"/>
				</g>
			</g>
			<g>
				
					<ellipse transform="matrix(0.2298 -0.9732 0.9732 0.2298 2799.2649 6215.418)" class="st44" cx="5326.6" cy="1339.1" rx="26.4" ry="26.4"/>
				<ellipse class="st49" cx="5333.9" cy="1338.8" rx="19" ry="26.4"/>
				<g>
					<path class="st43" d="M5326.4,1368.3c-16.3,0-29.5-13.2-29.5-29.5s13.2-29.5,29.5-29.5s29.5,13.2,29.5,29.5
						C5356,1355.1,5342.7,1368.3,5326.4,1368.3z M5326.4,1315.5c-12.8,0-23.2,10.4-23.2,23.2c0,12.8,10.4,23.2,23.2,23.2
						s23.2-10.4,23.2-23.2C5349.7,1325.9,5339.2,1315.5,5326.4,1315.5z"/>
				</g>
			</g>
		</g>
	</g>
</g>
<g>
	<g>
		<path class="st43" d="M879.3,743.5c0.1,0,0.2,0,0.3,0c1.7-0.2,3-1.8,2.8-3.5c-0.5-5.1-0.4-10.2,0.4-15.3
			c4.8-29.1,31.5-50.2,60.9-47.8c1.4,0.1,2.7-0.7,3.2-2.1c11.3-30.3,42.7-48.5,74.7-43.3c14.5,2.4,27.7,9.3,38,20
			c0.6,0.7,1.5,1,2.4,1c0.9,0,1.8-0.5,2.3-1.2c26.2-33.8,68.6-50.5,110.7-43.6c37.7,6.1,70,30.4,86.4,65c0.4,0.8,1.1,1.4,1.9,1.7
			s1.7,0.2,2.5-0.2c18-9.7,38.3-13.1,58.5-9.8c1.7,0.3,3.4-0.9,3.6-2.6s-0.9-3.4-2.6-3.6c-20.5-3.3-41.1-0.2-59.6,9
			c-17.7-34.9-51-59.3-89.6-65.5c-43.2-7-86.8,9.5-114.5,43.2c-10.8-10.2-24.2-16.9-39-19.3c-34.2-5.6-67.8,13.4-80.8,45.2
			c-31.7-1.3-60.2,21.7-65.3,53.3c-0.9,5.6-1.1,11.4-0.5,17C876.3,742.3,877.7,743.5,879.3,743.5z"/>
	</g>
	<g>
		<path class="st43" d="M796.8,982.5c0.8,0,1.7-0.3,2.3-1c1.2-1.2,1.2-3.3,0-4.5c-15.9-15.5-23.2-37.8-19.7-59.6
			c4.8-29.4,27.8-52.1,57.3-56.4c1.1-0.2,2-0.8,2.4-1.8s0.4-2.1-0.2-3c-7.7-11.9-10.6-26.1-8.3-40c4.5-27.5,28.7-48,56.5-48
			c0.2,0,0.4,0,0.6,0c0,0,0,0,0,0c1.7,0,3.2-1.4,3.2-3.1c0-1.8-1.4-3.2-3.1-3.2c-0.2,0-0.5,0-0.7,0c-30.9,0-57.8,22.8-62.7,53.3
			c-2.3,13.9,0.2,28.1,6.9,40.4c-30,6.3-53.1,30.2-58.1,60.8c-3.9,23.8,4.2,48.2,21.5,65.2C795.2,982.2,796,982.5,796.8,982.5z"/>
	</g>
	<g>
		<path class="st43" d="M890,1168.3c9.3,0,18.6-2.1,27.1-6.1c1.6-0.8,2.3-2.6,1.5-4.2c-0.8-1.6-2.6-2.3-4.2-1.5
			c-10.5,5-22.2,6.6-33.7,4.8c-31.2-5.1-52.4-34.5-47.3-65.7c0.1-0.6,0.2-1.3,0.4-1.9l0.2-1c0.3-1.4-0.4-2.9-1.8-3.5
			c-30.6-14.4-48.2-47.8-42.7-81.2c0.3-1.7-0.9-3.4-2.6-3.6c-1.8-0.3-3.4,0.9-3.6,2.6c-5.8,35.3,12.3,70.6,44,86.8
			c0,0.3-0.1,0.5-0.2,0.8c-5.6,34.6,17.9,67.3,52.5,73C883.2,1168,886.6,1168.3,890,1168.3z"/>
	</g>
	<g>
		<path class="st43" d="M1150.3,841.2c1.4,0,2.7-1,3.1-2.4l31.2-119.9c0.4-1.7-0.6-3.4-2.3-3.9c-1.7-0.4-3.4,0.6-3.9,2.3
			l-31.2,119.9c-0.4,1.7,0.6,3.4,2.3,3.9C1149.8,841.2,1150,841.2,1150.3,841.2z"/>
	</g>
	<g>
		<path class="st43" d="M1068.9,848.2c0.3,0,0.7,0,1-0.2c1.7-0.5,2.6-2.3,2-4l-52.7-161.1c-0.5-1.7-2.3-2.6-4-2s-2.6,2.3-2,4
			l52.7,161.1C1066.3,847.3,1067.5,848.2,1068.9,848.2z"/>
	</g>
	<g>
		<path class="st43" d="M1166.3,782.9c0.5,0,1.1-0.1,1.6-0.4c7.2-4.2,70.9-41.7,76-46.7c1.2-1.2,1.2-3.2,0-4.5s-3.2-1.2-4.5,0
			c-3.3,3.3-47.6,29.8-74.7,45.7c-1.5,0.9-2,2.8-1.1,4.3C1164.2,782.4,1165.2,782.9,1166.3,782.9z"/>
	</g>
	<g>
		<path class="st43" d="M1030,1032.7c0.8,0,1.6-0.3,2.2-0.9c1.3-1.2,1.3-3.2,0.1-4.5L901,887.4c-1.2-1.3-3.2-1.3-4.5-0.1
			c-1.3,1.2-1.3,3.2-0.1,4.5l131.2,140C1028.3,1032.4,1029.1,1032.7,1030,1032.7z"/>
	</g>
	<g>
		<path class="st43" d="M966.7,965.3c0.2,0,0.5,0,0.7-0.1c1.7-0.4,2.8-2.1,2.4-3.8l-22.9-106.3c-0.4-1.7-2.1-2.8-3.8-2.4
			s-2.8,2.1-2.4,3.8l22.9,106.3C963.9,964.2,965.2,965.3,966.7,965.3z"/>
	</g>
</g>
<g>
	<g>
		<path class="st43" d="M356.5,1155.7c16,0,31.5-5.7,43.9-16.5c1.3-1.1,1.5-3.1,0.3-4.4c-1.1-1.3-3.1-1.5-4.5-0.3
			c-14,12.2-32.6,17.2-50.8,13.9c-9.2-1.7-17.6-5.3-25.1-10.8c-1.4-1-3.3-0.7-4.4,0.6c-2.8,3.6-5.9,7-9.2,9.9
			c-1.3,1.2-1.4,3.1-0.3,4.4c1.1,1.3,3.1,1.4,4.5,0.3c2.9-2.5,5.6-5.4,8.1-8.4c7.6,5.1,16.1,8.5,25.2,10.2
			C348.4,1155.3,352.4,1155.7,356.5,1155.7z"/>
	</g>
	<g>
		<path class="st43" d="M250.3,1170.7c1.5,0,2.9-1.1,3.1-2.7c0.3-1.7-0.9-3.3-2.6-3.6c-16-2.4-30.6-10.5-41.3-22.6
			c-9.4-10.7-15.2-23.8-16.7-38c-0.1-1.1-0.8-2.1-1.8-2.5c-1-0.5-2.2-0.3-3.1,0.3c-14.2,9.9-33,9.6-46.8-0.9
			c-8.5-6.4-13.9-15.7-15.4-26.3c-1.4-10.5,1.3-21,7.7-29.4c4.4-5.8,10.3-10.3,17.2-13c0.8-0.3,1.4-0.9,1.7-1.7
			c0.3-0.8,0.4-1.6,0-2.4c-4.3-10.8-5.3-22.5-2.9-33.8s8.2-21.5,16.7-29.6c1.3-1.2,1.3-3.2,0.1-4.5s-3.2-1.3-4.5-0.1
			c-9.4,9-15.8,20.3-18.5,32.8c-2.5,11.5-1.8,23.4,2.1,34.6c-6.7,3.2-12.6,7.9-17.1,13.8c-7.4,9.8-10.6,21.9-8.9,34.1
			s8,23,17.8,30.4c14.7,11.1,34.2,12.4,50,3.7c2.4,13.6,8.4,26.1,17.6,36.6c11.7,13.3,27.7,22.1,45.1,24.7
			C249.9,1170.7,250.1,1170.7,250.3,1170.7z"/>
	</g>
	<g>
		<path class="st43" d="M138.8,955.5c0.9,0,1.9-0.4,2.5-1.2c1.1-1.4,0.8-3.4-0.6-4.4c-10-7.6-16.5-18.7-18.2-31.2
			c-1.7-12.5,1.5-24.9,9.1-34.9c9.4-12.3,24.2-19.3,39.8-18.6c1.2,0.1,2.4-0.7,3-1.8c0.6-1.1,0.4-2.5-0.5-3.5
			c-0.7-0.8-1.6-1.8-2.4-2.8c-14.4-19.3-10.4-46.7,8.9-61c12.7-9.5,29.6-11.3,44.1-4.7c1.3,0.6,2.9,0.2,3.8-0.9
			c0.9-1.2,0.9-2.8,0-3.9c-4.3-5.4-7.4-11.5-9.3-18.2c-3.7-13.1-2-26.9,4.7-38.7c6.7-11.9,17.6-20.4,30.7-24.1
			c13.1-3.7,26.9-2,38.8,4.7c11.9,6.7,20.4,17.6,24.1,30.7c2.2,8,2.5,16.6,0.7,24.7c-0.4,1.7,0.7,3.4,2.4,3.8
			c1.7,0.4,3.4-0.7,3.8-2.4c2-9.1,1.8-18.7-0.8-27.8c-8.5-30.4-40.2-48.3-70.6-39.8c-14.7,4.1-27,13.7-34.5,27.1s-9.4,28.8-5.3,43.5
			c1.2,4.4,2.9,8.5,5.1,12.4c-14.2-3.4-29.4-0.4-41.3,8.5c-21.4,16-26.4,46-11.6,68c-15.2,1.2-29.2,8.7-38.6,21
			c-8.6,11.4-12.3,25.4-10.4,39.6s9.3,26.7,20.7,35.3C137.4,955.3,138.1,955.5,138.8,955.5z"/>
	</g>
	<g>
		<path class="st43" d="M456,959.7c1.1,0,2.1-0.5,2.7-1.5c7.9-13.3,10.9-28.5,8.6-42.8c-5.1-31.8-33.4-54.2-64.8-52.8
			c9.4-12.1,14.3-27,13.8-42.6c-0.6-17.7-8-34.1-20.9-46.2c-12.9-12.1-29.7-18.4-47.4-17.9c-1.7,0.1-3.1,1.5-3,3.3
			c0.1,1.7,1.5,3,3.1,3c0,0,0.1,0,0.1,0c16-0.5,31.2,5.2,42.9,16.2s18.4,25.8,18.9,41.8c0.5,16.6-5.7,32.3-17.5,44.2
			c-1,1-1.2,2.5-0.6,3.7c0.6,1.2,2,1.9,3.4,1.6c0.2,0,0.4-0.1,0.6-0.1c0.1,0,0.2,0,0.3-0.1c30.8-5,59.9,16,64.9,46.8
			c2.1,12.9-0.7,26.6-7.8,38.6c-0.9,1.5-0.4,3.4,1.1,4.3C454.9,959.6,455.5,959.7,456,959.7z"/>
	</g>
	<g>
		<path class="st43" d="M276,1222.3c1.7,0,3.1-1.4,3.1-3.2V805.8c0-1.7-1.4-3.2-3.1-3.2s-3.1,1.4-3.1,3.2v413.4
			C272.9,1220.9,274.3,1222.3,276,1222.3z"/>
	</g>
	<g>
		<path class="st43" d="M244.9,952.2c0.9,0,1.8-0.4,2.4-1.1c1.1-1.3,1-3.3-0.4-4.5l-54.7-46.3c-1.3-1.1-3.3-1-4.4,0.4
			c-1.1,1.3-1,3.3,0.4,4.4l54.7,46.3C243.5,952,244.2,952.2,244.9,952.2z"/>
	</g>
	<g>
		<path class="st43" d="M278.8,1062.6c0.9,0,1.8-0.4,2.4-1.1l108.5-125c1.1-1.3,1-3.3-0.3-4.5s-3.3-1-4.5,0.3l-108.5,125
			c-1.1,1.3-1,3.3,0.3,4.4C277.3,1062.4,278,1062.6,278.8,1062.6z"/>
	</g>
</g>
<g>
	<g>
		<path class="st43" d="M1086.5,1250.7c0.4,0,0.8-0.1,1.2-0.2c1.6-0.7,2.4-2.5,1.8-4.1c-4.3-10.8-5.3-22.5-2.9-33.8
			s8.2-21.5,16.7-29.6c1.3-1.2,1.3-3.2,0.1-4.5c-1.2-1.3-3.2-1.3-4.5-0.1c-9.4,8.9-15.8,20.3-18.5,32.8c-2.7,12.5-1.6,25.5,3.2,37.5
			C1084.1,1249.9,1085.3,1250.7,1086.5,1250.7z"/>
	</g>
	<g>
		<path class="st43" d="M1076,1174c0.9,0,1.9-0.4,2.5-1.2c1.1-1.4,0.8-3.4-0.6-4.4c-10-7.6-16.5-18.7-18.2-31.2s1.5-24.9,9.1-34.9
			c9.4-12.3,24.2-19.3,39.8-18.6c1.3,0.1,2.4-0.7,3-1.8s0.3-2.5-0.5-3.4c-0.7-0.8-1.6-1.8-2.3-2.8c-7-9.3-9.9-20.8-8.2-32.4
			c1.7-11.5,7.8-21.7,17.1-28.7c12.7-9.5,29.6-11.3,44.1-4.7c1.6,0.7,3.5,0,4.2-1.6c0.7-1.6,0-3.5-1.6-4.2
			c-16.6-7.5-35.9-5.4-50.4,5.4c-10.7,8-17.6,19.6-19.6,32.8c-1.8,12.4,1,24.8,8,35.2c-15.2,1.2-29.2,8.7-38.5,21
			c-8.6,11.4-12.3,25.4-10.4,39.6c1.9,14.2,9.3,26.7,20.7,35.3C1074.7,1173.8,1075.3,1174,1076,1174z"/>
	</g>
	<g>
		<path class="st43" d="M1153.2,990.8c0.3,0,0.6,0,0.8-0.1c1.7-0.5,2.7-2.2,2.2-3.9c-7.6-27.1,8.3-55.3,35.4-62.8
			c7-2,14.1-2.4,21.2-1.3c1.7,0.3,3.3-0.9,3.6-2.7c0.3-1.7-0.9-3.3-2.7-3.6c-8-1.2-16-0.7-23.9,1.5c-14.7,4.1-27,13.7-34.5,27.1
			c-7.5,13.3-9.4,28.8-5.3,43.5C1150.5,989.9,1151.8,990.8,1153.2,990.8z"/>
	</g>
</g>
<g>
	<g>
		<path class="st44" d="M582.2,1340.9c34.3-3.2,66-3.2,100.2,0c10.1,51.2-3,105.9-20.4,159.2c-20,1.1-39.5,1.1-59.5,0
			C585.2,1446.9,572.1,1392.2,582.2,1340.9z"/>
		<path class="st48" d="M594.8,1339.9c29.5-2.1,57.5-1.7,87.5,1c10.1,51.2-3,105.9-20.4,159.2c-15.8,0.9-31.3,1.1-47,0.6
			C602,1447.2,588.5,1391.9,594.8,1339.9z"/>
		<g>
			<path class="st43" d="M632.3,1503.3c-9.9,0-19.8-0.3-29.9-0.9c-1-0.1-1.8-0.7-2.1-1.6c-16-49.3-31-106.9-20.4-160.4
				c0.2-1,1-1.8,2.1-1.9c34.3-3.2,66.3-3.2,100.6,0c1,0.1,1.9,0.8,2.1,1.9c10.5,53.5-4.4,111.1-20.4,160.4c-0.3,0.9-1.1,1.5-2.1,1.6
				C652.1,1503,642.2,1503.3,632.3,1503.3z M604.2,1497.9c18.8,1,37.2,1,56.1,0c15.5-47.8,29.7-103.4,20.1-154.8
				c-32.8-2.9-63.5-2.9-96.3,0C574.5,1394.5,588.8,1450.1,604.2,1497.9z"/>
		</g>
	</g>
	<path class="st50" d="M682.7,1341.4c0,3.1-22.6,5.7-50.5,5.7s-50.5-2.5-50.5-5.7s22.6-5.7,50.5-5.7S682.7,1338.3,682.7,1341.4z"/>
	<g>
		<path class="st43" d="M632.2,1349.4c-13.6,0-26.3-0.6-36-1.7c-14.1-1.6-16.8-3.5-16.8-6.3s2.8-4.7,16.8-6.3
			c9.6-1.1,22.4-1.7,36-1.7c13.6,0,26.3,0.6,36,1.7c14.1,1.6,16.8,3.5,16.8,6.3s-2.8,4.7-16.8,6.3
			C658.6,1348.8,645.8,1349.4,632.2,1349.4z M586.3,1341.4c6.3,1.6,22.7,3.3,46,3.3s39.7-1.7,46-3.3c-6.3-1.6-22.7-3.3-46-3.3
			C608.9,1338.1,592.5,1339.8,586.3,1341.4z M680.8,1342.4L680.8,1342.4L680.8,1342.4z"/>
	</g>
	<g>
		<g>
			<path class="st43" d="M628.3,1349.2c-2,0-3.8-1.5-4.2-3.6c-0.2-1.4-5.5-34.1,13.6-58.2c15-18.9,3.6-29.5-17.8-46.7
				c-11-8.8-22.3-17.9-28-29.6c-15.9-32.3,4.4-58.2,26.4-79.3c20.5-19.7,12.6-29-4.8-49.5c-1.6-1.9-3.2-3.8-4.9-5.8
				c-17.8-21.4-3.9-48.1,5.9-59.2c1.6-1.8,4.2-1.9,6-0.4s1.9,4.2,0.4,6c-0.1,0.1-6.1,7-9.7,16.6c-4.6,12.1-3.2,22.7,4,31.5
				c1.7,2,3.3,3.9,4.8,5.8c17,20.1,30.4,36,4.2,61.2c-20.7,19.9-38,42.1-24.6,69.4c4.9,10,15.5,18.5,25.7,26.7
				c18.8,15.1,40.1,32.2,19.1,58.6c-16.7,21.1-11.9,51.2-11.9,51.5c0.4,2.3-1.2,4.5-3.5,4.9C628.7,1349.1,628.5,1349.2,628.3,1349.2
				z"/>
		</g>
		<g>
			<path class="st43" d="M590.2,1181.8c-1.6,0-2.9-1.2-3-2.9c-1.6-25.6-10.4-44.2-27.7-58.5c-15.6-12.9-32.1-14.6-32.3-14.6
				c-1.7-0.2-2.9-1.6-2.8-3.3s1.6-2.9,3.3-2.8c0.8,0.1,18.5,1.8,35.6,15.9c18.7,15.4,28.2,35.4,29.9,62.8c0.1,1.7-1.2,3.1-2.8,3.2
				C590.3,1181.8,590.2,1181.8,590.2,1181.8z"/>
		</g>
		<g>
			<path class="st43" d="M628.1,1246.2c-1.1,0-2.2-0.6-2.7-1.6c-0.2-0.4-4.7-9.1-6.5-20c-2.5-15,1.4-26.7,11.2-33.9
				c6.4-4.7,13.2-5.4,19.8-6.1c10.5-1.1,20.4-2.1,29.8-19.1c0.8-1.5,2.7-2,4.1-1.2c1.5,0.8,2,2.7,1.2,4.1
				c-10.9,19.8-23.4,21.1-34.5,22.2c-6.1,0.6-11.8,1.2-16.9,4.9c-19.3,14.1-3,45.8-2.9,46.1c0.8,1.5,0.2,3.3-1.3,4.1
				C629.1,1246.1,628.6,1246.2,628.1,1246.2z"/>
		</g>
		<g>
			<path class="st44" d="M619,1022.2c0,0,52.8-138.6,61-153.5c8.2-14.9-36.4,38.3-36.4,38.3s-26.9,33.3-26.1,46.5
				c0.8,13.3-15.4,25.6-24.5,48.9C583.9,1025.7,619,1022.2,619,1022.2z"/>
			<path class="st45" d="M619,1022.2c0,0,52.8-138.6,61-153.5c8.2-14.9-29.1,42.3-29.1,42.3s-26.9,33.3-26.1,46.5
				c0.8,13.3-15.4,25.6-24.5,48.9C591.2,1029.6,619,1022.2,619,1022.2z"/>
			<g>
				<path class="st43" d="M614.4,1024.7c-6.5,0-17.8-1-22.7-7.6c-3-4-3.3-9.2-0.8-15.5c4.2-10.7,9.8-19,14.7-26.3
					c5.6-8.4,10.1-15.1,9.7-21.6c-0.8-13.8,23.8-44.6,26.6-48.1c36.8-43.9,38.4-42.8,40.5-41.4c2.1,1.4,0.7,4.1-0.2,5.6
					c-2,3.6-8.2,17.7-26.5,64.2c-0.5,1.2-1.8,1.8-3,1.3c-1.2-0.5-1.8-1.8-1.3-3c10.9-27.8,18.7-47,23.2-57.2
					c-7.3,7.8-18.8,21.1-29.1,33.4c-7.3,9-26.1,34.8-25.5,44.9c0.5,8.1-4.4,15.3-10.5,24.4c-4.8,7.1-10.2,15.2-14.2,25.5
					c-1.8,4.7-1.8,8.4,0.2,11.1c4.2,5.5,16.2,6,22,5.7c1.8-4.7,8.1-21.1,16-41.6c0.5-1.2,1.8-1.8,3-1.3s1.8,1.8,1.3,3
					c-9.4,24.3-16.5,42.9-16.5,42.9c-0.3,0.8-1.1,1.4-1.9,1.5C619,1024.5,617.1,1024.7,614.4,1024.7z"/>
			</g>
		</g>
		<g>
			<path class="st44" d="M550.5,1038.5c-0.4,8.2-2.1,15.5-4.9,21.9c-1.7,3.9-7.5,2.8-7.7-1.5c-0.4-14.1-4.3-29.6-14.8-42.5
				c-11.5-14.2-22.6-15.8-23.3-6.1c5.6,11.4,6.3,21.9,4.3,31.1c-0.9,4-6.5,4.2-7.7,0.3c-4.7-14.8-15.7-30.5-29.8-41.5
				c-14.5-11.2-24.6-7-23.1,2.6c3.4,7.5,9.6,17,13.5,25.4c1.7,3.7-2.5,7.2-5.9,5c-11.1-7.5-24.6-16.9-34.5-20.8
				c-9.6-3.7-17.9,1.9-21,8.1c-3.9,5.7-4.9,15.7,3,22.3c8.1,6.9,22.8,14.1,34.8,20.3c3.6,1.8,2.5,7.3-1.5,7.5
				c-9.2,0.6-20.5-0.3-28.7,0.4c-9.2,3.3-8,14.2,8.8,21.5c16.4,7.1,35.4,9.2,50.7,6.2c4-0.8,6.5,4.2,3.4,6.9
				c-7.1,6.2-16.7,10.5-29.4,11.1c-8.2,5.3-1.4,14.2,16.6,17.5c16.3,3,31.8-1.1,44.4-7.4c3.8-1.9,7.6,2.6,5,6
				c-4.3,5.6-9.9,10.6-16.9,14.9c-6.7,7.1-4.2,12.3,14.1,11.2c28.6-1.6,50.3-19.6,58.4-42.2c15.9-17.9,21.2-45.6,8.9-71.5
				C559.3,1028.9,553.5,1029.2,550.5,1038.5z"/>
			<path class="st45" d="M556.7,1045.6c-1.5,8.1-1.9,15-5.8,20.9c-3.6,5.6-12.8-3.3-13-7.6c-0.4-14.1-4.3-29.6-14.8-42.5
				c-11.5-14.2-18.9-13.3-15.1-4.3c5.6,13.3,7.6,22.3,4.3,31.1c-2.8,7.3-14.6,2.4-15.9-1.4c-4.7-14.8-15.7-30.5-29.8-41.5
				c-14.5-11.2-15.6-4.5-12.8,4.8c2.4,7.9,13.5,25.4,13.5,25.4s-12.8,5-16.2,2.7c-11.1-7.5-18.1-13.9-28-17.8
				c-9.6-3.7-18.4,2.9-20.8,9.4c-2.7,7.2-0.5,10.7,7.3,17.4c8.1,6.9,24.6,12.7,36.1,19.8c7.6,4.7-9.9,8.4-13.9,8.7
				c-9.2,0.6-12.1,0.7-20.4,1.3c-9.2,3.3-8,14.2,8.8,21.5c16.4,7.1,27.1,8.3,42.3,5.3c4-0.8,21,2.2,16.3,8.5
				c-5.6,7.5-15.5,14.7-31.3,17c-9.6,1.4-12.4,6.7,5.6,10c16.3,3,31.8-1.1,44.4-7.4c3.8-1.9,15.1-4.7,14.6,2.1
				c-0.4,6.2-5.1,11-15.1,19.6c-7.4,6.4-15.6,11.4,2.7,10.4c28.6-1.6,50.3-19.6,58.4-42.2c15.9-17.9,21.2-45.6,8.9-71.5
				C559.3,1028.9,558.4,1036,556.7,1045.6z"/>
			<g>
				<path class="st43" d="M448.3,1102.5c-12.6,0-25.9-2.7-37.3-7.7c-10.1-4.4-16.1-10.8-15.9-17c0.1-4,2.8-7.2,7.2-8.8
					c0.2-0.1,0.4-0.1,0.6-0.1c4.2-0.3,9.1-0.3,14.3-0.2c1.4,0,2.8,0,4.1,0.1c1.3,0,2.3,1.1,2.3,2.3c0,1.3-1,2.3-2.3,2.3c0,0,0,0,0,0
					c-1.4,0-2.8,0-4.2-0.1c-4.9-0.1-9.6-0.1-13.5,0.2c-1.5,0.6-3.8,1.9-3.9,4.5c-0.1,3.1,3.3,8.3,13.1,12.6
					c10.9,4.8,23.5,7.4,35.5,7.4c0.1,0,0.4,0,0.5,0c1.3,0,2.3,1,2.3,2.3c0,1.3-1,2.3-2.3,2.3
					C448.6,1102.5,448.5,1102.5,448.3,1102.5z"/>
			</g>
			<g>
				<path class="st43" d="M495.4,1161.5c-8.5,0-13.4-1.7-14.9-5.1c-1.3-2.9-0.1-6.3,3.5-10.2c0.1-0.2,0.3-0.3,0.5-0.4
					c6.5-4,12-8.8,16.3-14.3c0.8-1,0.2-1.9,0-2.1c-0.2-0.2-0.9-1-2.1-0.4c-9.9,5-20,7.9-30.1,8.6c-1.3,0.1-2.4-0.9-2.5-2.2
					c-0.1-1.3,0.9-2.4,2.2-2.4c9.4-0.6,18.9-3.3,28.3-8.1c2.7-1.4,5.8-0.7,7.7,1.6c1.9,2.3,2,5.5,0.1,7.9
					c-4.6,5.9-10.4,11-17.2,15.3c-2.3,2.5-2.8,4.1-2.5,4.8c0.1,0.3,1.8,3.1,14.9,2.3c25.9-1.5,48.1-17.4,56.4-40.6
					c0.4-1.2,1.8-1.8,3-1.4c1.2,0.4,1.8,1.8,1.4,3c-8.9,24.9-32.7,42.1-60.5,43.7C498.3,1161.5,496.8,1161.5,495.4,1161.5z"/>
			</g>
			<g>
				<path class="st43" d="M453.2,1136.7c-0.1,0-0.3,0-0.4,0c-12.2-2.2-20.6-7.3-21.8-13.2c-0.4-1.9-0.3-5.5,4.4-8.5
					c0.3-0.2,0.7-0.3,1.1-0.4c11.1-0.5,20.5-4.1,27.9-10.6c0.9-0.8,0.5-1.7,0.4-2s-0.7-1.2-1.8-0.9c-1.2,0.2-2.5-0.6-2.7-1.8
					c-0.2-1.2,0.6-2.5,1.8-2.7c2.9-0.6,5.6,0.8,6.9,3.4c1.3,2.6,0.6,5.6-1.5,7.5c-8.1,7.1-18.2,11-30.1,11.7
					c-1.5,1.1-2.1,2.2-1.9,3.4c0.6,3.1,6.5,7.5,18,9.6c1.3,0.2,2.1,1.4,1.9,2.7C455.3,1135.9,454.3,1136.7,453.2,1136.7z"/>
			</g>
			<g>
				<path class="st43" d="M431.9,1073.1c-1.2,0-2.2-0.9-2.3-2.2c-0.1-1.3,0.9-2.4,2.1-2.5c1.2-0.1,1.5-1,1.5-1.3
					c0.1-0.3,0.2-1.3-0.9-1.8l-3.5-1.8c-11.3-5.8-24.1-12.4-31.7-18.8c-8.5-7.2-8.1-18.3-3.5-25.3c3.9-7.4,13.5-13.1,23.8-9.1
					c5.1,2,11.6,5.5,20.4,11.2c1.1,0.7,1.4,2.1,0.7,3.2c-0.7,1.1-2.1,1.4-3.2,0.7c-8.5-5.5-14.7-8.9-19.5-10.8
					c-8.9-3.4-15.8,2.5-18.1,7c0,0.1-0.1,0.2-0.1,0.2c-2.9,4.2-4.7,13.1,2.6,19.3c7.1,6,19.7,12.5,30.8,18.2l3.5,1.8
					c2.5,1.3,3.9,4.1,3.3,6.9c-0.6,2.8-2.9,4.8-5.7,5C432,1073.1,431.9,1073.1,431.9,1073.1z"/>
			</g>
			<g>
				<path class="st43" d="M453.4,1036.3c-1.2,0-2.5-0.4-3.5-1.1c-1.1-0.7-1.3-2.2-0.6-3.2c0.7-1.1,2.1-1.3,3.2-0.6
					c1,0.7,1.8,0.1,2-0.1c0.2-0.2,0.9-0.9,0.4-2c-1.9-4.1-4.4-8.5-6.8-12.8c-2.5-4.5-4.9-8.7-6.7-12.6c-0.1-0.2-0.1-0.4-0.2-0.6
					c-0.8-4.7,0.8-8.5,4.2-10.5c5.4-3.2,13.8-1,22.5,5.8c9.5,7.3,18,17.2,24,27.7c0.6,1.1,0.2,2.5-0.9,3.2s-2.5,0.2-3.1-0.9
					c-5.7-10-13.8-19.4-22.8-26.4c-8.5-6.6-14.7-7-17.4-5.4c-2.2,1.3-2.3,3.9-2,5.5c1.6,3.6,3.9,7.7,6.4,12c2.5,4.3,5,8.8,7,13.1
					c1.2,2.6,0.5,5.6-1.6,7.4C456.3,1035.8,454.9,1036.3,453.4,1036.3z"/>
			</g>
			<g>
				<path class="st43" d="M500.2,1046.9c-2.8,0-5.2-1.7-6-4.4c-0.4-1.2,0.3-2.5,1.5-2.9c1.2-0.4,2.5,0.3,2.9,1.5
					c0.4,1.2,1.4,1.2,1.7,1.2c0.4,0,1.3-0.2,1.5-1.3c2.1-9.7,0.7-19.6-4.1-29.6c-0.2-0.4-0.3-0.8-0.2-1.2c0.4-5.5,3.5-7.3,5.4-7.9
					c5.8-1.8,14.2,3.1,22.1,12.7c0.8,1,0.7,2.5-0.3,3.2c-1,0.8-2.5,0.7-3.2-0.3c-7.4-9.1-14-12.2-17.1-11.2
					c-1.1,0.4-1.9,1.5-2.1,3.2c5.1,10.7,6.5,21.5,4.2,32c-0.6,2.8-3,4.8-5.9,4.9C500.5,1046.9,500.4,1046.9,500.2,1046.9z"/>
			</g>
			<g>
				<path class="st43" d="M572,1092.5c-0.2,0-0.4,0-0.5-0.1c-1.2-0.3-2-1.6-1.7-2.8c3.5-14.3,1.8-29.3-4.8-43.2
					c-5.6-11.8-8.8-12-9.2-12c-0.7,0.1-2,1.2-3,4.5c-0.4,8.1-2.1,15.6-5.1,22.5c-1.2,2.8-4,4.3-7,3.7c-3-0.6-5-3-5.1-6
					c-0.2-6.6-1.2-13-2.9-19c-0.3-1.2,0.4-2.5,1.6-2.9c1.2-0.3,2.5,0.4,2.9,1.6c1.8,6.3,2.8,13.1,3.1,20.1c0,1.3,1,1.6,1.4,1.6
					s1.4,0.2,1.9-1c2.8-6.4,4.4-13.5,4.7-21.1c0-0.2,0-0.4,0.1-0.6c1.6-5.1,4-7.7,7.2-7.9c4.4-0.3,8.9,4.5,13.7,14.6
					c7.1,14.9,8.8,30.9,5.1,46.2C574,1091.7,573.1,1092.5,572,1092.5z"/>
			</g>
			<g>
				<path class="st43" d="M558.2,1119.2c-0.4,0-0.9-0.1-1.3-0.4l-41.9-27.5c-1.1-0.7-1.4-2.1-0.7-3.2s2.1-1.4,3.2-0.7l41.9,27.5
					c1.1,0.7,1.4,2.1,0.7,3.2C559.7,1118.9,558.9,1119.2,558.2,1119.2z"/>
			</g>
			<g>
				<path class="st43" d="M490.7,1076.5c-0.4,0-0.8-0.1-1.1-0.3l-75.1-43.4c-1.1-0.6-1.5-2.1-0.9-3.2c0.6-1.1,2-1.5,3.2-0.8
					l75.1,43.4c1.1,0.6,1.5,2.1,0.9,3.2C492.3,1076.1,491.5,1076.5,490.7,1076.5z"/>
			</g>
		</g>
		<g>
			<g>
				<path class="st43" d="M632.2,1106c-0.7,0-1.3-0.2-1.9-0.7c-1.3-1-1.6-3-0.5-4.3l54-68.9c1-1.3,3-1.6,4.3-0.5
					c1.3,1,1.6,3,0.5,4.3l-54,68.9C634,1105.6,633.2,1106,632.2,1106z"/>
			</g>
			<path class="st44" d="M752.2,1056.5c-7.4-2.2-13.8-5.4-19.1-9.4c-3.2-2.5-0.9-7.6,3.1-6.7c13,2.8,28.2,2.6,42.4-4.1
				c15.6-7.4,19.6-17.3,10.8-20.1c-11.7,2.6-21.6,0.9-29.6-3c-3.5-1.7-2.4-6.9,1.4-7.2c14.7-1,31.6-7.6,44.8-18.2
				c13.5-10.8,12-21.1,2.8-21.8c-7.7,1.4-17.7,5-26.3,6.7c-3.7,0.7-6.1-3.9-3.3-6.5c9.4-8.6,21-18.8,26.8-27.1
				c5.5-8,2.2-16.9-2.8-21.1c-4.4-4.9-13.3-8-21.2-2.2c-8.1,6-18.1,17.8-26.4,27.4c-2.5,2.9-7.2,0.7-6.6-3.1
				c1.5-8.7,4.8-18.8,6.1-26.5c-1-9.2-10.1-9.5-21.7,3.3c-9,14.3-16.4,30.5-17.1,45.2c-0.2,3.9-5.3,5-7.1,1.6
				c-4.1-7.9-6-17.7-3.7-29.5c-3-8.7-11.5-3.8-19.8,11.3c-5.1,14.8-6.1,29.5-3.1,42.5c0.9,4-4.1,6.4-6.6,3.2
				c-4.2-5.2-7.5-11.5-9.9-18.8c-5-7.8-10.4-6.6-13.5,10.4c-4.9,26.6,6.8,50.7,25.7,63.1c12.9,18.6,37.2,29.7,63.7,24.2
				C759,1066.7,760.1,1061.3,752.2,1056.5z"/>
			<path class="st45" d="M744.3,1060.6c-7.1-3.1-12.1-4.5-17.3-8.7c-6.1-5,5.2-12.3,9.2-11.5c13,2.8,28.2,2.6,42.4-4.1
				c15.6-7.4,16.5-14.4,7.4-13c-13.5,2.2-21.6,0.9-29.6-3c-10.5-5.1,1-14,4.9-14.3c14.7-1,31.6-7.6,44.8-18.2
				c13.5-10.8,7.1-15.8-1.6-12.8c-7.9,2.7-17.6,6.3-26.3,6.7c-8.4,0.4-1.7-12.9,1.1-15.5c9.4-8.6,15.2-14.9,22.6-21.8
				c12.3-11.5,6.8-22.7,1.4-26.4c-6-4.1-8.3,0.1-18,7.9c-7.8,6.3-22.2,20-31.3,29c-6,6-5.5-11-4.9-14.7c1.2-7.1,1.9-10.2,2.7-15.3
				c0.2-1.1,0.4-2.3,0.6-3.7c-1-9.2-3.5-12.3-13.9,1.5c-10.2,13.4-11.9,23.9-13.9,38.5c-1.2,8.5-6.7,18.9-11.5,13.1
				c-5.7-6.8-8.7-18.1-6.6-30.4c1.5-9.1-4.1-14.4-12.5,0.7c-5.1,14.8-6.1,29.5-3.1,42.5c0.9,4-2.5,13.7-9.1,10.8
				c-5.3-2.4-5.3-2.8-11-13.9c-4.2-8.2-7-16.9-10.2,0.1c-4.9,26.6,3.3,44.9,22.2,57.4c12.9,18.6,32.8,34.3,59.3,28.8
				C759,1066.7,752.7,1064.3,744.3,1060.6z"/>
			<g>
				<path class="st43" d="M794.3,954.7c-0.6,0-1.2-0.2-1.7-0.7c-0.9-0.9-0.9-2.4,0-3.3c5.3-5.2,9-9.4,11.4-12.8
					c5.1-7.3,1.2-15-2.4-18.1c-0.1-0.1-0.1-0.1-0.2-0.2c-3.2-3.5-10.9-7.2-18.1-1.9c-7.1,5.2-15.9,15.3-23.6,24.3l-2.5,2.8
					c-1.8,2.1-4.7,2.7-7.2,1.5c-2.5-1.2-3.9-3.8-3.4-6.5c0.2-1.3,0.5-2.7,0.8-4.1c0.3-1.2,1.5-2,2.8-1.8c1.2,0.3,2,1.5,1.8,2.8
					c-0.3,1.3-0.5,2.6-0.8,3.9c-0.2,1,0.5,1.4,0.8,1.5c0.3,0.2,1.1,0.4,1.7-0.4l2.5-2.8c7.9-9.1,16.8-19.4,24.4-25
					c8.5-6.2,18.8-3.4,24.2,2.5c6,5.2,9.1,15.4,3,24.1c-2.6,3.7-6.4,8-12,13.5C795.4,954.5,794.8,954.7,794.3,954.7z"/>
			</g>
			<g>
				<path class="st43" d="M785.8,1002.2c-0.9,0-1.8-0.5-2.1-1.4c-0.5-1.2,0-2.5,1.2-3c7.1-3,13.9-7,19.7-11.7
					c7.9-6.3,9.7-11.8,8.8-14.6c-0.7-2.2-3-2.9-4.5-3c-3.7,0.7-7.9,1.9-12.4,3.2c-4.5,1.3-9.3,2.6-13.6,3.5
					c-2.7,0.5-5.3-0.8-6.6-3.2c-1.2-2.5-0.7-5.4,1.3-7.3l3.8-3.4c0.9-0.9,2.4-0.8,3.3,0.2c0.9,1,0.8,2.4-0.2,3.3l-3.8,3.4
					c-0.7,0.7-0.5,1.5-0.3,1.8c0.2,0.3,0.6,1,1.6,0.8c4.2-0.8,8.8-2.1,13.3-3.4c4.7-1.3,9.1-2.6,13.1-3.3c0.2,0,0.4,0,0.6,0
					c4.5,0.4,7.7,2.7,8.9,6.3c1.8,5.7-2.1,13-10.4,19.6c-6.1,4.9-13.3,9.1-20.8,12.3C786.4,1002.1,786.1,1002.2,785.8,1002.2z"/>
			</g>
			<g>
				<path class="st43" d="M728.6,1073.9c-20.7,0-40.1-9.5-51.8-26.2c-20.7-13.9-31.1-39.4-26.3-65.2c2-10.6,4.8-16,9-16.8
					c3-0.6,5.9,1.3,8.7,5.5c0.1,0.2,0.2,0.4,0.3,0.5c2.2,6.9,5.4,13,9.5,18.1c0.7,0.8,1.5,0.6,1.8,0.4s1-0.6,0.8-1.7
					c-2.6-11-4.1-27.5,3.2-43.9c4.8-10.8,11.4-17.4,17.1-17.1c1.8,0.1,5.2,1,7,6c0.1,0.4,0.2,0.8,0.1,1.2c-2,10.3-0.8,19.7,3.5,28
					c0.5,0.9,1.3,0.8,1.6,0.8c0.3-0.1,1.1-0.3,1.2-1.4c0.7-15.6,7.3-33,17.5-46.5c6.4-8.4,13.6-12.5,19.3-10.8
					c3.7,1,6.1,4.2,6.5,8.7c0,0.2,0,0.4,0,0.6c-0.5,3-1.3,6.3-2,9.2c-0.3,1.2-1.6,2-2.8,1.7c-1.2-0.3-2-1.6-1.7-2.8
					c0.7-2.6,1.4-5.7,1.8-8.5c-0.2-1.5-0.9-3.8-3.2-4.4c-2.8-0.8-8.3,1.1-14.4,9.2c-9.7,12.8-15.9,29.2-16.6,43.9
					c-0.1,2.8-2,5.1-4.8,5.7c-2.7,0.6-5.4-0.7-6.7-3.1c-4.7-9-6-19.2-4-30.3c-0.6-1.5-1.5-2.3-2.6-2.3c-3-0.2-8.2,4.3-12.7,14.4
					c-6.8,15.3-5.3,30.7-2.9,41c0.7,2.8-0.6,5.6-3.2,6.9c-2.6,1.3-5.6,0.6-7.5-1.7c-4.4-5.5-7.8-12-10.2-19.3
					c-1.7-2.6-3.1-3.4-3.7-3.3c-0.3,0.1-3.1,1-5.4,13.1c-4.4,24.2,5.3,48,24.7,60.8c0.2,0.2,0.5,0.4,0.6,0.6
					c13.2,19.1,37.3,28.2,61.4,23.2c12.1-2.5,12.9-5.4,13-5.7c0.1-0.7-0.7-2-3.4-3.7c-7.3-2.2-13.9-5.4-19.5-9.7
					c-2.3-1.8-3.1-4.8-1.9-7.4s4-4,6.8-3.4c10.3,2.2,25.8,3.3,40.9-3.9c10-4.7,14.3-10.1,14.1-13.1c-0.1-1.1-0.9-1.9-2.4-2.5
					c-11,2.3-21.2,1.2-30.4-3.3c-2.5-1.2-3.8-3.9-3.3-6.6c0.5-2.8,2.8-4.7,5.6-4.9c3.1-0.2,6.4-0.7,9.8-1.5c1.2-0.3,2.5,0.5,2.8,1.8
					c0.3,1.2-0.5,2.5-1.8,2.8c-3.6,0.8-7.1,1.3-10.4,1.5c-1,0.1-1.3,0.9-1.3,1.2c-0.1,0.3-0.1,1.1,0.8,1.6c8.4,4.1,17.8,5,28,2.8
					c0.4-0.1,0.8-0.1,1.2,0.1c5.1,1.6,6,5,6.2,6.8c0.4,5.7-6,12.5-16.7,17.6c-16.3,7.7-32.8,6.6-43.8,4.3c-1.1-0.2-1.5,0.5-1.7,0.8
					c-0.2,0.3-0.4,1.1,0.5,1.8c5.2,4,11.4,7,18.3,9.1c0.2,0.1,0.4,0.1,0.5,0.2c4.3,2.6,6.3,5.5,5.8,8.5c-0.7,4.2-6,7.2-16.6,9.4
					C737.9,1073.4,733.2,1073.9,728.6,1073.9z"/>
			</g>
			<g>
				<path class="st43" d="M720.6,1004.1c-0.6,0-1.2-0.2-1.6-0.7c-0.9-0.9-0.9-2.4,0-3.3l59-58.9c0.9-0.9,2.4-0.9,3.3,0
					s0.9,2.4,0,3.3l-59,58.9C721.8,1003.9,721.2,1004.1,720.6,1004.1z"/>
			</g>
			<g>
				<path class="st43" d="M678.4,1048.3c-0.6,0-1.2-0.2-1.6-0.7c-0.9-0.9-0.9-2.4,0-3.3l22.8-23.2c0.9-0.9,2.4-0.9,3.3,0
					c0.9,0.9,0.9,2.4,0,3.3l-22.8,23.2C679.6,1048.1,679,1048.3,678.4,1048.3z"/>
			</g>
		</g>
		<g>
			<path class="st44" d="M729.4,1211.8c-6-4.2-10.7-8.9-14.3-14.1c-2.2-3.2,1.4-7.1,4.7-5.1c10.9,6.3,24.5,10.7,39.2,8.9
				c16.2-2,22.7-9.7,15.7-14.8c-11.3-1.2-19.6-5.6-25.6-11.4c-2.6-2.6-0.2-6.9,3.4-6c13.5,3.4,30.6,2.5,45.5-3
				c15.3-5.7,17-15.4,8.9-18.7c-7.3-1-17.4-0.8-25.6-1.8c-3.6-0.4-4.3-5.3-1-6.8c11-4.9,24.5-10.6,32-16.3c7.3-5.5,7-14.5,3.8-19.8
				c-2.5-5.7-9.6-11.1-18.3-8.3c-9.1,2.9-21.5,10.6-31.8,16.8c-3.1,1.8-6.7-1.6-5-4.7c3.9-7.3,9.9-15.4,13.3-22
				c1.9-8.5-6.3-11.6-20.5-3.5c-12.3,10.1-23.7,22.5-28.7,35.5c-1.3,3.4-6.3,2.9-6.9-0.7c-1.3-8.3-0.1-17.6,5.4-27.5
				c-0.1-8.7-9.1-6.8-21.1,4.3c-9,11.8-14.2,24.6-15.3,37.2c-0.3,3.8-5.6,4.5-6.9,0.9c-2.2-5.9-3.4-12.5-3.3-19.8
				c-2.2-8.4-7.3-9-15.2,5.4c-12.3,22.4-8.9,47.5,4.4,64.2c6.1,20.5,24.6,37.7,50,40.6C732.5,1223,735,1218.4,729.4,1211.8z"/>
			<path class="st45" d="M721.1,1213.1c-5.4-4.9-9.5-7.6-12.9-12.9c-4-6.3,8.3-9.5,11.7-7.6c10.9,6.3,24.5,10.7,39.2,8.9
				c16.2-2,19-8.1,10.4-9.4c-12.7-2-19.6-5.5-25.6-11.4c-7.9-7.7,5.1-12.3,8.6-11.4c13.5,3.4,30.6,2.5,45.5-3c15.3-5.7,11-12,2.3-12
				c-7.9,0.1-17.6,0.4-25.6-1.8c-7.7-2.1,2.3-12.1,5.6-13.6c11-4.9,18.1-8.9,26.7-12.8c14.5-6.7,12.9-18.4,9.1-23.3
				c-4.2-5.5-7.5-2.4-18.5,1.7c-8.9,3.3-25.9,11.3-36.6,16.7c-7.2,3.6-1.7-11.5,0-14.7c3.9-7.3,5.2-9.5,8.7-16.1
				c1.9-8.5,0.5-12.1-12.9-2.8c-13.1,9-17.8,17.9-23.9,30.4c-3.6,7.3-11.6,14.9-14.2,8.3c-3.1-7.8-2.4-18.8,3.1-29.2
				c4-7.7,0.6-14.1-11.4-3c-9,11.8-14.2,24.6-15.3,37.2c-0.3,3.8-6.3,11.6-11.3,6.9c-4.1-3.7-3.9-4.1-5.8-15.7
				c-1.3-8.6-1.3-17.2-9.2-2.9c-12.3,22.4-10.4,41.3,2.9,58c6.1,20.5,19.2,40.5,44.7,43.4C732.5,1223,727.5,1218.9,721.1,1213.1z"/>
			<g>
				<path class="st43" d="M722.8,1223.8c-2,0-4.3-0.2-6.8-0.4c-24.7-2.8-45-19.2-51.8-41.8c-14.5-18.6-16.2-44.6-4.3-66.4
					c4.9-9,9.1-13,13.2-12.5c2.9,0.4,5,2.9,6.2,7.6c0,0.2,0.1,0.4,0.1,0.6c-0.1,6.8,1,13.2,3.1,19c0.3,0.9,1,0.9,1.4,0.8
					c0.3,0,1-0.2,1.1-1.2c0.9-10.6,4.4-25.9,15.9-38.5c7.6-8.3,15.5-12.3,20.6-10.3c1.7,0.6,4.5,2.4,4.5,7.6c0,0.4-0.1,0.8-0.3,1.2
					c-4.8,8.6-6.5,17.4-5.2,26c0.1,0.8,0.8,1,1.1,1c0.3,0,1,0,1.3-0.8c5.3-13.8,16.3-27.5,29.5-36.6c8.2-5.7,16-7.2,20.7-4
					c3,2.1,4.3,5.7,3.3,9.9c0,0.2-0.1,0.4-0.2,0.6c-1.8,3.4-4.1,7.1-6.6,10.9c-2.4,3.7-4.8,7.5-6.7,11.1c-0.4,0.7,0,1.3,0.2,1.5
					c0.2,0.2,0.8,0.6,1.5,0.2l3-1.8c9.8-5.8,20.8-12.5,29.3-15.2c9.6-3.1,18,2.5,21.1,9.4c3.8,6.5,3.6,16.6-4.5,22.7
					c-1,0.8-2.5,0.6-3.2-0.5s-0.6-2.5,0.5-3.2c6.7-5,5.5-12.9,3.2-16.7c0-0.1-0.1-0.2-0.1-0.3c-1.8-4.1-7.6-9.6-15.5-7
					c-7.9,2.6-18.8,9-28.3,14.8l-3,1.8c-2.3,1.4-5.1,1-7.1-0.8c-1.9-1.8-2.4-4.7-1.1-7c2-3.7,4.5-7.6,6.9-11.4
					c2.4-3.7,4.6-7.2,6.2-10.3c0.2-1.4,0.3-3.6-1.5-4.8c-2.3-1.5-7.7-1.4-15.5,4c-12.5,8.6-22.9,21.4-27.8,34.4
					c-1,2.5-3.4,4-6.1,3.8c-2.7-0.3-4.8-2.2-5.2-4.9c-1.5-9.5,0.3-19.1,5.4-28.4c-0.1-1.5-0.6-2.4-1.5-2.7
					c-2.2-0.8-8.1,0.9-15.5,9.1c-10.6,11.7-13.9,25.9-14.7,35.8c-0.2,2.8-2.3,5-5.1,5.3c-2.8,0.4-5.3-1.2-6.3-3.8
					c-2.3-6.3-3.5-13.1-3.4-20.3c-0.8-3-1.8-3.9-2.3-3.9c-0.1,0-2.9-0.2-8.6,10.1c-11.1,20.3-9.5,44.5,4.1,61.7
					c0.2,0.2,0.3,0.5,0.4,0.8c6.2,21,25.1,36.3,48,38.9c11.7,1.3,13.1-1.1,13.2-1.2c0.2-0.4,0.1-1.7-1.9-4.1
					c-5.9-4.1-10.9-9-14.7-14.5c-1.6-2.3-1.4-5.3,0.5-7.3c1.9-2.1,4.8-2.5,7.3-1.1c4.2,2.4,8.6,4.4,13,5.9c1.2,0.4,1.9,1.7,1.5,2.9
					c-0.4,1.2-1.7,1.9-2.9,1.5c-4.7-1.6-9.3-3.7-13.8-6.3c-0.8-0.5-1.4,0-1.6,0.2s-0.6,0.8-0.1,1.6c3.5,5.1,8.1,9.7,13.7,13.5
					c0.2,0.1,0.3,0.2,0.5,0.4c3.2,3.7,4,6.9,2.7,9.5C732.4,1222.5,728.8,1223.8,722.8,1223.8z"/>
			</g>
			<g>
				<path class="st43" d="M798,1168.6c-0.9,0-1.8-0.6-2.2-1.5c-0.4-1.2,0.2-2.5,1.4-3c8.9-3.3,12.1-7.6,12.2-10.4
					c0-2.1-1.8-3.3-3.1-3.9c-3.5-0.4-7.6-0.6-12-0.8c-4.5-0.2-9.1-0.4-13.3-0.9c-2.6-0.3-4.7-2.3-5.1-5c-0.4-2.7,1-5.2,3.4-6.2
					l3.2-1.4c3.5-1.5,7.1-3.1,10.6-4.8c1.2-0.5,2.5,0,3.1,1.1s0,2.5-1.1,3.1c-3.6,1.7-7.2,3.3-10.7,4.8l-3.2,1.4
					c-0.8,0.3-0.8,1.1-0.7,1.3c0,0.3,0.2,0.9,1.1,1.1c4,0.5,8.5,0.7,12.9,0.9c4.6,0.2,9,0.4,12.8,0.9c0.2,0,0.4,0.1,0.6,0.2
					c4,1.7,6.2,4.7,6.2,8.4c-0.1,5.7-5.8,11.1-15.2,14.6C798.5,1168.5,798.3,1168.6,798,1168.6z"/>
			</g>
			<g>
				<path class="st43" d="M752.2,1204.2c-1.5,0-3-0.1-4.5-0.2c-1.3-0.1-2.2-1.2-2.1-2.5s1.2-2.2,2.5-2.1c3.6,0.3,7.2,0.2,10.7-0.2
					c11-1.4,15.8-5.2,16.4-7.4c0.2-0.9-0.2-1.9-1.3-2.8c-10.6-1.2-19.4-5.2-26.3-12c-1.9-1.9-2.3-4.7-1-7.1c1.3-2.4,4-3.5,6.6-2.8
					c4.2,1.1,8.8,1.7,13.6,1.9c1.3,0.1,2.3,1.1,2.2,2.4c0,1.3-1.1,2.2-2.4,2.2c-5.1-0.2-10-0.9-14.5-2c-0.8-0.2-1.3,0.3-1.4,0.6
					c-0.1,0.2-0.4,0.9,0.2,1.5c6.3,6.1,14.5,9.8,24.3,10.8c0.4,0,0.8,0.2,1.1,0.4c4.1,3,4,6.3,3.6,8.1c-1.4,5.3-9.1,9.5-20.3,10.9
					C757,1204,754.6,1204.2,752.2,1204.2z"/>
			</g>
			<g>
				<path class="st43" d="M741.2,1144c-0.9,0-1.7-0.5-2.1-1.3c-0.5-1.2-0.1-2.5,1.1-3.1l39.1-18.9c1.2-0.6,2.5-0.1,3.1,1.1
					c0.5,1.2,0.1,2.5-1.1,3.1l-39.1,18.9C741.8,1143.9,741.5,1144,741.2,1144z"/>
			</g>
			<g>
				<path class="st43" d="M666.3,1182.9c-0.8,0-1.6-0.4-2-1.1c-0.7-1.1-0.3-2.5,0.8-3.2l39.5-23.4c1.1-0.7,2.5-0.3,3.2,0.8
					c0.7,1.1,0.3,2.5-0.8,3.2l-39.5,23.4C667.1,1182.8,666.7,1182.9,666.3,1182.9z"/>
			</g>
		</g>
	</g>
</g>
<rect y="1495.3" class="st9" width="5628" height="112.7"/>
</svg>
