<svg width="158" height="47" viewBox="0 0 158 47" fill="none" xmlns="http://www.w3.org/2000/svg">
<path opacity="0.5" d="M4.04191 45.32C3.06058 45.32 2.16458 44.936 1.35391 44.168C0.585914 43.3573 0.201914 42.4187 0.201914 41.352C0.201914 40.6693 0.244581 40.008 0.329914 39.368C0.415247 38.728 0.607248 38.1093 0.905914 37.512C1.20458 36.9147 1.65258 36.3387 2.24991 35.784C4.21258 34.1627 6.19658 32.6693 8.20191 31.304C10.2499 29.9387 12.2126 28.6373 14.0899 27.4C15.9672 26.1627 17.6526 24.9253 19.1459 23.688C20.6392 22.408 21.8126 21.0853 22.6659 19.72C23.5192 18.312 23.9459 16.7973 23.9459 15.176C23.9459 13.8533 23.6686 12.6587 23.1139 11.592C22.6019 10.5253 21.7699 9.672 20.6179 9.032C19.4659 8.392 17.9299 8.072 16.0099 8.072C14.6872 8.072 13.5139 8.264 12.4899 8.648C11.5086 9.032 10.6766 9.58666 9.99391 10.312C9.35391 11.0373 8.84191 11.9333 8.45791 13C8.11658 14.024 7.94591 15.1973 7.94591 16.52C7.94591 17.2453 7.88191 17.8853 7.75391 18.44C7.62591 18.9947 7.28458 19.4427 6.72991 19.784C6.21791 20.0827 5.32191 20.232 4.04191 20.232C2.76191 20.232 1.84458 20.04 1.28991 19.656C0.777914 19.272 0.457914 18.76 0.329914 18.12C0.244581 17.4373 0.201914 16.7333 0.201914 16.008C0.201914 13.8747 0.543247 11.8693 1.22591 9.992C1.95125 8.072 2.99658 6.408 4.36191 5C5.72725 3.54933 7.36991 2.41866 9.28991 1.608C11.2526 0.754665 13.4712 0.327999 15.9459 0.327999C19.0606 0.327999 21.7912 0.967999 24.1379 2.248C26.5272 3.528 28.3832 5.32 29.7059 7.624C31.0712 9.928 31.7539 12.68 31.7539 15.88C31.7539 17.544 31.4979 19.1013 30.9859 20.552C30.4739 22.0027 29.7699 23.368 28.8739 24.648C27.9779 25.8853 26.9326 27.0373 25.7379 28.104C24.5859 29.1707 23.3272 30.1947 21.9619 31.176C20.6392 32.1147 19.2952 33.0107 17.9299 33.864C16.5646 34.6747 15.2419 35.464 13.9619 36.232L11.5299 37.512H29.7059C30.4312 37.512 31.0926 37.5973 31.6899 37.768C32.2872 37.896 32.7352 38.2373 33.0339 38.792C33.3753 39.3467 33.5459 40.2427 33.5459 41.48C33.5459 42.6747 33.3753 43.5493 33.0339 44.104C32.6926 44.6587 32.2232 45 31.6259 45.128C31.0286 45.256 30.3459 45.32 29.5779 45.32H4.04191ZM54.0204 46.024C51.7591 46.024 49.6684 45.6827 47.7484 45C45.8284 44.2747 44.1217 43.3147 42.6284 42.12C41.1351 40.8827 39.9617 39.4747 39.1084 37.896C38.2977 36.3173 37.8497 34.6747 37.7644 32.968C37.7644 31.0907 39.1511 30.152 41.9244 30.152C42.7777 30.152 43.4177 30.2373 43.8444 30.408C44.2711 30.5787 44.6124 30.8987 44.8684 31.368C45.1244 31.8373 45.3804 32.4773 45.6364 33.288C45.9351 34.1413 46.4257 34.9733 47.1084 35.784C47.8337 36.5947 48.7724 37.2773 49.9244 37.832C51.0764 38.344 52.4631 38.6 54.0844 38.6C55.8337 38.6 57.3484 38.3227 58.6284 37.768C59.9084 37.1707 60.8897 36.36 61.5724 35.336C62.2977 34.312 62.6604 33.1387 62.6604 31.816C62.6604 30.4933 62.2977 29.3627 61.5724 28.424C60.8897 27.4427 59.9511 26.696 58.7564 26.184C57.5617 25.6293 56.1964 25.352 54.6604 25.352C53.8497 25.352 53.1244 25.288 52.4844 25.16C51.8871 25.032 51.3964 24.712 51.0124 24.2C50.6711 23.688 50.5004 22.8347 50.5004 21.64C50.5004 20.4027 50.6711 19.5493 51.0124 19.08C51.3964 18.568 51.9084 18.248 52.5484 18.12C53.1884 17.992 53.9137 17.928 54.7244 17.928C56.1751 17.928 57.3697 17.736 58.3084 17.352C59.2897 16.968 60.0364 16.4347 60.5484 15.752C61.0604 15.0693 61.3164 14.3013 61.3164 13.448C61.3164 12.296 61.0391 11.2933 60.4844 10.44C59.9297 9.544 59.1404 8.86133 58.1164 8.392C57.1351 7.88 55.9617 7.624 54.5964 7.624C53.3591 7.624 52.2924 7.79466 51.3964 8.136C50.5004 8.43467 49.7111 8.88267 49.0284 9.48C48.3884 10.0773 47.7911 10.8027 47.2364 11.656C46.5964 12.8933 45.8497 13.6187 44.9964 13.832C44.1857 14.0453 43.1191 13.768 41.7964 13C40.7297 12.36 40.0897 11.6773 39.8764 10.952C39.6631 10.184 39.8124 9.30933 40.3244 8.328C40.4524 8.02933 40.6871 7.58133 41.0284 6.984C41.4124 6.344 41.9457 5.66133 42.6284 4.936C43.3537 4.168 44.2284 3.44266 45.2524 2.76C46.2764 2.03466 47.5351 1.43733 49.0284 0.967999C50.5217 0.498664 52.2497 0.263996 54.2124 0.263996C56.6017 0.263996 58.7137 0.647996 60.5484 1.416C62.3831 2.14133 63.9404 3.12266 65.2204 4.36C66.5004 5.55466 67.4604 6.92 68.1004 8.456C68.7831 9.94933 69.1244 11.5067 69.1244 13.128C69.1244 14.5787 68.8471 15.88 68.2924 17.032C67.7377 18.184 67.0551 19.144 66.2444 19.912C65.4337 20.68 64.6231 21.256 63.8124 21.64C64.7084 22.024 65.5404 22.5573 66.3084 23.24C67.1191 23.9227 67.8231 24.7333 68.4204 25.672C69.0604 26.568 69.5511 27.528 69.8924 28.552C70.2337 29.576 70.4044 30.6213 70.4044 31.688C70.4044 34.4187 69.7004 36.872 68.2924 39.048C66.9271 41.224 65.0071 42.9307 62.5324 44.168C60.0577 45.4053 57.2204 46.024 54.0204 46.024ZM91.4654 46.088C88.9481 46.088 86.7507 45.6827 84.8734 44.872C82.9961 44.0187 81.4174 42.8667 80.1374 41.416C78.8574 39.9227 77.8334 38.216 77.0654 36.296C76.2974 34.3333 75.7427 32.2427 75.4014 30.024C75.0601 27.8053 74.8894 25.5227 74.8894 23.176C74.8894 20.9573 75.0601 18.76 75.4014 16.584C75.7427 14.408 76.2761 12.36 77.0014 10.44C77.7694 8.47733 78.7934 6.74933 80.0734 5.256C81.3534 3.72 82.9107 2.52533 84.7454 1.672C86.6227 0.775998 88.8201 0.327999 91.3374 0.327999C93.7694 0.327999 95.8814 0.754665 97.6734 1.608C99.5081 2.46133 101.044 3.63466 102.281 5.128C103.561 6.62133 104.585 8.34933 105.353 10.312C106.121 12.2747 106.676 14.3653 107.017 16.584C107.359 18.76 107.529 20.9787 107.529 23.24C107.529 25.544 107.359 27.8053 107.017 30.024C106.676 32.2427 106.121 34.3333 105.353 36.296C104.585 38.216 103.561 39.9227 102.281 41.416C101.044 42.8667 99.5294 44.0187 97.7374 44.872C95.9454 45.6827 93.8547 46.088 91.4654 46.088ZM91.1454 38.28C92.8947 38.28 94.3027 37.9173 95.3694 37.192C96.4361 36.424 97.2681 35.4427 97.8654 34.248C98.5054 33.0533 98.9534 31.7733 99.2094 30.408C99.4654 29.0427 99.6147 27.7627 99.6574 26.568C99.7427 25.3307 99.7854 24.328 99.7854 23.56V23.176C99.7854 19.976 99.4654 17.2453 98.8254 14.984C98.1854 12.7227 97.2254 11.016 95.9454 9.864C94.7081 8.66933 93.1507 8.072 91.2734 8.072C89.3107 8.072 87.6894 8.66933 86.4094 9.864C85.1294 11.016 84.1694 12.7227 83.5294 14.984C82.9321 17.2027 82.6334 19.9547 82.6334 23.24C82.6334 26.44 82.9534 29.1707 83.5934 31.432C84.2334 33.6507 85.1721 35.3573 86.4094 36.552C87.6894 37.704 89.2681 38.28 91.1454 38.28ZM142.353 43.4C141.244 43.4 140.433 43.2507 139.921 42.952C139.409 42.6107 139.089 42.184 138.961 41.672C138.833 41.1173 138.769 40.52 138.769 39.88V17.352C138.769 16.712 138.833 16.136 138.961 15.624C139.089 15.0693 139.409 14.6427 139.921 14.344C140.476 14.0453 141.308 13.896 142.417 13.896C143.527 13.896 144.316 14.0667 144.785 14.408C145.297 14.7067 145.617 15.1333 145.745 15.688C145.873 16.2 145.937 16.7973 145.937 17.48V39.816C145.937 40.4987 145.873 41.1173 145.745 41.672C145.617 42.184 145.297 42.6107 144.785 42.952C144.316 43.2507 143.505 43.4 142.353 43.4ZM130.961 32.264C130.364 32.264 129.788 32.2 129.233 32.072C128.721 31.944 128.316 31.624 128.017 31.112C127.719 30.6 127.569 29.7893 127.569 28.68C127.569 27.528 127.719 26.696 128.017 26.184C128.359 25.672 128.807 25.352 129.361 25.224C129.916 25.096 130.513 25.032 131.153 25.032H153.617C154.257 25.032 154.833 25.096 155.345 25.224C155.9 25.352 156.327 25.672 156.625 26.184C156.967 26.696 157.137 27.528 157.137 28.68C157.137 29.7893 156.967 30.6 156.625 31.112C156.327 31.624 155.921 31.944 155.409 32.072C154.897 32.2 154.321 32.264 153.681 32.264H130.961Z" fill="#C1E1EE"/>
</svg>
