<svg width="158" height="47" viewBox="0 0 158 47" fill="none" xmlns="http://www.w3.org/2000/svg">
<path opacity="0.5" d="M4.08 45.32C3.09867 45.32 2.20267 44.936 1.392 44.168C0.624 43.3573 0.24 42.4187 0.24 41.352C0.24 40.6693 0.282667 40.008 0.368 39.368C0.453333 38.728 0.645333 38.1093 0.944 37.512C1.24267 36.9147 1.69067 36.3387 2.288 35.784C4.25067 34.1627 6.23467 32.6693 8.24 31.304C10.288 29.9387 12.2507 28.6373 14.128 27.4C16.0053 26.1627 17.6907 24.9253 19.184 23.688C20.6773 22.408 21.8507 21.0853 22.704 19.72C23.5573 18.312 23.984 16.7973 23.984 15.176C23.984 13.8533 23.7067 12.6587 23.152 11.592C22.64 10.5253 21.808 9.672 20.656 9.032C19.504 8.392 17.968 8.072 16.048 8.072C14.7253 8.072 13.552 8.264 12.528 8.648C11.5467 9.032 10.7147 9.58666 10.032 10.312C9.392 11.0373 8.88 11.9333 8.496 13C8.15467 14.024 7.984 15.1973 7.984 16.52C7.984 17.2453 7.92 17.8853 7.792 18.44C7.664 18.9947 7.32267 19.4427 6.768 19.784C6.256 20.0827 5.36 20.232 4.08 20.232C2.8 20.232 1.88267 20.04 1.328 19.656C0.816 19.272 0.496 18.76 0.368 18.12C0.282667 17.4373 0.24 16.7333 0.24 16.008C0.24 13.8747 0.581333 11.8693 1.264 9.992C1.98933 8.072 3.03467 6.408 4.4 5C5.76533 3.54933 7.408 2.41866 9.328 1.608C11.2907 0.754665 13.5093 0.327999 15.984 0.327999C19.0987 0.327999 21.8293 0.967999 24.176 2.248C26.5653 3.528 28.4213 5.32 29.744 7.624C31.1093 9.928 31.792 12.68 31.792 15.88C31.792 17.544 31.536 19.1013 31.024 20.552C30.512 22.0027 29.808 23.368 28.912 24.648C28.016 25.8853 26.9707 27.0373 25.776 28.104C24.624 29.1707 23.3653 30.1947 22 31.176C20.6773 32.1147 19.3333 33.0107 17.968 33.864C16.6027 34.6747 15.28 35.464 14 36.232L11.568 37.512H29.744C30.4693 37.512 31.1307 37.5973 31.728 37.768C32.3253 37.896 32.7733 38.2373 33.072 38.792C33.4133 39.3467 33.584 40.2427 33.584 41.48C33.584 42.6747 33.4133 43.5493 33.072 44.104C32.7307 44.6587 32.2613 45 31.664 45.128C31.0667 45.256 30.384 45.32 29.616 45.32H4.08ZM54.0585 46.024C51.7972 46.024 49.7065 45.6827 47.7865 45C45.8665 44.2747 44.1598 43.3147 42.6665 42.12C41.1732 40.8827 39.9998 39.4747 39.1465 37.896C38.3358 36.3173 37.8878 34.6747 37.8025 32.968C37.8025 31.0907 39.1892 30.152 41.9625 30.152C42.8158 30.152 43.4558 30.2373 43.8825 30.408C44.3092 30.5787 44.6505 30.8987 44.9065 31.368C45.1625 31.8373 45.4185 32.4773 45.6745 33.288C45.9732 34.1413 46.4638 34.9733 47.1465 35.784C47.8718 36.5947 48.8105 37.2773 49.9625 37.832C51.1145 38.344 52.5012 38.6 54.1225 38.6C55.8718 38.6 57.3865 38.3227 58.6665 37.768C59.9465 37.1707 60.9278 36.36 61.6105 35.336C62.3358 34.312 62.6985 33.1387 62.6985 31.816C62.6985 30.4933 62.3358 29.3627 61.6105 28.424C60.9278 27.4427 59.9892 26.696 58.7945 26.184C57.5998 25.6293 56.2345 25.352 54.6985 25.352C53.8878 25.352 53.1625 25.288 52.5225 25.16C51.9252 25.032 51.4345 24.712 51.0505 24.2C50.7092 23.688 50.5385 22.8347 50.5385 21.64C50.5385 20.4027 50.7092 19.5493 51.0505 19.08C51.4345 18.568 51.9465 18.248 52.5865 18.12C53.2265 17.992 53.9518 17.928 54.7625 17.928C56.2132 17.928 57.4078 17.736 58.3465 17.352C59.3278 16.968 60.0745 16.4347 60.5865 15.752C61.0985 15.0693 61.3545 14.3013 61.3545 13.448C61.3545 12.296 61.0772 11.2933 60.5225 10.44C59.9678 9.544 59.1785 8.86133 58.1545 8.392C57.1732 7.88 55.9998 7.624 54.6345 7.624C53.3972 7.624 52.3305 7.79466 51.4345 8.136C50.5385 8.43467 49.7492 8.88267 49.0665 9.48C48.4265 10.0773 47.8292 10.8027 47.2745 11.656C46.6345 12.8933 45.8878 13.6187 45.0345 13.832C44.2238 14.0453 43.1572 13.768 41.8345 13C40.7678 12.36 40.1278 11.6773 39.9145 10.952C39.7012 10.184 39.8505 9.30933 40.3625 8.328C40.4905 8.02933 40.7252 7.58133 41.0665 6.984C41.4505 6.344 41.9838 5.66133 42.6665 4.936C43.3918 4.168 44.2665 3.44266 45.2905 2.76C46.3145 2.03466 47.5732 1.43733 49.0665 0.967999C50.5598 0.498664 52.2878 0.263996 54.2505 0.263996C56.6398 0.263996 58.7518 0.647996 60.5865 1.416C62.4212 2.14133 63.9785 3.12266 65.2585 4.36C66.5385 5.55466 67.4985 6.92 68.1385 8.456C68.8212 9.94933 69.1625 11.5067 69.1625 13.128C69.1625 14.5787 68.8852 15.88 68.3305 17.032C67.7758 18.184 67.0932 19.144 66.2825 19.912C65.4718 20.68 64.6612 21.256 63.8505 21.64C64.7465 22.024 65.5785 22.5573 66.3465 23.24C67.1572 23.9227 67.8612 24.7333 68.4585 25.672C69.0985 26.568 69.5892 27.528 69.9305 28.552C70.2718 29.576 70.4425 30.6213 70.4425 31.688C70.4425 34.4187 69.7385 36.872 68.3305 39.048C66.9652 41.224 65.0452 42.9307 62.5705 44.168C60.0958 45.4053 57.2585 46.024 54.0585 46.024ZM91.5035 46.088C88.9862 46.088 86.7888 45.6827 84.9115 44.872C83.0342 44.0187 81.4555 42.8667 80.1755 41.416C78.8955 39.9227 77.8715 38.216 77.1035 36.296C76.3355 34.3333 75.7808 32.2427 75.4395 30.024C75.0982 27.8053 74.9275 25.5227 74.9275 23.176C74.9275 20.9573 75.0982 18.76 75.4395 16.584C75.7808 14.408 76.3142 12.36 77.0395 10.44C77.8075 8.47733 78.8315 6.74933 80.1115 5.256C81.3915 3.72 82.9488 2.52533 84.7835 1.672C86.6608 0.775998 88.8582 0.327999 91.3755 0.327999C93.8075 0.327999 95.9195 0.754665 97.7115 1.608C99.5462 2.46133 101.082 3.63466 102.32 5.128C103.6 6.62133 104.624 8.34933 105.392 10.312C106.16 12.2747 106.714 14.3653 107.056 16.584C107.397 18.76 107.568 20.9787 107.568 23.24C107.568 25.544 107.397 27.8053 107.056 30.024C106.714 32.2427 106.16 34.3333 105.392 36.296C104.624 38.216 103.6 39.9227 102.32 41.416C101.082 42.8667 99.5675 44.0187 97.7755 44.872C95.9835 45.6827 93.8928 46.088 91.5035 46.088ZM91.1835 38.28C92.9328 38.28 94.3408 37.9173 95.4075 37.192C96.4742 36.424 97.3062 35.4427 97.9035 34.248C98.5435 33.0533 98.9915 31.7733 99.2475 30.408C99.5035 29.0427 99.6528 27.7627 99.6955 26.568C99.7808 25.3307 99.8235 24.328 99.8235 23.56V23.176C99.8235 19.976 99.5035 17.2453 98.8635 14.984C98.2235 12.7227 97.2635 11.016 95.9835 9.864C94.7462 8.66933 93.1888 8.072 91.3115 8.072C89.3488 8.072 87.7275 8.66933 86.4475 9.864C85.1675 11.016 84.2075 12.7227 83.5675 14.984C82.9702 17.2027 82.6715 19.9547 82.6715 23.24C82.6715 26.44 82.9915 29.1707 83.6315 31.432C84.2715 33.6507 85.2102 35.3573 86.4475 36.552C87.7275 37.704 89.3062 38.28 91.1835 38.28ZM142.392 43.4C141.282 43.4 140.472 43.2507 139.96 42.952C139.448 42.6107 139.128 42.184 139 41.672C138.872 41.1173 138.808 40.52 138.808 39.88V17.352C138.808 16.712 138.872 16.136 139 15.624C139.128 15.0693 139.448 14.6427 139.96 14.344C140.514 14.0453 141.346 13.896 142.456 13.896C143.565 13.896 144.354 14.0667 144.824 14.408C145.336 14.7067 145.656 15.1333 145.784 15.688C145.912 16.2 145.976 16.7973 145.976 17.48V39.816C145.976 40.4987 145.912 41.1173 145.784 41.672C145.656 42.184 145.336 42.6107 144.824 42.952C144.354 43.2507 143.544 43.4 142.392 43.4ZM131 32.264C130.402 32.264 129.826 32.2 129.272 32.072C128.76 31.944 128.354 31.624 128.056 31.112C127.757 30.6 127.608 29.7893 127.608 28.68C127.608 27.528 127.757 26.696 128.056 26.184C128.397 25.672 128.845 25.352 129.4 25.224C129.954 25.096 130.552 25.032 131.192 25.032H153.656C154.296 25.032 154.872 25.096 155.384 25.224C155.938 25.352 156.365 25.672 156.664 26.184C157.005 26.696 157.176 27.528 157.176 28.68C157.176 29.7893 157.005 30.6 156.664 31.112C156.365 31.624 155.96 31.944 155.448 32.072C154.936 32.2 154.36 32.264 153.72 32.264H131Z" fill="#00DD68"/>
</svg>
