<svg width="117" height="47" viewBox="0 0 117 47" fill="none" xmlns="http://www.w3.org/2000/svg">
<path opacity="0.5" d="M14.808 46.088C13.1867 46.088 11.7147 45.9387 10.392 45.64C9.112 45.3413 7.96 44.9573 6.936 44.488C5.95467 44.0187 5.12267 43.5707 4.44 43.144C3.75733 42.6747 3.20267 42.2693 2.776 41.928C2.264 41.5013 1.816 41.096 1.432 40.712C1.09067 40.2853 0.92 39.7947 0.92 39.24C0.92 38.8133 1.02667 38.3867 1.24 37.96C1.496 37.4907 1.90133 36.9573 2.456 36.36C2.92533 35.7627 3.37333 35.336 3.8 35.08C4.26933 34.824 4.71733 34.696 5.144 34.696C5.528 34.696 5.93333 34.8027 6.36 35.016C6.82933 35.2293 7.40533 35.6133 8.088 36.168C8.42933 36.4667 8.83467 36.7867 9.304 37.128C9.816 37.4267 10.4773 37.704 11.288 37.96C12.0987 38.1733 13.144 38.28 14.424 38.28C15.8747 38.28 17.1333 38.0027 18.2 37.448C19.2667 36.8933 20.0773 36.104 20.632 35.08C21.2293 34.056 21.528 32.8187 21.528 31.368C21.528 30.0027 21.2293 28.808 20.632 27.784C20.0347 26.7173 19.2027 25.8853 18.136 25.288C17.112 24.6907 15.9387 24.392 14.616 24.392C13.976 24.392 13.3573 24.4773 12.76 24.648C12.1627 24.8187 11.6293 25.032 11.16 25.288C10.7333 25.544 10.3707 25.8213 10.072 26.12C9.73067 26.4187 9.38933 26.6747 9.048 26.888C8.74933 27.1013 8.344 27.2293 7.832 27.272C7.36267 27.3573 6.872 27.3573 6.36 27.272C5.89067 27.144 5.29333 26.9307 4.568 26.632C3.62933 26.1627 2.94667 25.736 2.52 25.352C2.09333 24.968 1.88 24.4773 1.88 23.88L4.504 4.744C4.58933 4.232 4.71733 3.67733 4.888 3.08C5.10133 2.44 5.464 1.90667 5.976 1.48C6.53067 1.01066 7.34133 0.79733 8.408 0.839996H24.408C25.0907 0.839996 25.7093 0.92533 26.264 1.096C26.8187 1.224 27.2667 1.56533 27.608 2.12C27.9493 2.67467 28.12 3.57067 28.12 4.808C28.12 5.96 27.9493 6.792 27.608 7.304C27.3093 7.816 26.8827 8.136 26.328 8.264C25.816 8.392 25.2187 8.456 24.536 8.456H11.864L10.456 18.056C10.8827 17.7573 11.3307 17.5227 11.8 17.352C12.2693 17.1387 12.7387 16.9893 13.208 16.904C13.72 16.776 14.2107 16.712 14.68 16.712H15.128C17.0053 16.712 18.7973 17.096 20.504 17.864C22.2107 18.5893 23.7253 19.6133 25.048 20.936C26.3707 22.2587 27.416 23.7733 28.184 25.48C28.952 27.1867 29.336 29 29.336 30.92C29.336 33.8213 28.696 36.424 27.416 38.728C26.136 40.9893 24.408 42.7813 22.232 44.104C20.056 45.4267 17.5813 46.088 14.808 46.088ZM39.2425 45.64C38.0478 45.64 37.1732 45.448 36.6185 45.064C36.0638 44.7227 35.7225 44.2533 35.5945 43.656C35.4665 43.0587 35.4025 42.4187 35.4025 41.736V4.744C35.4025 4.01867 35.4665 3.37866 35.5945 2.824C35.7652 2.22666 36.1065 1.75733 36.6185 1.416C37.1732 1.07467 38.0692 0.903999 39.3065 0.903999C40.5012 0.903999 41.3545 1.07467 41.8665 1.416C42.4212 1.75733 42.7625 2.22666 42.8905 2.824C43.0612 3.42133 43.1465 4.08266 43.1465 4.808V18.056L59.4665 2.184C60.1492 1.45866 60.7678 0.967997 61.3225 0.711998C61.8772 0.455999 62.4532 0.434666 63.0505 0.647999C63.6478 0.818666 64.2878 1.24533 64.9705 1.928C66.0798 2.99467 66.6345 3.93333 66.6345 4.744C66.6345 5.512 66.1438 6.408 65.1625 7.432L48.2665 23.24L65.3545 39.112C66.4212 40.136 66.9332 41.0533 66.8905 41.864C66.8478 42.6747 66.2718 43.592 65.1625 44.616C64.3518 45.2987 63.6478 45.7253 63.0505 45.896C62.4958 46.1093 61.9412 46.0667 61.3865 45.768C60.8745 45.512 60.2985 45.0213 59.6585 44.296L43.1465 28.296V41.8C43.1465 42.4827 43.0612 43.1227 42.8905 43.72C42.7625 44.3173 42.4212 44.7867 41.8665 45.128C41.3545 45.4693 40.4798 45.64 39.2425 45.64ZM102.079 43.4C100.97 43.4 100.159 43.2507 99.647 42.952C99.135 42.6107 98.815 42.184 98.687 41.672C98.559 41.1173 98.495 40.52 98.495 39.88V17.352C98.495 16.712 98.559 16.136 98.687 15.624C98.815 15.0693 99.135 14.6427 99.647 14.344C100.202 14.0453 101.034 13.896 102.143 13.896C103.252 13.896 104.042 14.0667 104.511 14.408C105.023 14.7067 105.343 15.1333 105.471 15.688C105.599 16.2 105.663 16.7973 105.663 17.48V39.816C105.663 40.4987 105.599 41.1173 105.471 41.672C105.343 42.184 105.023 42.6107 104.511 42.952C104.042 43.2507 103.231 43.4 102.079 43.4ZM90.687 32.264C90.0897 32.264 89.5137 32.2 88.959 32.072C88.447 31.944 88.0417 31.624 87.743 31.112C87.4443 30.6 87.295 29.7893 87.295 28.68C87.295 27.528 87.4443 26.696 87.743 26.184C88.0843 25.672 88.5323 25.352 89.087 25.224C89.6417 25.096 90.239 25.032 90.879 25.032H113.343C113.983 25.032 114.559 25.096 115.071 25.224C115.626 25.352 116.052 25.672 116.351 26.184C116.692 26.696 116.863 27.528 116.863 28.68C116.863 29.7893 116.692 30.6 116.351 31.112C116.052 31.624 115.647 31.944 115.135 32.072C114.623 32.2 114.047 32.264 113.407 32.264H90.687Z" fill="#00DD68"/>
</svg>
