<svg width="198" height="46" viewBox="0 0 198 46" fill="none" xmlns="http://www.w3.org/2000/svg">
<g id="icon-32-logo 2">
<g id="Group">
<path id="Vector" d="M8.60872 35.2187C14.3479 37.615 19.13 38.8125 22.9565 38.8125C26.7831 38.8125 31.5652 37.615 37.3044 35.2187M22.9565 23L28.1404 29.4917C28.4733 29.9086 29.0329 30.0696 29.535 29.8942L41.372 25.7427C42.0248 25.5127 42.3706 24.7954 42.141 24.1399C42.0937 24.0062 42.0262 23.8811 41.9359 23.7705L37.3044 17.9687M22.9565 23L37.3044 17.9687M22.9565 23L8.60872 17.9687M22.9565 23L17.7727 29.4917C17.4398 29.9086 16.8802 30.0681 16.3781 29.8928L4.54112 25.7427C3.88829 25.5127 3.54251 24.7954 3.77207 24.1399C3.81942 24.0062 3.88685 23.8811 3.97725 23.7705L8.60872 17.9687M37.3044 17.9687L43.4639 12.9202C43.6418 12.7736 43.7767 12.581 43.8542 12.3625C44.0823 11.707 43.7379 10.9896 43.0837 10.7596L31.5122 6.70159C31.1004 6.5564 30.6412 6.63834 30.3026 6.91434L22.9565 12.9375M37.3044 17.9687L22.9565 12.9375M22.9565 12.9375L8.60872 17.9687M22.9565 12.9375L15.6105 6.91434C15.2719 6.63834 14.8127 6.5564 14.4009 6.70159L2.82942 10.7596C2.17516 10.9896 1.83081 11.707 2.05894 12.3625C2.13642 12.581 2.27129 12.7736 2.4492 12.9202L8.60872 17.9687" stroke="#13C265" stroke-width="3" stroke-linecap="round" stroke-linejoin="round"/>
<path id="Vector_2" fill-rule="evenodd" clip-rule="evenodd" d="M64.6226 33.0625V21.574C64.6226 20.5045 64.4849 18.2275 64.3816 16.123C64.967 18.1585 65.6212 20.2975 66.0345 21.367L70.4421 33.0625H74.3332L78.5687 21.505C79.0164 20.2975 79.8084 17.8825 80.4626 15.7435C80.3335 17.8135 80.2345 20.217 80.223 21.505L80.2216 33.0625H84.6981V10.258H78.431L73.3346 24.61C73.0936 25.231 72.7493 26.404 72.4049 27.577C72.095 26.404 71.7162 25.2655 71.5096 24.6445L66.2411 10.258H60.1461V33.0625H64.6226ZM95.3327 33.5455C101.256 33.5455 103.287 29.854 103.287 25.0585C103.287 20.263 101.256 16.5715 95.3327 16.5715C89.4099 16.5715 87.3783 20.332 87.3783 25.0585C87.3783 29.785 89.4099 33.5455 95.3327 33.5455ZM95.3327 30.2335C92.5779 30.2335 91.8892 27.715 91.8892 25.0585C91.8892 22.402 92.5779 19.8835 95.3327 19.8835C98.0875 19.8835 98.7762 22.402 98.7762 25.0585C98.7762 27.715 98.0875 30.2335 95.3327 30.2335ZM113.336 33.0625L119.431 17.0545H114.92L112.269 25.024C111.993 25.783 111.787 26.7145 111.615 27.439C111.477 26.7145 111.27 25.7485 110.995 25.024L108.102 17.0545H103.454L109.583 33.0625H113.336ZM122.972 14.053C124.384 14.053 125.521 12.9145 125.521 11.5C125.521 10.0855 124.384 8.94702 122.972 8.94702C121.561 8.94702 120.424 10.0855 120.424 11.5C120.424 12.9145 121.561 14.053 122.972 14.053ZM125.142 33.0625V17.0545H120.837V33.0625H125.142ZM132.712 33.0625V25.1275C133.022 23.782 134.089 20.263 136.637 20.263C137.98 20.263 138.6 21.1945 138.6 23.2645V33.0625H142.904V22.126C142.904 17.71 140.425 16.5715 137.808 16.5715C134.296 16.5715 132.884 18.8485 132.436 19.849V17.0545H128.407V33.0625H132.712ZM153.057 41.4115C157.189 41.4115 161.356 39.8935 161.356 35.788C161.356 32.0965 158.222 30.9235 154.606 30.613C151.748 30.3715 148.821 30.3025 148.821 29.233C148.821 28.681 149.338 28.267 149.992 27.8875C150.819 28.129 151.748 28.2325 152.781 28.2325C157.327 28.2325 160.013 26.059 160.013 22.3675C160.013 21.229 159.772 20.263 159.29 19.435C160.977 18.607 161.562 17.3995 161.562 15.9505C161.562 15.6055 161.528 15.0535 161.425 14.4325L157.947 13.915V15.64C157.947 16.537 157.843 17.158 157.568 17.6755C156.363 16.951 154.813 16.5715 152.919 16.5715C148.27 16.5715 145.757 18.8485 145.757 22.5055C145.757 24.2995 146.377 25.7485 147.582 26.7145C146.067 27.7495 145.206 28.819 145.206 30.3025C145.206 31.9585 146.308 32.7865 147.892 33.235C146.652 34.0285 145.206 35.2705 145.206 37.0645C145.206 40.1005 148.994 41.4115 153.057 41.4115ZM152.85 25.2655C151.025 25.2655 150.268 24.127 150.268 22.402C150.268 20.5045 151.094 19.5385 152.885 19.5385C154.675 19.5385 155.502 20.47 155.502 22.333C155.502 24.127 154.641 25.2655 152.85 25.2655ZM153.057 38.203C150.199 38.203 148.959 37.375 148.959 36.3745C148.959 35.581 149.613 34.9945 150.991 34.1665C151.955 34.2355 152.954 34.339 154.193 34.477C156.087 34.753 157.43 35.1325 157.43 36.271C157.43 37.582 155.502 38.203 153.057 38.203ZM177.775 33.0625V29.1295H168.719C169.683 28.198 170.751 27.094 171.818 25.921C174.78 22.7125 177.052 19.6075 177.052 15.9505C177.052 11.6725 174.401 9.77502 169.959 9.77502C164.828 9.77502 162.28 12.19 162.59 16.744L167.273 17.641C167.032 14.5015 167.789 13.3285 169.821 13.3285C171.612 13.3285 172.231 14.4325 172.231 16.33C172.231 18.2965 171.439 20.332 167.238 24.8515C164.587 27.784 162.211 30.0955 162.211 30.0955V33.0625H177.775ZM193.541 33.0625V27.577H197.088V23.644H193.541V9.98202H189.718L179.113 24.0235V27.577H189.064V33.0625H193.541ZM189.064 23.644H184.002L189.064 17.02V23.644Z" fill="white"/>
</g>
</g>
</svg>
