<svg width="206" height="44" viewBox="0 0 206 44" fill="none" xmlns="http://www.w3.org/2000/svg">
<g id="Logo 1">
<path id="Vector" d="M32.9239 19.6108C32.3673 20.17 31.9411 20.845 31.6756 21.5874C31.4101 22.33 31.3119 23.1218 31.3878 23.9066L31.3614 23.8802C31.4395 24.8041 31.3147 25.7337 30.9958 26.6044C30.677 27.475 30.1718 28.2657 29.5155 28.9213C28.8591 29.5768 28.0674 30.0815 27.1955 30.3997C26.3237 30.7181 25.3928 30.8428 24.4679 30.7648L24.4943 30.7912C23.3879 30.6884 22.2766 30.9287 21.3119 31.4798C20.3474 32.0308 19.5764 32.8655 19.1042 33.8701C18.6321 34.8748 18.4815 36.0003 18.6733 37.0936C18.8653 38.1867 19.39 39.1941 20.1761 39.9785C20.9623 40.7629 21.9715 41.2861 23.0661 41.4766C24.161 41.6672 25.2878 41.5159 26.2933 41.0435C27.2988 40.5709 28.1339 39.8003 28.6847 38.8364C29.2356 37.8725 29.4754 36.7626 29.3714 35.6576L29.3993 35.684C29.3212 34.7603 29.4459 33.8305 29.7647 32.9598C30.0836 32.0892 30.5889 31.2985 31.2452 30.6429C31.9016 29.9874 32.6934 29.4828 33.5651 29.1645C34.437 28.8461 35.3678 28.7214 36.2928 28.7994L36.2649 28.773C37.1687 28.8541 38.0785 28.7062 38.9098 28.3427C39.741 27.9793 40.4671 27.4121 41.0204 26.6939C41.5738 25.9757 41.9368 25.1294 42.0755 24.2339C42.2142 23.3382 42.1244 22.4221 41.8142 21.5702C41.504 20.7185 40.9836 19.9588 40.3011 19.3614C39.6187 18.7641 38.7963 18.3484 37.9102 18.1531C37.024 17.9577 36.1028 17.9888 35.2319 18.2435C34.3611 18.4985 33.5688 18.9687 32.9283 19.6108H32.9239Z" fill="#919191"/>
<path id="Vector_2" d="M22.0902 27.3328L22.0623 27.3064C22.8485 27.3855 23.6424 27.2891 24.3868 27.0242C25.1311 26.7594 25.8072 26.3327 26.3661 25.7749C26.9249 25.2172 27.3529 24.5422 27.6185 23.799C27.8844 23.0559 27.9814 22.2631 27.9029 21.4779L27.9308 21.5043C27.8526 20.5804 27.9775 19.6509 28.2961 18.7801C28.615 17.9095 29.1203 17.1188 29.7766 16.4632C30.4331 15.8078 31.2248 15.3031 32.0965 14.9848C32.9684 14.6663 33.8992 14.5418 34.8242 14.6198L34.7963 14.5934C35.9029 14.6972 37.0145 14.4575 37.9796 13.9071C38.9449 13.3567 39.7165 12.5224 40.1894 11.5179C40.6622 10.5134 40.8134 9.38773 40.6222 8.29432C40.4309 7.2009 39.9067 6.19304 39.1207 5.40817C38.3349 4.62331 37.3256 4.09965 36.2308 3.90866C35.136 3.71766 34.0089 3.86859 33.0031 4.34089C31.9972 4.81317 31.1619 5.58383 30.6108 6.54774C30.0596 7.51163 29.8196 8.62185 29.9236 9.72696L29.8972 9.69909C29.9754 10.6229 29.8509 11.5527 29.5322 12.4235C29.2136 13.2943 28.7082 14.0851 28.0519 14.7408C27.3955 15.3962 26.6036 15.9009 25.7317 16.2192C24.8597 16.5374 23.9288 16.6618 23.0037 16.5836L23.0301 16.6115C22.244 16.5324 21.45 16.6288 20.7057 16.8937C19.9614 17.1584 19.2853 17.5852 18.7263 18.143C18.1674 18.7008 17.7396 19.3757 17.4738 20.1189C17.2081 20.862 17.1111 21.6548 17.1896 22.44L17.1632 22.4136C17.241 23.3373 17.1161 24.2669 16.7972 25.1375C16.4783 26.008 15.9731 26.7987 15.3168 27.4541C14.6604 28.1096 13.8688 28.6141 12.9971 28.9327C12.1254 29.2511 11.1946 29.3759 10.2697 29.2982L10.2962 29.3246C9.18961 29.2207 8.07795 29.4604 7.11279 30.0108C6.14764 30.5612 5.37598 31.3955 4.90309 32.4C4.43018 33.4045 4.27903 34.5302 4.47029 35.6236C4.66154 36.717 5.18588 37.7249 5.97175 38.5097C6.75764 39.2947 7.76682 39.8183 8.86165 40.0092C9.95649 40.2002 11.0837 40.0493 12.0894 39.577C13.0952 39.1047 13.9306 38.3341 14.4817 37.3702C15.0329 36.4062 15.2728 35.2961 15.1689 34.191L15.1968 34.2174C15.1186 33.2935 15.2435 32.3639 15.5623 31.4932C15.881 30.6226 16.3863 29.8319 17.0426 29.1763C17.6991 28.5208 18.4908 28.0161 19.3625 27.6979C20.2344 27.3795 21.1652 27.2548 22.0902 27.3328Z" fill="#919191"/>
<path id="Vector_3" d="M12.2479 24.3892C12.8045 23.8301 13.2307 23.1552 13.4959 22.4126C13.7612 21.67 13.8591 20.878 13.7826 20.0934L13.8104 20.1198C13.7323 19.1958 13.8571 18.2657 14.1761 17.3948C14.4951 16.5239 15.0006 15.7331 15.6573 15.0775C16.3141 14.4219 17.1061 13.9174 17.9783 13.5992C18.8504 13.281 19.7817 13.1568 20.7069 13.2352L20.679 13.2088C21.7851 13.3123 22.8964 13.0725 23.8611 12.5222C24.8258 11.9719 25.5969 11.1377 26.0696 10.1336C26.5422 9.1294 26.6932 8.0041 26.502 6.91109C26.3108 5.81809 25.7865 4.81061 25.001 4.02603C24.2154 3.24145 23.2065 2.71797 22.1121 2.52698C21.0178 2.33597 19.8909 2.48678 18.8855 2.95878C17.88 3.43078 17.0448 4.20103 16.4938 5.16448C15.9427 6.12794 15.7026 7.23771 15.8062 8.34243L15.7798 8.31603C15.8579 9.23981 15.7331 10.1695 15.4143 11.0402C15.0955 11.9108 14.5903 12.7015 13.9339 13.3571C13.2775 14.0126 12.4858 14.5172 11.614 14.8355C10.7422 15.1539 9.81132 15.2786 8.88634 15.2006L8.91277 15.227C8.00897 15.146 7.09932 15.2943 6.26814 15.6579C5.43695 16.0215 4.71111 16.5888 4.15789 17.3071C3.60466 18.0254 3.24195 18.8716 3.10335 19.7672C2.96476 20.6629 3.05477 21.5789 3.36503 22.4305C3.6753 23.2822 4.19581 24.0418 4.87829 24.639C5.56078 25.2364 6.38318 25.6519 7.26929 25.8472C8.15538 26.0425 9.07652 26.0112 9.94733 25.7565C10.8181 25.5015 11.6104 25.0313 12.2508 24.3892H12.2479Z" fill="#919191"/>
<path id="Vector_4" d="M57.7398 9.76068H62.1015V30.9584H57.7398V9.76068Z" fill="#919191"/>
<path id="Vector_5" d="M64.5716 23.6999C64.5656 22.1766 65.0123 20.6856 65.8553 19.4161C66.6983 18.1465 67.8995 17.1553 69.307 16.5682C70.7145 15.981 72.2647 15.8242 73.7615 16.1177C75.2583 16.4111 76.6342 17.1415 77.7149 18.2166C78.7956 19.2915 79.5325 20.6627 79.8324 22.1564C80.1323 23.65 79.9815 25.199 79.3992 26.607C78.8169 28.0148 77.8293 29.2187 76.5615 30.0655C75.2935 30.9125 73.8026 31.3647 72.2772 31.3647C71.2648 31.3763 70.2601 31.1861 69.322 30.8053C68.3839 30.4246 67.5312 29.8609 66.8138 29.1474C66.0963 28.4337 65.5285 27.5844 65.1436 26.6491C64.7586 25.7138 64.5641 24.7112 64.5716 23.6999ZM75.6211 23.6999C75.6029 23.0433 75.3913 22.4066 75.0129 21.8693C74.6343 21.3323 74.1056 20.9184 73.4929 20.6797C72.8801 20.441 72.2105 20.3879 71.5677 20.5272C70.9249 20.6665 70.3375 20.9918 69.8789 21.4628C69.4204 21.9336 69.1108 22.5291 68.9894 23.1747C68.8678 23.8202 68.9393 24.4872 69.1953 25.0924C69.4512 25.6975 69.8801 26.2138 70.4281 26.5768C70.9764 26.9398 71.6196 27.1334 72.2772 27.1334C72.7276 27.1454 73.1757 27.064 73.5932 26.8944C74.0106 26.7249 74.3883 26.4709 74.7024 26.1483C75.0165 25.8257 75.2605 25.4416 75.4185 25.0202C75.5767 24.5988 75.6457 24.1493 75.6211 23.6999Z" fill="#919191"/>
<path id="Vector_6" d="M97.3663 16.4399V30.2266C97.3663 35.1047 93.5568 37.1668 89.6901 37.1668C88.3287 37.2686 86.9654 36.9939 85.7499 36.3731C84.5345 35.7521 83.5137 34.8089 82.7995 33.6468L86.5209 31.4982C86.8211 32.1039 87.2994 32.6036 87.8917 32.9305C88.4841 33.2573 89.1623 33.3957 89.8355 33.3271C90.2657 33.3866 90.704 33.3488 91.1177 33.2164C91.5312 33.0839 91.9098 32.8603 92.2253 32.5621C92.5407 32.2638 92.7849 31.8986 92.94 31.4932C93.095 31.0879 93.1566 30.6531 93.1207 30.2207V28.8934C92.6099 29.5174 91.9599 30.0133 91.2225 30.3411C90.4852 30.6689 89.6813 30.8195 88.875 30.781C86.9568 30.7205 85.1373 29.9171 83.8018 28.5405C82.4663 27.164 81.7195 25.3225 81.7195 23.4058C81.7195 21.4892 82.4663 19.6476 83.8018 18.2712C85.1373 16.8946 86.9568 16.0911 88.875 16.0307C89.6813 15.9921 90.4852 16.1427 91.2225 16.4705C91.9599 16.7983 92.6099 17.2942 93.1207 17.9183V16.437L97.3663 16.4399ZM93.1221 23.408C93.1515 22.7061 92.9697 22.0113 92.6003 21.4134C92.231 20.8153 91.6908 20.3414 91.0495 20.0526C90.4082 19.7637 89.6951 19.6732 89.0018 19.7925C88.3084 19.9119 87.6668 20.2358 87.1593 20.7226C86.6519 21.2092 86.3019 21.8363 86.1543 22.5233C86.0069 23.2103 86.0686 23.9258 86.3317 24.5774C86.5948 25.229 87.0471 25.7873 87.6304 26.18C88.2137 26.5728 88.9014 26.7822 89.6049 26.7814C90.0632 26.8133 90.523 26.7491 90.9549 26.5927C91.3869 26.4364 91.7812 26.1913 92.1125 25.8736C92.4438 25.5558 92.7049 25.1723 92.8788 24.7475C93.0527 24.3229 93.1356 23.8667 93.1221 23.408Z" fill="#919191"/>
<path id="Vector_7" d="M99.8364 23.6999C99.8304 22.1766 100.277 20.6856 101.12 19.4161C101.963 18.1465 103.164 17.1553 104.572 16.5682C105.979 15.981 107.53 15.8242 109.026 16.1177C110.523 16.4111 111.899 17.1415 112.98 18.2166C114.06 19.2915 114.797 20.6627 115.097 22.1564C115.397 23.65 115.246 25.199 114.664 26.607C114.082 28.0148 113.094 29.2187 111.826 30.0655C110.558 30.9125 109.067 31.3647 107.542 31.3647C106.53 31.3763 105.525 31.1861 104.587 30.8053C103.649 30.4246 102.796 29.8609 102.079 29.1474C101.361 28.4337 100.793 27.5844 100.408 26.6491C100.023 25.7138 99.8289 24.7112 99.8364 23.6999ZM110.886 23.6999C110.868 23.0433 110.656 22.4066 110.278 21.8693C109.899 21.3323 109.37 20.9184 108.758 20.6797C108.145 20.441 107.475 20.3879 106.833 20.5272C106.19 20.6665 105.602 20.9918 105.144 21.4628C104.685 21.9336 104.376 22.5291 104.254 23.1747C104.132 23.8202 104.204 24.4872 104.46 25.0924C104.716 25.6975 105.145 26.2138 105.693 26.5768C106.241 26.9398 106.884 27.1334 107.542 27.1334C107.992 27.1454 108.44 27.064 108.858 26.8944C109.275 26.7249 109.653 26.4709 109.967 26.1483C110.281 25.8257 110.525 25.4416 110.683 25.0202C110.841 24.5988 110.91 24.1493 110.886 23.6999Z" fill="#919191"/>
<path id="Vector_8" d="M117.282 12.5488C117.282 12.0319 117.435 11.5265 117.723 11.0968C118.01 10.6669 118.419 10.3319 118.897 10.1341C119.375 9.93631 119.902 9.88455 120.409 9.9854C120.917 10.0863 121.383 10.3352 121.749 10.7007C122.115 11.0662 122.364 11.5319 122.465 12.0389C122.566 12.5459 122.514 13.0714 122.316 13.549C122.118 14.0265 121.783 14.4347 121.352 14.7219C120.922 15.0091 120.416 15.1624 119.899 15.1624C119.207 15.1555 118.545 14.878 118.056 14.3893C117.566 13.9006 117.288 13.2398 117.282 12.5488ZM117.722 16.4399H122.085V30.9598H117.716L117.722 16.4399Z" fill="#919191"/>
<path id="Vector_9" d="M140.918 23.6999C140.969 24.6595 140.829 25.6196 140.506 26.525C140.184 27.4303 139.685 28.2631 139.039 28.9755C138.394 29.6877 137.613 30.2655 136.743 30.6756C135.873 31.0856 134.93 31.3198 133.969 31.3647C133.161 31.4087 132.353 31.2726 131.604 30.9662C130.855 30.6596 130.183 30.1906 129.638 29.5929V36.7664H125.276V16.4399H129.638V17.8039C130.183 17.2066 130.855 16.7379 131.604 16.4318C132.353 16.1256 133.161 15.9896 133.969 16.0336C134.93 16.0783 135.873 16.3124 136.744 16.7225C137.614 17.1326 138.395 17.7104 139.041 18.4229C139.686 19.1355 140.185 19.9685 140.507 20.8742C140.829 21.7797 140.969 22.7401 140.918 23.6999ZM136.557 23.6999C136.54 23.0204 136.322 22.3609 135.932 21.8041C135.541 21.2473 134.995 20.8179 134.362 20.5697C133.728 20.3214 133.035 20.2652 132.37 20.4084C131.704 20.5514 131.096 20.8872 130.621 21.3739C130.145 21.8607 129.825 22.4764 129.698 23.1444C129.572 23.8124 129.645 24.5026 129.91 25.129C130.174 25.7554 130.618 26.2899 131.185 26.6658C131.752 27.0415 132.417 27.242 133.098 27.2419C133.565 27.2627 134.032 27.1845 134.467 27.0126C134.902 26.8409 135.295 26.5791 135.622 26.2447C135.948 25.9101 136.2 25.5106 136.362 25.0721C136.523 24.6335 136.589 24.1658 136.557 23.6999Z" fill="#919191"/>
<path id="Vector_10" d="M154.378 26.6024C154.378 29.942 151.471 31.3646 148.332 31.3646C147.063 31.4793 145.789 31.2115 144.675 30.5954C143.56 29.9794 142.656 29.0436 142.08 27.9092L145.859 25.7605C146.011 26.2848 146.34 26.7411 146.789 27.0528C147.238 27.3646 147.781 27.5132 148.326 27.4736C149.371 27.4736 149.896 27.1538 149.896 26.5745C149.896 24.9758 142.742 25.8192 142.742 20.7958C142.742 17.6293 145.418 16.0336 148.442 16.0336C149.578 15.9976 150.703 16.2669 151.7 16.8133C152.698 17.3597 153.53 18.1632 154.11 19.14L150.389 21.1434C150.226 20.7631 149.954 20.4391 149.608 20.212C149.261 19.9848 148.856 19.8645 148.442 19.866C147.685 19.866 147.22 20.1593 147.22 20.6785C147.226 22.3344 154.378 21.23 154.378 26.6024Z" fill="#919191"/>
<path id="Vector_11" d="M170.31 16.4399V30.9599H165.949V29.5944C165.445 30.1969 164.806 30.6717 164.084 30.9797C163.361 31.2877 162.577 31.4201 161.793 31.3661C158.855 31.3661 156.359 29.2761 156.359 25.3528V16.4399H160.72V24.7148C160.684 25.0607 160.723 25.4103 160.836 25.7393C160.948 26.0684 161.132 26.3691 161.373 26.6203C161.613 26.8715 161.906 27.0673 162.23 27.1942C162.553 27.3211 162.901 27.3759 163.249 27.3548C164.849 27.3548 165.953 26.4264 165.953 24.3643V16.4443L170.31 16.4399Z" fill="#919191"/>
<path id="Vector_12" d="M195.32 22.044V30.9584H190.958V22.4209C190.958 20.9689 190.261 20.0405 188.866 20.0405C187.412 20.0405 186.597 21.0569 186.597 22.77V30.9584H182.237V22.4209C182.237 20.9689 181.539 20.0405 180.142 20.0405C178.688 20.0405 177.875 21.0569 177.875 22.77V30.9584H173.513V16.4384H177.875V17.7731C178.327 17.181 178.92 16.7113 179.6 16.4073C180.282 16.1031 181.028 15.9742 181.771 16.0321C182.517 15.9956 183.26 16.153 183.928 16.4887C184.595 16.8243 185.163 17.3271 185.579 17.9476C186.062 17.2983 186.702 16.782 187.44 16.4471C188.177 16.1121 188.988 15.9694 189.795 16.0321C193.133 16.0336 195.32 18.414 195.32 22.044Z" fill="#919191"/>
<path id="Vector_13" d="M199.009 16.3504C200.796 16.3504 202.246 14.9031 202.246 13.1178C202.246 11.3326 200.796 9.88531 199.009 9.88531C197.222 9.88531 195.772 11.3326 195.772 13.1178C195.772 14.9031 197.222 16.3504 199.009 16.3504Z" fill="#919191"/>
</g>
</svg>
