<?xml version="1.0" encoding="UTF-8"?>
<svg version="1.1" viewBox="0 0 2048 694" width="200" height="57" xmlns="http://www.w3.org/2000/svg">
<path transform="translate(0)" d="m0 0h2048v694h-2048z" fill="#FFFEFE"/>
<path transform="translate(219,168)" d="m0 0h1723v85l-13 28-22 44-22 46-23 46-11 23-13 26-11 23-18 36-2 2h-122l1-5 8-16 16-33 20-41 26-53 23-47 25-51 9-18h-1594l-1-2v-28z" fill="#12BD69"/>
<path transform="translate(639,317)" d="m0 0h26l22 2 20 4 16 5 19 9 14 10 12 12 9 14 5 11 4 14 2 16v14l-3 21-5 15-7 13-8 10-9 9-13 9-15 8-21 7-21 4-22 2h-23l-22-2-21-4-18-6-16-8-11-7-13-12-10-14-7-15-4-16-1-7v-27l3-16 5-14 7-13 9-11 11-10 14-9 15-7 16-5 20-4z" fill="#000100"/>
<path transform="translate(236,318)" d="m0 0 50 1 10 19 14 27 10 19 12 23 10 19 15 28v2h2l2-5 10-20 10-19 12-23 10-19 15-28 10-20 2-3h68v205h-65l-1-87-23 45-11 22-11 20h-58l-5-8-26-52-10-19-4-8-1 87h-65v-205z" fill="#000201"/>
<path transform="translate(1506,317)" d="m0 0h25l23 2 24 5 19 7 13 7 11 8 10 9 9 12 8 16 5 19-68 1-8-10-9-8-14-7-16-4-7-1h-24l-15 3-12 4-12 7-7 6-6 10-3 8v21l5 12 9 10 9 6 13 6 20 4h23l18-3 13-5 11-7 8-9 5-12 2-12 1-1h63l1 1v102h-65l-1-28-12 11-14 8-12 5-17 4-18 2h-20l-19-2-21-5-13-5-15-8-15-12-9-11-8-13-5-13-3-13-1-6v-32l4-18 6-15 8-12 9-10 9-8 13-8 15-7 19-6 24-4z" fill="#000201"/>
<path transform="translate(1148,318)" d="m0 0 47 1 13 14 9 11 13 14 9 11 13 14 9 11 12 13 9 11 12 13 8 10 1-122 14-1h22l29 1v205h-65l-7-7-9-11-13-14-9-11-12-13-9-11-12-13-7-8-12-14-10-11-7-8-1 121h-65v-205z" fill="#000101"/>
<path transform="translate(777,319)" d="m0 0h71l10 27 22 57 20 52 5 12 22-57 35-91h71l-10 25-18 44-19 46-16 39-19 46-2 5h-88l-38-92-18-44-19-46z" fill="#000100"/>
<path transform="translate(1825,241)" d="m0 0h32l-2 5-18 30-14 23-16 26-15 25-11 18-68 112-9 15-9 14-3 5-1-2 12-25 13-26 11-23 13-26 11-23 13-26 11-23 13-26 11-23 14-28h-1105l-351-1v-1l288-3 208-4 64-1 187-2 57-1 90-1 57-1 215-3 89-1 45-1 99-1z" fill="#098A48"/>
<path transform="translate(1078,318)" d="m0 0 29 1v205h-65v-205z" fill="#000301"/>
<path transform="translate(640,372)" d="m0 0h25l16 3 13 5 10 6 9 8 6 10 2 6v22l-4 11-8 10-10 7-10 5-13 4-13 2h-22l-20-4-16-8-8-6-8-9-5-13v-19l4-11 8-11 13-9 12-5 12-3z" fill="#FFFEFE"/>
</svg>
