<svg width="127" height="131" viewBox="0 0 127 131" fill="none" xmlns="http://www.w3.org/2000/svg">
<path d="M63.0009 70.0608C43.8283 70.0608 28.1914 54.4245 28.1914 35.2526C28.1914 16.0808 43.8283 0.444468 63.0009 0.444468C82.1735 0.444468 97.8104 16.0808 97.8104 35.2526C97.8104 54.4245 82.1735 70.0608 63.0009 70.0608ZM63.0009 5.42418C46.5672 5.42418 33.1713 18.8196 33.1713 35.2526C33.1713 51.6857 46.5672 65.0811 63.0009 65.0811C79.4346 65.0811 92.8305 51.6857 92.8305 35.2526C92.8305 18.8196 79.4346 5.42418 63.0009 5.42418Z" fill="white"/>
<path d="M125.996 130.514H0.0546875V128.025C0.0546875 93.3161 28.2907 65.0313 63.0504 65.0313C97.8101 65.0313 126.046 93.2663 126.046 128.025V130.514H125.996ZM5.0844 125.535H120.967C119.672 94.7104 94.1748 70.011 63.0006 70.011C31.8264 70.011 6.37916 94.7104 5.03459 125.535H5.0844Z" fill="white"/>
</svg>
