<svg width="33" height="41" viewBox="0 0 33 41" fill="none" xmlns="http://www.w3.org/2000/svg">
<path d="M29.2741 13.2414H26.8339V10.2037C26.8339 4.57668 22.2524 0.0451355 16.6749 0.0451355C11.0974 0.0451355 6.51593 4.62647 6.51593 10.2037V13.2414H4.07577C2.18341 13.2414 0.589844 14.7851 0.589844 16.7272V36.5464C0.589844 38.4885 2.13361 40.0322 4.07577 40.0322H29.3239C31.266 40.0322 32.8098 38.4885 32.8098 36.5464V16.7272C32.8098 14.8349 31.266 13.2414 29.3239 13.2414H29.2741ZM11.0974 10.2037C11.0974 7.11633 13.5874 4.6265 16.6749 4.6265C19.7625 4.6265 22.2524 7.11633 22.2524 10.2037V13.2414H11.0974V10.2037ZM18.5673 30.8197V35.8991C18.5673 35.8991 18.3681 36.2477 18.1689 36.2477H15.7287C15.7287 36.2477 15.3801 36.0983 15.3801 35.8991V30.8197C13.7368 30.1724 12.5416 28.5789 12.5416 26.6866C12.5416 24.2466 14.5336 22.2546 16.9737 22.2546C19.4139 22.2546 21.4058 24.2466 21.4058 26.6866C21.4058 28.5789 20.2106 30.1724 18.5673 30.8197Z" fill="#E3E3E3"/>
</svg>
